<svg xmlns="http://www.w3.org/2000/svg" width="63.509" height="58.955" viewBox="0 0 63.509 58.955"><g transform="translate(4531.529 -733.627) rotate(90)"><g transform="translate(737.601 4473.136)"><path d="M4804.351,1618.147c2.872-3.117,6.588-7.056,8.371-10.947,1.358-2.962.924-4.187-.113-.6a56.472,56.472,0,0,1-2.708,7.162c-3.414,7.71-7.59,14.974-9.306,23.318-.364,1.772,1.256,4.059,3.286,3.234,4.93-2,6.456-6.328,8.846-10.78,1.075-2,10.025-18.2,12.029-17.475l-1.916-3.312c-4.044,10.189-8.858,20.049-12.94,30.211-1.228,3.055,3.234,4.031,4.844,1.955,3.879-5,7.85-9.933,11.84-14.848.963-1.186,9.019-12.4,9.811-12.151l-1.73-2.245a27.02,27.02,0,0,1-2.071,10.272c-.848,2.247,2.9,3.719,3.9,1.574a33.679,33.679,0,0,0,2.91-11.842,2.214,2.214,0,0,0-1.173-2.019c-5.086-2.159-8.281,4.645-10.987,7.969-5.509,6.768-11,13.547-16.664,20.189l4.164,3.1c5.421-9.719,9.471-20.387,13.42-30.77.554-1.454-.625-2.871-1.915-3.312-5.018-1.715-8.479,5.161-10.862,8.508a107.885,107.885,0,0,0-6.293,9.911c-1.557,2.782-3.352,8.763-6.579,9.961l3.286,3.234c1.714-7.187,5.286-13.489,8.415-20.11,2.165-4.585,6.071-11.823,5.015-17.054-.72-3.559-4.46-4.541-7.177-2.3-2.219,1.833-3.587,5.133-5,7.574a85.721,85.721,0,0,0-5.184,10.2c-.58,1.4,1.548,2.4,2.48,1.391Z" transform="translate(-4800.543 -1597.783)" fill="#ffb900"/></g><g transform="translate(736.589 4471.207)"><path d="M4795.785,1591.2c-.332,16.849.2,34.18,1.406,50.988.272,3.785,5.865,3.831,6.026.006a333.157,333.157,0,0,0-1.755-50.989c-.4-3.487-5.6-3.672-5.678-.006Z" transform="translate(-4795.688 -1588.521)" fill="#353535"/></g><g transform="translate(733.628 4489.162)"><path d="M4786.283,1716.31c16.039-14.058,33.313-25.372,51.855-35.78,3.727-2.092.446-7.219-3.268-5.488-19.422,9.047-37.359,22.428-52.544,37.438-2.592,2.563,1.31,6.149,3.957,3.83Z" transform="translate(-4781.474 -1674.69)" fill="#353535"/></g><g transform="translate(734.813 4468.02)"><path d="M4788.547,1578.226c15.768,9.617,34.4,16.839,52.289,21.332,4.126,1.036,5.839-4.93,1.8-6.293-17.481-5.892-34.242-12.711-51.267-19.784-3.155-1.311-5.975,2.82-2.817,4.745Z" transform="translate(-4787.166 -1573.229)" fill="#353535"/></g></g></svg>