<svg xmlns="http://www.w3.org/2000/svg" width="17.04" height="30.14" xmlns:v="https://vecta.io/nano"><path d="M2.195 11.828c.508-.958 1.21-1.8 2.06-2.473L3.622 9c-.279 1.398-.692 2.765-1.234 4.083-.11.196-.042.444.154.554s.444.042.554-.154l2.858-4.492-.92-.371-2.265 6.483c-.208.6.729.955 1.02.412 1.136-2.342 2.526-4.552 4.147-6.589l-.924-.518a56.25 56.25 0 0 1-3.537 8.355c-.128.247-.036.552.207.687s.55.052.693-.187l5.111-8.99-.92-.371q-2.147 5.707-4.272 11.423c-.2.55.694.9.95.383q2.928-5.9 5.857-11.792l-.932-.114a2.87 2.87 0 0 1-.4 1.677q-.368.88-.739 1.76l-1.412 3.36-2.822 6.719c-.23.548.7.908.961.388q1.56-3.146 3.114-6.3l3.2-6.259-.368-.363c.171 1.233-.618 2.665-1.067 3.781L9.165 16.08l-3.094 7.332 1.018.267 2.979-7.409c.965-2.288 1.8-4.936 3.368-6.9l-.9-.36c.012 1.349-.267 2.685-.816 3.917l-1.336 3.587c-.926 2.372-1.667 4.813-2.217 7.3-.057.292.122.577.41.653s.584-.086.677-.368q1.027-2.684 2.125-5.34.553-1.334 1.125-2.66c.273-.854.707-1.647 1.28-2.337l-.913-.106c.351.73-.163 1.657-.419 2.345l-.926 2.49q-.892 2.408-1.784 4.816c-.265.715.872.98 1.14.3a39.01 39.01 0 0 1 1.362-3.084c.388-.781.844-2.1 1.76-2.38l-.739-.557a17.8 17.8 0 0 1-.7 3.654c-.246.813-.949 1.793-.444 2.6q0-.292 0-.585l-.035.053.673-.275-.074-.021q0 .562-.01 1.124l.024-.007a.58.58 0 0 0 .393-.706.58.58 0 0 0-.693-.416l-.024.007c-.252.069-.428.297-.43.558s.169.493.42.566l.074.021a.62.62 0 0 0 .673-.274l.035-.052a.57.57 0 0 0 0-.586c-.088-.148.365-1.029.432-1.235l.428-1.557c.209-.943.353-1.899.431-2.862-.002-.181-.087-.351-.232-.46s-.332-.145-.506-.097a3.99 3.99 0 0 0-2.191 2.35 41.05 41.05 0 0 0-1.772 3.928l1.14.3q1.073-2.907 2.146-5.814c.529-1.437 1.584-3.2.848-4.718a.59.59 0 0 0-.913-.106 5.96 5.96 0 0 0-1.208 2q-.617 1.425-1.212 2.859-1.235 2.975-2.377 5.987l1.087.285c.572-2.595 1.341-5.143 2.3-7.621.853-2.329 2.233-4.928 2.031-7.468-.031-.4-.59-.748-.9-.359-1.544 1.963-2.395 4.437-3.365 6.714l-3.259 8.046c-.251.637.762.861 1.018.267l3.374-7.967 1.494-3.637c.56-1.102.825-2.33.769-3.565-.047-.179-.188-.318-.368-.363-.955-.3-1.4.692-1.746 1.395l-1.945 3.935q-1.907 3.857-3.812 7.714l.961.388 3.073-7.364 1.47-3.522c.422-1.01 1.032-2.037.8-3.161-.061-.193-.228-.332-.429-.357s-.397.07-.503.242q-2.926 5.9-5.876 11.781l.95.383q2.133-5.711 4.24-11.431c.2-.542-.65-.849-.92-.371l-5.139 8.975.9.5a52.64 52.64 0 0 0 3.706-8.58.55.55 0 0 0-.924-.518c-1.702 2.091-3.154 4.373-4.329 6.8l1.02.412 2.159-6.511c.176-.545-.648-.856-.92-.371l-2.7 4.583.75.3a16.53 16.53 0 0 0 1.228-4.289c.046-.351-.434-.456-.646-.26a9.33 9.33 0 0 0-2.04 2.7c-.171.341.336.623.515.289z" fill="#f7f7f7"/><g fill="#353535"><path d="M10.006 5.914a31.39 31.39 0 0 0-7.68 1.327c-.81.153-1.499.683-1.854 1.428-.399 1.133-.555 2.338-.458 3.536a42.6 42.6 0 0 0 1.347 7.394l1.715 7.7a3.86 3.86 0 0 0 1.135 2.278c.817.509 1.793.7 2.742.536a28.43 28.43 0 0 0 7.384-1.363 3.87 3.87 0 0 0 2.068-1.272 4.66 4.66 0 0 0 .635-2.779l-.368-7.976a57.34 57.34 0 0 0-1.125-8.4c-.414-1.737-2-3.728-3.968-2.614-.574.325-.062 1.165.511.859.972-.519 1.873.383 2.217 1.23a12.07 12.07 0 0 1 .565 2.621l.776 6.477.323 6.142a21.12 21.12 0 0 1 0 2.56 2.3 2.3 0 0 1-1.773 2.132 26.8 26.8 0 0 1-6.226 1.3 6.27 6.27 0 0 1-2.729-.042c-1.005-.406-1.112-1.693-1.319-2.624-.887-3.985-1.93-7.971-2.627-11.993a13.98 13.98 0 0 1-.232-3.474 6.68 6.68 0 0 1 .315-1.729c.251-.692.88-.863 1.528-1.052a41.66 41.66 0 0 1 7.087-1.371c.527-.059.571-.864.011-.834zM5.864 27.883c.936.26 1.936.159 2.8-.285.477-.241.141-.935-.347-.821a13.51 13.51 0 0 1-2.331.3.41.41 0 0 0-.393.351.41.41 0 0 0 .275.449zm4.353-.765c-.039.021.112-.032.129-.038.056-.02.114-.036.172-.049.035-.006.034-.007 0 0l.1-.008.2-.016a.45.45 0 0 0 .447-.385.45.45 0 0 0-.317-.498 1.13 1.13 0 0 0-.679-.006 1.5 1.5 0 0 0-.308.128 1.35 1.35 0 0 0-.259.229c-.354.336.1.872.511.645zm2.364-.655c.684.179 1.412.069 2.012-.305.435-.289.179-1.066-.369-.875a6 6 0 0 1-1.525.37c-.445.035-.612.689-.119.81z"/><path d="M1.664 10.032c-.066 1.874.207 3.745.805 5.523q.777 2.893 1.556 5.785c.31 1.152.381 3.094 1.841 3.33a10.51 10.51 0 0 0 2.46-.145l2.864-.248c1.2-.119 2.544-.359 3.217-1.483.8-1.336.4-3.274.339-4.737l-.254-6.013a5.33 5.33 0 0 0-1.105-3.609c-1.127-1.132-2.781-.857-4.2-.636L2.722 9.091a.49.49 0 0 0-.345.598.49.49 0 0 0 .598.345q2.136-.509 4.3-.909a13.22 13.22 0 0 1 4.347-.506c1.488.259 1.78 1.756 1.862 3.046l.19 4.444.182 4.478c.099.721-.099 1.452-.55 2.023a3.34 3.34 0 0 1-1.971.676l-4.36.428a2.6 2.6 0 0 1-.8.054c-.545-.157-.647-.507-.774-.973l-.642-2.382-1.375-5.1a18.35 18.35 0 0 1-.882-5.279c.015-.534-.782-.512-.83 0zm7.524-4.797c.303-.456.786-.76 1.328-.837s1.09.083 1.507.437c.425.291.895-.344.549-.7-.593-.582-1.427-.847-2.248-.715a2.61 2.61 0 0 0-1.909 1.385c-.103.211-.023.467.182.582s.464.05.591-.148zm-.928-1.22c.8-1.889 3.088-1.386 4.615-.771.467.188.8-.579.35-.812-1.815-.93-5.246-1.269-5.765 1.373-.046.216.086.431.3.487s.434-.066.5-.277zM7.201 2.801C8.579.509 11.422.751 13.483 1.83c.428.224.954-.351.552-.706C12.893.211 11.416-.172 9.975.071S7.263 1.16 6.484 2.397c-.091.196-.016.429.173.534a.41.41 0 0 0 .545-.134z"/></g></svg>