<svg xmlns="http://www.w3.org/2000/svg" width="82.924" height="89.455" xmlns:v="https://vecta.io/nano"><g fill="#ffb800"><path d="M70.135 7.286q-1.856 2.319-3.71 4.639c-.228.284.177.672.4.39l3.71-4.639c.229-.283-.177-.672-.4-.389zM4.323 40.003a47.74 47.74 0 0 1 11.673-6.246q-.237-.559-.473-1.119a72.04 72.04 0 0 0-13.058 9.428c-.577.521.165 1.344.8 1.01l15.433-8.018q-.359-.6-.715-1.2c-6.116 3.859-12.22 7.947-16.547 13.859-.377.516.385 1.242.892.865C8.14 44.245 14.06 40.037 20.68 37.006l-.777-1.3c-6.174 3.976-11.927 8.57-17.17 13.712a.78.78 0 0 0 .955 1.208q8.755-5.108 17.528-10.183l-.8-1.336c-5.942 4.1-11.988 8.388-15.669 14.772a.79.79 0 0 0 1.092 1.061q8.476-5.265 16.98-10.488l-.956-1.208-15.8 14.088c-.676.6.2 1.665.956 1.207L24.085 48.19l-1.157-1.125c-4.392 5.7-12.163 8.146-15.282 14.926-.325.7.416 1.7 1.186 1.152l16.524-11.732-1.053-1.331a160.1 160.1 0 0 0-13.919 14.4c-.607.711.187 1.914 1.057 1.336q7.189-4.778 14.379-9.558l-1.061-1.34q-6.488 7.858-12.974 15.716c-.319.344-.304.88.033 1.206s.873.323 1.207-.006l15.542-12.543-1.237-1.2c-4.566 4.222-8.694 8.894-12.322 13.945-.574.8.716 1.724 1.362 1.014a82.26 82.26 0 0 1 16.747-14.045l-1.03-1.3c-5.837 5.263-11.722 10.65-15.709 17.512-.488.842.735 1.8 1.385 1.031 5.119-6.098 11.256-11.263 18.138-15.266l-1.043-1.318c-6.075 5.254-12.091 10.556-17 16.955-.557.727.614 1.468 1.22.909 4.583-4.201 9.473-8.054 14.63-11.526l-.931-1.175a130.39 130.39 0 0 0-15.273 18.314c-.489.71.64 1.534 1.2.892a84.5 84.5 0 0 1 12.5-11.768l-1.092-1.059a93.35 93.35 0 0 0-9.8 12.734c-.44.683.545 1.34 1.1.816l9.044-8.477-1.144-.851-7.407 11c-.466.7.581 1.418 1.142.851l3.412-3.446 1.706-1.723.853-.862c.427-.27.667-.755.622-1.258-.814.135-.481 1.345.325 1.212 1.367-.226.68-2.322-.741-1.782-1.187.451-2.2 1.959-3.09 2.833l-4.116 4.031 1.142.851 7.409-11c.471-.708-.571-1.4-1.144-.852l-9 8.519 1.094.815a103.49 103.49 0 0 1 9.689-12.351c.69-.758-.336-1.646-1.092-1.059A88.49 88.49 0 0 0 17.634 82.99l1.2.891a130.4 130.4 0 0 1 15.046-18c.6-.6-.2-1.672-.931-1.176a143.79 143.79 0 0 0-14.956 11.759l1.1 1.064c4.94-6.255 10.987-11.5 17-16.681.757-.653-.223-1.794-1.043-1.319A70.32 70.32 0 0 0 16.531 75.04q.691.517 1.384 1.031c3.925-6.734 9.674-12.013 15.394-17.2.714-.648-.225-1.817-1.031-1.3-6.276 4.037-12.027 8.839-17.119 14.294l1.362 1.014a97.18 97.18 0 0 1 12.062-13.587c.844-.785-.393-1.88-1.237-1.2l-15.545 12.54 1.24 1.2q6.49-7.857 12.976-15.716c.591-.715-.179-1.925-1.061-1.34L10.58 64.338q.528.669 1.058 1.336a160.1 160.1 0 0 1 13.915-14.4c.72-.658-.249-1.9-1.054-1.331q-8.262 5.87-16.521 11.738l1.185 1.152c3.083-6.707 11-9.153 15.248-14.946.513-.7-.487-1.546-1.158-1.125L6.244 57.206l.956 1.208L23 44.326c.674-.6-.205-1.67-.955-1.208q-8.492 5.241-16.989 10.473l1.091 1.062c3.563-6.1 9.4-10.248 15.084-14.21a.78.78 0 0 0 .268-1.068.78.78 0 0 0-1.068-.268Q11.68 44.221 2.906 49.295l.956 1.207a111.78 111.78 0 0 1 16.83-13.492.76.76 0 0 0-.777-1.3C13.322 38.783 7.51 43.19 1.686 47.491l.89.865c4.216-5.7 10.262-9.509 16.135-13.291a.7.7 0 0 0-.715-1.2l-15.381 8.1.8 1.01c3.932-3.509 8.203-6.617 12.751-9.279.587-.345.2-1.385-.473-1.12A45.61 45.61 0 0 0 3.9 39.455c-.317.253.11.792.438.551z"/><path d="M30.885 57.881c5.623-4.077 10.903-8.608 15.787-13.547.592-.594-.284-1.36-.9-.869q-5.064 4.059-10.067 8.189c-2.815 2.319-5.843 4.525-7.887 7.6a.7.7 0 0 0 .962.935l16.159-10.974-.893-1.128-7.307 7.574c-1.851 1.926-4.729 4.034-5.3 6.787-.14.668.6 1.377 1.25.933q5.782-3.971 11.541-7.975l-1.064-1.345-6.785 6.48c-1.863 1.779-3.82 3.457-4.762 5.92a.9.9 0 0 0 1.327.992q4.1-2.87 8.185-5.744l-1.078-1.362-8.112 10.349c-.58.752.518 1.551 1.211 1.176l2.27-1.25-1.15-1.118-2.838 3.926c-.436.613.564 1.343 1.045.779l3.116-3.719a.83.83 0 0 0-1.018-1.287c-.778.379-1.546.777-2.314 1.176l1.072 1.354 7.981-10.163c.566-.723-.181-1.992-1.079-1.363q-4.094 2.867-8.2 5.72l1.328.992c.924-2.441 3.3-4.206 5.126-5.964q2.96-2.843 5.92-5.687c.706-.68-.24-1.92-1.065-1.346q-5.758 4.009-11.513 8.022l1.25.934c.309-1.553 1.5-2.591 2.541-3.7l3.093-3.284 6.377-6.8c.544-.588-.185-1.627-.894-1.128L28.074 58.997q.482.467.962.935c2.082-3.117 5.3-5.342 8.157-7.7q4.761-3.927 9.479-7.905l-.9-.869c-4.747 5.009-9.835 9.684-15.229 13.989-.245.2.084.611.339.427z"/><path d="M35.131 49.721q8.974-5.509 17.933-11.038l-.755-1.268c-5.641 3.486-11.224 7.082-16.774 10.709-.781.509-.058 1.727.728 1.223a99.51 99.51 0 0 0 16.706-13.285c.457-.458-.006-1.417-.674-1.144-5.836 2.385-11.358 5.476-16.441 9.206-.719.528-.028 1.706.7 1.179q9.064-6.537 18.132-13.074c.353-.21.468-.666.258-1.019s-.666-.468-1.019-.258L40.219 38.42l.784 1.319 18.509-11.481c.381-.227.506-.719.279-1.1s-.719-.506-1.1-.279q-7.755 3.433-15.5 6.9l.814 1.368q9.618-5.585 18.71-12.007c.666-.472.3-1.721-.592-1.4-4.646 1.661-9.087 3.847-13.238 6.515-.344.205-.457.65-.252.994s.65.457.994.252A87.89 87.89 0 0 0 64.952 19.42c.623-.513-.059-1.412-.736-1.25-3.743.892-7.23 2.632-10.193 5.087-.7.579.2 1.563.932 1.178 5.191-2.736 10.08-6.01 14.587-9.769.615-.512-.052-1.433-.74-1.256-4.575 1.172-8.95 3.02-12.979 5.484a.75.75 0 0 0 .767 1.289 117.32 117.32 0 0 0 13.121-7.849c.651-.45.281-1.66-.57-1.35l-5.507 2.009q.286.672.568 1.342a56.33 56.33 0 0 0 8.761-5.4c.309-.186.434-.571.294-.903s-.504-.511-.853-.419a16.51 16.51 0 0 0-5.517 2.479c-.627.434-.263 1.645.555 1.312q5.55-2.268 10.879-5.015-.368-.621-.738-1.243-2.6 1.431-5.171 2.9c-.668.381-.223 1.559.531 1.258a17.75 17.75 0 0 0 8.124-6.392c.459-.656-.613-1.218-1.065-.6-1.862 2.574-4.442 4.543-7.416 5.66l.531 1.258q2.615-1.4 5.2-2.841c.837-.464.095-1.677-.738-1.243q-5.145 2.681-10.513 4.871l.554 1.312a15.37 15.37 0 0 1 5.155-2.318l-.559-1.322a56.31 56.31 0 0 1-8.772 5.379c-.312.189-.439.579-.297.916s.509.518.863.426q2.755-1 5.508-2l-.57-1.35c-4.201 2.893-8.587 5.509-13.129 7.832l.767 1.289a46.04 46.04 0 0 1 12.6-5.316q-.369-.629-.74-1.257a82.1 82.1 0 0 1-14.271 9.525l.934 1.178c2.763-2.27 6.01-3.876 9.491-4.694l-.737-1.25a82.41 82.41 0 0 1-14.982 9.886q.371.623.742 1.246a63.04 63.04 0 0 1 12.893-6.28q-.294-.7-.592-1.4-9.113 6.376-18.737 11.959c-.929.537-.112 1.779.814 1.368q7.755-3.44 15.5-6.887-.412-.689-.821-1.379L40.208 38.421c-.364.216-.484.687-.267 1.052s.687.484 1.051.267q6.841-3.756 13.683-7.511l-.761-1.277q-9.042 6.578-18.073 13.172l.7 1.179c4.964-3.683 10.371-6.727 16.095-9.06q-.335-.571-.674-1.143a87.97 87.97 0 0 1-16.441 13.024l.728 1.223 16.8-10.664c.81-.53.055-1.8-.755-1.268q-8.823 5.761-17.642 11.526c-.207.132-.272.404-.146.615s.396.284.61.165z"/></g><g fill="#707070"><path d="M.384 40.871c3.088-.511 5.859-2.731 8.6-4.156l4.539-2.184a41.62 41.62 0 0 0 4.836-2.135c.671-.417.2-1.266-.5-1.172a18.75 18.75 0 0 0-4.434 1.524l-4.807 2.271c-2.964 1.558-5.647 3.525-8.474 5.3a.3.3 0 0 0 .232.551z"/><path d="M1.623 40.258a108.2 108.2 0 0 0 3.879 12.789q2.155 6.315 4.768 12.461c3.394 7.965 7.571 16.311 13.34 22.847.648.734 2-.251 1.412-1.079-2.563-3.628-5.156-7.157-7.366-11.024-2.132-3.785-4.071-7.676-5.81-11.657-1.817-4.093-3.437-8.27-5.018-12.458-1.516-4.017-2.82-8.225-4.65-12.111-.149-.316-.622-.082-.556.231zm15.958-7.748c.753 2.2 1.9 4.28 2.819 6.414q1.541 3.593 2.888 7.262 1.288 3.5 2.354 7.08c.671 2.247 1.176 4.715 2.4 6.741a.88.88 0 0 0 1.6-.664 142.62 142.62 0 0 0-4.835-14.45 77.57 77.57 0 0 0-2.982-6.462 35.84 35.84 0 0 0-3.721-6.221c-.19-.235-.621.021-.524.3z"/><path d="M28.356 59.189c5.368-8.926 10.692-17.883 17.059-26.148 6.273-8.247 13.551-15.678 21.665-22.121q3.482-2.728 7.188-5.158c2.453-1.606 5.189-2.884 7.537-4.629.506-.376.246-1.34-.463-1.093a34.26 34.26 0 0 0-6.629 3.6c-2.284 1.426-4.516 2.941-6.673 4.553-4.178 3.127-8.136 6.539-11.845 10.21a143.35 143.35 0 0 0-19.722 24.616c-3.282 5.065-6.168 10.375-8.634 15.884a.3.3 0 0 0 .517.29zM82.342 1.284a281.6 281.6 0 0 0-25.184 30.891c-7.9 11.317-14.3 23.594-20.923 35.677l-5.607 10.227c-1.864 3.4-4.216 6.834-5.537 10.486-.322.894.931 1.174 1.4.565 2.09-2.7 3.543-6.06 5.2-9.049l5.2-9.4 10.118-18.367a254.21 254.21 0 0 1 21.9-32.967l13.96-17.674c.231-.3-.272-.657-.522-.389z"/></g></svg>