<svg xmlns="http://www.w3.org/2000/svg" width="36.673" height="64.867" viewBox="0 0 36.673 64.867"><g transform="translate(3.541 15.445)"><path d="M2809.7,2147.8a16.892,16.892,0,0,1,4.434-5.323l-1.361-.764a47.54,47.54,0,0,1-2.656,8.786.875.875,0,0,0,1.525.856c2.01-3.253,4.027-6.488,6.15-9.669l-1.979-.8c-1.663,4.638-3.264,9.3-4.875,13.953-.446,1.289,1.57,2.056,2.2.886,2.641-4.94,5.25-9.911,8.925-14.18l-1.989-1.116a121.039,121.039,0,0,1-7.611,17.983,1.108,1.108,0,0,0,1.931,1.084c3.655-6.456,7.3-12.917,11-19.349l-1.98-.8q-4.621,12.283-9.194,24.584c-.44,1.184,1.494,1.934,2.045.825q6.3-12.689,12.605-25.377l-2.006-.247c.268,1.289-.371,2.464-.85,3.61q-.792,1.895-1.591,3.787l-3.037,7.23-6.074,14.461c-.5,1.178,1.514,1.954,2.069.835q3.357-6.771,6.7-13.549c.6-1.22,6.208-13.678,6.877-13.469l-.793-.781c.37,2.654-1.33,5.735-2.3,8.138-1.019,2.536-2.1,5.048-3.165,7.564-2.228,5.256-4.475,10.5-6.66,15.78l2.191.574c2.008-5.364,4.186-10.669,6.412-15.946,2.077-4.923,3.883-10.623,7.249-14.851l-1.927-.774c.219,2.967-.762,5.684-1.758,8.43-.936,2.582-1.919,5.146-2.875,7.721a106.171,106.171,0,0,0-4.771,15.711,1.211,1.211,0,0,0,2.34.614q2.21-5.777,4.575-11.492,1.191-2.871,2.422-5.725c.748-1.732,1.379-3.685,2.754-5.03l-1.965-.229c.756,1.573-.352,3.566-.9,5.046q-1,2.68-1.991,5.36-1.922,5.182-3.839,10.365c-.57,1.539,1.875,2.11,2.452.643.886-2.253,1.854-4.469,2.931-6.637.835-1.68,1.816-4.516,3.788-5.123l-1.589-1.2a38.4,38.4,0,0,1-1.5,7.863c-.529,1.751-2.042,3.86-.956,5.59l0-1.26-.076.113,1.449-.591-.159-.046q-.011,1.209-.022,2.418l.053-.016a1.251,1.251,0,0,0-.647-2.416l-.052.016a1.256,1.256,0,0,0-.022,2.418l.159.046a1.334,1.334,0,0,0,1.449-.591l.076-.113a1.226,1.226,0,0,0,0-1.261c-.19-.317.786-2.215.931-2.657.36-1.1.664-2.222.92-3.352a45.368,45.368,0,0,0,.928-6.161,1.255,1.255,0,0,0-1.589-1.2c-2.462.756-3.6,2.9-4.715,5.058a88.422,88.422,0,0,0-3.814,8.453l2.452.643q2.31-6.257,4.619-12.514c1.138-3.091,3.41-6.885,1.825-10.154a1.271,1.271,0,0,0-1.965-.229,12.825,12.825,0,0,0-2.6,4.3q-1.329,3.066-2.61,6.153-2.658,6.4-5.116,12.885l2.34.614a112.657,112.657,0,0,1,4.95-16.4c1.835-5.012,4.807-10.605,4.372-16.073-.068-.856-1.269-1.61-1.927-.774-3.323,4.224-5.154,9.548-7.241,14.45-2.44,5.733-4.728,11.522-7.014,17.317-.54,1.371,1.64,1.853,2.191.574,2.459-5.7,4.848-11.427,7.26-17.146,1.1-2.6,2.2-5.2,3.215-7.828.962-2.5,2.033-4.953,1.655-7.672a1.093,1.093,0,0,0-.793-.781c-2.055-.64-3.011,1.489-3.758,3l-4.187,8.469q-4.1,8.3-8.2,16.6l2.069.835,6.615-15.848,3.164-7.58c.907-2.174,2.221-4.384,1.712-6.8a1.111,1.111,0,0,0-2.006-.247q-6.3,12.69-12.646,25.354l2.045.825q4.59-12.291,9.125-24.6c.43-1.166-1.4-1.827-1.98-.8-3.655,6.456-7.361,12.884-11.059,19.315l1.931,1.084a113.208,113.208,0,0,0,7.975-18.465,1.187,1.187,0,0,0-1.989-1.116c-3.813,4.41-6.631,9.5-9.317,14.646l2.2.886c1.563-4.666,3.137-9.329,4.647-14.013.378-1.173-1.4-1.843-1.979-.8-1.864,3.333-3.825,6.6-5.8,9.863l1.613.651a35.567,35.567,0,0,0,2.643-9.23c.1-.755-.934-.98-1.391-.559a20.057,20.057,0,0,0-4.391,5.816c-.367.735.723,1.342,1.109.622Z" transform="translate(-2808.512 -2137.793)" fill="#ffb900"/></g><g transform="translate(0 11.589)"><path d="M2778.342,2082.625a67.593,67.593,0,0,0-16.528,2.857c-1.763.551-3.248,1.279-3.99,3.073a18.434,18.434,0,0,0-.987,7.61c.222,5.377,1.736,10.684,2.9,15.913,1.23,5.526,2.409,11.065,3.69,16.579.418,1.8.935,3.7,2.444,4.9,1.66,1.329,3.9,1.259,5.9,1.153a61.192,61.192,0,0,0,15.892-2.934,8.33,8.33,0,0,0,4.45-2.738c1.235-1.728,1.372-3.929,1.366-5.981-.015-5.723-.309-11.464-.792-17.166a123.457,123.457,0,0,0-2.422-18.087c-.892-3.738-4.3-8.024-8.54-5.625-1.236.7-.135,2.508,1.1,1.848,2.092-1.116,4.031.825,4.77,2.648a25.937,25.937,0,0,1,1.216,5.641c.74,4.623,1.284,9.274,1.669,13.939.363,4.4.586,8.807.7,13.218a45.577,45.577,0,0,1,0,5.509c-.242,2.482-1.511,3.8-3.816,4.589a57.718,57.718,0,0,1-13.4,2.8c-1.8.166-4.15.605-5.875-.091-2.164-.874-2.393-3.643-2.839-5.647-1.909-8.576-4.154-17.154-5.655-25.812a30.066,30.066,0,0,1-.5-7.477,14.364,14.364,0,0,1,.679-3.72c.54-1.49,1.9-1.856,3.289-2.264a89.678,89.678,0,0,1,15.254-2.95c1.134-.126,1.228-1.858.024-1.795Z" transform="translate(-2756.806 -2081.487)" fill="#696969"/></g><g transform="translate(11.988 57.601)"><path d="M2932.482,2755.732a8.316,8.316,0,0,0,6.018-.614c1.027-.518.3-2.012-.747-1.768a29.113,29.113,0,0,1-5.017.651.884.884,0,0,0-.255,1.73Z" transform="translate(-2931.849 -2753.324)" fill="#696969"/></g><g transform="translate(20.616 56.102)"><path d="M3059.206,2733.7c-.083.046.24-.068.277-.081a2.947,2.947,0,0,1,.371-.1q.111-.021-.007,0c.073-.008.147-.014.22-.018.147-.013.294-.031.441-.034a.97.97,0,0,0,.279-1.9,2.434,2.434,0,0,0-1.462-.012,3.262,3.262,0,0,0-.663.275,2.914,2.914,0,0,0-.557.492c-.762.724.219,1.877,1.1,1.388Z" transform="translate(-3057.833 -2731.438)" fill="#696969"/></g><g transform="translate(26.431 54.352)"><path d="M3143.389,2708.494a5.537,5.537,0,0,0,4.332-.657c.936-.621.385-2.295-.794-1.882a12.928,12.928,0,0,1-3.281.8c-.957.076-1.317,1.483-.256,1.742Z" transform="translate(-3142.743 -2705.891)" fill="#696969"/></g><g transform="translate(3.502 16.36)"><path d="M2808.019,2156.378c-.386,4.079.684,7.981,1.733,11.886q1.673,6.226,3.348,12.451c.667,2.479.82,6.658,3.962,7.168a22.634,22.634,0,0,0,5.294-.312c2.054-.174,4.112-.33,6.164-.533,2.581-.255,5.476-.772,6.924-3.191,1.722-2.875.863-7.046.73-10.194-.182-4.313-.335-8.628-.546-12.94-.13-2.67-.379-5.759-2.378-7.766-2.426-2.437-5.984-1.846-9.046-1.37-4.68.729-9.312,1.669-13.915,2.781a1.051,1.051,0,0,0,.544,2.03q4.6-1.1,9.25-1.956c2.89-.532,6.407-1.6,9.354-1.088,3.2.558,3.831,3.78,4.008,6.556.2,3.183.276,6.378.41,9.564.135,3.209.347,6.426.392,9.636.021,1.491-.036,3.24-1.184,4.353-1.086,1.054-2.811,1.292-4.243,1.454-3.121.352-6.256.632-9.383.921a5.613,5.613,0,0,1-1.728.117c-1.172-.339-1.393-1.091-1.667-2.094-.465-1.708-.921-3.418-1.381-5.126q-1.479-5.492-2.958-10.984c-1.005-3.733-2.007-7.461-1.9-11.362.033-1.15-1.683-1.1-1.787,0Z" transform="translate(-2807.938 -2151.149)" fill="#696969"/></g><g transform="translate(17.99 7.277)"><path d="M3021.278,2022.52c1.581-2.184,3.959-2.33,6.1-.864.915.626,1.926-.74,1.181-1.51a5.63,5.63,0,0,0-8.947,1.441.954.954,0,0,0,1.664.933Z" transform="translate(-3019.494 -2018.529)" fill="#696969"/></g><g transform="translate(16.034 3.768)"><path d="M2992.676,1972.153c1.721-4.065,6.646-2.984,9.933-1.659,1,.405,1.73-1.246.754-1.747-3.907-2-11.289-2.731-12.408,2.955a.891.891,0,0,0,1.721.451Z" transform="translate(-2990.932 -1967.28)" fill="#696969"/></g><g transform="translate(13.834)"><path d="M2960.471,1918.295c2.966-4.934,9.085-4.411,13.519-2.089.922.483,2.053-.756,1.187-1.518-4.735-4.167-13.294-2.763-16.252,2.74a.887.887,0,0,0,1.545.867Z" transform="translate(-2958.809 -1912.266)" fill="#696969"/></g></svg>