<svg xmlns="http://www.w3.org/2000/svg" width="376.917" height="562.169" xmlns:v="https://vecta.io/nano"><style><![CDATA[.B{stroke:#707070}.C{fill:#fff}.D{stroke-miterlimit:10}.E{fill:none}.F{stroke:#666}.G{opacity:.17}.H{opacity:.21}.I{stroke-linecap:round}.J{fill:#3a3435}.K{stroke:#696969}.L{opacity:.55}.M{stroke:#636363}.N{stroke:#3a3435}.O{fill:#696969}.P{stroke:rgba(0,0,0,0)}]]></style><g class="J P"><path d="M14.065 213.683h.009c.616-.578 1.6-.851 3.069-.117a12.09 12.09 0 0 1 5.9 5.506l.624 1.2.24.332a6 6 0 0 1 1.31 4.058l.281.485.224.385.211.364.731 1.26.251.433.418.721.4.694.386.666.7 1.213.808 1.391 1.4 2.419 3.7 6.386q1.42 2.448 3 5.177l.181.311q.7 1.2 1.426 2.458l.3.52 1.306 2.251 4.478 7.717 4.324 7.453 1.322 2.278.869 1.5.752 1.3 1.579 2.72.637 1.1 1.848 3.184 1.653 2.849 1.437 2.476 1.713 2.951 1.775 3.061.975 1.68 2.615 4.507.674 1.162q.912 1.571 1.827 3.149l1.281 2.208c7.5-1.588 14.28 3.971 17.308 6.986 2.772-.749 9.405-1.115 12.75 10.854 2.355 8.429 5.61 12.639 8.072 14.727.998-.408 2.03-.73 3.084-.96.551 2.798.763 5.652.63 8.5.443-1.924.675-3.89.691-5.864l13.81 10.718c8.176-7.1 15.3-3.536 19.8.655l14.361-20.918-.081-.181 3.052-4.409.066.166.457-.665-2.331-6.056 19.553-18.876.34.631 1.087-1 .625-.971-34.77-53.492-.059.013-2.729-4.164a47.4 47.4 0 0 1-5.01.275c-22.834-.005-42.347-16.45-46.22-38.953H87.62a1.66 1.66 0 0 1-1.66-1.66v-12.585a1.66 1.66 0 0 1 1.66-1.659h7.564c1.034-6.049 3.252-11.834 6.526-17.024-1.64-4.248-2.493-6.95-2.493-6.95-28.455-20.335-11.781-44.315-11.781-44.315-7.234-26.674 13.515-42.046 13.515-42.046a102.79 102.79 0 0 1 31.763-39.949l.271-.3.315-.141a76.04 76.04 0 0 1 12.91-7.989c43.176-46.793 83.639-9.946 83.639-9.946 60.13-30.744 82.283 8.59 82.283 8.59 34.812 1.356 44.306 42.5 44.306 42.5 19.893 18.084 15.824 42.5 15.824 42.5 10.851 12.659-3.164 31.2-3.164 31.2-3.165 47.018-35.717 54.732-35.717 54.732-15.441 26.623-23.721 34.828-33.821 36.978a1.96 1.96 0 0 1-1.5-.277c-7.924 7.59-19.948 4.4-19.948 4.4l-47.923 63.295a23.37 23.37 0 0 1-2.416 1.625l2.581.067 1.879-2.817s13.246-1.172 32.95 6.737a63.23 63.23 0 0 1 10.217 4.222c10.854 5.866 40.992 39.394 48.045 58.65l.9 2.042c.886 1.909 1.302 4.002 1.215 6.104h.238s-.161.533-.525 1.532c-.084.283-.188.56-.31.829-2.722 7.123-12.726 29.461-38.828 54.414.244-.08.492-.147.744-.2l.638-.37.527.247a7.47 7.47 0 0 1 5.429 2.543 8.21 8.21 0 0 1 2.279 4.039l.634 1.123-.441 1.128c-.229 5.077-4.635 9.784-6.54 9.307l-1.865-2.175c4.769 7.47-7.629 11.331-7.629 11.331s-3.729 5.765-6.781 6.781c-1.84.614-8.733.733-14.215.584q.06.317.121.635l.192.025.057-.565.521 4.736c1.748 9.894 3 19.729 3.058 27.786l.32 2.912-7.1.8-11.754 2.009-.018.229.9-.158-2.518 32.007c2.25 3.772 3.287 8.144 2.97 12.525.878 7.132-40.883 6.919-42.046-.452-.267-5.221 1.375-10.36 4.619-14.459l.359-25.575a248.26 248.26 0 0 1-8.02.383l-2.521 35.41c.618.78 1.194 1.594 1.723 2.437-2.365 4.358-34.925 6.555-47.6 2.618-3.3-.667-2.944-26.932 16.809-24l.235-18.65c-2.41-.536-4.722-1.445-6.853-2.693 0 0-8.708-54.28-9.946-82.057-.333-10.95.257-21.908 1.765-32.758-2.147 1.034-4.941 1.344-8.548.643a3.14 3.14 0 0 1-.508-.1q-1.214-.263-2.444-.555l-.551-.017-1.005-.365a222.7 222.7 0 0 1-23.8-7.576c7.477 12.552 13.189 22.314 13.15 22.912-.443 6.648-6.876 5.47-7.679 4.7l-19-33.018-7.623-3.328-7.28-2.642 2.458-1.921c-1.525.591-3.089 1.074-4.682 1.446a61.22 61.22 0 0 1 1.821-9.907c-.762-1.216-1.404-2.502-1.917-3.842-2.605.638-5.346.431-7.826-.59-7.15-2.167-13.513-8.388-13.5-12.907a20.36 20.36 0 0 1-5.574-9.457 6.46 6.46 0 0 1-3.091-3.076c-.532-1.838-4.022-14.66 5.91-23.436l.056.148.406-.379 2.227 6.462a31.52 31.52 0 0 0 1.313.159l-.615-1.954-48.2-83.5a14.58 14.58 0 0 1-3.443-4.1c-2.533-4.374-2.61-9.062-.178-10.466zm55.24 113.56a14.19 14.19 0 0 1-.413 3.55l6.922-1.838c-2.261-.135-4.474-.717-6.509-1.712zm15.525 1.34l1.391-.138a15.55 15.55 0 0 0-1.438.064zm6.407 9.906l.348.538-.061-.529zm-6.3-.4l-6.724-8.847 2.318-.23a34.5 34.5 0 0 1-3.987.006c2.093 1.275 6.847 5.744 6.638 10.156.141-.007.283-.011.424-.015a2.91 2.91 0 0 1 1.33-1.071zm4.084-9.192l2.3 3.484c.142-1.557-.814-3.004-2.301-3.485zm91.1 161.38q-.09-.713-.181-1.433l-.187 1.422zm-1.774-98.956l.162 2.089.376-1.4-.031-.2-.32.556c-.074-.349-.129-.696-.192-1.046zm5.484-87.943l.171-.583c-.071.2-.139.414-.208.621zm11.837 2.309v.01l4.113.93c.929-.014 1.853.137 2.729.446.092.028.182.06.273.092l2.086-.244.037.666.234-.4.03-.3a46.93 46.93 0 0 1-9.51-1.201zm.707 53.483l-.067.523q.641-1.193 1.294-2.4zm154.2-288.659c.021.524.027 1.057.015 1.6.006-.544 0-1.078-.021-1.601zM255.238 14.92l.688.106 2.18.364-2.18-.364-.688-.106zM167.45 32.577l-.007.017zm45.315 4.061h0l.874-.626-.879.626zm-70.27 28.059a.2.2 0 0 0 0-.185.64.64 0 0 0-.166-.2.64.64 0 0 1 .166.2.2.2 0 0 1 0 .185zM251.55 98.734h0c-.049 2.203-.338 4.394-.862 6.535h0c.524-2.141.813-4.332.862-6.535zm-88.96 16.46c-.764-.162-1.511-.307-2.234-.435a49.15 49.15 0 0 0-7.556-.784 49.15 49.15 0 0 1 7.556.784 65.1 65.1 0 0 1 2.234.435zm49.626-4.705c.894.363 1.763.786 2.6 1.265-.837-.479-1.706-.902-2.6-1.265q-.254-.1-.529-.192c-4.083-1.426-8.359-2.221-12.682-2.358 4.323.137 8.599.932 12.682 2.358q.273.096.529.191zm5.176 2.784q.354.221.707.447h0q-.352-.226-.707-.447l-1.313-.8 1.313.799zm2.367 21.019h0a11.37 11.37 0 0 0 .309.643h0c-.108-.215-.217-.431-.308-.644zm-22.68-26.348q-.97.03-1.95.119.979-.091 1.95-.12zm-7.966 1.363l.167-.059c-.056.018-.111.04-.167.059zm81.467-7.213a1.34 1.34 0 0 1 .28.3 6.41 6.41 0 0 1 .381.612c.2.353.432.821.7 1.4h0c-.271-.579-.506-1.047-.7-1.4-.116-.211-.243-.415-.381-.612a1.34 1.34 0 0 0-.28-.3c-.031-.024-.067-.04-.105-.047.038.006.074.022.105.045zm7.8 42.441c-.115-.095-.213-.169-.3-.226a1.3 1.3 0 0 0-.206-.12 1.3 1.3 0 0 1 .206.12 5.9 5.9 0 0 1 .3.226c.25.208.584.518 1.018.95h0a15.14 15.14 0 0 0-1.013-.951zm-84.806-67.593l.039-.021-.039.021zm1.983-.925a31.77 31.77 0 0 1 1.825-.707c-.628.222-1.239.457-1.822.707zm16.485-1.32c-.903-.269-1.821-.484-2.749-.643a20.95 20.95 0 0 0-3.755-.3 20.95 20.95 0 0 1 3.755.3c.928.159 1.846.374 2.749.643zm-8.583-.807a26.39 26.39 0 0 0-2.1.327c.681-.134 1.382-.245 2.101-.327zm-62.736-22.758h-.025.025zm-1.128.074h0l-.539.018.54-.017zm90.582-7.614a78.18 78.18 0 0 1 4 .3c-1.295-.13-2.635-.233-3.999-.299zm-13.7 32.863a35.84 35.84 0 0 1 3.4 1.926 35.84 35.84 0 0 0-3.399-1.929zm8.222 5.479q-.773-.645-1.567-1.257.794.612 1.568 1.258zm6.5 6.239q-.67-.724-1.363-1.439.699.718 1.369 1.44zm-90-24.5c-.842-.367-1.777-.661-1.777-.661a30.13 30.13 0 0 0-6.126-.6 30.13 30.13 0 0 1 6.126.6 21.71 21.71 0 0 1 1.782.666zm33.4-45.42a18.14 18.14 0 0 0 .651-.113c-.237.052-.456.091-.643.119zm43.339 15.06a35.04 35.04 0 0 1 3.531-1.691 35.04 35.04 0 0 0-3.531 1.691q-.784.428-1.629.94.851-.508 1.637-.935zm5.807-2.53l-1.078.373 1.086-.367zm11.389 13.208c.955.109 1.882.232 2.774.366l-2.766-.36zm5.331.795l1.559.31-1.551-.304zm7.067 2.886a3.66 3.66 0 0 0 .43-.062 3.66 3.66 0 0 1-.43.062zm-12.468 15.962a29.45 29.45 0 0 1 1.784.056 16.88 16.88 0 0 0 5.972.929c-2.03.052-4.053-.263-5.971-.929a33.78 33.78 0 0 0-1.777-.05zm36.842-22.665h0c-.658-.136-1.324-.263-2-.373.685.116 1.354.243 2.008.379zM165.95 32.964c.844-.084 1.4-.191 1.479-.336h0c-.081.146-.635.252-1.479.336l-.537.048h0l.537-.048zm-1.315-1.177l.514.092-.514-.092zm2.742.7c-.154-.094-.32-.165-.495-.21.174.045.341.115.495.209zm37.96-20.37q-2.628-.28-5.214-.3 2.586.021 5.213.299zm37.423 33.144q.714.16 1.352.324-.635-.163-1.352-.324zm5.03 1.555c-.174-.09-.385-.186-.629-.284a7.27 7.27 0 0 1 .631.284zm.516.664c.061-.039.091-.113.072-.183-.027-.1-.148-.219-.353-.349.205.129.326.247.353.349.018.07-.01.144-.071.183zm20.984-29.606c-.714-.2-1.443-.391-2.181-.578l2.182.578zm-3.295-.852l-2.257-.52q1.135.25 2.258.52zm39.976 18.587c2.5.164 4.717.336 6.719.547h0c-2-.21-4.222-.383-6.72-.547zm41.369 108.843l.06-.006h0l-.06.006c-.974-.005-1.942.168-2.854.51.912-.342 1.88-.515 2.854-.51zm-3.079.713c.008-.024.041-.047.06-.071-.019.024-.052.046-.061.071zM95.53 115.744l.014-.018h0l-.014.018zM285.4 381.011l-.736-.176s-5.736-2-11.851-13.243c-.926-1.512-1.72-3.101-2.374-4.749l-7.424 30.709-1.028.694-.4 1.156c7.038-4.662 15.247-9.763 23.813-14.391zm-13.738 62.9l-3.517 5.934c.6-.986 3.882-6.059 8.676-6.979l-1.31-.483q-.843.708-1.7 1.416l-1.45-1.141-.358.236-2.186-2.29c-7.156-5.812-13.982-12.019-20.446-18.591l-.3.468z" class="G"/><ellipse cx="193.068" cy="543.78" rx="93.984" ry="17.89" class="G"/></g><g class="C"><path d="M56.035 333.172L51.578 333l2.057 6.172 5.142 5.143 8.229.857 5.829-3.772 1.543-4.285-2.057-4.629-4.114-4.457-7.886-1.543-1.2 5.143z" class="P"/><path d="M192.61 190.109l-1.835-10.092-5.81-3.976-5.5 7.645 1.223 7.34z" class="D N"/></g><path d="M210.925 116.057c10.624 4.521-3.369-5.163-7.685-6.781-5.425-2.035-18.084-4.973-27.579.9s-5.877-14.015-2.26-18.085 9.93-12.876 20.8-13.563c14.3-.9 24.131 8.59 29.9 16.9 5.883 8.478 17.576 23.34 18.48 2.091 0 0-3.165 9.494-6.782 6.329s-20.64-33.4-41.141-31.195c-6.838.735-12.207 4.069-15.371 6.329s-9.946 3.165-.452-10.4a55.96 55.96 0 0 1 52.9-22.6c23.961 3.164-14.241-9.494-30.97-.227 0 0 .452-10.85 24.64-16.05s-2.826-2.43-8.816-.678c-4.173 1.22-13.336 3.843-28.256 21.249 0 0-8.364 8.364-2.487-1.13s35.716-44.532 80.7-28.031c0 0 9.72 2.035 1.356-1.808s-25.318-6.555-31.195-6.555 42.045-16.05 63.521 14.919c0 0 14.919-.9 23.735 9.042s9.664 18.366-1.583 6.329c-6.167-6.6-11.585-7.743-25.374-8.647 0 0 34.191 11.812 19.723 26.957s-25.77-3.617-28.709-7.234-16.739-16.954-38.44-15.147c0 0 33.286 4.126 40.294 27.634 0 0 3 4.183-2.882 11.868s-8.025 1.64-12.32-2.429-15.823-15.145-25.092-14.467-15.371 3.164-21.7.9c0 0-10.4-.678-.452 2.712s9.946-2.034 21.926 2.035 37.3 19.44 21.25 39.107c0 0-3.617 5.877-7.234-2.261s-1.582 1.131-1.13 4.974 3.165 15.6-5.425 23.283-18.084 16.05-26.675 15.145c-8.257-.869-16.706-8.21-19.357-14.4 1.605 4.052 8.277 23.641-11.159 27.285-21.7 4.069-32.438-12.32-31.2-37.977.003.006 12.895-18.922 42.501-6.323zm71.093 75.274c1.583-1.695 10.06-13.562 13.111-20.571a21.57 21.57 0 0 1 11.759-11.745l7.573-3.174c14.354-2.26 19.666 11.981 19.666 11.981 2.148-3.731-2.939-13.677-7.46-16.276-3.636-2.091-3.5-4.521-1.469-6.555 3.331-3.331 6.895-11.246 6.895-11.246 22.888-9.155 27.127-18.818 27.127-18.818 5.595 21.7-15.6 27.974-20.853 28.313s-3.56 1.7 3.221 2.2 10.681-2.543 10.681-2.543c1.7 31.534-27.126 45.945-27.126 45.945a40.99 40.99 0 0 0-1.7-11.19s-3.391-9.833-2.2-.678a37.96 37.96 0 0 1-1.187 15.937c-12.7 27.832-25.94 32.212-25.94 32.212-5.425-12.885-21.136-7.325-16.192-9.155s4.094-24.637 4.094-24.637zm9.382-28.294c.452 7.2-11 21.482-11 21.482l-2.481-1.777-6.979-11.529c1.992-7.049 2.147-17.406 2.147-17.406 5.88 6.329 18.313 9.23 18.313 9.23zm-73.919-13.751c14.92 9.946 39.317-5.568 47.641-19.44a170.45 170.45 0 0 0 8.307-15.6c11.416 1.3 20.683 18.988 20.683 18.988s3.843 9.042 2.487.453-5.2-12.885-12.723-20.119-4.458-9.267-4.123-10.624 5.317-24.64 21.366-30.291 23.284 7.686 25.318 17.858 7.234 14.241 7.234 14.241 3.39 2.938-.452-4.069-1.809-6.33-4.747-18.537-12.434-16.047-8.815-16.047 9.494-4.747 12.207-9.494 5.931-3.344 7.008-1.357c2.2 4.069 1.459 5.12 2.034 8.364.588 3.309 1.244 7.742 0 12.32-.95 3.5-3.165 7.573-.9 8.251s2.034-2.034 2.034-2.034-.678-13.111 9.494-1.808 5.877 28.03 5.877 28.03c-8.363 9.946-9.493 11.133-13.11 14.524s-9.946 9.212-14.693.169a43.53 43.53 0 0 0-14.919-16.5c-3.391-2.034-3.391-.9-.452 2.034s6.555 9.268 6.555 9.268 11.076 14.693-6.555 29.84-37.073 3.842-42.046-1.583-3.165-2.26-3.165-2.26c1.583 5.877-3.463 21.207-3.463 21.207-6.175 13.973-57.8 18.8-67.8 16.77s-16.9-16.77-16.9-16.77c31.099 5.897 36.618-15.784 36.618-15.784z" fill="#8f8f8f" class="B"/><path d="M86.596 114.472c-2.939-.226-3.843-1.131-3.843-1.131-2.035-7.459-1.583-22.6 11.3-35.264s25.318-14.693 34.812-14.241 1.583-2.034 1.583-2.034c-16.5-3.391-32.326 8.59-32.326 8.59 15.371-30.744 45.888-37.3 49.053-37.977s19.667-.226 5.877-2.261-27.8 7.008-27.8 7.008c-.227-5.2 14.693-8.59 14.693-8.59 3.616-6.1 8.137-15.145 33.908-21.927s38.655 8.364 38.655 8.364c-14.693-5.877-28.483-5.651-41.368-.678s-2.26 1.808 1.356 1.356 8.138-1.808 17.406-1.808 20.571 6.1 14.242 11.528-10.4 10.172-14.919 14.467-13.337 18.084-10.4 10.624 3.616-19.214-3.617-22.831-1.13 1.808-1.13 1.808c8.589 5.651-3.617 29.613-3.617 29.613-8.138-14.919-26-15.371-37.751-11.3s4.973 1.356 7.686 1.13 12.432-2.034 21.927 8.138 0 28.257 0 28.257c-26.443-19.441-43.176.679-48.149 12.659s-9.72.452-9.72.452c-3.617 5.2 5.425 15.372 13.789 0s14.919-14.241 21.927-15.371 23.057 9.72 22.153 15.371-1.582 17.406-1.582 17.406c-27.579-8.364-33.456 2.486-37.073 7.007s.226 1.357 3.391-.678 6.555-5.425 16.05-5.425c9.762 0 18.762 6.555 18.762 6.555.9 17.858 5.877 26.223 8.59 30.518s1.356 8.816-2.487 12.432c-2.274 2.096-5.614 2.547-8.363 1.131 0 0-11.529 4.521-18.763-.453s-6.556-28.935-6.556-28.935c-8.363 14.694-26.9 31.874-44.984 14.241s-2.712-37.751-2.712-37.751zm43.858 36.397c.472 2.636 1.23 5.214 2.26 7.686 0 0-11.754 2.712-7.686-1.357s4.97-9.72 5.426-6.329zm-24.418 12.885l-5.652 5.651c-2.938-1.356-3.39-7.234-3.39-7.234 4.973 1.809 8.363 1.809 9.042 1.583zm69.85 2.486c9.946 14.467-1.808 20.345-1.808 20.345l-9.946-13.111c6.329-.226 11.754-7.234 11.754-7.234z" fill="#e7e7e7" class="B"/><g class="L"><g stroke="#fff" class="D E"><path d="M106.942 74.576s-15.6 8.138-18.65 23.735m44.737-39.524s-11.154-4.159-20.381 1.368m48.885-14.401s-15.6-7.459-28.822 1.018m38.316-25.771s-20.345 6.1-8.477-4.408m164.794 161.628s.549-11.529-6.776-9.042-4.762 13.563-3.113 16.5m-105.229-77.026s13.516 5.9 8.439 12.631-14.536.31-16.682-2.393m66.326-100.077s12.173 1.636 7.749 7.068-15.6.717-17.669-1.612m-137.973 92.95s-10.9 9.927-4.2 14.287 13.663-4.654 14.881-7.828m156.268 12.27s.009 8.406 7.969 7.121 4.436-10.081 2.882-12.546m21.192-25.431s-5.6-6.978-12.546-2.882 2.4 11.155 4.747 12.885m13.566-6.273s5.932 6.095 12.28 1.123-.99-10.97-3.541-12.377"/></g><path d="M350.574 148.156s.848 7.8-2.2 12.546c0 0 1.187-7.291.169-9.325 0 0-2.543-.339-9.155-2.882-.008 0 7.96 1.695 11.186-.339z" class="C"/><g stroke="#fff" class="D E"><path d="M251.896 132.05s-14.241 15.427-30.347 7.29m-107.14 10.941s-19.951 4.022-26.8-11.621m157.168-33.906s-1.356 9.833-9.833 7.121-7.8-6.273-13.224-12.376m7.967-38.599s9.72-1.583 17.18-3.391c7.365-1.786 19.44 7.233 19.44 7.233m-.903-27.126s17.858 2.26 30.066 20.8"/></g><path d="M286.653 77.628s8.816-10.172-8.138-20.8c0 .003 11.081 9.723 8.138 20.8z" class="B C"/><path d="M101.855 102.041s1.356 14.919 15.259 3.052" stroke="#fff" class="D E"/></g><g fill="#1c1c1c" class="B L"><path d="M163.341 125.769l3.617-8.59 18.084-7.686 15.372.9 13.562 6.329s-31.308-9.72-38.429 7.685c-3.952 9.661.164 21.143 3.617 26.675 5.645 9.041 34.99 12.834 31.564-17.849l.109.241c19.445 19.355 46.932-.065 48.8-15.96a164.04 164.04 0 0 0 1.011-17.291l3.391 6.973-1.69-6.3c3.857 7.34 10.817 2.1 8.477-9.156-1.454-7-12.282-22.116-29.84-23.4-13.193-.962-14.58-3.73-14.58-3.73l7.121.339 12.546-.678 10.512 2.034 14.217 10.778-6.418-7.048-15.259-8.478c5.765-1.017 10.158-1.009 16.954 4.408 7.98 6.361 21.385 18.656 18.989 0-1.9-14.743-25.88-24.622-32.787-26.487l14.477 2.412s-10.855-3.731 2.03-1.358 20.933 11 26.791 18.324c3.391 4.238 14.919 4.735 17.971-4.081 1.323-3.822.551-8.155-3.068-11.836-4.728-4.81-12.868-8.509-12.868-8.509l7.222 1.945-1.288-1.436s12.927-1.064 20.732 7.966c5.716 6.614-.67-6.215-8.582-9.605s-10.892-2.277-13.11-2.713l-4.3-.452c-4.521-6.1-7.008-11.3-24.866-16.276s-28.709.452-28.709.452l-8.477 1.13h2.825l11.077.226 9.946 1.808 9.494 3.843c-4.326.191-8.658-.189-12.885-1.13-7.685-1.582-23.284-.9-37.072 4.3a38.65 38.65 0 0 0-17.807 13.408l13.059-7.3 13.789-2.939 6.556-.9s-2.035 2.261-8.138 3.843-19.893 7.46-20.571 13.789l-6.33 3.391-3.977-2.431-3.934 4.917-6.206 4.344 2.589-1.405 20.118-7.686 17.18-1.356 8.816.9 4.294 1.582s-14.5-.937-27.681 2.995c-14.084 4.2-26.914 13.667-26.8 26.392l-.966 3.092 7.522-3.656 17.632 3.051 15.6 13.9 10.511 14.241s-5.89-2.239-17.632-14.241c-12.588-12.867-28.348-9.719-33.913-4.753-6.212 5.544-7.795 12.326-2.708 21.368l-15.937 8.478 2.035-30.178 11.551-5.615-3.865 1.546-4.973-3.843 3.391-17.632 8.024-4.35-.556-3.334 8.138-11.076 11.528-11.529 11.981-10.172 15.371-5.877h4.09l1.561-4.3 17.858-5.651 29.387 3.165 20.342 14.249 1.026 3.875 10.5.194 18.084 12.207 3.2 11 3.582-1.845 6.443 12.885-2.035 5.086c-.338-1.017-5.425-11.189-6.443-6.781s-3.4 7.8-9.5 8.479c0 0 6.784 8.133 6.444 17.289s-.33 10.174 2.043 17.634l-4.747-7.46-.878-3.7 1.216 7.435c-3.602-2.715-6.412-6.344-8.137-10.512-2.713-6.781-8.479-13.237-17.3-10.185s-12.916 9.871-15.263 14.582c-2.367 4.751-6.1 10.183.345 19 4.306 5.661 6.683 12.554 6.782 19.666l-5.425-7.8-1.1-1.179 6.863 13.725-2.034-1.017c-4.408-7.46-16.954-18.988-18.31-14.919s-11.528 15.258-14.919 19.327-8.477 3.052-2.034 4.747a25.29 25.29 0 0 1 10.511 5.765v4.386l3.789-4.026-4.127-7.481c2.015 2.319 20.344 10.172 30.177 6.781 15.927-5.492 21.061-11.194 21.362-22.04.339-12.206-8.477-22.379-8.477-22.379l4.923 4.683-2.888-4c7.121-.339 18.986 17.641 24.751 15.267s15.265-14.93 15.265-14.93c1.7-11.529-.331-14.9-4.739-22.7s-7.811-.353-7.811-.353l-1.7-.339 3.391-14.241 16.275 18.31.339 22.379-3.563 3.638 2.545-2.282 5.425 6.1-2.035 12.206-6.178 9.268-.6 9.042-4.747 18.65-15.937 18.649-11.854 7.114-.183-2.478c-2.776 14.25-14.453 26.214-14.453 26.214l-9.1 7.121-2.713 2.712-1.408.512-2.379 1.861.423-1.15-.366.133 2.034-12.207-4.747-5.765-8.816-1.695 3.052-20.006 5.765-13.224 4.922-11.485-3.9 4.364s-7.46-1.018-11.868-5.087c0 0 7.121 6.443 7.8 13.563l-2.713 7.46-6.442-13.9-8.478-13.368v2.517l-6.443-5.425-20.005-6.1 11.528-8.478 7.778-10.09-13.888 14.496-7.46 2.712-21.7 2.035-8.418-13.807 6.723 14.823-12.206 13.111-6 .48 2.611-.028-2.939 7.46c-3.616 1.808-11.3.678-11.3.678 2.486 3.843 9.268 7.912 9.268 7.912l-1.356 5.2-8.816-3.391-9.042-15.145 3.165-2.487.558-.006-8.7-7.906zm163.475-1.993l1.317 9-11.19 16.276-18.767 8.246 23.4-6.009-3.616-.543 8.477-13.562 3.391-6.782 4.909-.876-5.587-2.515zm-3.975 27.7l5.244 4.371-3.342-4.086zm15.427-22.584l1.055-.188.855-.766zm-50.485 72.714c-.339 2.034 1.017 2.374 6.1 4.408 3.942 1.577 6.043 4.187 6.476 10.009 18.434-16.958 20.933-42.56 20.933-42.56.169.376.307.756.454 1.134l-.059-.8s1.568 2.323 4.069 6.443c1.921 3.165 5.425-.339 5.425-.339 20.963-17.4 16.227-28.2 16.954-28.143-9.834-2.374-11.868-7.459-11.868-7.459s21.7-10.173 19.327-17.294-7.459 6.1-18.31 9.834c0 0-.339 3.73-5.425 8.138s3.052 13.224 2.035 17.971l-2.685-3.281 2.346 5.993s-13.9-13.562-27.127.339-5.425 6.1-10.85 13.224c0 0 5.087-1.7 4.747 4.069s-.339 13.224-.339 13.224 0 5.425-4.408 5.425-7.456-2.367-7.795-.332zm9.408-43.878l-2.627 1.154-2.4-.692 3.977 1.989zM280.52 87.763l-1.754-1.926 1.215 3.764zm47.224-35.293l-1.074 1.171 1.5-.773zm-10.8 17.238l-1.479-3.843-2.591 2.826-5.119.525zM297.95 68.69l.306.017-7.855-7.575 5.176 7.22-5.242 7.8zm-30.856 53.236l1.7-8.138 5.087-3.39 11.163 7.708-3.7-3.979-7.459-3.73 3.682-12.552-11.481 16.96-.1-.365-2.19 11.773z" class="H"/><path d="M252.284 39.49l-1.8-.3c.613-.012 1.224.09 1.8.3zm-29.491 48.076c1.13-.226 14.875 22 19.666 10.172l-1.808 6.329-3.843 2.261-5.877-4.3-7.686-11.755z" class="H"/></g><g fill="#1c1c1c" class="B L"><path d="M103.664 100.224s1.017 17.632 19.666-4.747c14.589-17.507 30.517-1.695 31.534 1.357a20.62 20.62 0 0 1-1.7 17.971l11.528 4.069 1.356-29.5-23.4-9.833-14.919 3.73-7.121 6.1-4.408 7.46-3.391 6.781-4.408 1.356z" class="H"/><path d="M123.33 124.298s25.77-10.512 32.212 2.712c5.4 11.084 8.477 20.684 8.477 27.127s-1.356 3.73-1.356 3.73-23.736 3.392-28.144-19.669l-3.052 7.8 23.4 20.345h17.293l4.747-8.816-8.819-12.883-3.391-25.77-14.241-2.713-11.19-2.034-9.494 2.374zm2.714-42.045s10.172-8.816 21.7-7.8c3.348.3 7.4 3.43 9.8 2.616 5.853-1.992 5.12-13.128.373-18.553-9.521-10.88-27.465-8.477-27.465-8.477l11.868-3.391 16.953 2.713 9.834 13.563-3.053 26.448-9.154-3.73-18.311-4.408-14.245 5.428-5.086 7.8-5.087 7.459z" class="H"/><path d="M176.566 162.954l7.121 14.241-4.069 7.46-5.086-5.764-2.374-12.546zm-89.857-48.489s-10.85 31.874 12.546 37.3 35.264-13.563 35.264-13.563l-3.052 9.834-31.2 15.6-13.222-9.837-11.19-19.667 4.408-16.953zm50.523-67.816s16.954-5.425 27.465-.678 12.207-12.546 7.8-18.31l4.409 2.373 2.374 8.816-8.138 27.465-8.816-13.224-11.528-6.1z" class="H"/><path d="M174.87 27.319a11.66 11.66 0 0 1 4.958 2.71 10.81 10.81 0 0 1 3.18 5.428c1.7 6.781 16.275-6.443 15.259-12.547s-5.426-8.815-32.213-6.1l10.512-3.39 20.006-1.357 15.6 7.8-9.494 8.816-14.923 14.24L177.243 57.5l-2.374-2.374 4.408-16.276-.678-5.764zm-41.367 36.285s-20.351-.343-32.9 12.2-20.677 29.165-13.9 38.659l-4.069 1.357-3.052-3.391 1.356-22.718 10.851-14.919 10.511-5.425 12.885-5.765 9.494-1.7z" class="H"/><path d="M158.594 31.392s-43.063 6.781-54.592 35.942l-8.138 6.1.339-4.747L108.41 49.36l15.6-9.834 20.345-7.459 5.764-1.356z" class="H"/><path d="M208.777 13.421s-37.3-20.684-64.085 14.919c0 0 6.781-.679 11.189 2.374l-9.155.678-14.918 4.411s-15.937 6.782-15.6 5.765 7.8-9.156 7.8-9.156l12.885-5.764 13.563-12.545 22.38-10.851 22.379-.339 17.632 7.121 5.765 8.138-10.85 4.068zm-91.896 77.648s-8.477 15.937-12.885 7.46l.339 3.73 4.747 3.052 4.069-3.391z" class="H"/></g><path d="M78.458 114.701c-7.234-26.675 13.516-42.046 13.516-42.046 15.776-35.264 45.258-48.375 45.258-48.375 43.176-46.793 83.639-9.946 83.639-9.946 60.131-30.743 82.283 8.59 82.283 8.59 34.812 1.356 44.306 42.5 44.306 42.5 19.893 18.084 15.824 42.5 15.824 42.5 10.85 12.659-3.165 31.2-3.165 31.2-3.165 47.018-35.716 54.732-35.716 54.732-15.44 26.628-23.719 34.835-33.823 36.984-3.8.81-4.442-8.968-9.24-9.215-3.371-.174-5.844.706-12.546-2.374-6.415-2.95 7.148-20.405 3.391-28.483-4.883-10.5-5.3-16.746-61.373-2.374-15.39 3.944-25.883-7.678-25.883-7.678-2.757 4.687-5.469 8.871-8.133 12.59-3.416 4.77-10.728-3.52-13.455-7.286-7.121-9.834-7.242-9.082-16.615-11.19-5.977-1.344-11.42-7.327-17.971-8.816-7.46-1.7-17.006 2.672-23.736 7.8-7.121 5.425-9.178-.055-11.4-5.585s-3.38-9.2-3.38-9.2c-28.454-20.348-11.781-44.328-11.781-44.328zM323.95 36.715c-8.816-9.947-23.736-9.042-23.736-9.042-21.476-30.97-69.4-14.919-63.521-14.919s22.831 2.712 31.195 6.555-1.356 1.808-1.356 1.808c-44.985-16.5-74.824 18.537-80.7 28.031s2.487 1.13 2.487 1.13c14.919-17.406 24.082-20.028 28.256-21.249 5.991-1.752 33-4.521 8.816.678s-24.64 16.05-24.64 16.05c16.728-9.267 54.93 3.391 30.969.227a55.96 55.96 0 0 0-52.9 22.6c-9.494 13.563-2.713 12.659.452 10.4s8.534-5.594 15.371-6.329c20.5-2.2 37.525 28.031 41.141 31.195s6.782-6.329 6.782-6.329c-.9 21.249-12.6 6.388-18.48-2.091-5.765-8.307-15.6-17.8-29.9-16.9-10.867.687-17.18 9.494-20.8 13.563s-7.233 23.962 2.261 18.084 22.153-2.939 27.579-.9c4.317 1.618 18.31 11.3 7.685 6.781-29.606-12.6-42.5 6.329-42.5 6.329.113 26.675 9.494 42.046 31.2 37.977 19.436-3.644 12.764-23.233 11.159-27.285 2.651 6.19 11.1 13.531 19.357 14.4 8.59.9 18.084-7.459 26.674-15.145s5.877-19.44 5.425-23.283-2.487-13.111 1.13-4.974 7.234 2.261 7.234 2.261c16.05-19.666-9.268-35.038-21.249-39.107s-11.98 1.356-21.927-2.035.452-2.712.452-2.712c6.329 2.26 12.432-.226 21.7-.9s20.8 10.4 25.092 14.467 6.443 10.116 12.32 2.429 2.882-11.867 2.882-11.867c-7.007-23.509-40.294-27.635-40.294-27.635 21.7-1.808 35.491 11.528 38.429 15.145s14.241 22.38 28.709 7.234S296.981 34.4 296.981 34.4c13.789.9 19.207 2.046 25.374 8.647 11.26 12.032 10.411 3.612 1.595-6.332zm-29.838 188.412s13.238-4.38 25.938-32.212c1.522-5.168 1.927-10.601 1.187-15.937-1.187-9.155 2.2.678 2.2.678a40.99 40.99 0 0 1 1.7 11.19c0 0 28.821-14.41 27.126-45.945 0 0-3.9 3.052-10.681 2.543s-8.477-1.865-3.221-2.2 26.448-6.612 20.853-28.313c0 0-4.238 9.664-27.127 18.818 0 0-3.564 7.915-6.895 11.246-2.034 2.034-2.166 4.464 1.469 6.555 4.521 2.6 9.608 12.546 7.46 16.276 0 0-5.312-14.241-19.667-11.981 0 0-3.391 1.356-7.573 3.174a21.57 21.57 0 0 0-11.755 11.745c-3.052 7.008-11.528 18.876-13.111 20.571 0 0 .846 22.81-4.1 24.64s10.771-3.733 16.197 9.152zm-16.192-42.385l2.481 1.777s11.45-14.287 11-21.482c0 0-12.433-2.9-18.311-9.23 0 0-.155 10.357-2.147 17.406zm-80.163-.9c10 2.034 61.625-2.8 67.8-16.77 0 0 5.045-15.33 3.462-21.207 0 0-1.808-3.165 3.165 2.26s24.414 16.728 42.046 1.583 6.555-29.84 6.555-29.84-3.617-6.329-6.555-9.268-2.939-4.068.452-2.034a43.53 43.53 0 0 1 14.919 16.5c4.747 9.042 11.076 3.222 14.693-.169s4.747-4.578 13.111-14.524c0 0 4.295-16.727-5.877-28.03s-9.494 1.808-9.494 1.808.226 2.713-2.034 2.034-.046-4.754.9-8.251c1.244-4.578.588-9.011 0-12.32-.575-3.244.169-4.3-2.034-8.364-1.077-1.987-4.3-3.39-7.008 1.357s-8.59 9.494-12.206 9.494 5.877 3.842 8.815 16.049.9 11.528 4.747 18.536.453 4.069.453 4.069-5.2-4.069-7.234-14.241-9.268-23.51-25.318-17.858-21.032 28.935-21.366 30.291-3.4 3.391 4.122 10.624 11.366 11.529 12.723 20.119-2.487-.453-2.487-.453-9.267-17.688-20.683-18.988a170.43 170.43 0 0 1-8.308 15.6c-8.324 13.872-32.721 29.387-47.64 19.441 0 0-5.52 21.681-36.621 15.782.005-.004 6.9 14.731 16.902 16.767zm-23.679 4.747s11.754-5.878 1.808-20.345c0 0-5.425 7.008-11.754 7.234zm-41.368-28.034c-1.03-2.472-1.788-5.05-2.26-7.686-.453-3.391-1.357 2.261-5.426 6.329s7.686 1.357 7.686 1.357zm-32.326 10.85l5.652-5.651c-.679.226-4.069.226-9.042-1.583 0 0 .456 5.878 3.391 7.234zm-11.077-17.18c18.084 17.632 36.621.453 44.984-14.241 0 0-.678 23.962 6.556 28.935s18.763.453 18.763.453c2.749 1.416 6.089.965 8.363-1.131 3.843-3.616 5.2-8.137 2.487-12.432s-7.686-12.659-8.59-30.517c0 0-9-6.555-18.762-6.555-9.494 0-12.885 3.391-16.049 5.425s-7.008 5.2-3.391.678 9.494-15.371 37.073-7.007c0 0 .678-11.755 1.582-17.406s-15.146-16.5-22.153-15.372-13.563 0-21.927 15.372-17.406 5.2-13.789 0c0 0 4.747 11.529 9.72-.452s21.7-32.1 48.149-12.658c0 0 9.494-18.084 0-28.257s-19.214-8.364-21.927-8.138-19.441 2.939-7.686-1.13 29.613-3.617 37.751 11.3c0 0 12.206-23.962 3.617-29.613 0 0-6.1-5.425 1.13-1.808s6.555 15.371 3.617 22.831 5.877-6.329 10.4-10.624 8.589-9.042 14.919-14.467-4.973-11.528-14.241-11.528-13.789 1.356-17.406 1.808-14.241 3.617-1.356-1.356 26.674-5.2 41.368.678c0 0-12.885-15.145-38.655-8.364s-30.292 15.824-33.908 21.928c0 0-14.92 3.391-14.694 8.59 0 0 14.015-9.042 27.8-7.008s-2.712 1.582-5.877 2.261-33.682 7.233-49.053 37.977c0 0 15.823-11.981 32.326-8.59 0 0 7.911 2.486-1.583 2.034s-21.927 1.582-34.812 14.241-13.337 27.8-11.3 35.264c0 0 .9.9 3.843 1.131 0-.002-15.372 20.116 2.712 37.748z" class="B O"/><g class="D K"><path d="M281.786 207.373s16.727-1.357 11.754 15.371-24.414 12.206-24.414 12.206l-47.923 63.294s-16.728 13.563-41.593 4.069l-64.653-99.461 72.337-13.563z" class="C"/><path d="M217.361 257.557s-6.736 4.8-21.362 5.765c-5.854.385-13.563.678-21.7-2.035" class="E I"/></g><g class="B"><path d="M216.212 231.33s7.14 9.272 29.293 10.876c0 0-26.675 50.841-32.1 56.719l7.8-.679 47.923-63.295s20.8 5.539 25.714-15.2l-3.222-10.794-12.206-1.356s-20.704 40.457-63.202 23.729z" class="G O"/><path d="M185.656 213.929c.057.444-6.827 9.361-15.654 10.624 0 0-5.425 12.433-29.839 17.18l-4.295-6.556 20.344-8.137 9.72-7.234c6.612-.08 12.632-1.582 19.724-5.877z" class="G J"/></g><path d="M271.944 228.703l6.341-6.49c1.107-1.133 2.349-2.334 3.924-2.5 2.323-.243 4.353 2.16 4.22 4.492a6.48 6.48 0 0 1-4.094 5.246 14.64 14.64 0 0 1-6.893.8 41.63 41.63 0 0 1-5.15-.7" class="C"/><path d="M78.642 182.989h7.564c3.876-22.498 23.389-38.937 46.219-38.937s42.343 16.439 46.219 38.937h13.346c3.876-22.498 23.389-38.937 46.219-38.937s42.343 16.439 46.219 38.937h9.261a1.66 1.66 0 0 1 1.66 1.659v12.583a1.66 1.66 0 0 1-1.66 1.66h-9.261c-3.876 22.498-23.389 38.937-46.219 38.937s-42.343-16.439-46.219-38.937h-13.346c-3.876 22.498-23.389 38.937-46.219 38.937s-42.343-16.439-46.219-38.937h-7.564a1.66 1.66 0 0 1-1.66-1.66v-12.582a1.66 1.66 0 0 1 1.66-1.66z" class="O"/><circle cx="238.209" cy="190.94" fill="#faa81a" r="41.871"/><circle cx="238.209" cy="190.94" fill="#666" r="40.077"/><path d="M238.209 152.559c19.337.006 35.65 14.396 38.068 33.582s-9.814 37.174-28.545 41.977-38.111-5.078-45.224-23.059a37.91 37.91 0 0 1-2.68-14.119c0-21.197 17.184-38.381 38.381-38.381z" fill="#c3dbef"/><circle cx="132.426" cy="190.941" fill="#faa81a" r="41.654"/><circle cx="132.426" cy="190.941" fill="#666" r="39.869"/><circle cx="132.425" cy="190.94" fill="#c3dbef" r="38.181"/><path d="M158.4 190.941a38.19 38.19 0 0 0-32.081-37.69 38.18 38.18 0 0 1 38.103 58.522c-8.246 12.664-23.185 19.274-38.103 16.857a38.19 38.19 0 0 0 32.081-37.689zm106.586 0a38.19 38.19 0 0 0-32.078-37.689 38.18 38.18 0 0 1 38.103 58.522c-8.246 12.664-23.185 19.274-38.103 16.857a38.19 38.19 0 0 0 32.078-37.69z" fill="#abbfd1"/><g class="C"><path d="M191.93 198.896a116.86 116.86 0 0 1-23.83-4.065c-8.936-2.374-13.5 2.938-13.106 10.285.37 6.853 4.964 11.076 10.425 13.45 7.595 3.3 14.595-1.695 14.595-1.695" class="D K"/><path d="M86.035 336.77l-6.444-9.771-10.356 1.028 6.9 9.086 6.444.171zm70.03-15.792l-2.677-5.552 19.554-18.875 2.371 4.408-8.477 15.937z" class="B"/><g class="D"><path d="M177.52 299.489s33.908 34.586 1.865 64.255c-14.169 13.12-24.255 19.7-31.1 22.971-2.288 2.782-5.956 4.166-11.619 3.065a3.17 3.17 0 0 1-.508-.1c-25.092-5.425-55.609-20.345-55.609-20.345 24.414-11.529 23.736-33.23 23.736-33.23l13.789 10.724c8.176-7.1 15.3-3.536 19.8.655l18.2-26.51" class="F"/><path d="M159.742 546.627c18.856 3.44 29.258-1.24 29.258-1.24l3.974-55.72-32.5-.9z" stroke="#5e5e5e"/><path d="M199.87 490.797l-.815 57.872c21.9 8.128 32.843-.912 32.843-.912l4.459-56.061z" stroke="#606060"/></g></g><path d="M221.05 299.967l-31.193 54.205-21.653 33.215-.5-48.993 3.211-26.453 5.256-12.659 9.381 2.6 1.13 2.6 9.137 2.064 2.829-4.817 11.392-1.988z" fill="#d0dfeb" class="B"/><path d="M192.439 318.936l-5.324 41.177-16.851 32.815s-3.629-18.348-1.221-43.814l14.75-30.348a2.91 2.91 0 0 1-2.66-1.9c-.678-1.681 3.564-8.109 3.564-8.109s1.415-3.817 3.938-3.511c2.862.347 2.689-.067 4.893.611 1 .307 1.913.751 2.294 2.905s1.052 10.934-3.383 10.174z" fill="#ffb900" stroke-linejoin="round" class="F"/><g class="D"><path d="M176.634 297.907l-2.333 7.121s-9.494 31.195-4.747 87.482 4.408 95.394-3.051 114.382c0 0-5.651 1.357-13.111-2.938 0 0-8.709-54.28-9.946-82.057-1.017-22.832 4.069-44.964 4.295-53.348" class="C K"/><g class="F"><path d="M221.445 299.943s-20.473-.9-24.315 3.165 4.054 29.726 4.054 29.726" class="E"/><path d="M167.517 396.579s32.207-64.648 55.73-99.458c0 0 17.849-1.592 42.939 11.3l1.021.681s36.512 31.87 48.152 59.67c9.708 23.207-39.671 10.85-39.671 10.85s-7.643-2.661-14.69-19.125c-3.79 21.287-10.315 44.859-21.591 61.857 0 0 15.142 51.53 14.462 78.661 0 0-48.373 10.171-80.243 7.461l-5.77-47.133" class="C I"/></g><g class="E"><path d="M176.757 299.129s9.077 1.586 9.955 4.667-16.519 23.4-16.519 23.4" class="K"/><path d="M174.524 296.042l-21.138 19.384 8.872 23.056-12.036 12.434 12.554 40.463m14.111.453l40.926-34.209-6.1-15.436 25.77-19.11-13.337-25.848" class="F"/></g></g><path d="M263.253 439.956l15.291-8.868 5.956 2.79 2.913 5.161-2.752 7.034-4.229 3.4-4.069-4.747-7.3-2.631z" class="B C"/><g class="D"><path d="M272.29 435.234s5.764-7.8 12.206-1.357-1.356 16.276-4.069 15.6" class="E I M"/><g class="C F"><path d="M316.829 374.878s-9.946 33.117-51.992 67.7c0 0-23.17-17.858-33.908-32.891 0 0 27.353-21.588 55.157-34.812"/><path d="M236.238 417.602s-6.782 15.6-5.765 29.839c.7 9.832 11.7 17.662 12.32 17.971 1.356.679 18.311 1.017 21.362 0s6.781-6.781 6.781-6.781 15.259-4.747 5.426-13.9-17.294 4.069-17.294 4.069l3.617-6.1" class="I"/></g><path d="M261.781 442.354l-5.538 14.241" class="E I M"/></g><path d="M162.785 415.861c.011 3 2.1 5.424 4.662 5.415s4.646-2.447 4.636-5.448-2.1-5.411-4.674-5.4-4.633 2.444-4.624 5.433z" class="B G J"/><path d="M161.79 415.692c.011 2.967 1.933 5.363 4.287 5.354s4.268-2.418 4.257-5.385-1.932-5.349-4.3-5.341-4.255 2.417-4.244 5.372z" class="C D N"/><g class="B"><path d="M161.005 415.576c.01 3 1.933 5.424 4.287 5.416s4.268-2.445 4.257-5.447-1.933-5.412-4.3-5.4-4.255 2.442-4.244 5.431z" fill="#5e5e5e"/><path d="M163.972 440.105c.011 3 2.093 5.424 4.643 5.414s4.625-2.447 4.615-5.448-2.092-5.411-4.653-5.4-4.619 2.444-4.605 5.434z" class="G J"/></g><path d="M162.977 439.935c.011 2.967 1.933 5.363 4.287 5.354s4.268-2.417 4.257-5.384-1.932-5.351-4.3-5.341-4.255 2.416-4.244 5.371z" class="C D N"/><path d="M162.192 439.82c.011 3 1.933 5.424 4.287 5.416s4.268-2.446 4.257-5.447-1.933-5.412-4.3-5.4-4.255 2.442-4.244 5.431z" fill="#5d6670" class="B"/><path d="M231.754 376.829s-4.333 2.453-13.15 2.118a33.26 33.26 0 0 1-12.866-2.573" class="D E F I"/><path d="M102.958 333.478s-21.974 3.966-25.26 35.839c0 0 30.847-6.43 25.26-35.839z" fill="#666" class="B"/><g class="C"><g class="D"><path d="M61.353 324.686l-.07-1.584 19.44-12.433s-12.207-15.146-24.414-6.329q-.568.41-1.091.834" class="F"/><path d="M67.931 312.533l-51.97-89.573s0 5.425-7.459 3.73l49.813 86.287" stroke="#5e5e5e"/></g><path d="M53.518 306.102c-9.931 8.776-6.443 21.6-5.91 23.436 1.017 3.509 13.789 9.732 12.659-5.431" class="B"/></g><g class="D"><path d="M53.98 305.871c-9.931 8.777-6.9 21.83-6.371 23.667 1.017 3.509 13.789 9.732 12.659-5.432" class="E F"/><g class="C"><path d="M87.793 363.274c-.57.385-6.164-25.253-5.486-31.582s-8.59-4.069-8.59-4.069c-23.961 2.486-18.085-15.372-18.085-15.372 11.3 1.809 22.153-2.938 22.153-2.938s9.72-4.973 14.016 10.4 11.588 16.728 11.588 16.728 1.262 15.479-15.596 26.833z" class="K"/><path d="M88.138 364.708s-2.719 3.193-4.5.65c-1.048-1.5-5.412-6.968-6.334-10.75l4.481-1.1" class="F"/></g></g><g class="B"><path d="M70.425 338.761c3.843-1.638 9.308-.432 10.4.057 3.277 1.473 9.688 12.773-2.712 16.616-9.741 3.018-19.716-7.949-21.248-14.128" class="C"/><path d="M194.643 548.486c-.628-12.229 9.147-22.474 20.8-22.606 11.989-.135 22.155 10.481 21.249 23.058.876 7.133-40.886 6.917-42.049-.452zm-3.844-1.808c-2.365 4.357-34.924 6.555-47.6 2.618-3.317-.67-2.948-27.194 17.086-23.966a15.91 15.91 0 0 0 13.563 9.366c10.17.679 16.951 11.982 16.951 11.982z" fill="#636363"/></g><path d="M260.332 332.293c-2.035-21.023 4.747-22.718 4.747-22.718" class="D E F I"/><g class="B J L"><path d="M148.067 368.58c0-.05.007-.1.009-.145 0 .001-.003.061-.009.145z" class="G"/><path d="M90.782 361.309s14.909 7.805 33.9 15.265c4.22 1.658 10.595 3.567 13.253 2.4 9.277-4.059 10.067-9.491 10.135-10.4-.693 13.8-3.721 20.878-3.721 20.878l-11.19-.346-53.235-19.32zm134.943 17.299l6.1-2.034s-4.069 19.667-7.121 22.04-17.293 3.391-20.344 0c0 0 13.563 2.373 17.293-1.018 2.512-2.28 4.072-18.988 4.072-18.988zm-64.086-40.35l-2.71 3.39-6.782-15.258 3.052-4.408zm-27.297 15.089a13.02 13.02 0 0 0-7.8-8.986c5.086-3.052 11.7 4.238 11.7 4.238s-2.367 11.56-3.9 4.748zm94.434 105.172c-13.563-14.919 3.165-40.689 3.165-40.689l-8.138-9.947 21.251-15.373.016.015c7.888-15.357 15.073-37.652 15.073-37.652a63.17 63.17 0 0 0 10 12.546c4.747 4.916 10.1 8.966 16.252 7.152-1.333.646-2.776 1.58-3.876 2.172-4.408 2.374-6.782 2.882-10.6-.136a23.1 23.1 0 0 1-4.846-5.234 50.46 50.46 0 0 1-5.615-9.743l-7.424 30.711-5.34 3.6-3.871 3.576-13.563 9.947 4.747 7.008-2.939 10.4s-5.2 4.521-2.486 21.248 19.672 18.535 19.672 18.535l.056-.564 3.9 35.433-10.512 1.187a67.65 67.65 0 0 0-2.034-21.7c-1.446-5.3-2.583-9.9-3.384-13.293-3.397-2.82-6.574-5.896-9.504-9.199zm79.006-86.353c-3.294-13.176-19.808-34.542-35.767-48.467-6.618-7.143-8.747-1.928-7.974 8.116 0 0-3.773-7.824-2.418-16.068a67.13 67.13 0 0 0-24.864-9.282l8.847 18.9-25.77 18.536 5.877 13.562-48.17 33.687 39.93-33-4.973-15.825 24.414-19.44-8.138-18.987.593.062-3.315-6.393 5.434.678s22.379 3.052 34.925 9.833 50.861 50.523 49.505 66.46c0 0-.848 18.818-45.945 62.56l-6.951 4.578-7.121-7.46s55.61-47.131 51.881-62.05zm-78.553 133.371l.017.091 6.992-1.221-2.587 32.89-9.846-1.693 1.309-22.532c-5.857 3.242-16.011 3.909-25.271 1.507l.452-6.329zm-61.486.452l3.164-13.563 2.261 14.467 17.632 2.261-1.688 34.6-9.614-3.74.689-24.447c-6.52 1.82-13.794 1.668-19.677-2.792l.9-7.234zm1.808-114.835s-8.364-48.149 7.007-94.49l4.747 4.069s-3.576 3.2-6.236 19.793l5.308-5.952 1.529 3.364-7.74 9.093c-1.438 12.047-2.348 29.427-1.733 54.412l17.361-62.513s4.735-7.459.321-12.548l5.77-.676.113 2.034 1.583-6.329 21.94-.6s-11.927.306-14.985 5.5c0 0-2.433 6.623-.851 20.412l-2.5 6.1-4.215-17.412.84 5.882c-.37 1.233-1.265 2.241-2.447 2.752l-2.446 23.548-5.2 9.174 3.761-37.167-4.408 39.34-17.632 34.241v-.655l.6-2.215zm27.32-76.138l-.607-2.505.194 3.5a2.15 2.15 0 0 0 .412-.995z" class="G"/><path d="M173.115 298.137s-14.008 36.263-3.564 93.018c0 0-4.923-66.871 7-93.476l-1.376-2.752z" class="G"/></g><g class="D"><path d="M50.646 332.041c-.085 2.712 6.725 17.571 18.084 12.315 11.782-5.451 1.356-15.259-1.469-16.728" class="E F"/><path d="M76.529 327.855l44.977 76.23c-.443 6.647-6.875 5.469-7.678 4.7l-31.911-55.608" class="C M"/><path d="M73.646 340.287c1.525-6.443 6.667-2.423 7.516-1.582 1.873 1.854 9.8 12.66-2.6 16.5-9.742 3.018-22.539-6.947-22.294-13.309" class="E F"/></g><ellipse cx="9.155" cy="5.086" rx="9.155" ry="5.086" transform="matrix(-.5 -.866025 .866025 -.5 9.838 230.869)" class="C M"/><g class="B J"><path d="M14.704 228.182l48.853 83.945 4.373.406-51.97-89.573zM85.27 350.429l33.639 56.805s.3 4.1 2.6-3.15l-36.236-60.153zm-12.844-22.935l5.5 9.174 5.122 1.835-7.416-11.468z" class="G"/><path d="M12.487 228.641s2.752-3.976-1.223-10.092-5.887-5.581-6.8-4.052.382-9.479 10.474 4.893c0 0 2.958 3.205 0 8.1-.496.817-1.075.845-2.451 1.151z" class="G"/></g></svg>