<svg xmlns="http://www.w3.org/2000/svg" width="498" height="498" xmlns:v="https://vecta.io/nano"><style><![CDATA[.B{fill:none}.C{fill:#fff}.D{stroke-miterlimit:10}.E{stroke-width:3}.F{stroke:#666}.G{opacity:.17}.H{opacity:.21}.I{stroke-width:2}.J{stroke-linecap:round}.K{fill:#3a3435}.L{stroke:#696969}.M{opacity:.55}.N{stroke:#fff}.O{stroke:#636363}.P{stroke:#3a3435}.Q{fill:#696969}.R{stroke-width:2.308}]]></style><defs><clipPath id="A"><circle cx="249.122" cy="249.122" r="249" stroke="#707070" stroke-width="22" class="B"/></clipPath></defs><g fill="#ffb900"><path d="M235 487c-95.393 0-173-77.608-173-173s77.607-173 173-173 173 77.607 173 173-77.608 173-173 173z"/><path d="M235 152c-89.327 0-162 72.673-162 162s72.673 162 162 162 162-72.673 162-162-72.673-162-162-162m0-22c101.62 0 184 82.38 184 184s-82.38 184-184 184S51 415.62 51 314s82.38-184 184-184z" fill="#353535"/></g><g transform="translate(-.122 -.122)" clip-path="url(#A)"><g class="K"><path d="M126.785 262.8h.008a2.17 2.17 0 0 1 2.644-.1c2.189.949 3.985 2.622 5.089 4.737l.537 1.037.207.286c.793.989 1.194 2.234 1.128 3.5l.242.418.193.332.182.314.629 1.085.216.373.36.621.348.6.333.573.606 1.045.7 1.2 1.208 2.084 3.192 5.5 2.588 4.46.156.268 1.228 2.117.26.448 1.125 1.939 3.858 6.648 3.725 6.421 1.138 1.962.748 1.289.648 1.116 1.36 2.343.549.947 1.591 2.743 1.424 2.454 1.238 2.133 1.475 2.542 1.529 2.636.84 1.447 2.253 3.883.581 1 1.574 2.712 1.1 1.9c6.462-1.368 12.3 3.42 14.909 6.018 2.388-.645 8.1-.961 10.983 9.35 2.029 7.261 4.833 10.887 6.953 12.686a16.1 16.1 0 0 1 2.657-.827c.474 2.409.656 4.866.542 7.319a23.39 23.39 0 0 0 .6-5.051l11.878 9.238c7.043-6.12 13.176-3.046 17.054.564l12.371-18.019-.069-.156 2.629-3.8.057.143.393-.573-2.008-5.217 16.844-16.26.293.544.937-.859.538-.837-29.952-46.079-.051.011-2.351-3.587a40.82 40.82 0 0 1-4.316.237c-19.67-.004-36.479-14.17-39.815-33.555h-6.515a1.43 1.43 0 0 1-1.43-1.43v-10.836a1.43 1.43 0 0 1 1.43-1.429h6.515a40.18 40.18 0 0 1 5.622-14.665c-1.412-3.66-2.147-5.987-2.147-5.987-24.511-17.517-10.149-38.174-10.149-38.174-6.232-22.978 11.642-36.219 11.642-36.219 6.082-13.589 15.493-25.425 27.361-34.413l.234-.256.271-.121a65.5 65.5 0 0 1 11.121-6.882c37.193-40.309 72.049-8.568 72.049-8.568 51.8-26.483 70.881 7.4 70.881 7.4 29.988 1.168 38.166 36.608 38.166 36.608 17.136 15.578 13.631 36.609 13.631 36.609 9.347 10.9-2.726 26.873-2.726 26.873-2.727 40.5-30.767 47.147-30.767 47.147-13.3 22.938-20.431 30.007-29.135 31.859-.448.1-.917.014-1.3-.239-6.826 6.538-17.184 3.789-17.184 3.789l-41.282 54.524a20.15 20.15 0 0 1-2.082 1.4l2.223.057 1.618-2.427s11.41-1.01 28.383 5.8c3.034.953 5.978 2.17 8.8 3.637 9.35 5.053 35.311 33.935 41.387 50.522.27.588.53 1.175.775 1.759.767 1.644 1.13 3.447 1.058 5.26h.2s-.139.459-.453 1.32c-.073.244-.162.482-.267.714-2.345 6.136-10.962 25.378-33.448 46.874a5.95 5.95 0 0 1 .641-.169l.549-.318.454.212c1.796.045 3.492.839 4.677 2.19a7.07 7.07 0 0 1 1.963 3.479l.546.967-.38.972c-.2 4.373-3.993 8.428-5.634 8.018l-1.606-1.874c4.108 6.435-6.572 9.761-6.572 9.761s-3.213 4.966-5.841 5.842c-1.585.529-7.523.631-12.245.5l.1.547.165.021.049-.487.449 4.08c1.512 7.896 2.392 15.899 2.634 23.935l.276 2.509-6.118.691-10.125 1.73-.015.2.778-.136-2.169 27.571c1.938 3.249 2.832 7.016 2.559 10.79.757 6.144-35.218 5.96-36.22-.389-.23-4.497 1.184-8.924 3.979-12.455l.309-22.031a213.38 213.38 0 0 1-6.908.33l-2.174 30.5a23.51 23.51 0 0 1 1.484 2.1c-2.038 3.754-30.085 5.647-41.006 2.255-2.844-.574-2.536-23.2 14.479-20.673l.2-16.065a20.49 20.49 0 0 1-5.9-2.32s-7.5-46.758-8.568-70.686a167.9 167.9 0 0 1 1.521-28.219 11.62 11.62 0 0 1-7.363.554 2.7 2.7 0 0 1-.437-.084q-1.046-.226-2.106-.478l-.475-.015-.866-.314c-6.95-1.79-13.794-3.969-20.5-6.526 6.441 10.812 11.362 19.221 11.328 19.737-.382 5.727-5.923 4.712-6.615 4.047l-16.369-28.443-6.566-2.867-6.271-2.276 2.118-1.655c-1.314.509-2.661.925-4.033 1.245.288-2.883.813-5.737 1.569-8.534-.656-1.047-1.209-2.156-1.651-3.31a10.9 10.9 0 0 1-6.741-.508c-6.159-1.867-11.641-7.226-11.632-11.118-2.316-2.225-3.976-5.043-4.8-8.147-1.168-.548-2.109-1.484-2.663-2.649-.459-1.583-3.464-12.629 5.091-20.189l.048.127c.117-.108.228-.219.35-.326l1.919 5.566a27.66 27.66 0 0 0 1.131.137l-.53-1.683-41.523-71.927a12.56 12.56 0 0 1-2.966-3.531c-2.175-3.772-2.241-7.81-.146-9.02zm47.585 97.823c.011 1.03-.109 2.058-.356 3.058l5.963-1.584a14.77 14.77 0 0 1-5.607-1.474zm13.374 1.155l1.2-.119c-.434 0-.855.019-1.239.055zm5.519 8.533l.3.463-.052-.456zm-5.428-.345l-5.792-7.621 2-.2c-1.144.066-2.29.066-3.434 0 1.8 1.1 5.9 4.948 5.718 8.748l.365-.013c.282-.412.68-.73 1.143-.914zm3.518-7.918l1.979 3a2.88 2.88 0 0 0-1.979-3zm78.473 139.017q-.077-.614-.156-1.235l-.161 1.225zm-1.529-85.243l.14 1.8.324-1.2-.027-.174-.276.479-.161-.906zm4.724-75.756l.147-.5-.179.535zm10.2 1.989v.009l3.543.8c.8-.012 1.596.118 2.351.384.079.024.157.052.235.079l1.8-.21.032.573.2-.344.026-.26c-2.758-.064-5.502-.409-8.19-1.032zm.609 46.072l-.058.45q.552-1.028 1.115-2.071zm132.83-248.658a22.46 22.46 0 0 1 .013 1.377 25.13 25.13 0 0 0-.016-1.378zm-82.125-47.888l.593.091 1.877.314-1.877-.314-.593-.091zm-75.618 15.212l-.006.015zm39.035 3.5h0l.753-.54a30.71 30.71 0 0 0-.756.537zm-60.532 24.17c.026-.05.026-.109 0-.159-.035-.067-.084-.126-.143-.174.059.048.108.107.143.174.024.049.023.108-.003.156zm93.943 29.32h0a26.14 26.14 0 0 1-.743 5.629h0a26.14 26.14 0 0 0 .74-5.632zm-76.637 14.176c-.658-.139-1.3-.265-1.924-.375-2.149-.393-4.325-.618-6.509-.675 2.184.057 4.36.282 6.509.675a56.29 56.29 0 0 1 1.924.375zm42.749-4.053a18.6 18.6 0 0 1 2.241 1.09 18.6 18.6 0 0 0-2.241-1.09q-.219-.082-.456-.166a36.66 36.66 0 0 0-10.925-2.031 36.66 36.66 0 0 1 10.932 2.028q.232.087.451.169zm4.459 2.4q.3.19.609.385h0q-.3-.194-.609-.385l-1.131-.687c.374.218.753.449 1.133.686zm2.039 18.106h0c.079.183.176.369.266.554h0c-.088-.186-.186-.372-.264-.556zm-19.537-22.7q-.836.025-1.68.1.845-.075 1.681-.099zm-6.862 1.174c.048-.016.1-.035.144-.051-.048.016-.1.035-.144.051zm70.177-6.213c.093.074.175.163.241.262a5.49 5.49 0 0 1 .328.527c.17.3.372.707.606 1.207h0c-.234-.5-.436-.9-.606-1.206a5.63 5.63 0 0 0-.328-.527c-.066-.099-.148-.188-.241-.262a.21.21 0 0 0-.091-.04.21.21 0 0 1 .093.04zm6.723 36.56c-.1-.081-.183-.146-.255-.195a1.12 1.12 0 0 0-.177-.1 1.12 1.12 0 0 1 .177.1c.071.049.156.113.255.195a15.27 15.27 0 0 1 .877.818h0a12.73 12.73 0 0 0-.875-.814zm-73.058-58.225l.033-.018-.033.018zm1.708-.8c.5-.215 1.032-.418 1.572-.609-.538.195-1.065.398-1.57.613zm14.2-1.137c-.778-.232-1.568-.417-2.368-.554-1.068-.183-2.151-.269-3.235-.258 1.084-.011 2.167.075 3.235.258.8.138 1.592.325 2.37.558zm-7.393-.7c-.619.071-1.223.166-1.812.282.592-.107 1.196-.202 1.814-.273zm-54.042-19.6h-.022.022zm-.971.064h0l-.465.016c.148.001.304-.004.467-.014zm78.03-6.559a66.14 66.14 0 0 1 3.446.259 70.55 70.55 0 0 0-3.444-.254zm-11.8 28.309a30.85 30.85 0 0 1 2.93 1.659 30.85 30.85 0 0 0-2.93-1.654zm7.083 4.72q-.666-.555-1.35-1.083.683.532 1.345 1.088zm5.6 5.374q-.577-.623-1.175-1.24.601.622 1.178 1.245zm-77.528-21.1c-.725-.316-1.531-.569-1.531-.569-1.737-.353-3.505-.528-5.277-.521 1.772-.007 3.54.168 5.277.521 0 0 .809.257 1.534.573zm28.774-39.126c.161-.024.35-.057.56-.1-.211.047-.396.084-.558.105zm37.333 12.973a30.18 30.18 0 0 1 3.041-1.457 30.18 30.18 0 0 0-3.041 1.457q-.675.368-1.4.81.728-.438 1.402-.805zm5-2.179l-.929.321.934-.317zm9.811 11.378a69.09 69.09 0 0 1 2.389.315c-.763-.111-1.561-.217-2.384-.311zm4.592.685l1.343.267-1.338-.263zm6.088 2.486c.124-.011.248-.029.37-.054-.122.025-.246.043-.37.054zm-10.74 13.75a25.48 25.48 0 0 1 1.536.048c1.653.574 3.395.845 5.144.8-1.749.045-3.491-.226-5.143-.8 0 0-.704-.043-1.532-.044zm31.737-19.524h0a41.23 41.23 0 0 0-1.726-.321c.59.099 1.163.208 1.73.325zm-91.28-6.9c.727-.072 1.2-.164 1.274-.29h0c-.07.125-.547.217-1.274.29l-.462.041h0c.17-.01.322-.026.47-.038zm-1.133-1.014l.442.079-.442-.079zm2.362.6c-.132-.081-.276-.142-.426-.181.152.04.297.103.43.186zm32.7-17.547q-2.264-.241-4.492-.258 2.232.024 4.496.263zm32.239 28.552q.615.138 1.165.279-.546-.135-1.161-.274zm4.333 1.34a6.26 6.26 0 0 0-.542-.245c.214.09.395.172.549.25zm.444.572c.053-.033.078-.097.062-.158-.023-.088-.127-.189-.3-.3.177.111.281.212.3.3.019.061-.005.128-.059.163zm18.076-25.5l-1.879-.5 1.882.501zm-2.838-.734l-1.944-.448q.98.216 1.947.449zm34.436 16.011c2.151.141 4.063.29 5.788.471h0c-1.725-.181-3.637-.33-5.788-.471zm35.635 93.761h.052 0-.052a6.9 6.9 0 0 0-2.458.44 6.9 6.9 0 0 1 2.461-.439zm-2.652.614c.007-.021.035-.04.052-.061-.014.021-.046.04-.046.062zm-214.259-25.34l.012-.016h0l-.012.016zm163.558 228.5l-.634-.151s-4.941-1.727-10.209-11.408c-.797-1.303-1.481-2.671-2.045-4.091l-6.4 26.454-.886.6-.341 1c6.064-4.019 13.136-8.414 20.515-12.404zm-11.834 54.18l-3.03 5.112c.515-.849 3.344-5.219 7.473-6.012l-1.128-.416q-.727.61-1.466 1.22l-1.249-.983-.309.2-1.883-1.972c-6.164-5.007-12.044-10.353-17.613-16.015l-.255.4z" class="G"/><ellipse cx="280.982" cy="547.153" rx="80.96" ry="15.411" class="G"/></g><g class="C"><path d="M162.938 365.729l-3.84-.148 1.772 5.316 4.43 4.43 7.088.738 5.021-3.249 1.329-3.692-1.772-3.987-3.544-3.839-6.793-1.329-1.034 4.43z"/><path d="M280.587 242.493l-1.581-8.693-5.005-3.425-4.742 6.586 1.054 6.322z" class="D E P"/></g><g fill="#8f8f8f"><path d="M296.364 178.704c9.152 3.895-2.9-4.448-6.62-5.842-4.674-1.753-15.578-4.284-23.757.779s-5.063-12.073-1.947-15.578 8.554-11.092 17.915-11.684c12.316-.779 20.787 7.4 25.753 14.556 5.068 7.3 15.14 20.106 15.919 1.8 0 0-2.726 8.179-5.842 5.452s-17.78-28.769-35.44-26.872a28.26 28.26 0 0 0-13.241 5.452c-2.726 1.948-8.568 2.726-.389-8.957a48.2 48.2 0 0 1 45.566-19.472c20.64 2.726-12.268-8.179-26.678-.2 0 0 .389-9.347 21.225-13.825s-2.434-2.093-7.594-.584c-3.6 1.051-11.488 3.31-24.34 18.3 0 0-7.205 7.205-2.142-.974s30.767-38.361 69.518-24.146c0 0 8.373 1.753 1.168-1.557s-21.809-5.647-26.872-5.647 36.219-13.826 54.718 12.852c0 0 12.852-.779 20.446 7.789s8.325 15.821-1.364 5.452c-5.312-5.687-9.98-6.67-21.858-7.449 0 0 29.453 10.175 16.99 23.222s-22.2-3.116-24.73-6.232c-8.392-9.277-20.635-14.103-33.1-13.047 0 0 28.674 3.554 34.71 23.8 0 0 2.581 3.6-2.483 10.223s-6.913 1.412-10.612-2.093-13.631-13.047-21.615-12.463-13.241 2.726-18.693.779c0 0-8.957-.584-.389 2.336s8.568-1.752 18.888 1.753 32.13 16.746 18.3 33.688c0 0-3.116 5.063-6.232-1.948s-1.363.974-.974 4.285 2.726 13.436-4.673 20.056-15.578 13.826-22.978 13.047c-7.113-.748-14.391-7.072-16.675-12.4 1.383 3.49 7.13 20.365-9.613 23.5-18.694 3.505-27.943-10.613-26.873-32.714 0 .015 11.105-16.29 36.608-5.437zm61.241 64.843c1.364-1.46 8.666-11.683 11.294-17.72a18.58 18.58 0 0 1 10.126-10.118l6.523-2.734c12.365-1.947 16.941 10.321 16.941 10.321 1.85-3.214-2.532-11.782-6.426-14.021-3.132-1.8-3.018-3.894-1.266-5.647 2.869-2.869 5.939-9.688 5.939-9.688 19.716-7.886 23.367-16.211 23.367-16.211 4.819 18.693-13.436 24.1-17.963 24.389s-3.067 1.461 2.774 1.9c3.228.362 6.481-.412 9.2-2.19 1.461 27.164-23.367 39.578-23.367 39.578a35.31 35.31 0 0 0-1.461-9.639s-2.921-8.47-1.9-.584a32.7 32.7 0 0 1-1.022 13.728c-10.941 23.975-22.345 27.748-22.345 27.748-4.673-11.1-18.207-6.31-13.948-7.886s3.534-21.226 3.534-21.226zm8.082-24.373c.389 6.2-9.474 18.505-9.474 18.505l-2.137-1.531-6.011-9.931c1.716-6.072 1.85-14.993 1.85-14.993 5.062 5.451 15.772 7.95 15.772 7.95zm-63.676-11.846c12.852 8.568 33.868-4.8 41.039-16.746a146.8 146.8 0 0 0 7.156-13.436c9.834 1.119 17.817 16.356 17.817 16.356s3.311 7.789 2.142.39-4.479-11.1-10.96-17.331-3.84-7.983-3.551-9.152 4.58-21.225 18.405-26.093 20.057 6.621 21.809 15.384 6.232 12.268 6.232 12.268 2.92 2.531-.389-3.505-1.558-5.453-4.089-15.968-10.71-13.825-7.595-13.825 8.179-4.089 10.515-8.179 5.109-2.881 6.037-1.169c1.9 3.505 1.257 4.411 1.752 7.205a23.97 23.97 0 0 1 0 10.613c-.818 3.012-2.726 6.523-.779 7.107s1.752-1.752 1.752-1.752-.584-11.294 8.179-1.557 5.063 24.145 5.063 24.145c-7.2 8.568-8.178 9.59-11.294 12.511s-8.568 7.935-12.657.146a37.5 37.5 0 0 0-12.852-14.215c-2.921-1.752-2.921-.779-.389 1.752s5.647 7.984 5.647 7.984 9.541 12.657-5.647 25.7-31.935 3.31-36.219-1.364-2.726-1.947-2.726-1.947c1.364 5.063-2.983 18.268-2.983 18.268-5.319 12.037-49.788 16.2-58.4 14.446s-14.556-14.446-14.556-14.446c26.787 5.087 31.541-13.59 31.541-13.59z"/></g><g fill="#e7e7e7"><path d="M189.265 177.34c-2.532-.195-3.311-.974-3.311-.974-1.753-6.426-1.364-19.472 9.736-30.377s21.809-12.657 29.988-12.268 1.364-1.752 1.364-1.752c-14.215-2.921-27.846 7.4-27.846 7.4 13.241-26.483 39.529-32.13 42.256-32.714s16.941-.195 5.063-1.948-23.951 6.037-23.951 6.037c-.2-4.479 12.657-7.4 12.657-7.4 3.115-5.258 7.01-13.047 29.209-18.889s33.3 7.205 33.3 7.205c-12.657-5.063-24.535-4.868-35.635-.584s-1.947 1.558 1.168 1.168 7.01-1.558 14.994-1.558 17.72 5.257 12.268 9.931-8.957 8.763-12.852 12.463-11.489 15.578-8.957 9.152 3.115-16.552-3.116-19.667-.974 1.558-.974 1.558c7.4 4.868-3.116 25.509-3.116 25.509-7.01-12.852-22.393-13.241-32.519-9.736s4.284 1.168 6.621.973 10.709-1.752 18.888 7.01 0 24.341 0 24.341c-22.783-16.747-37.193.584-41.477 10.9s-8.373.389-8.373.389c-3.116 4.479 4.673 13.242 11.878 0s12.852-12.268 18.889-13.241 19.861 8.373 19.083 13.241-1.363 14.994-1.363 14.994c-23.757-7.205-28.82 2.142-31.935 6.036s.195 1.169 2.921-.584 5.647-4.673 13.826-4.673c8.409 0 16.162 5.647 16.162 5.647.779 15.384 5.063 22.589 7.4 26.289s1.168 7.594-2.142 10.71c-1.958 1.803-4.833 2.192-7.2.974 0 0-9.932 3.894-16.162-.39s-5.648-24.925-5.648-24.925c-7.2 12.658-23.172 27.457-38.75 12.268s-2.344-32.515-2.344-32.515zm37.776 31.351a31.82 31.82 0 0 0 1.947 6.621s-10.125 2.336-6.621-1.169 4.285-8.373 4.674-5.452zm-21.03 11.1l-4.869 4.868c-2.531-1.168-2.92-6.232-2.92-6.232 4.284 1.558 7.204 1.558 7.789 1.364zm60.17 2.141c8.568 12.462-1.558 17.526-1.558 17.526l-8.568-11.294c5.453-.195 10.126-6.232 10.126-6.232z"/></g><g class="M"><g class="B D I N"><path d="M206.79 142.971s-13.436 7.01-16.065 20.446m38.537-34.048s-9.609-3.583-17.557 1.178m42.111-12.405s-13.437-6.426-24.828.877m33.008-22.198s-17.525 5.257-7.3-3.8M396.65 232.253s.473-9.932-5.837-7.789-4.1 11.684-2.682 14.215m-90.647-66.353s11.643 5.085 7.269 10.881-12.521.267-14.37-2.062m57.136-86.209s10.486 1.41 6.675 6.089-13.442.618-15.22-1.388M220.12 179.706s-9.392 8.552-3.622 12.308 11.77-4.009 12.819-6.744m134.617 10.569s.008 7.241 6.865 6.134 3.823-8.687 2.483-10.807m18.255-21.907s-4.825-6.012-10.807-2.483 2.07 9.609 4.089 11.1m11.685-5.405s5.11 5.25 10.578.967-.853-9.449-3.05-10.661"/></g><path d="M416.656 206.354s.731 6.718-1.9 10.807c0 0 1.022-6.281.146-8.033a41.91 41.91 0 0 1-7.886-2.483c0 0 6.865 1.461 9.64-.291z" class="C"/><g class="B D I N"><path d="M331.658 192.48s-12.268 13.289-26.142 6.28m-92.294 9.423s-17.187 3.465-23.089-10.011m135.39-29.205s-1.168 8.47-8.47 6.134-6.718-5.4-11.391-10.661m6.864-33.25s8.373-1.364 14.8-2.921c6.344-1.538 16.746 6.231 16.746 6.231m-.779-23.367s15.384 1.947 25.9 17.915"/></g><path d="M361.597 145.6s7.594-8.763-7.01-17.915c0 0 9.541 8.373 7.01 17.915z" class="C"/><path d="M202.408 166.63s1.168 12.852 13.144 2.629" class="B D I N"/></g><g fill="#1c1c1c" class="M"><path d="M255.374 187.069l3.116-7.4 15.578-6.621 13.242.779 11.683 5.452s-26.97-8.373-33.1 6.62c-3.4 8.322.141 18.214 3.116 22.978 4.863 7.788 30.141 11.055 27.19-15.376l.094.207c16.751 16.673 40.428-.056 42.039-13.748a141.31 141.31 0 0 0 .871-14.9l2.921 6.007-1.456-5.424c3.322 6.323 9.318 1.813 7.3-7.887-1.252-6.028-10.58-19.051-25.7-20.154-11.364-.829-12.559-3.213-12.559-3.213l6.134.292 10.807-.584 9.055 1.752 12.247 9.284-5.529-6.071-13.144-7.3c4.966-.876 8.751-.869 14.6 3.8 6.874 5.48 18.422 16.07 16.357 0-1.633-12.7-22.294-21.21-28.243-22.817l12.47 2.078s-9.351-3.214 1.749-1.17 18.032 9.477 23.079 15.785c2.921 3.651 12.852 4.079 15.481-3.516 1.14-3.293.474-7.025-2.643-10.2-4.073-4.143-11.085-7.33-11.085-7.33l6.221 1.675-1.109-1.237s11.136-.917 17.859 6.862c4.924 5.7-.577-5.354-7.393-8.274s-9.383-1.962-11.294-2.337l-3.7-.389c-3.895-5.257-6.037-9.736-21.42-14.02s-24.73.389-24.73.389l-7.3.974h2.433l9.542.195 8.568 1.558 8.179 3.311a42.48 42.48 0 0 1-11.1-.974c-6.62-1.363-20.057-.779-31.935 3.7-6.136 2.26-11.471 6.277-15.339 11.55l11.25-6.293 11.878-2.532 5.648-.779s-1.753 1.948-7.01 3.31-17.136 6.426-17.72 11.879l-5.453 2.921-3.426-2.094-3.389 4.236-5.346 3.742 2.23-1.211 17.331-6.621 14.8-1.168 7.595.779 3.7 1.363s-12.486-.807-23.845 2.58c-12.132 3.618-23.184 11.773-23.084 22.735l-.832 2.663 6.479-3.15 15.188 2.629 13.437 11.975 9.054 12.268s-5.074-1.928-15.188-12.268c-10.844-11.084-24.419-8.373-29.213-4.094-5.351 4.776-6.715 10.617-2.333 18.407l-13.728 7.3 1.753-26 9.95-4.837-3.33 1.332-4.284-3.311 2.921-15.189 6.9-3.748-.479-2.872 7.01-9.541 9.931-9.931 10.321-8.763 13.241-5.063h3.523l1.345-3.7 15.384-4.868 25.314 2.726 17.525 12.267.884 3.338 9.048.167 15.577 10.529 2.757 9.475 3.085-1.589 5.55 11.1-1.753 4.381c-.292-.876-4.673-9.638-5.55-5.841s-2.93 6.72-8.187 7.3c0 0 5.844 7.006 5.551 14.893s-.284 8.764 1.76 15.19l-4.089-6.426-.756-3.192 1.048 6.405a21.76 21.76 0 0 1-7.01-9.055c-2.337-5.842-7.3-11.4-14.9-8.773s-11.126 8.5-13.148 12.562c-2.039 4.093-5.252 8.772.3 16.366a28.64 28.64 0 0 1 5.842 16.941l-4.673-6.718-.947-1.016 5.912 11.823-1.752-.876c-3.8-6.426-14.6-16.357-15.773-12.852s-9.931 13.144-12.852 16.649-7.3 2.629-1.752 4.089c3.372.906 6.478 2.609 9.054 4.966v3.779l3.264-3.468-3.555-6.445c1.736 2 17.525 8.763 26 5.842 13.72-4.731 18.143-9.643 18.4-18.986.292-10.515-7.3-19.278-7.3-19.278l4.241 4.034-2.488-3.45c6.134-.292 16.355 15.2 21.321 13.151s13.149-12.861 13.149-12.861c1.46-9.931-.285-12.838-4.082-19.556s-6.729-.3-6.729-.3l-1.46-.292 2.921-12.268 14.02 15.773.292 19.278-3.069 3.134 2.193-1.965 4.673 5.257-1.753 10.515-5.322 7.984-.52 7.789-4.089 16.065-13.728 16.065-10.223 6.134-.158-2.135c-2.392 12.275-12.45 22.581-12.45 22.581l-7.837 6.134-2.337 2.336-1.213.441-2.049 1.6.364-.99-.315.115 1.752-10.516-4.089-4.966-7.594-1.46 2.629-17.233 4.966-11.391 4.24-9.893-3.364 3.759s-6.426-.877-10.223-4.382c0 0 6.134 5.55 6.718 11.684l-2.337 6.426-5.549-11.976-7.3-11.515v2.169l-5.55-4.673-17.233-5.257 9.931-7.3 6.7-8.692-11.958 12.489-6.426 2.336-18.693 1.753-7.252-11.893 5.791 12.769-10.527 11.294-5.17.414 2.249-.024-2.532 6.426c-3.115 1.558-9.736.584-9.736.584 2.142 3.31 7.984 6.816 7.984 6.816l-1.168 4.479-7.595-2.921-7.789-13.047 2.726-2.142h.481l-7.491-6.81zm140.821-1.717l1.135 7.753-9.639 14.021-16.166 7.1 20.157-5.176-3.115-.467 7.3-11.683 2.921-5.842 4.229-.755-4.813-2.166zm-3.424 23.864l4.517 3.765-2.879-3.519zm13.289-19.454l.909-.162.736-.66zm-43.489 62.637c-.292 1.752.876 2.045 5.257 3.8 3.4 1.359 5.205 3.607 5.579 8.622 15.88-14.608 18.032-36.662 18.032-36.662.146.324.264.651.391.977l-.051-.685s1.351 2 3.505 5.55c1.655 2.726 4.673-.292 4.673-.292 18.058-14.986 13.978-24.289 14.6-24.243-8.471-2.045-10.223-6.426-10.223-6.426s18.693-8.763 16.649-14.9-6.426 5.258-15.773 8.471c0 0-.292 3.213-4.673 7.01s2.629 11.391 1.753 15.481l-2.307-2.827 2.021 5.163s-11.975-11.683-23.367.292-4.673 5.258-9.347 11.391c0 0 4.382-1.46 4.089 3.505s-.296 11.392-.296 11.392 0 4.673-3.8 4.673-6.42-2.045-6.712-.292zm8.1-37.8l-2.263.994-2.068-.6 3.426 1.713zm-14.361-60.273l-1.511-1.659 1.046 3.243zm40.68-30.4l-.925 1.009 1.294-.666zm-9.3 14.849l-1.274-3.311-2.232 2.434-4.409.452zm-16.357-.876l.263.014-6.767-6.525 4.459 6.22-4.515 6.719zm-26.58 45.858l1.46-7.01 4.382-2.92 9.616 6.64-3.191-3.427-6.426-3.213 3.172-10.813-9.89 14.61-.084-.314-1.887 10.142z" class="H"/><path d="M331.992 112.745l-1.55-.258c.528-.01 1.054.077 1.55.258zm-25.405 41.414c.973-.195 12.814 18.955 16.941 8.763l-1.557 5.452-3.31 1.948-5.063-3.7-6.621-10.126z" class="H"/></g><g fill="#1c1c1c" class="M"><path d="M203.967 165.064s.876 15.189 16.941-4.089c12.568-15.081 26.288-1.46 27.164 1.169 1.918 5.111 1.379 10.819-1.461 15.481l9.931 3.505 1.168-25.412-20.154-8.47-12.852 3.213-6.134 5.257-3.8 6.426-2.921 5.842-3.8 1.168z" class="H"/><path d="M220.908 185.803s22.2-9.055 27.748 2.336c4.651 9.548 7.3 17.818 7.3 23.367s-1.168 3.213-1.168 3.213-20.446 2.921-24.244-16.941l-2.629 6.718 20.155 17.526h14.9l4.089-7.594-7.593-11.1-2.921-22.2-12.268-2.337-9.639-1.752-8.179 2.045zm2.336-36.216s8.762-7.594 18.694-6.718c2.884.255 6.378 2.955 8.441 2.253 5.042-1.716 4.411-11.309.321-15.982-8.2-9.372-23.659-7.3-23.659-7.3l10.223-2.921 14.6 2.337 8.471 11.684-2.63 22.783-7.886-3.213-15.773-3.8-12.268 4.673-4.381 6.718-4.382 6.426z" class="H"/><path d="M266.766 219.101l6.134 12.268-3.505 6.426-4.381-4.966-2.045-10.807zm-77.404-41.769s-9.347 27.457 10.807 32.13 30.377-11.684 30.377-11.684l-2.629 8.471-26.872 13.436-11.391-8.47-9.639-16.942 3.8-14.6zm43.521-58.418s14.6-4.673 23.659-.584 10.516-10.807 6.718-15.773l3.8 2.045 2.045 7.595-7.01 23.659-7.594-11.391-9.931-5.257z" class="H"/><path d="M265.305 102.265a10.05 10.05 0 0 1 4.271 2.334c1.356 1.253 2.31 2.88 2.739 4.676 1.461 5.841 14.02-5.55 13.144-10.808s-4.674-7.594-27.749-5.257l9.055-2.92 17.234-1.169 13.436 6.718-8.179 7.594-12.852 12.268-9.055 12.56-2.045-2.045 3.8-14.021-.584-4.965zm-35.635 31.253s-17.531-.3-28.338 10.511-17.812 25.123-11.97 33.3l-3.505 1.169-2.629-2.921 1.168-19.57 9.348-12.852 9.054-4.673 11.1-4.966 8.178-1.46z" class="H"/><path d="M251.285 105.771s-37.1 5.841-47.027 30.961l-7.01 5.257.292-4.089 10.516-16.65 13.436-8.471 17.526-6.426 4.965-1.168z" class="H"/><path d="M294.514 90.29s-32.129-17.818-55.2 12.852c0 0 5.842-.585 9.638 2.045l-7.886.584-12.852 3.8s-13.728 5.842-13.436 4.966 6.718-7.887 6.718-7.887l11.1-4.965 11.677-10.811 19.278-9.347 19.278-.292 15.189 6.134 4.966 7.01-9.347 3.5zm-79.162 66.888s-7.3 13.728-11.1 6.426l.292 3.213 4.089 2.629 3.505-2.921z" class="H"/></g><path d="M182.254 177.535c-6.232-22.978 11.643-36.219 11.643-36.219 13.589-30.377 38.986-41.672 38.986-41.672 37.193-40.309 72.049-8.568 72.049-8.568 51.8-26.483 70.881 7.4 70.881 7.4 29.988 1.168 38.166 36.608 38.166 36.608 17.137 15.578 13.631 36.609 13.631 36.609 9.347 10.9-2.726 26.873-2.726 26.873-2.727 40.5-30.767 47.147-30.767 47.147-13.3 22.938-20.432 30.008-29.136 31.859-3.275.7-3.827-7.725-7.96-7.938-2.9-.15-5.035.608-10.807-2.045-5.526-2.541 6.157-17.578 2.921-24.535-4.206-9.043-4.562-14.425-52.868-2.045-13.257 3.4-22.3-6.614-22.3-6.614-2.375 4.038-4.712 7.642-7.006 10.846-2.943 4.109-9.241-3.032-11.59-6.276-6.134-8.471-6.239-7.824-14.312-9.639-5.148-1.157-9.837-6.312-15.481-7.594-6.426-1.461-14.649 2.3-20.446 6.718-6.134 4.673-7.906-.047-9.82-4.811s-2.911-7.929-2.911-7.929c-24.51-17.518-10.147-38.175-10.147-38.175zm211.473-67.181c-7.594-8.569-20.446-7.789-20.446-7.789-18.5-26.678-59.781-12.852-54.718-12.852s19.667 2.336 26.872 5.647-1.168 1.557-1.168 1.557c-38.748-14.214-64.455 15.968-69.518 24.151s2.142.973 2.142.973c12.852-14.993 20.745-17.253 24.34-18.3 5.16-1.509 28.43-3.895 7.595.584s-21.225 13.825-21.225 13.825c14.41-7.983 47.318 2.921 26.677.2a48.2 48.2 0 0 0-45.565 19.472c-8.179 11.684-2.337 10.905.389 8.957 3.872-2.924 8.432-4.802 13.241-5.452 17.66-1.9 32.325 24.146 35.44 26.872s5.842-5.452 5.842-5.452c-.779 18.3-10.851 5.5-15.919-1.8-4.966-7.156-13.437-15.335-25.753-14.556-9.361.592-14.8 8.178-17.915 11.684s-6.231 20.641 1.948 15.578 19.083-2.532 23.757-.779c3.718 1.394 15.772 9.736 6.62 5.841-25.5-10.853-36.609 5.452-36.609 5.452.1 22.978 8.178 36.219 26.873 32.714 16.743-3.139 11-20.014 9.613-23.5 2.284 5.333 9.562 11.656 16.675 12.4 7.4.779 15.578-6.426 22.978-13.047s5.063-16.746 4.673-20.056-2.142-11.294.973-4.285 6.232 1.948 6.232 1.948c13.826-16.941-7.984-30.183-18.3-33.688s-10.32 1.168-18.888-1.753.389-2.336.389-2.336c5.452 1.947 10.709-.195 18.693-.779s17.915 8.957 21.615 12.462 5.55 8.714 10.613 2.093 2.483-10.222 2.483-10.222c-6.036-20.252-34.71-23.806-34.71-23.806 12.465-1.056 24.708 3.77 33.1 13.047 2.532 3.116 12.268 19.278 24.73 6.232s-16.99-23.222-16.99-23.222c11.878.779 16.545 1.762 21.858 7.449 9.688 10.358 8.955 3.104 1.364-5.464zm-25.7 162.3s11.4-3.774 22.345-27.748a32.7 32.7 0 0 0 1.022-13.728c-1.022-7.886 1.9.584 1.9.584a35.31 35.31 0 0 1 1.461 9.639s24.827-12.414 23.367-39.578c-2.719 1.778-5.972 2.552-9.2 2.19-5.842-.438-7.3-1.606-2.775-1.9s22.783-5.7 17.963-24.389c0 0-3.651 8.324-23.367 16.211 0 0-3.07 6.818-5.939 9.688-1.752 1.752-1.866 3.846 1.266 5.647 3.895 2.239 8.276 10.807 6.426 14.021 0 0-4.576-12.268-16.941-10.321 0 0-2.921 1.168-6.523 2.734a18.58 18.58 0 0 0-10.126 10.118c-2.629 6.037-9.931 16.26-11.294 17.72 0 0 .729 19.649-3.53 21.226s9.268-3.209 13.937 7.891zm-13.952-36.506l2.137 1.531s9.863-12.307 9.474-18.505c0 0-10.71-2.5-15.773-7.951 0 0-.134 8.921-1.85 14.994zm-69.056-.78c8.617 1.752 53.085-2.409 58.4-14.446 0 0 4.346-13.205 2.983-18.268 0 0-1.558-2.726 2.726 1.947s21.03 14.41 36.219 1.364 5.647-25.7 5.647-25.7-3.116-5.452-5.647-7.984-2.532-3.5.389-1.752a37.5 37.5 0 0 1 12.852 14.215c4.089 7.789 9.541 2.775 12.657-.146s4.089-3.943 11.294-12.511c0 0 3.7-14.409-5.063-24.145s-8.178 1.558-8.178 1.558.195 2.337-1.752 1.752-.04-4.095.779-7.107a23.96 23.96 0 0 0 0-10.613c-.5-2.794.146-3.7-1.752-7.205-.928-1.712-3.7-2.92-6.037 1.169s-7.4 8.178-10.515 8.178 5.063 3.31 7.594 13.825.779 9.931 4.089 15.968.39 3.505.39 3.505-4.479-3.505-6.232-12.268-7.984-20.252-21.809-15.384-18.117 24.925-18.405 26.093-2.93 2.921 3.551 9.152 9.791 9.931 10.959 17.331-2.142-.39-2.142-.39-7.983-15.237-17.817-16.356a146.8 146.8 0 0 1-7.156 13.436c-7.17 11.95-28.186 25.314-41.038 16.747 0 0-4.755 18.676-31.546 13.595.006-.005 5.946 12.688 14.56 14.44zm-20.4 4.089s10.125-5.064 1.557-17.526c0 0-4.673 6.037-10.126 6.232zm-35.635-24.146c-.887-2.13-1.54-4.35-1.947-6.621-.39-2.921-1.169 1.948-4.674 5.452s6.625 1.17 6.625 1.17zm-27.846 9.347l4.869-4.868c-.585.195-3.505.195-7.789-1.364.001.001.393 5.064 2.924 6.233zm-9.542-14.8c15.578 15.189 31.546.39 38.75-12.268 0 0-.584 20.641 5.648 24.925s16.162.39 16.162.39a6.34 6.34 0 0 0 7.2-.974c3.31-3.115 4.479-7.01 2.142-10.71s-6.621-10.9-7.4-26.288c0 0-7.753-5.647-16.162-5.647-8.179 0-11.1 2.921-13.825 4.673s-6.037 4.479-2.921.584 8.179-13.241 31.936-6.036c0 0 .584-10.126 1.363-14.994s-13.038-14.214-19.07-13.245-11.684 0-18.889 13.241-14.994 4.479-11.878 0c0 0 4.089 9.931 8.373-.389s18.694-27.651 41.477-10.9c0 0 8.179-15.578 0-24.341s-16.552-7.205-18.888-7.01-16.747 2.532-6.621-.973 25.509-3.116 32.519 9.736c0 0 10.515-20.641 3.116-25.509 0 0-5.258-4.673.973-1.558s5.647 13.241 3.116 19.667 5.063-5.452 8.957-9.152 7.4-7.789 12.852-12.463-4.284-9.931-12.268-9.931-11.879 1.168-14.994 1.558-12.268 3.116-1.168-1.168 22.977-4.479 35.635.584c0 0-11.1-13.047-33.3-7.205s-26.094 13.631-29.209 18.889c0 0-12.853 2.921-12.658 7.4 0 0 12.073-7.789 23.952-6.037s-2.336 1.363-5.063 1.948-29.014 6.231-42.256 32.714c0 0 13.631-10.321 27.846-7.4 0 0 6.815 2.142-1.364 1.752s-18.888 1.363-29.988 12.268-11.489 23.952-9.736 30.377c0 0 .779.779 3.311.974-.001 0-13.247 17.328 2.335 32.519z" class="Q"/><g class="D L"><path d="M357.406 257.365s14.409-1.169 10.125 13.241-21.03 10.515-21.03 10.515l-41.282 54.524s-14.409 11.684-35.829 3.505l-55.695-85.679 62.313-11.684z" class="C E"/><path d="M301.908 300.594s-5.8 4.135-18.4 4.966c-5.042.332-11.683.584-18.694-1.753" class="B J R"/></g><path d="M300.919 277.999s6.15 7.987 25.234 9.369c0 0-22.978 43.8-27.652 48.859l6.718-.585 41.282-54.523s17.915 4.771 22.15-13.1l-2.775-9.3-10.519-1.159s-17.83 34.852-54.438 20.439z" class="G Q"/><path d="M274.598 263.012c.049.382-5.881 8.064-13.485 9.152 0 0-4.673 10.71-25.7 14.8l-3.7-5.647 17.525-7.01 8.373-6.232c6.029-.038 11.921-1.794 16.987-5.063z" class="G K"/><path d="M348.927 275.739l5.463-5.591c.846-1.085 2.04-1.844 3.381-2.152 2-.209 3.749 1.861 3.635 3.87a5.58 5.58 0 0 1-3.526 4.519c-1.896.702-3.932.938-5.938.689a35.85 35.85 0 0 1-4.436-.6" class="C"/><path d="M182.413 236.36h6.516c3.338-19.382 20.147-33.544 39.814-33.544s36.476 14.162 39.814 33.544h11.5c3.338-19.382 20.147-33.544 39.814-33.544s36.476 14.162 39.814 33.544h7.973a1.43 1.43 0 0 1 1.43 1.43v10.839a1.43 1.43 0 0 1-1.43 1.43h-7.978c-3.338 19.382-20.147 33.544-39.814 33.544s-36.476-14.162-39.814-33.544h-11.494c-3.338 19.382-20.147 33.544-39.814 33.544s-36.476-14.162-39.814-33.544h-6.516a1.43 1.43 0 0 1-1.43-1.43V237.79a1.43 1.43 0 0 1 1.429-1.43z" class="Q"/><circle cx="319.868" cy="243.21" fill="#faa81a" r="36.069"/><circle cx="319.868" cy="243.21" r="34.524" fill="#666"/><path d="M319.868 210.148c16.658.005 30.71 12.401 32.793 28.928s-8.455 32.022-24.59 36.16-32.829-4.375-38.956-19.865c-1.538-3.869-2.321-7.997-2.308-12.161 0-18.26 14.802-33.062 33.062-33.062z" fill="#c3dbef"/><circle cx="228.743" cy="243.209" fill="#faa81a" r="35.881"/><circle cx="228.743" cy="243.209" fill="#666" r="34.344"/><circle cx="228.743" cy="243.209" fill="#c3dbef" r="32.89"/><g fill="#abbfd1"><path d="M251.118 243.209c-.002-16.136-11.708-29.888-27.636-32.467a32.89 32.89 0 1 1 0 64.934c15.927-2.582 27.632-16.332 27.636-32.467zm91.816 0c-.002-16.134-11.706-29.885-27.632-32.466a32.89 32.89 0 1 1 0 64.934c15.926-2.583 27.628-16.334 27.632-32.468z"/></g><g opacity=".68" class="B D N"><path d="M235.312 252.4l-18.11-31.254m13.437 39.433l-18.11-31.254m119.173 29.793l-18.11-31.254m11.684 35.343l-18.11-31.254"/></g><g class="C"><path d="M280.005 250.063a100.67 100.67 0 0 1-20.528-3.5c-7.7-2.045-11.632 2.531-11.289 8.859.319 5.9 4.276 9.542 8.981 11.586 6.542 2.844 12.572-1.46 12.572-1.46" class="D E L"/><path d="M188.781 368.83l-5.551-8.417-8.921.886 5.947 7.827 5.551.148zm60.325-13.603l-2.306-4.783 16.844-16.259 2.044 3.8-7.3 13.728z"/><g class="D E"><path d="M267.584 336.715s29.209 29.793 1.606 55.351c-12.206 11.3-20.894 16.972-26.794 19.788-1.971 2.4-5.13 3.589-10.009 2.641a2.71 2.71 0 0 1-.437-.083c-21.615-4.673-47.9-17.525-47.9-17.525 21.03-9.931 20.446-28.625 20.446-28.625l11.878 9.238c7.043-6.119 13.176-3.046 17.054.564l15.679-22.836" class="F"/><path d="M252.274 549.607c16.243 2.964 25.2-1.069 25.2-1.069l3.423-48-28-.774z" stroke="#5e5e5e"/><path d="M286.837 501.513l-.7 49.852c18.861 7 28.292-.785 28.292-.785l3.841-48.292z" stroke="#606060"/></g></g><path d="M305.086 337.131l-26.87 46.691-18.653 28.609-.429-42.2 2.766-22.787 4.528-10.9 8.081 2.24.974 2.239 7.871 1.778 2.437-4.149 9.813-1.712z" fill="#d0dfeb"/><path d="M280.44 353.468l-4.586 35.471-14.516 28.27s-3.126-15.8-1.052-37.742l12.702-26.145a2.51 2.51 0 0 1-2.292-1.638c-.584-1.448 3.07-6.985 3.07-6.985s1.219-3.288 3.392-3.024c2.465.3 2.316-.057 4.215.527.86.265 1.648.647 1.976 2.5s.911 9.421-2.909 8.766z" fill="#ffb900" stroke-linejoin="round" class="F I"/><g class="D"><path d="M266.823 335.353l-2.01 6.134s-8.179 26.872-4.089 75.359 3.8 82.175-2.629 98.531c0 0-4.868 1.169-11.294-2.531 0 0-7.5-46.758-8.568-70.686-.877-19.668 3.505-38.733 3.7-45.956" stroke-width="3.491" class="C L"/><g class="E"><g class="F"><path d="M305.424 337.105s-17.635-.779-20.945 2.726 3.493 25.607 3.493 25.607" class="B"/><path d="M258.971 420.351s27.744-55.689 48.007-85.676c0 0 15.375-1.371 36.989 9.734l.879.586s31.452 27.454 41.479 51.4c8.363 19.991-34.173 9.347-34.173 9.347s-6.583-2.292-12.654-16.474c-3.265 18.337-8.886 38.643-18.6 53.285 0 0 13.044 44.389 12.458 67.76 0 0-41.669 8.761-69.123 6.427l-4.97-40.6" class="C J"/></g><g class="B L"><path d="M266.93 336.405s7.819 1.366 8.576 4.02-14.23 20.16-14.23 20.16"/></g></g><g class="F B"><path d="M265.008 333.746l-18.207 16.7 7.642 19.861-10.368 10.711 10.813 34.855" stroke-width="2.784"/><path d="M267.044 416.262l35.254-29.468-5.258-13.3 22.2-16.462-11.489-22.266" stroke-width="3.578"/></g></g><path d="M341.44 457.716l13.172-7.639 5.131 2.4 2.509 4.446-2.371 6.059-3.643 2.931-3.505-4.089-6.287-2.267z" class="C"/><g class="D"><path d="M349.225 453.649s4.965-6.718 10.515-1.169-1.168 14.021-3.505 13.437" class="B E J O"/><g class="C F"><path d="M387.588 401.662s-8.568 28.528-44.787 58.321c0 0-19.959-15.384-29.209-28.333 0 0 23.562-18.6 47.514-29.988" stroke-width="3.858"/><g class="E J"><path d="M318.168 438.46s-5.842 13.436-4.966 25.7c.605 8.47 10.08 15.214 10.613 15.481 1.168.585 15.773.876 18.4 0s5.841-5.841 5.841-5.841 13.144-4.089 4.674-11.976-14.9 3.5-14.9 3.5l3.116-5.258"/></g></g><path d="M340.173 459.783l-4.771 12.268" class="B E J O"/></g><path d="M254.895 436.96c.009 2.585 1.81 4.672 4.016 4.664s4-2.108 3.993-4.693-1.811-4.661-4.026-4.654-3.992 2.109-3.983 4.683z" class="G K"/><path d="M254.038 436.814c.009 2.556 1.665 4.62 3.693 4.612s3.677-2.083 3.668-4.638-1.664-4.608-3.7-4.6-3.67 2.081-3.661 4.626z" stroke-width=".25" class="C D P"/><path d="M253.362 436.715c.009 2.586 1.665 4.672 3.693 4.665s3.676-2.106 3.667-4.692-1.665-4.662-3.7-4.655-3.669 2.107-3.66 4.682z" fill="#5e5e5e"/><path d="M255.917 457.846c.009 2.584 1.8 4.672 4 4.664s3.985-2.108 3.975-4.693-1.8-4.661-4.008-4.654-3.981 2.108-3.967 4.683z" class="G K"/><path d="M255.06 457.699c.009 2.556 1.665 4.619 3.693 4.612s3.676-2.083 3.667-4.638-1.664-4.609-3.7-4.6-3.669 2.082-3.66 4.626z" stroke-width=".25" class="C D P"/><path d="M254.384 457.6c.009 2.586 1.665 4.673 3.693 4.666s3.677-2.107 3.667-4.692-1.665-4.662-3.7-4.655-3.669 2.106-3.66 4.681z" fill="#5d6670"/><path d="M314.307 403.339s-3.732 2.113-11.328 1.824a28.65 28.65 0 0 1-11.083-2.216" class="B D F J R"/><path d="M203.358 365.994s-18.928 3.416-21.759 30.873c0 .005 26.572-5.539 21.759-30.873z" fill="#666"/><g class="C"><g class="D"><path d="M167.52 358.42l-.06-1.365 16.746-10.71s-10.515-13.047-21.03-5.452q-.489.354-.94.718" class="E F"/><path d="M173.186 347.952l-44.768-77.16s0 4.673-6.425 3.213l42.91 74.33" stroke="#5e5e5e" class="I"/></g><path d="M160.77 342.412c-8.555 7.56-5.55 18.606-5.09 20.189.876 3.022 11.878 8.383 10.9-4.679"/></g><g class="D E"><path d="M161.168 342.213c-8.555 7.561-5.948 18.8-5.488 20.388.876 3.023 11.878 8.383 10.9-4.679" class="B F"/><g class="C"><path d="M190.295 391.661c-.491.331-5.31-21.753-4.725-27.206s-7.4-3.505-7.4-3.505c-20.641 2.142-15.579-13.242-15.579-13.242 9.736 1.558 19.083-2.531 19.083-2.531s8.374-4.284 12.073 8.957 9.982 14.41 9.982 14.41 1.088 13.337-13.434 23.117z" class="L"/><path d="M190.592 392.897s-2.343 2.75-3.876.56c-.9-1.289-4.662-6-5.457-9.261l3.86-.944" class="F"/></g></g><path d="M175.333 370.545c3.311-1.411 8.018-.372 8.958.049 2.824 1.266 8.345 11-2.337 14.312-8.391 2.6-16.983-6.848-18.3-12.17" class="C"/><g fill="#636363"><path d="M282.338 551.209a18.51 18.51 0 0 1 4.861-13.505c3.371-3.664 8.077-5.816 13.054-5.968 10.328-.116 19.085 9.029 18.3 19.862.762 6.143-35.213 5.959-36.215-.389zm-3.311-1.559c-2.037 3.754-30.085 5.647-41.006 2.256-2.857-.577-2.539-23.426 14.718-20.645 2.09 4.654 6.591 7.763 11.684 8.068 8.763.584 14.604 10.321 14.604 10.321z"/></g><path d="M338.925 364.973c-1.753-18.109 4.089-19.57 4.089-19.57" stroke-width="3.208" class="B D F J"/><g class="K M"><path d="M242.218 396.233c0-.043.006-.082.008-.125 0 0-.003.052-.008.125z" class="G"/><path d="M192.871 389.969s12.843 6.724 29.2 13.149c3.635 1.428 9.127 3.073 11.417 2.071 7.992-3.5 8.672-8.175 8.73-8.956-.6 11.89-3.206 17.985-3.206 17.985l-9.639-.3-45.858-16.643zm116.243 14.901l5.257-1.752s-3.505 16.941-6.134 18.986-14.9 2.921-17.525 0c0 0 11.684 2.045 14.9-.877 2.158-1.967 3.502-16.357 3.502-16.357zm-55.205-34.757l-2.337 2.921-5.842-13.144 2.629-3.8zm-23.515 12.997c-.86-3.512-3.362-6.394-6.718-7.74 4.382-2.629 10.077 3.651 10.077 3.651s-2.038 9.957-3.359 4.089zm81.348 90.596c-11.684-12.852 2.726-35.05 2.726-35.05l-7.01-8.568 18.3-13.241.013.013c6.795-13.229 12.984-32.435 12.984-32.435a54.42 54.42 0 0 0 8.617 10.807c4.089 4.235 8.7 7.723 14 6.161-1.148.556-2.391 1.361-3.339 1.871-3.8 2.045-5.842 2.483-9.13-.117a19.91 19.91 0 0 1-4.174-4.509 43.48 43.48 0 0 1-4.837-8.393l-6.395 26.455-4.6 3.1-3.335 3.081-11.677 8.57 4.089 6.037-2.532 8.957s-4.479 3.894-2.142 18.3 16.941 15.968 16.941 15.968l.048-.486 3.359 30.523-9.055 1.022c.43-6.285-.161-12.598-1.752-18.693a349.56 349.56 0 0 1-2.915-11.451c-2.925-2.429-5.661-5.077-8.184-7.922zm68.058-74.385c-2.837-11.35-17.063-29.755-30.81-41.75-5.7-6.153-7.535-1.661-6.869 6.992 0 0-3.25-6.74-2.083-13.841a57.83 57.83 0 0 0-21.419-8l7.621 16.283-22.2 15.968 5.063 11.683-41.494 29.018 34.4-28.43-4.284-13.631 21.03-16.747-7.01-16.356.511.054-2.855-5.507 4.681.584s19.277 2.63 30.085 8.471 43.813 43.522 42.645 57.25c0 0-.731 16.211-39.578 53.891l-5.988 3.943-6.134-6.426s47.901-40.597 44.688-53.449zM312.131 514.21l.014.079 6.022-1.05-2.229 28.333-8.482-1.458 1.128-19.41c-5.045 2.793-13.792 3.367-21.769 1.3l.389-5.452zm-52.964.386l2.726-11.684 1.948 12.462 15.188 1.948-1.454 29.8-8.282-3.222.593-21.06c-5.616 1.568-11.882 1.437-16.95-2.4l.779-6.232zm1.557-98.918s-7.205-41.477 6.036-81.4l4.089 3.505s-3.08 2.756-5.372 17.05l4.573-5.127 1.317 2.9-6.667 7.833c-1.239 10.378-2.023 25.349-1.492 46.871l14.955-53.85s4.079-6.426.276-10.809l4.971-.582.1 1.752 1.364-5.452 18.9-.516s-10.274.264-12.909 4.742c0 0-2.1 5.7-.733 17.583l-2.155 5.257-3.631-15 .724 5.067a3.76 3.76 0 0 1-2.108 2.37l-2.107 20.285-4.478 7.9 3.24-32.017-3.8 33.888-15.188 29.5v-.564l.514-1.908zm23.534-65.587l-.522-2.158.167 3.012a1.85 1.85 0 0 0 .355-.854z" class="G"/><path d="M263.794 335.551s-12.067 31.238-3.07 80.127c0 0-4.241-57.6 6.033-80.523l-1.186-2.371z" class="G"/></g><g class="D"><path d="M158.296 364.757c-.073 2.336 5.793 15.136 15.578 10.608 10.149-4.7 1.168-13.144-1.266-14.41" class="B E F"/><path d="M180.592 361.15l38.744 65.666c-.381 5.726-5.922 4.711-6.615 4.046l-27.489-47.9" class="C I O"/><path d="M178.109 371.86c1.314-5.55 5.743-2.088 6.474-1.363 1.614 1.6 8.443 10.906-2.239 14.215-8.392 2.6-19.415-5.985-19.2-11.464" class="B E F"/></g><ellipse cx="7.886" cy="4.381" rx="7.886" ry="4.381" transform="matrix(-.5 -.866025 .866025 -.5 123.143 277.605)" class="C I O"/><g class="K"><path d="M127.335 275.29l42.083 72.312 3.767.35-44.768-77.16zm60.787 105.307L217.1 429.53s.258 3.529 2.237-2.714l-31.214-51.818zm-11.063-19.757l4.742 7.9 4.412 1.58-6.388-9.878z" class="G"/><path d="M125.425 275.686s2.371-3.425-1.053-8.693-5.072-4.808-5.862-3.491.329-8.166 9.023 4.215c0 0 2.548 2.761 0 6.981-.424.701-.922.724-2.108.988z" class="G"/></g></g></svg>