<svg xmlns="http://www.w3.org/2000/svg" width="32.868" height="22.605" xmlns:v="https://vecta.io/nano"><path d="M15.265 3.411c4.246 4.039 8.9 7.174 12.613 11.817l2.847-5.074A85.15 85.15 0 0 1 11.2 4.108c-2.909-1.33-6.22 2.31-3.531 4.742l5.988 5.416c1.1.991 5.211 3.6 5.125 5.272l2.144-2.841c-7.206 1.1-12.291-7.01-19.731-3.591-2.325 1.067-.9 4.373 1.217 4.543 7.158.573 12.689 5.9 20.058 4.809a2.95 2.95 0 0 0 2.144-2.842c.156-2.772-1.161-4.308-3.122-6.19-3.15-3.024-6.462-5.9-9.687-8.847L8.274 9.32c6.643 3.151 13.677 5.399 20.916 6.685 1.31.296 2.658-.303 3.315-1.474s.467-2.634-.468-3.598C28.176 6.311 23.148 1.54 17.146.059a2 2 0 0 0-1.88 3.352z" fill="#ffb900"/></svg>