<svg xmlns="http://www.w3.org/2000/svg" width="82.3" height="80.954" viewBox="0 0 82.3 80.954"><g transform="translate(-1292.762 -6731.087)"><path d="M2151.808,556.146a42.245,42.245,0,0,1,6.034-7.861,41.75,41.75,0,0,1,7.681-6.149l-1.807-1.757c-5.509,7.326-11.175,14.519-17.068,21.541a1.4,1.4,0,0,0,0,1.949,1.445,1.445,0,0,0,1.991-.022,243.082,243.082,0,0,1,20.789-19.1l-2.186-1.627q-8.486,11.429-17.29,22.615a1.4,1.4,0,0,0,0,1.936,1.439,1.439,0,0,0,1.978-.022l21.1-20.558-1.925-1.864q-9.254,9.826-17.83,20.255a1.348,1.348,0,0,0-.11,1.769,1.386,1.386,0,0,0,1.773.332,29.075,29.075,0,0,0,6.675-5.526l-2.153-1.6a73.484,73.484,0,0,1-6.324,10.087c-.792,1.064.8,2.577,1.844,1.792l7.453-5.617-1.8-1.747q-2.476,4.251-4.967,8.492a1.285,1.285,0,0,0,1.774,1.724,38.362,38.362,0,0,0,7.213-6.221l-2.162-1.213a76.99,76.99,0,0,1-4.834,11.133,1.325,1.325,0,0,0,2.1,1.564q4.75-5.182,9.466-10.395l-2.105-1.567c-1.852,3.933-3.72,7.859-5.555,11.8a1.32,1.32,0,0,0,2.3,1.291c5.341-7.2,10.743-14.35,16.123-21.518l4.612-6.145-2.429-.98c-3.54,8.5-9.276,15.876-14.749,23.188l2.432,1.365q8.041-11.61,16.6-22.846l-2.489-.648c-.788,6.656-4.611,12.518-8.629,17.694a1.286,1.286,0,0,0,.346,1.7,1.368,1.368,0,0,0,1.773-.123q4.374-4.744,8.741-9.495l-2.256-1.266q-2.421,5.744-4.848,11.486a1.321,1.321,0,0,0,.627,1.511,1.425,1.425,0,0,0,1.66-.228q3.445-3.378,6.879-6.767l-2.334-.937a10.82,10.82,0,0,1-2.14,4.973,1.317,1.317,0,0,0,.486,1.814,1.417,1.417,0,0,0,1.86-.5,13.464,13.464,0,0,0,2.53-6.286c.178-1.243-1.583-1.673-2.334-.937q-3.445,3.378-6.882,6.764l2.287,1.283q2.406-5.747,4.812-11.5c.535-1.275-1.411-2.184-2.256-1.266q-4.37,4.748-8.74,9.5l2.119,1.578c4.336-5.6,8.113-11.836,8.971-19a1.3,1.3,0,0,0-.976-1.265,1.427,1.427,0,0,0-1.513.617q-8.583,11.223-16.726,22.774a1.368,1.368,0,0,0,.5,1.882,1.471,1.471,0,0,0,1.928-.517c5.7-7.493,11.246-15.136,14.879-23.881a1.27,1.27,0,0,0-.766-1.531,1.383,1.383,0,0,0-1.664.551l-16.116,21.522q-2.3,3.076-4.622,6.14l2.3,1.291c1.874-3.923,3.713-7.861,5.569-11.792a1.305,1.305,0,0,0-.344-1.69,1.357,1.357,0,0,0-1.761.122q-4.735,5.2-9.462,10.4l2.1,1.564a81.27,81.27,0,0,0,5.019-11.775,1.29,1.29,0,0,0-2.162-1.213,34.407,34.407,0,0,1-6.687,5.8l1.774,1.725q2.5-4.239,5-8.476c.631-1.066-.719-2.548-1.8-1.747l-7.487,5.56,1.844,1.792a71.648,71.648,0,0,0,6.358-10.068c.692-1.326-1.086-2.792-2.153-1.6a26.982,26.982,0,0,1-6.116,5.087l1.663,2.1q8.54-10.45,17.809-20.276a1.34,1.34,0,0,0-1.925-1.864l-21.156,20.508,1.977,1.914q9.038-11.45,17.717-23.18a1.328,1.328,0,0,0-.357-1.754,1.442,1.442,0,0,0-1.829.127,248.787,248.787,0,0,0-20.81,19.082l1.989,1.926c6.035-7.191,11.856-14.582,17.365-22.183.783-1.081-.759-2.448-1.808-1.757a41.674,41.674,0,0,0-13.837,15.426.832.832,0,0,0,1.451.814" transform="translate(-852.685 6228.875)" fill="#ffb900"/><path d="M2395.592,582.819c1.087-1.078,2.167-2.167,3.292-3.207s2.345-1.978,3.544-2.95l-2.12-1.19a23.388,23.388,0,0,1-3.189,7.673,1.27,1.27,0,0,0,.34,1.669,1.365,1.365,0,0,0,1.74-.121,128.557,128.557,0,0,0,9.5-9.168l-2.2-1.235a17.626,17.626,0,0,1-4.408,7.817c-1.093,1.124.295,2.623,1.594,2.014a24.721,24.721,0,0,0,8.8-6.929l-2.21-1.24a44.51,44.51,0,0,1-2.156,5.3c-.851,1.749-1.95,3.366-2.8,5.11a1.192,1.192,0,0,0,.315,1.545,1.236,1.236,0,0,0,1.61-.112,25.5,25.5,0,0,0,3.2-5.371,49.9,49.9,0,0,0,2.379-5.806,1.319,1.319,0,0,0-2.21-1.24,23.188,23.188,0,0,1-8.25,6.518l1.594,2.014a20.46,20.46,0,0,0,5.081-8.958,1.314,1.314,0,0,0-2.2-1.235c-3.019,3.209-6.2,6.249-9.506,9.159l2.079,1.548a24.341,24.341,0,0,0,3.349-8.315,1.268,1.268,0,0,0-2.12-1.19,38.969,38.969,0,0,0-6.367,6.908c-.57.8.675,1.632,1.326.987" transform="translate(-1078.724 6198.226)" fill="#ffb900"/><path d="M2552.079,138.657c1.1-1.112,2.178-2.264,3.34-3.312s2.359-2.076,3.473-3.183l-1.8.02c-.17-.213,0-.01-.036.113a3.813,3.813,0,0,1-.125.438,7.072,7.072,0,0,1-.777,1.28l-2.01,2.979-3.876,5.745q-3.946,5.85-7.865,11.72c-.853,1.276,1.149,2.754,2.139,1.593,6.069-7.115,12.184-14.194,18.187-21.364l-2.22-.891c-.269,3.791-2.706,7.013-5.055,9.827a94.756,94.756,0,0,0-7.818,10.218,63.048,63.048,0,0,0-3.647,6.694,1.28,1.28,0,0,0,.337,1.656,1.32,1.32,0,0,0,1.726-.12q9.519-12,19-24.031l-2.078-1.547q-6.109,10.838-12.984,21.217-1.949,2.94-3.933,5.856a1.291,1.291,0,0,0,.346,1.7,1.391,1.391,0,0,0,1.773-.123l8.005-6.916-2.008-1.494c-1.773,3.857-3.667,7.663-5.5,11.492a1.262,1.262,0,0,0,.2,1.5,1.292,1.292,0,0,0,1.531.179,43.7,43.7,0,0,0,8.238-7.066l-1.978-1.473q-2.208,4.672-4.446,9.329a1.276,1.276,0,0,0,2.023,1.506,86.5,86.5,0,0,1,8.1-7.257l-2.144-1.2a84.158,84.158,0,0,1-4.5,10.948c-.643,1.3,1.044,2.739,2.108,1.569,7.053-7.753,14.115-15.5,21.311-23.117,2.031-2.151,4.05-4.314,6.1-6.451l-2.077-1.546a246.252,246.252,0,0,1-17.031,25.235q-2.6,3.387-5.313,6.682l2.245,1.259c2.292-9.245,8.692-16.51,15.5-22.854,1.96-1.828,3.952-3.631,5.978-5.387l-2.015-1.5c-4.178,7.474-8.758,14.7-13.658,21.723-.854,1.223,1.142,2.695,2.08,1.548a115.86,115.86,0,0,1,13.36-13.816l-2.151-1.207a38.006,38.006,0,0,1-6.723,11.893,1.324,1.324,0,0,0,0,1.845,1.364,1.364,0,0,0,1.884-.021,88.087,88.087,0,0,1,8.008-7.937l-2.175-1.221q-.7,2.095-1.407,4.188c-.532,1.589,2,2.212,2.517.66q.7-2.094,1.4-4.19a1.268,1.268,0,0,0-.6-1.438,1.376,1.376,0,0,0-1.579.217,85.083,85.083,0,0,0-8.049,7.9l1.883,1.823a41.289,41.289,0,0,0,7.321-13.065c.453-1.311-1.276-1.967-2.151-1.207a115.856,115.856,0,0,0-13.412,13.766l2.08,1.548A240.234,240.234,0,0,0,2584.7,149.82a1.271,1.271,0,0,0-2.015-1.5c-7.285,6.362-14.831,12.951-19.339,21.683a34.3,34.3,0,0,0-2.908,7.635c-.293,1.208,1.363,2.343,2.244,1.259a271.194,271.194,0,0,0,18.1-25.039c1.572-2.458,3.121-4.934,4.624-7.435a1.309,1.309,0,0,0-2.076-1.546q-10.875,11.356-21.49,22.95-2.99,3.279-5.945,6.59l2.108,1.569a98.145,98.145,0,0,0,4.66-11.6,1.251,1.251,0,0,0-.587-1.417,1.373,1.373,0,0,0-1.557.214,75.442,75.442,0,0,0-8.1,7.251l2.023,1.506q2.194-4.681,4.4-9.356a1.226,1.226,0,0,0-.323-1.588,1.275,1.275,0,0,0-1.655.115,40.825,40.825,0,0,1-7.726,6.659l1.729,1.68c1.838-3.826,3.622-7.684,5.521-11.48a1.266,1.266,0,0,0-2.007-1.494l-8.105,6.819,2.119,1.577c4.753-6.793,9.178-13.822,13.369-20.974q1.783-3.044,3.5-6.124a1.278,1.278,0,0,0-.34-1.668,1.33,1.33,0,0,0-1.739.121q-9.477,12.036-18.989,24.044l2.063,1.536a62.649,62.649,0,0,1,7.042-11.647c2.525-3.3,5.577-6.229,7.667-9.846a15.875,15.875,0,0,0,2.143-6.517,1.306,1.306,0,0,0-2.22-.891c-6.149,7.042-12.191,14.18-18.275,21.279l2.139,1.593q4.277-6.4,8.528-12.815l4.249-6.416c1.2-1.808,3.067-4.061,1.365-6.15a1.3,1.3,0,0,0-1.8.02c-1.1,1.116-2.114,2.317-3.142,3.5s-2.144,2.291-3.216,3.433a.938.938,0,0,0,1.347,1.3" transform="translate(-1213.754 6602.468)" fill="#ffb900"/><path d="M2761.8,185.024c1.638-1.39,3.146-2.944,4.676-4.452s3.06-3.024,4.6-4.53l-1.982-1.475a51.722,51.722,0,0,0-3.85,9.894,1.29,1.29,0,0,0,2.36.953,45.1,45.1,0,0,1,7.95-9.33l-2.126-1.193a83.437,83.437,0,0,1-4.18,10.133,1.244,1.244,0,0,0,2.168,1.217c2.489-3.682,5.088-7.445,8.985-9.76l-1.674-1.627a104.727,104.727,0,0,1-6.915,12.342c-.793,1.257,1.04,2.567,2.046,1.523,2.582-2.678,5.194-5.329,7.719-8.06l-.866.355c.287.029-.654-.153-.511-.333-.008.01-.012.256-.016.277a3.2,3.2,0,0,1-.468,1.03q-.8,1.462-1.664,2.889c-1.15,1.9-2.447,3.706-3.628,5.587-.667,1.063.959,2.3,1.767,1.316a47.894,47.894,0,0,0,4.019-5.964c.609-1.022,1.2-2.057,1.757-3.109a3.8,3.8,0,0,0,.513-2.59c-.223-.971-1.357-1.871-2.357-1.292a7.817,7.817,0,0,0-1.338,1.251c-.482.474-.953.96-1.428,1.442l-5.342,5.419,2.046,1.523a119.154,119.154,0,0,0,6.783-12.415,1.214,1.214,0,0,0-1.674-1.627c-4.322,2.409-7.208,6.607-9.923,10.609l2.168,1.217a89.821,89.821,0,0,0,4.465-10.706c.441-1.288-1.261-1.958-2.126-1.193a46.172,46.172,0,0,0-8.382,9.82l2.361.953a48.241,48.241,0,0,1,3.539-9.324,1.25,1.25,0,0,0-1.982-1.475q-2.234,2.327-4.479,4.642c-1.491,1.544-3.028,3.068-4.4,4.72a.969.969,0,0,0,1.392,1.348" transform="translate(-1412.51 6562.453)" fill="#ffb900"/><path d="M2146.733,528.332a9.266,9.266,0,0,0-2.408,3.338,14.685,14.685,0,0,0-.9,4.073l1.021-.985a23.6,23.6,0,0,1-5.564-.231,1.077,1.077,0,0,0-1.327.987c-.418,3.427-.783,6.943.234,10.305a1.046,1.046,0,0,0,1,.757,16.865,16.865,0,0,0,2.357-.51,6.849,6.849,0,0,1,2.015-.367c.314.014.629.079.941.117.1.012.2.034.3.036-.274-.007.038.06-.139-.037-.257-.141-.523-.55-.312-.159a3.907,3.907,0,0,0,.426.591c.433.533.93,1.008,1.346,1.556.469.617.909,1.254,1.394,1.858a8.632,8.632,0,0,0,3.779,2.722l-.744-1.287c-.765,2.446-1.5,4.9-2.248,7.354a1.073,1.073,0,0,0,.761,1.316A39.717,39.717,0,0,0,2159,560.851a1.15,1.15,0,0,0,1.093-.813q.4-2.043.787-4.088l-1.1.816a11.111,11.111,0,0,0,5.1-.529,18.223,18.223,0,0,0,4.478-2.607,10.952,10.952,0,0,1,1.848-1.185,2.581,2.581,0,0,1,.519-.154c-.272.036.037.007.074.019-.345-.117.193.1.014.006-.125-.07.176.1.2.115.189.118-.088-.09.105.086a5.747,5.747,0,0,1,.563.6c.5.6.923,1.259,1.367,1.9a1.158,1.158,0,0,0,1.543.384,16.609,16.609,0,0,0,6.292-6.46,17.327,17.327,0,0,0,.937-2.065,3.645,3.645,0,0,0,.382-2.254c-.264-.862-1.146-1.158-1.877-1.519q-1.352-.669-2.706-1.336l.5,1.206a23.3,23.3,0,0,0,.872-6.577,17.218,17.218,0,0,0-1.139-6.508l-.5,1.189a21.873,21.873,0,0,0,2.549-1.466c.84-.541,2.345-1.368,2.358-2.533.009-.817-.9-1.727-1.376-2.33a21.219,21.219,0,0,0-7.091-5.879,1.152,1.152,0,0,0-1.506.4L2170.6,523.1l1.256-.512c-1.458-.565-2.747-1.47-4.172-2.1a8.692,8.692,0,0,0-4.988-.66l1.38.774q-.489-2.236-.976-4.472a1.13,1.13,0,0,0-1.075-.811,21.55,21.55,0,0,0-10.472,1.923c-1.443.659-3.331,1.539-3.2,3.419a12.652,12.652,0,0,0,.769,2.811l.917,2.907.518-1.222q-1.494,1.042-2.99,2.08c-1.166.811-.056,2.68,1.112,1.868q1.5-1.04,2.991-2.08a1.121,1.121,0,0,0,.518-1.222c-.5-1.6-1.055-3.193-1.5-4.808-.19-.684,0-.827.582-1.159a17.307,17.307,0,0,1,1.963-.953,19.39,19.39,0,0,1,8.769-1.358l-1.075-.811.969,4.474a1.146,1.146,0,0,0,1.38.774c2.96-.439,5.376,1.722,7.99,2.723a1.143,1.143,0,0,0,1.256-.512l2.677-3.844-1.505.4a19.573,19.573,0,0,1,4.219,2.89,20.38,20.38,0,0,1,1.88,1.939q.382.45.729.926.184.252.36.509c.146.214.391.883.3.191.01.079-.022-.7-.019-.407,0-.033.122-.107-.054.045-.155.134-.3.274-.463.4,0,0-.351.248-.482.336-.241.163-.486.319-.733.472a21.192,21.192,0,0,1-2.147,1.216,1.057,1.057,0,0,0-.5,1.189c1.543,3.675,1.356,8.2.253,11.973a1.063,1.063,0,0,0,.5,1.206q1.014.5,2.03,1l1.128.555a2.058,2.058,0,0,0,.451.222l.14.072q-.17-.49-.217-.191c-.154.167-.2.622-.287.846-.095.255-.2.506-.31.753a15.049,15.049,0,0,1-.892,1.664,14.645,14.645,0,0,1-5.1,4.953l1.543.384c-.816-1.17-1.652-2.687-2.936-3.414a3.5,3.5,0,0,0-3.621.435,51.875,51.875,0,0,1-4.5,2.941,9.248,9.248,0,0,1-5.138.726,1.132,1.132,0,0,0-1.1.816q-.391,2.045-.78,4.09l1.093-.813a37.426,37.426,0,0,1-9.774-.969l.761,1.316c.736-2.455,1.484-4.906,2.2-7.367a1.063,1.063,0,0,0-.744-1.287,7.069,7.069,0,0,1-3.245-2.7c-.456-.618-.908-1.241-1.407-1.826a11.684,11.684,0,0,1-1.07-1.275c-.521-.825-1.515-.841-2.419-.9-1.565-.111-3,.692-4.521.875l1,.757c-.967-3.179-.57-6.517-.18-9.758l-1.327.987a21.281,21.281,0,0,0,6.1.227,1.044,1.044,0,0,0,1.02-.985,11.388,11.388,0,0,1,2.485-6.529c.547-.707-.6-1.421-1.187-.883" transform="translate(-844.367 6251.175)" fill="#2f2f31"/><path d="M2307.352,671.418a6.558,6.558,0,0,0-4.663,1.83,11.44,11.44,0,0,0-2.991,4.265,9.019,9.019,0,0,0-.643,5.7,7.893,7.893,0,0,0,2.822,4.19c6.269,4.818,16.38-.872,15.811-8.7a8.425,8.425,0,0,0-2.4-5.267,6.934,6.934,0,0,0-5.188-2.251,1.1,1.1,0,0,0-1.072.919,1.031,1.031,0,0,0,.767,1.156,6.278,6.278,0,0,1,3.545,1.465,6.364,6.364,0,0,1,1.93,3.195c.667,2.72-.777,5.542-2.855,7.247a7.743,7.743,0,0,1-8.331,1.075,6.1,6.1,0,0,1-2.633-2.825,6.017,6.017,0,0,1-.045-4.259,10.171,10.171,0,0,1,2.229-3.962,8.482,8.482,0,0,1,1.774-1.466,12.155,12.155,0,0,1,2.116-.9.725.725,0,0,0-.177-1.423" transform="translate(-991.829 6108.994)" fill="#2f2f31"/><path d="M2540.8,157.011a31.807,31.807,0,0,0-1.2,4.723,1.946,1.946,0,0,0,.468,1.955,5.269,5.269,0,0,0,2.234.8,34.451,34.451,0,0,0,10.118.857,1.13,1.13,0,0,0,1.125-1.086q-.2-2.8-.405-5.6L2552,159.765a13.242,13.242,0,0,0,5.445-1.28,15.87,15.87,0,0,0,4.126-2.454,13.987,13.987,0,0,1,1.526-1.266c.092-.059.323-.13.375-.21-.025.038-.273.084-.133.025-.134.056-.211-.076-.007.027.035.017.29.115.11.038a7.776,7.776,0,0,1,1.278.711,3.1,3.1,0,0,1,.433.343q.056.051.108.106.113.128.023.022t0,.016a.8.8,0,0,1,.01-.81c-.684,1.074.977,2.33,1.791,1.333a41.84,41.84,0,0,0,5.1-7.892c.689-1.391,1.66-3.056.538-4.494a8.6,8.6,0,0,0-3.811-2.432l.692,1.669a13.745,13.745,0,0,0,1.377-6.889,15.963,15.963,0,0,0-.6-3.361c-.167-.579-.364-1.152-.583-1.714a8.638,8.638,0,0,1-.618-1.492l-.154.54c-.061.121-.027,0,.089-.033a2.767,2.767,0,0,0,.411-.2q.408-.2.806-.431a7.1,7.1,0,0,0,1.641-1.127,2.193,2.193,0,0,0,.115-2.75,36.42,36.42,0,0,0-4.767-6.448,5.562,5.562,0,0,0-3.273-1.967,2.2,2.2,0,0,0-1.772.744,18.8,18.8,0,0,0-2.654,3.709l1.77-.244a7.914,7.914,0,0,0-4.782-2.771,12.847,12.847,0,0,0-2.938-.048c-1.2.075-2.4.162-3.594.3-.867.1-2.567.13-2.539,1.4l2.243-.294q-.855-2.728-1.844-5.411a1.17,1.17,0,0,0-1.418-.8,61.528,61.528,0,0,0-6,2.263c-.946.416-1.87.873-2.8,1.315a11.363,11.363,0,0,0-1.9.978c-2.9,2.113.005,5.014,1.173,7.177l.179-1.333a53.888,53.888,0,0,0-6.726,8.455l.675-.508c-1.578.214-3.149.2-4.73.321-.8.06-1.128.638-1.214,1.345a21.444,21.444,0,0,0-.016,3.256c.093,2.83.249,5.664.485,8.486a2.3,2.3,0,0,0,.667,1.819c.687.521,1.624.255,2.407.167.915-.1,1.831-.2,2.745-.308l-1.13-1.122a8.212,8.212,0,0,0,1.491,4.184,20.221,20.221,0,0,0,2.688,3.474,28.965,28.965,0,0,0,3.2,2.715,8.017,8.017,0,0,0,3.887,1.718,1.152,1.152,0,0,0,1.154-1.114,1.136,1.136,0,0,0-1.124-1.116,6.288,6.288,0,0,1-2.762-1.428,27.359,27.359,0,0,1-2.737-2.373,17.474,17.474,0,0,1-2.163-2.772,6.476,6.476,0,0,1-1.341-3.284,1.126,1.126,0,0,0-1.13-1.122c-.749.085-1.5.174-2.246.262a10.343,10.343,0,0,1-2.086.2l.558.146-.146-.071.409.4c-.16-.2-.03-.089-.031.07,0-.06-.013-.123-.019-.182-.018-.194-.035-.388-.051-.583q-.075-.9-.138-1.8c-.118-1.66-.223-3.321-.306-4.984-.067-1.362-.152-2.736-.1-4.1,0-.1.012-.206.016-.31.005-.151.116-.309-.01,0,.016-.038.013-.085.028-.124-.049.133-.4.991-.757.708.105.084.635-.011.756-.014q1.133-.033,2.263-.132c.79-.07,2.086,0,2.635-.632s.975-1.454,1.469-2.144,1-1.36,1.523-2.017a52.449,52.449,0,0,1,3.5-3.935,1.12,1.12,0,0,0,.179-1.333c-.517-.967-1.2-1.838-1.714-2.807a5.256,5.256,0,0,1-.283-.582,2.636,2.636,0,0,1-.106-.347c-.044-.195-.069.07,0-.09a1.574,1.574,0,0,1,.829-.666,72.825,72.825,0,0,1,9.445-3.922l-1.418-.8q1.021,2.673,1.886,5.4a1.151,1.151,0,0,0,2.243-.294v-.012l-.156.551a.993.993,0,0,1-.6.463l.037-.012c.041.006.1-.031.146-.038.156-.025.312-.058.468-.083.255-.041-.033,0,.072-.011l.317-.038q.352-.041.7-.075c1.041-.1,2.085-.181,3.128-.244a10.174,10.174,0,0,1,2.064-.014,5.986,5.986,0,0,1,3.8,2.208,1.152,1.152,0,0,0,1.771-.244,19.982,19.982,0,0,1,1.239-1.955q.323-.448.678-.871c.1-.118.2-.236.3-.352q.1-.116.2-.225.136-.122-.074.048a1.025,1.025,0,0,0,.112-.063c-.094.09-.228.112-.069.044.14-.059-.3.043-.074.017.167-.019-.046-.013-.084-.02a2.3,2.3,0,0,1,.361.1c-.267-.1.2.119.279.165a8.7,8.7,0,0,1,1.563,1.373,23.389,23.389,0,0,1,1.714,2.048,29.406,29.406,0,0,1,2.4,3.632,1.06,1.06,0,0,0,.128.245c.206.186-.258.1.139-.1a1.762,1.762,0,0,0-.205.177,14.985,14.985,0,0,1-2.184,1.236,1.708,1.708,0,0,0-1.059,1.551,8.5,8.5,0,0,0,.868,2.321,12.653,12.653,0,0,1-.219,9.831,1.15,1.15,0,0,0,.692,1.669,8.459,8.459,0,0,1,1.456.73c.322.2,1.038.567,1.183.939s-.3,1.075-.461,1.42c-.28.592-.578,1.175-.888,1.752a41.775,41.775,0,0,1-4.1,6.208l1.791,1.333c.8-1.3-.853-2.4-1.793-2.947a6.658,6.658,0,0,0-1.614-.722,2.327,2.327,0,0,0-1.869.427,18.163,18.163,0,0,0-2,1.594,9.951,9.951,0,0,1-2.018,1.29,13.126,13.126,0,0,1-5.935,1.768,1.144,1.144,0,0,0-1.146,1.106q.223,2.8.446,5.6l1.125-1.086a32.169,32.169,0,0,1-8.38-.427c-.682-.13-1.357-.287-2.031-.454a2.084,2.084,0,0,0-.476-.118l-.168-.048.167.261a6.48,6.48,0,0,0,.106-1c.186-1.33.476-2.641.76-3.953a.843.843,0,0,0-1.629-.427" transform="translate(-1198.175 6617.199)" fill="#2f2f31"/><path d="M2695.2,281.5a6.4,6.4,0,0,0-3.028.128,8.765,8.765,0,0,0-2.785,1.448,11.743,11.743,0,0,0-3.867,5.1,8.3,8.3,0,0,0-.059,6.115,10.738,10.738,0,0,0,3.843,4.615,11.3,11.3,0,0,0,6.195,2.253,10.384,10.384,0,0,0,6.155-2.3c3.393-2.484,5.84-6.4,5.407-10.735a8.852,8.852,0,0,0-3.113-6.093,7.806,7.806,0,0,0-6.331-1.715c-1.162.224-.95,2.166.256,2.054a6.347,6.347,0,0,1,6.772,4.93c.8,3.33-.738,6.644-3.178,8.874a11.081,11.081,0,0,1-4.367,2.575,7.2,7.2,0,0,1-5.288-.9c-2.748-1.487-5.158-4.183-4.608-7.517a9.457,9.457,0,0,1,7.8-7.5c.7-.072,1.038-1.186.2-1.331" transform="translate(-1343.895 6465.543)" fill="#2f2f31"/></g></svg>