<svg xmlns="http://www.w3.org/2000/svg" width="70.535" height="75.288" viewBox="0 0 70.535 75.288"><g transform="translate(-1443.685 -6751.489)"><path d="M3998.044,470.347a39.637,39.637,0,0,1,11.448-17.087l-2.075-.242a2.216,2.216,0,0,1-.278,2.022c-.437.851-.982,1.649-1.488,2.459q-1.7,2.726-3.4,5.455l-6.788,10.917a1.342,1.342,0,0,0,2.129,1.584q9.1-10.124,18.192-20.261l5.147-5.736-2.118-1.577q-7.634,11.99-15.3,23.961l-4.368,6.826a1.351,1.351,0,0,0,.5,1.851,1.448,1.448,0,0,0,1.9-.508q9.317-12.039,18.6-24.1c.784-1.016,1.534-2.073,2.384-3.035a4.165,4.165,0,0,1,2.424-1.587l-1.713-.961c.227,1.084-.481,2.159-1.047,3.022-.761,1.162-1.568,2.3-2.354,3.442l-4.728,6.9q-4.764,6.948-9.531,13.895-2.692,3.924-5.384,7.849c-.907,1.325,1.2,2.872,2.234,1.663l22.56-26.422,6.41-7.507-2.2-.257c.446.873-.762,2.2-1.236,2.828q-1.4,1.845-2.807,3.686L4019.382,467q-5.771,7.576-11.538,15.155l-6.546,8.6a1.412,1.412,0,0,0,.38,1.867,1.528,1.528,0,0,0,1.946-.135c9.175-7.845,16.261-17.847,23.585-27.352q3.368-4.371,6.733-8.745l-2.484-1.394c-5.424,10.835-12.6,20.7-20.037,30.224-2.127,2.723-4.283,5.423-6.439,8.123a1.507,1.507,0,0,0,0,2.095,1.549,1.549,0,0,0,2.14-.024q11.128-12.687,22.188-25.435l6.269-7.182-2.451-1.376c-1.094,4.633-4.5,8.335-7.366,11.981l-10.034,12.765-5.689,7.237a1.5,1.5,0,0,0,2.153,2.085,185.873,185.873,0,0,0,18.961-17.887q2.557-2.692,5.09-5.407l-2.313-1.722a71.87,71.87,0,0,1-11.843,17.344c-1.251,1.347.781,3.284,2.017,1.954a74.759,74.759,0,0,0,12.369-17.87,1.431,1.431,0,0,0-.378-1.856,1.5,1.5,0,0,0-1.935.134c-5.967,6.327-11.946,12.664-18.452,18.447q-2.771,2.463-5.669,4.779l2.392,1.78,10.223-13.1,5.033-6.451c1.584-2.03,3.22-4.031,4.7-6.138a21.8,21.8,0,0,0,3.566-7.331,1.464,1.464,0,0,0-2.452-1.376q-11.116,12.7-22.236,25.389-3.145,3.581-6.284,7.167l2.138,2.07c7.678-9.683,15.4-19.4,21.809-29.985q2.678-4.422,5.013-9.038a1.418,1.418,0,0,0-.515-1.921,1.5,1.5,0,0,0-1.969.528q-5.865,7.561-11.714,15.135c-3.562,4.6-7.162,9.185-11.119,13.457a87.348,87.348,0,0,1-7.1,6.871l2.326,1.732q11.949-15.8,23.891-31.607c1.09-1.443,2.281-2.852,3.268-4.369a4.594,4.594,0,0,0,.606-4.711,1.42,1.42,0,0,0-2.2-.257l-22.585,26.4-6.417,7.5,2.234,1.663q9.857-14.371,19.687-28.761c.888-1.3,1.844-2.57,2.645-3.923a6.233,6.233,0,0,0,.971-4.525,1.419,1.419,0,0,0-1.713-.961c-2.311.389-3.774,2.357-5.111,4.091l-4.84,6.282-9.681,12.565q-2.732,3.546-5.462,7.095l2.394,1.343q7.617-12,15.242-23.992l4.359-6.832a1.336,1.336,0,0,0-2.118-1.577q-9.1,10.125-18.2,20.253-2.576,2.866-5.148,5.735l2.129,1.584,7.317-11.8q1.829-2.949,3.649-5.9c1.071-1.74,2.054-3.824.934-5.786a1.349,1.349,0,0,0-2.075-.242,40.041,40.041,0,0,0-11.588,18.367c-.383,1.286,1.592,1.758,2.006.526" transform="translate(-2538.844 6313.243)" fill="#ffb900"/><path d="M4014.493,501.167a22.066,22.066,0,0,1-9.952-16.68,19.916,19.916,0,0,1,7.872-17.434,25.25,25.25,0,0,1,11.245-4.656,17.365,17.365,0,0,1,11.7,1.844c5.537,3.369,8.022,10.375,7.414,16.614-.71,7.286-5.615,13.612-11.156,18.048q-1.055.844-2.151,1.633a1.153,1.153,0,0,0-.419,1.542,1.165,1.165,0,0,0,1.569.391c6.694-4.328,12.47-11.025,14.167-18.972,1.489-6.977-.608-15.058-6.208-19.727a17.677,17.677,0,0,0-11.635-3.854,27.078,27.078,0,0,0-13.3,3.666,23.489,23.489,0,0,0-8.068,7.606,22.427,22.427,0,0,0-3.328,10.657,23.02,23.02,0,0,0,9.067,19.327,18.625,18.625,0,0,0,2.338,1.421.828.828,0,0,0,.845-1.423" transform="translate(-2545.179 6301.652)" fill="#2f2f31"/><path d="M4149.066,603.85c-.216,1.459-.357,2.521-.508,3.994q-.331,3.249-.682,6.5c-.6,5.433-1.192,10.87-2.04,16.271-.4,2.561-.853,5.116-1.447,7.64-.251,1.07-.529,2.135-.855,3.185-.143.461-.3.919-.462,1.372-.075.2-.152.4-.233.6-.036.089-.073.179-.11.267.032-.078,0,.012-.072.161-.158.341-.324.677-.513,1q-.122.21-.256.412c-.062.093-.367.477-.15.223-.082.1-.161.193-.249.283s-.4.324-.118.133c-.1.066-.2.125-.3.19-.23.153.188-.153-.094.029-.032.021-.251.048-.022.013s.018.008-.024,0a1.5,1.5,0,0,1-.538-.176,2.717,2.717,0,0,1-.837-2.13,51.945,51.945,0,0,1,.529-7.51c.709-5.062,1.444-10.123,2.143-15.187.35-2.538.7-5.077,1.023-7.618a56.093,56.093,0,0,0,.688-7.455,14.158,14.158,0,0,0-.5-3.642.993.993,0,0,0-1.786-.22,22.648,22.648,0,0,0-4.1,10.932.971.971,0,0,0,.979.973,99.909,99.909,0,0,0,12.777-2.206c1.563-.377,4.464-.623,4.537-2.752a11.9,11.9,0,0,0-.694-3.142q-.415-1.6-.829-3.21-.941-3.642-1.881-7.284a1.034,1.034,0,0,0-1.865-.229,25.953,25.953,0,0,0-1.856,8.753.981.981,0,0,0,.98.974,1.021,1.021,0,0,0,1.008-.972c.317-2.622.528-5.329,1.627-7.768l-1.865-.229,1.921,7.4.961,3.7c.153.59.312,1.178.453,1.771.041.173.046.183-.014.242a1.442,1.442,0,0,1-.579.216,91.021,91.021,0,0,1-14.654,2.785l.979.973a20.393,20.393,0,0,1,3.8-9.989l-1.787-.22c.674,2.459.34,5.048.049,7.541-.3,2.611-.644,5.223-1.049,7.82-.819,5.26-1.643,10.52-2.208,15.815-.278,2.608-.474,5.24-.658,7.857-.141,1.995-.271,4.371,1.6,5.662a2.716,2.716,0,0,0,2.844.177,2.661,2.661,0,0,0,.3-.2c.055-.039.41-.314.076-.058.076-.058.155-.115.229-.176.057-.048.113-.1.167-.149a5.777,5.777,0,0,0,.7-.843,16.633,16.633,0,0,0,2.11-4.969,68.933,68.933,0,0,0,1.651-7.265c1.029-5.683,1.69-11.435,2.207-17.185q.548-6.1.79-12.224c.009-.232.019-.464.031-.7.039-.747-1.222-.921-1.333-.172" transform="translate(-2668.598 6178.674)" fill="#2f2f31"/><path d="M4102.551,966.216a4.722,4.722,0,0,0,1.87,1.038c.648.267,1.3.515,1.968.736a28.227,28.227,0,0,0,4.25,1.046,27.086,27.086,0,0,0,8.75.12,1.08,1.08,0,0,0-.264-2.122,37.675,37.675,0,0,1-8.1-.166,33.682,33.682,0,0,1-3.953-.832q-.945-.258-1.874-.57a6.314,6.314,0,0,0-2.073-.574.787.787,0,0,0-.568,1.324" transform="translate(-2636.489 5841.152)" fill="#2f2f31"/><path d="M4103.151,1047.241a27.982,27.982,0,0,0,7.33,1.527,31.9,31.9,0,0,0,3.615.1,14.185,14.185,0,0,0,3.888-.43,1.046,1.046,0,0,0-.256-2.054c-1.183-.061-2.414.185-3.6.227-1.165.042-2.331.044-3.5-.018a49.507,49.507,0,0,1-7.021-.963.836.836,0,0,0-.458,1.607" transform="translate(-2636.687 5767.541)" fill="#2f2f31"/><path d="M4128.274,1136.857a43.171,43.171,0,0,0,10.719.705,1.084,1.084,0,0,0,1.066-1.029,1.036,1.036,0,0,0-1.038-1.031,42.909,42.909,0,0,1-10.287-.258.89.89,0,0,0-1.051.591.831.831,0,0,0,.591,1.022" transform="translate(-2659.57 5685.818)" fill="#2f2f31"/><path d="M3944.433,936.922a8.888,8.888,0,0,0-1.54,1.264q-.694.638-1.375,1.289a37.483,37.483,0,0,0-2.691,2.635.984.984,0,0,0,0,1.381,1.04,1.04,0,0,0,1.411-.016c.962-.8,1.8-1.757,2.68-2.646.428-.435.854-.871,1.274-1.313a8.964,8.964,0,0,0,1.317-1.549.779.779,0,0,0-1.075-1.045" transform="translate(-2487.114 5866.752)" fill="#2f2f31"/><path d="M3865.238,834.785a13.725,13.725,0,0,0-3.463,1.106c-1.165.457-2.353.885-3.483,1.422a1.027,1.027,0,0,0,.792,1.878c1.17-.452,2.3-1.012,3.432-1.544a13.673,13.673,0,0,0,3.186-1.748.655.655,0,0,0-.464-1.113" transform="translate(-2413.463 5959.801)" fill="#2f2f31"/><path d="M3858.262,665.946c-.256-.034-.558-.129-.834-.171s-.574-.078-.861-.113c-.464-.057-.979-.135-1.461-.218-1.06-.181-2.108-.419-3.166-.609a1.083,1.083,0,0,0-1.289.725,1.029,1.029,0,0,0,.725,1.253,21.477,21.477,0,0,0,3.378.6q.8.092,1.6.149c.267.019.536.036.8.036.292,0,.584-.056.868-.062a.835.835,0,0,0,.823-.7.791.791,0,0,0-.589-.887" transform="translate(-2406.936 6114.798)" fill="#2f2f31"/><path d="M4157.048,358.882c-.083-.4-.222-.791-.337-1.187s-.216-.8-.315-1.2c-.2-.8-.335-1.621-.458-2.439a1.011,1.011,0,0,0-1.126-.728,1.023,1.023,0,0,0-.912,1,15.693,15.693,0,0,0,.541,2.7c.117.4.26.787.414,1.173a6.93,6.93,0,0,0,.637,1.335.857.857,0,0,0,1.557-.646" transform="translate(-2683.499 6398.855)" fill="#2f2f31"/><path d="M4352.514,352.174c.091-.527.07-1.051.122-1.582,0-.032.048-.383.023-.214.013-.09.03-.18.047-.27.046-.24.1-.478.17-.713a7.288,7.288,0,0,1,1.148-2.407.981.981,0,0,0-.362-1.353,1.063,1.063,0,0,0-1.387.372,7.811,7.811,0,0,0-1.321,2.884,8.742,8.742,0,0,0-.218,1.608,4.051,4.051,0,0,0,.182,1.681.831.831,0,0,0,1.6-.005" transform="translate(-2862.992 6405.977)" fill="#2f2f31"/><path d="M4480.016,467.333a7.846,7.846,0,0,0,1.869-.972q.814-.488,1.614-.994l1.6-1.016a12.7,12.7,0,0,0,1.784-1.231,1,1,0,0,0,.083-1.335,1.063,1.063,0,0,0-1.338-.25,11.3,11.3,0,0,0-1.6,1.025l-1.617,1.114c-.522.36-1.038.728-1.551,1.1a7.761,7.761,0,0,0-1.6,1.287.761.761,0,0,0,.75,1.273" transform="translate(-2980.005 6300.292)" fill="#2f2f31"/><path d="M4545.224,690.379l.149.006-.372-.1a5.53,5.53,0,0,0,2.016.313c.647.041,1.3.06,1.946.072,1.3.025,2.6.068,3.894.008a1.086,1.086,0,0,0,1.072-1.035,1.05,1.05,0,0,0-1.044-1.037c-1.3-.06-2.6-.016-3.894.009-.649.012-1.3.032-1.948.072a5.637,5.637,0,0,0-2.04.32l.389-.1-.15.006a.734.734,0,0,0-.02,1.468" transform="translate(-3039.71 6093.127)" fill="#2f2f31"/><path d="M4490.271,860.853a7.272,7.272,0,0,0,1.68,1.139c.6.339,1.2.663,1.8.994,1.184.653,2.382,1.279,3.609,1.845a1.126,1.126,0,0,0,1.475-.4,1.049,1.049,0,0,0-.386-1.439c-1.19-.644-2.411-1.228-3.645-1.785-.608-.274-1.214-.551-1.823-.823a7.7,7.7,0,0,0-2.01-.723.769.769,0,0,0-.816.333.711.711,0,0,0,.112.854" transform="translate(-2990.058 5937.118)" fill="#2f2f31"/><path d="M4373.815,965.428c.021.057.042.114.063.171l.181-.655a.766.766,0,0,0-.245.661c0,.2,0-.012,0,.149a1.481,1.481,0,0,0,.052.316,5.057,5.057,0,0,0,.274.764,13.3,13.3,0,0,0,.818,1.669,13.764,13.764,0,0,0,2.154,2.768,1.058,1.058,0,0,0,1.46-.016,1.026,1.026,0,0,0,0-1.43l-.117-.142s-.168-.212-.088-.109l-.113-.144c-.057-.071-.113-.143-.171-.213-.08-.1.092.121-.03-.037l-.111-.145c-.083-.109-.169-.216-.253-.325-.327-.423-.627-.863-.923-1.308s-.565-.87-.833-1.313c-.289-.48-.7-1.419-1.377-1.35l.592.332-.076-.166a.681.681,0,0,0-.855-.27.671.671,0,0,0-.406.793" transform="translate(-2884.02 5841.433)" fill="#2f2f31"/><path d="M3925.062,446.676a9.234,9.234,0,0,0,1.4,1.831q.708.823,1.449,1.616a20.624,20.624,0,0,0,3.35,2.983,1.032,1.032,0,0,0,1.315-.272.991.991,0,0,0-.079-1.31c-.966-1.049-2.039-1.995-3.062-2.989q-.757-.736-1.484-1.5a12.98,12.98,0,0,0-1.628-1.6.94.94,0,0,0-1.115.153.925.925,0,0,0-.146,1.09" transform="translate(-2474.718 6314.97)" fill="#2f2f31"/></g></svg>