<svg xmlns="http://www.w3.org/2000/svg" xmlns:xlink="http://www.w3.org/1999/xlink" width="64.664" height="69.918" viewBox="0 0 64.664 69.918"><defs><clipPath id="a"><rect width="64.664" height="69.918" fill="none"/></clipPath></defs><g clip-path="url(#a)"><path d="M28.073,283.143a35.592,35.592,0,0,1,6.655-6.553l-1.365-1.327c-2.6,4.182-5.091,8.43-7.63,12.647-.689,1.144.838,2.061,1.748,1.3a145.41,145.41,0,0,0,13.349-12.6L39.065,274.9q-6.9,8.77-13.776,17.555a1.287,1.287,0,0,0,1.848,1.79l11.142-9.7c3.56-3.1,7.031-6.675,11.258-8.849l-1.668-2.108c-7.194,7.916-14.154,16.058-21.194,24.112-1.292,1.478.64,3.178,2.1,2.036l21.46-16.744-2.123-2.056a216.2,216.2,0,0,0-20.2,22.274,1.493,1.493,0,0,0,2.145,2.077c6.176-5.507,12.366-11.009,19.057-15.89l-1.849-2.335c-6.946,7.114-13.849,14.276-19.712,22.331-.892,1.226.915,2.959,2.115,2.056l21-15.811-1.9-2.394Q39.89,303.132,31,313.021c-1.134,1.262.4,3.513,1.914,2.417L49.641,303.35l-2.177-2.115-8.24,12.472c-.917,1.388.876,2.858,2.187,2.125l9.468-5.291-2.355-1.76a51.5,51.5,0,0,1-3.606,7.736c-.677,1.193,1.06,2.582,1.965,1.463a28.565,28.565,0,0,0,4.739-8.386c.5-1.377-1.231-2.389-2.355-1.76l-9.463,5.3,2.187,2.125,8.228-12.479c.851-1.29-.9-3.039-2.176-2.115L31.33,312.773l1.914,2.417q8.876-9.9,17.752-19.8c1.117-1.246-.416-3.511-1.9-2.394L28.114,308.84l2.115,2.056c5.695-7.846,12.447-14.809,19.2-21.738,1.167-1.2-.419-3.381-1.849-2.335-6.9,5.045-13.3,10.7-19.668,16.389l2.145,2.077a216.216,216.216,0,0,1,20.182-22.295c1.436-1.38-.667-3.193-2.123-2.056L26.675,297.7l2.1,2.036c7.034-8.064,14.166-16.06,21.043-24.258a1.359,1.359,0,0,0-1.668-2.108c-4.1,2.317-7.5,5.611-11.02,8.7L25.29,292.454l2.052,1.528q6.848-8.807,13.684-17.623c.871-1.124-1.03-2.475-1.96-1.459a152.209,152.209,0,0,1-13.158,12.788l1.748,1.3c2.482-4.249,5.012-8.474,7.435-12.756.584-1.032-.742-1.871-1.571-1.17a37.123,37.123,0,0,0-6.667,7.394c-.527.768.69,1.365,1.221.685" transform="translate(-22.728 -248.727)" fill="#ffb900"/><path d="M340.605,30.467c.511-1.646,2.339-2.633,3.337-3.981a13.305,13.305,0,0,0,2.151-4.578,17.122,17.122,0,0,0,.1-7.259c-.8-4.634-2.7-10.145-6.525-13.168-4.226-3.343-9.528-.727-8.793,4.826.26,1.967,1.1,3.786,1.289,5.773a19.461,19.461,0,0,1-.8,6.885c-1.1,4.024-2.731,7.92-4.12,11.85-.5,1.4,1.715,1.921,2.22.582,2.142-5.675,5.116-11.788,5.11-17.966,0-2.919-1.6-5.648-1.495-8.5.17-4.62,4.724-2.484,6.461-.41,2.7,3.228,4.152,7.872,4.6,12.007a12.67,12.67,0,0,1-1.314,7.51c-1.184,2.15-3.722,3.418-4.235,5.9a1.044,1.044,0,0,0,2.018.529" transform="translate(-297.897 0)" fill="#707070"/><path d="M426.773,322.518c5.143.846,10.667.294,15.535,2.453a9.816,9.816,0,0,1,3.479,2.39c.326.376,1.213,1.586.947,2.147a9.013,9.013,0,0,1-2.475.888,22.573,22.573,0,0,1-9.873.416c-1.4-.2-2.084,1.766-.618,2.166a21.184,21.184,0,0,0,12.349-.565c1.13-.4,2.812-.843,3.238-2.132.432-1.307-.512-2.935-1.235-3.933-4.41-6.095-14.41-5.626-21.048-5.862-1.154-.041-1.5,1.834-.3,2.032" transform="translate(-387.903 -291.81)" fill="#707070"/><path d="M526.84,433.912c1.441.308,3.648,1.229,4.09,2.83.623,2.253-2.714,3.1-4.194,3.5a17.506,17.506,0,0,1-10.048-.559c-1.2-.376-2.09,1.506-.89,2.064,4.954,2.3,12.02,2.045,16.477-1.372,4.317-3.309-1.58-8.211-5.135-8.5a1.04,1.04,0,0,0-.3,2.036" transform="translate(-469.129 -393.231)" fill="#707070"/><path d="M468.09,536.293c1.83,2.152-1.021,4.17-2.816,4.715a22.263,22.263,0,0,1-5.167.811,35.931,35.931,0,0,1-9.918-1.076,1.128,1.128,0,0,0-.619,2.17,26.645,26.645,0,0,0,16.689.3c3.485-1.2,6.477-5.167,3.348-8.416-.946-.981-2.392.47-1.516,1.5" transform="translate(-408.621 -486.646)" fill="#707070"/><path d="M305.789,607.867c-1.307,7.372-10.534,6.532-15.973,5.656-3.131-.5-5.614-1.257-7.552-3.913-1.246-1.707-2.3-3.47-4.17-4.556-1.1-.636-2.524,1-1.436,1.836,2.4,1.849,3.471,4.809,5.843,6.664,2.794,2.184,6.734,2.462,10.134,2.851,6.1.7,14.1-.742,15.268-7.983.22-1.369-1.873-1.92-2.115-.555" transform="translate(-251.551 -550.786)" fill="#707070"/><path d="M282.963,312.622c-3.972,11.336-4.357,24.608-2.707,36.4.178,1.271,2.432.977,2.3-.3a102.378,102.378,0,0,1-.437-17.578c.415-6.123,1.733-11.976,2.938-17.968a1.083,1.083,0,0,0-2.093-.549" transform="translate(-254.344 -283.959)" fill="#707070"/><path d="M.773,687.578c9.221,1.971,18.345,4.279,27.512,6.478a1.178,1.178,0,0,0,.646-2.265c-9.051-2.575-18.33-4.521-27.574-6.257-1.334-.25-1.958,1.751-.583,2.045" transform="translate(0 -624.175)" fill="#707070"/><path d="M9.2,338.789q1.406-19.208,4.175-38.286l-1.5,1.114c7.847,1.409,16.387,2.029,24.246.336,1.286-.277,1.066-2.389-.285-2.288-7.9.594-15.441,1.035-23.324-.279a1.217,1.217,0,0,0-1.5,1.114q-2.722,19.07-4,38.286c-.093,1.388,2.085,1.364,2.185,0" transform="translate(-6.389 -272.577)" fill="#707070"/><path d="M160.869,618.359a9,9,0,0,0-5.058,2.785c-1.046,1.175-2.076,3.005-.22,4.013,3.2,1.737,7.651-1.43,8.161-4.671a1.122,1.122,0,0,0-2.168-.569,4.39,4.39,0,0,1-4.369,3.313q-.339-.139-.3.252a5.65,5.65,0,0,1,.542-.745,7.033,7.033,0,0,1,3.963-2.323c1.377-.306.81-2.312-.551-2.055" transform="translate(-140.735 -563.011)" fill="#707070"/></g></svg>