<svg xmlns="http://www.w3.org/2000/svg" width="43.886" height="63.711" viewBox="0 0 43.886 63.711"><g transform="matrix(0.454, 0.891, -0.891, 0.454, 1880.242, -2386.722)"><g transform="translate(1280.414 2744.252)"><path d="M1289.1,2752.435a39.607,39.607,0,0,1,4.8-5.434l-1.339-.751c-1.516,3.649-2.947,7.334-4.4,11.008-.36.908,1.057,1.373,1.527.616a93.087,93.087,0,0,1,7.378-10.264l-1.387-.778a87.8,87.8,0,0,1-5.488,13.063.85.85,0,0,0,1.482.832,96.516,96.516,0,0,1,8.858-13.82l-1.437-.807-5.618,14.835c-.349.922,1.12,1.46,1.575.636q2.289-4.147,4.685-8.233c.762-1.3,1.523-2.6,2.313-3.882a6.053,6.053,0,0,1,2.879-2.885l-.985-1.261-6.7,14.841c-.469,1.038.985,1.887,1.56.875q4.165-7.34,8.789-14.4l-1.753-.216c.49,1.2-.277,2.564-.7,3.7q-.663,1.794-1.319,3.59l-2.638,7.181c-.381,1.037,1.3,1.689,1.788.721l3.539-7.062,1.7-3.4c.355-.709,1.059-2.863,2.024-2.944l-.928-1.2q-2.12,6.553-4.24,13.107c-.334,1.033,1.326,1.712,1.78.719a77.653,77.653,0,0,1,8.522-14.327l-1.759-.71a131.947,131.947,0,0,1-5.173,14.617c-.424,1.01,1.33,1.7,1.781.719a101.133,101.133,0,0,1,8.837-15.488l-1.76-.71a102.151,102.151,0,0,1-5.536,16.314c-.481,1.1,1.107,2.018,1.645.923,2.82-5.74,5.6-11.517,9.888-16.339l-1.442-.809a96.649,96.649,0,0,1-6,15.878c-.5,1.038,1.027,1.9,1.561.876q2.1-4.01,4.19-8.026c.675-1.294,1.34-2.6,2.026-3.884.6-1.133,1.242-2.43,2.528-2.9l-1.08-1.062q-2.664,7.074-5.426,14.111c-.365.925.983,1.524,1.6.9,4.132-4.2,5.256-10.8,10.044-14.388l-1.4-1.048q-2.8,7.6-5.993,15.041c-.441,1.033,1.238,1.609,1.773.715,3.146-5.254,6.3-10.5,9.763-15.56l-1.765-.712a64.656,64.656,0,0,1-6.062,14.844c-.628,1.125,1.029,2,1.716.963l5.869-8.886-1.771-.715a50.68,50.68,0,0,0-2.48,10.463c-.1.771.871,1.1,1.432.8a8.411,8.411,0,0,0,3.961-4.427c.391-.949-1.267-1.6-1.67-.674a6.841,6.841,0,0,1-3.247,3.5l1.432.8a47.934,47.934,0,0,1,2.44-9.975c.389-1.083-1.2-1.565-1.771-.715l-5.911,8.863,1.716.963a65.685,65.685,0,0,0,6.209-15.318.965.965,0,0,0-1.765-.712c-3.463,5.054-6.622,10.3-9.771,15.556l1.773.715q3.179-7.445,5.967-15.048a.951.951,0,0,0-1.4-1.048c-5.029,3.766-6.181,10.3-10.438,14.688l1.6.9q2.727-7.043,5.292-14.147a.873.873,0,0,0-1.08-1.062c-2.617.972-3.632,3.739-4.839,6.038q-2.51,4.784-5.018,9.569l1.561.876a101.776,101.776,0,0,0,6.1-16.317.861.861,0,0,0-1.442-.809c-4.38,4.884-7.43,10.751-10.312,16.6l1.645.923a104.906,104.906,0,0,0,5.748-16.75.962.962,0,0,0-1.76-.71,101.149,101.149,0,0,0-8.857,15.477l1.781.719a132.766,132.766,0,0,0,5.15-14.623c.325-1.123-1.155-1.513-1.759-.71a77.652,77.652,0,0,0-8.541,14.316l1.78.718q2.125-6.552,4.244-13.106a.955.955,0,0,0-.928-1.2c-2.557.213-3.415,3.267-4.393,5.218l-4.59,9.153,1.788.721,3.045-8.285c.76-2.066,2.5-4.967,1.575-7.175a.977.977,0,0,0-1.753-.216q-4.547,7.1-8.695,14.449l1.56.875,6.669-14.861c.281-.625-.2-1.54-.985-1.261-2.732.968-4,3.765-5.377,6.105q-2.845,4.821-5.542,9.727l1.575.636,5.614-14.835c.3-.791-.914-1.451-1.437-.807a98.875,98.875,0,0,0-9.123,14.166l1.482.832a90.984,90.984,0,0,0,5.606-13.475.828.828,0,0,0-1.387-.778,96.205,96.205,0,0,0-7.648,10.591l1.527.616c1.457-3.67,2.94-7.331,4.335-11.025.295-.78-.816-1.272-1.339-.751a28.834,28.834,0,0,0-4.618,6c-.367.628.554,1.089.955.536Z" transform="translate(-1288.061 -2744.252)" fill="#ffb900"/></g><g transform="translate(1279.978 2747.202)"><path d="M1280.352,2799.29a48.256,48.256,0,0,0-.366,6.954c.036,1.925-.106,4.276.681,6.065.194.442.915.287,1.021-.138.473-1.91,0-4.259-.111-6.214-.121-2.226-.24-4.443-.409-6.665a.409.409,0,0,0-.816,0Z" transform="translate(-1279.978 -2798.904)" fill="#696969"/></g><g transform="translate(1280.988 2759.154)"><path d="M1298.964,3022.027c5.94,1.042,12.161.952,18.174.98,7.552.035,15.109-.06,22.654-.4,2.864-.13,6.011-.077,8.8-.823a.735.735,0,0,0-.18-1.443c-2.53-.046-5.106.278-7.635.4-3.47.172-6.943.276-10.417.351q-11.164.241-22.339.184c-2.984-.019-5.966-.02-8.948.018-.408.005-.548.654-.108.731Z" transform="translate(-1298.693 -3020.335)" fill="#696969"/></g><g transform="translate(1280.269 2744.866)"><path d="M1285.691,2758.338c6.9-.214,13.785-.721,20.695-.859,7.132-.143,14.286-.2,21.415.063,2.645.1,5.312.237,7.946.5.825.083.941-1.138.2-1.373a26.258,26.258,0,0,0-6.767-.84c-3.42-.157-6.845-.2-10.268-.2-6.8-.013-13.626.1-20.413.529-4.333.271-8.6.891-12.888,1.544-.371.056-.291.652.08.64Z" transform="translate(-1285.369 -2755.624)" fill="#696969"/></g><g transform="translate(1324.957 2746.919)"><path d="M2119.477,2793.96c-1.766-.841-3.234.261-4.271,1.725a1.767,1.767,0,0,0-.351,1.787c.235.572,1.42,1.008,1.519,1.45.111.494-2.1,1.868-2.561,2.5a2.175,2.175,0,0,0-.39,2.146c.979,2.432,4.379.573,5.431,2.609.3.578,1.058.218,1.129-.3.16-1.174-.814-1.916-1.873-2.165-.8-.188-3.8.364-2.963-1.559.3-.692,1.661-1.416,2.2-1.886.795-.7,1.109-1.509.242-2.311-.474-.438-1.505-.669-1.326-1.482.232-1.053,2.025-2.223,2.973-1.945.329.1.572-.408.243-.565Z" transform="translate(-2113.284 -2793.668)" fill="#696969"/></g><g transform="translate(1330.177 2746.198)"><path d="M2210.083,2780.953c1.553,1.936,4.178,3.29,6.348,4.422a25.479,25.479,0,0,0,7.258,2.939c.766.125,1.316-.858.563-1.306-2.23-1.328-4.82-2.13-7.141-3.31-2.165-1.1-4.339-2.636-6.656-3.37-.392-.124-.588.356-.371.625Z" transform="translate(-2209.993 -2780.308)" fill="#696969"/></g><g transform="translate(1330.181 2753.703)"><path d="M2210.581,2925.512a40.354,40.354,0,0,0,7.021-2.38c1.962-.78,4.387-1.379,6.051-2.7a.638.638,0,0,0-.452-1.084c-2.221.216-4.528,1.566-6.581,2.409a38.144,38.144,0,0,0-6.351,3.021.4.4,0,0,0,.312.737Z" transform="translate(-2210.072 -2919.344)" fill="#696969"/></g><g transform="translate(1339.813 2751.716)"><path d="M2389.244,2882.538c-.525.241-.756,1.1-.726,1.949a3.325,3.325,0,0,0,.816,2.223c.29.3.682-.014.776-.511a7.682,7.682,0,0,1,.6-1.873l-.832.185c.289.533.657,1.161,1.121,1.165.367,0,.54-.6.4-1.09a6.2,6.2,0,0,0-.771-1.275c-.245-.45-.647-.211-.832.185a9.478,9.478,0,0,0-.7,2.271l.776-.511c-.484-.5-.345-1.568-.3-2.328.015-.268-.173-.458-.32-.39Z" transform="translate(-2388.515 -2882.525)" fill="#696969"/></g><g transform="translate(1282.09 2748.69)"><path d="M1319.421,2827.986c6.177.6,12.581.225,18.8.24,6.253.015,12.509-.04,18.76-.2a26.845,26.845,0,0,0,6.393-.546.5.5,0,0,0-.121-.974c-4.755-.121-9.548.178-14.311.243q-8.555.116-17.11.221c-4.123.049-8.3-.069-12.4.391a.312.312,0,0,0-.008.625Z" transform="translate(-1319.118 -2826.478)" fill="#696969"/></g><g transform="translate(1282.555 2755.433)"><path d="M1328.041,2952.763c4.817.73,9.9.43,14.756.469q9.6.077,19.208-.037a40,40,0,0,0,6.975-.405c.693-.132.461-1.048-.139-1.119-4.848-.567-9.949-.09-14.821-.065-6.294.033-12.588.044-18.881.1-2.319.021-4.662-.039-6.971.187-.455.044-.676.784-.127.867Z" transform="translate(-1327.718 -2951.395)" fill="#696969"/></g></g></svg>