<svg xmlns="http://www.w3.org/2000/svg" width="1002.539" height="378.39" xmlns:v="https://vecta.io/nano"><path d="M410.589 338.806l7.824-8.028-2.777-2.067-11.141 19.015c-1.045 1.784 1.339 3.365 2.778 2.067l20.08-18.112-2.777-2.067-20.16 28.813a1.73 1.73 0 0 0 1.049 2.531c3.246 1.231 5.847-2.035 7.77-4.1l6.975-7.488 14.19-15.235-2.777-2.067-21.352 30.831q-2.928 4.438-5.762 8.938a1.73 1.73 0 0 0 1.5 2.589c3.384-.19 5.241-3.032 7.2-5.417q3.27-3.978 6.644-7.871 6.772-7.812 13.948-15.263 4.063-4.222 8.251-8.323l-2.777-2.067-21.96 30.343-6.215 8.588c-1.182 1.632 1.462 3.516 2.777 2.067l15.139-16.673 7.569-8.336 3.481-3.761c.806-.933 1.957-1.496 3.188-1.561l-1.681-2.18c-3.723 10.862-13.062 18.743-16.548 29.752a1.76 1.76 0 0 0 .854 1.941c.686.384 1.542.269 2.101-.283l8.271-9.427c2.122-2.419 4.35-5.137 7.446-6.322l-2.217-1.672a24.86 24.86 0 0 1-3.721 11.651c-1.2 1.943 1.885 3.613 3.053 1.713 2.492-4.035 3.937-8.627 4.207-13.361a1.75 1.75 0 0 0-2.217-1.672c-3.549 1.358-6.145 3.933-8.609 6.738q-4.361 4.961-8.713 9.931l2.954 1.658c1.708-5.4 4.986-10.1 8.16-14.727 3.254-4.743 6.508-9.541 8.388-15.025.138-.521.026-1.077-.303-1.504s-.839-.677-1.378-.676c-2.636-.062-4.768 1.537-6.493 3.373-2.047 2.178-4.025 4.427-6.035 6.64l-12.418 13.677q-3.491 3.843-6.979 7.686l2.777 2.067q10.98-15.171 21.96-30.344 3.108-4.294 6.215-8.588c1.206-1.667-1.411-3.408-2.778-2.067q-14.178 13.9-26.937 29.155l-3.584 4.357c-.737.9-1.7 2.246-2.976 2.317l1.5 2.59c6.649-10.571 13.748-20.85 20.943-31.054q3.078-4.362 6.17-8.714c1.169-1.648-1.446-3.5-2.777-2.067l-13.229 14.2-6.493 6.972-3.308 3.547c-.644.653-1.485 1.541-2.45 1.175q.524 1.266 1.049 2.53l20.159-28.813a1.69 1.69 0 0 0-.453-2.229c-.712-.515-1.69-.448-2.324.161l-20.082 18.111 2.777 2.068 11.142-19.015a1.75 1.75 0 0 0-2.778-2.067l-7.823 8.027a1.74 1.74 0 0 0 .079 2.42 1.74 1.74 0 0 0 2.421.001zm158.014 2.239c3.886-2.808 7.857-5.508 11.94-8.02l-2.267-2.2q-5.4 8.156-10.75 16.343a1.69 1.69 0 0 0 .454 2.225c.712.509 1.685.442 2.319-.161l14.007-11.981-2.777-2.067-13.323 17.657c-1.1 1.462 1.021 3.19 2.413 2.345a115.22 115.22 0 0 0 21.878-17.2q-1.249-1.21-2.5-2.421l-20.2 22.171c-.669.68-.669 1.77 0 2.45a1.84 1.84 0 0 0 2.5-.028l32.713-25.518-2.5-2.421q-13.76 15.261-27.518 30.527l-7.828 8.686c-.642.691-.614 1.769.064 2.425s1.756.649 2.426-.015l26.7-24.365 7.59-6.927-2.918-1.638c-1.724 5.591-5.629 10.021-9.8 13.972-4.389 4.158-9.187 7.907-13.2 12.452a34.72 34.72 0 0 0-5.717 8.515 1.75 1.75 0 0 0 2.773 2.064l29.017-24.217-2.716-2.022-15.464 24.088c-1.049 1.63 1.26 3.079 2.569 1.912q7.781-6.943 15.585-13.861l-2.719-1.525a51.77 51.77 0 0 1-5.433 13.608c-.883 1.55 1.4 3.378 2.559 1.9.847-1.079 1.861-2.553 3.263-2.935.557-.151 2.174.144 1.974 1.026-.42 1.847 2.44 2.565 2.855.749.59-2.6-1.558-4.714-4.065-4.931-2.69-.233-4.784 1.959-6.331 3.86l2.558 1.9c2.629-4.472 4.57-9.314 5.757-14.364.161-.703-.16-1.428-.789-1.781s-1.415-.249-1.931.256q-7.792 6.933-15.6 13.85l2.567 1.912 15.627-24a1.66 1.66 0 0 0-.445-2.18 1.79 1.79 0 0 0-2.272.158l-29.068 24.167 2.774 2.064c5.1-11.242 16.949-17.221 24.28-26.758a28.75 28.75 0 0 0 4.751-9.009c.541-1.749-1.711-2.739-2.919-1.638l-26.714 24.351-7.6 6.923 2.49 2.41q13.765-15.258 27.526-30.518l7.83-8.684a1.75 1.75 0 0 0 0-2.45 1.84 1.84 0 0 0-2.5.029l-32.712 25.518 2.5 2.421q10.1-11.085 20.2-22.171a1.74 1.74 0 0 0-.079-2.42 1.74 1.74 0 0 0-2.421-.001 111.27 111.27 0 0 1-21.15 16.646l2.413 2.346q6.661-8.829 13.322-17.658c.449-.748.253-1.715-.452-2.229-.713-.512-1.689-.444-2.324.161l-14 11.985 2.772 2.064q5.29-8.219 10.571-16.443c.347-.647.223-1.446-.304-1.957s-1.329-.61-1.965-.243a143.02 143.02 0 0 0-12.064 8.557c-1.307 1.036.443 3.234 1.79 2.261zm153.421-3.015c4.917-2.692 9.97-5.026 15.07-7.341l-2.137-2.7-14.231 14.435a1.74 1.74 0 0 0 2.137 2.7 69.3 69.3 0 0 1 17.4-7.783q-.666-1.58-1.333-3.159a49.9 49.9 0 0 0-18.762 17.6 1.75 1.75 0 0 0 2.413 2.345l28.874-16.2q-.886-1.489-1.774-2.977l-29.306 21.437c-.596.356-.93 1.027-.854 1.717a1.69 1.69 0 0 0 1.263 1.446 15.12 15.12 0 0 0 9.269-1.892c2.968-1.521 5.755-3.429 8.587-5.184l17.982-11.142-1.772-2.977c-11.236 7.69-21.511 16.697-30.605 26.83a1.74 1.74 0 0 0 2.137 2.7q16.2-7.994 31.742-17.223l-1.773-2.977c-9.091 5.807-18.408 11.726-25.794 19.691a54.53 54.53 0 0 0-5.584 7.095c-1.032 1.569.966 3.089 2.413 2.345a347.24 347.24 0 0 0 33.568-19.682l-2.137-2.7-19.43 17.186a1.7 1.7 0 0 0-.142 2.273 1.82 1.82 0 0 0 2.279.426l17.31-7.708-2.6-1.03c.678 1.783.118 3.8-1.381 4.979a1.73 1.73 0 0 0-.51 1.225c0 .46.183.901.51 1.225a1.83 1.83 0 0 0 2.5-.028 7.7 7.7 0 0 0 2.3-8.318 1.8 1.8 0 0 0-2.6-1.03l-17.31 7.709q1.069 1.349 2.137 2.7l19.431-17.187c1.5-1.323-.483-3.8-2.137-2.7a347.67 347.67 0 0 1-33.564 19.674l2.414 2.345c5.661-8.6 14.074-14.956 22.534-20.61l7.565-4.912c.796-.501 1.048-1.545.566-2.354a1.73 1.73 0 0 0-2.339-.623q-15.529 9.227-31.742 17.223l2.137 2.7c8.875-9.919 18.905-18.74 29.877-26.274 1.857-1.277.172-4.182-1.772-2.977l-17.083 10.584-8.125 5c-2.355 1.35-5.106 2.682-7.9 2.263q.2 1.581.409 3.163l29.307-21.438a1.78 1.78 0 0 0 .645-2.375 1.8 1.8 0 0 0-2.419-.6l-28.873 16.2 2.413 2.345a46.3 46.3 0 0 1 17.482-16.338 1.73 1.73 0 0 0-1.334-3.159 72.96 72.96 0 0 0-18.28 8.146q1.07 1.349 2.138 2.7l14.231-14.436c.617-.612.678-1.589.142-2.273-.559-.671-1.516-.85-2.279-.425a165.02 165.02 0 0 0-14.782 7.825 1.451 1.451 0 1 0 1.485 2.493zm-489.107 2.334c3.888-2.774 7.858-5.44 11.941-7.92l-2.269-2.205q-5.4 8.058-10.749 16.146a1.69 1.69 0 0 0 .453 2.225 1.83 1.83 0 0 0 2.319-.161l14.007-11.837-2.777-2.067-13.324 17.444c-1.116 1.462 1.025 3.178 2.414 2.345a115.1 115.1 0 0 0 21.879-17l-2.5-2.422-20.2 21.9c-.669.68-.669 1.77 0 2.45.713.644 1.801.632 2.5-.028l32.712-25.211-2.5-2.421q-13.734 15.05-27.465 30.1l-7.88 8.64c-.662.688-.642 1.782.044 2.446s1.78.648 2.446-.035l26.7-24.072 7.591-6.844-2.919-1.638c-1.726 5.529-5.632 9.893-9.781 13.778-4.41 4.13-9.23 7.845-13.26 12.367a34.24 34.24 0 0 0-5.673 8.367 1.75 1.75 0 0 0 2.774 2.065l29.016-23.926-2.715-2.021-15.464 23.8c-1.063 1.631 1.26 3.065 2.568 1.912q7.782-6.86 15.585-13.693l-2.718-1.525a50.81 50.81 0 0 1-5.433 13.439c-.894 1.55 1.4 3.369 2.559 1.9.85-1.07 1.864-2.521 3.263-2.895.537-.143 2.172.13 1.973.991-.425 1.846 2.436 2.564 2.854.749.6-2.594-1.575-4.679-4.063-4.895-2.68-.231-4.778 1.932-6.332 3.818l2.559 1.905c2.627-4.415 4.567-9.203 5.756-14.2.16-.702-.161-1.427-.789-1.779s-1.414-.249-1.93.254q-7.792 6.849-15.6 13.682l2.568 1.912 15.625-23.708c.434-.732.242-1.675-.444-2.179-.698-.496-1.649-.43-2.271.158l-29.069 23.875 2.773 2.064c5.113-11.132 16.934-16.969 24.251-26.4a28.5 28.5 0 0 0 4.782-8.944c.55-1.756-1.712-2.725-2.919-1.638L239.07 363.49l-7.595 6.84 2.49 2.411q13.738-15.045 27.474-30.093l7.882-8.637c.669-.68.669-1.77 0-2.45-.713-.644-1.801-.632-2.5.028L234.108 356.8l2.5 2.421 20.2-21.9a1.74 1.74 0 0 0-.07-2.429 1.74 1.74 0 0 0-2.43.007c-6.361 6.314-13.463 11.835-21.151 16.442l2.413 2.346 13.324-17.444c.448-.749.251-1.715-.454-2.229a1.83 1.83 0 0 0-2.323.162l-14 11.841 2.772 2.064q5.289-8.12 10.571-16.246c.347-.647.223-1.446-.304-1.957s-1.329-.61-1.965-.243a142.84 142.84 0 0 0-12.064 8.458c-1.313 1.03.438 3.226 1.79 2.261zm-164.116-3.117c4.018-2.9 8.125-5.683 12.349-8.273l-2.268-2.2q-5.581 8.411-11.116 16.852a1.69 1.69 0 0 0 .453 2.225c.712.51 1.685.442 2.32-.161l14.489-12.353-2.777-2.068-13.782 18.205c-1.107 1.462 1.022 3.187 2.413 2.345a119.07 119.07 0 0 0 22.62-17.727l-2.5-2.421-20.9 22.859c-.668.679-.668 1.77 0 2.449a1.84 1.84 0 0 0 2.5-.028l33.839-26.311-2.5-2.421q-14.247 15.75-28.491 31.5l-8.071 8.927c-.642.691-.614 1.769.064 2.425s1.756.649 2.426-.015l27.647-25.146 7.825-7.117-2.919-1.638c-1.791 5.794-5.857 10.378-10.187 14.463-4.531 4.273-9.477 8.13-13.618 12.8-2.39 2.614-4.379 5.569-5.9 8.768a1.75 1.75 0 0 0 2.773 2.064l30.017-24.968-2.716-2.022-16 24.834c-1.053 1.63 1.26 3.075 2.568 1.912q8.05-7.158 16.122-14.291l-2.719-1.526c-1.197 4.925-3.092 9.653-5.626 14.042-.886 1.55 1.4 3.375 2.559 1.905.892-1.132 2.013-2.768 3.533-3.071.614-.123 2.174.278 1.973 1.15-.426 1.846 2.435 2.564 2.854.748.6-2.606-1.552-4.784-4.079-5.013-2.813-.256-4.959 1.962-6.585 3.955l2.558 1.9a53.14 53.14 0 0 0 5.948-14.8c.161-.702-.159-1.427-.788-1.78s-1.414-.249-1.93.255q-8.06 7.147-16.134 14.279l2.568 1.912 16.161-24.743a1.66 1.66 0 0 0-.444-2.18 1.79 1.79 0 0 0-2.272.158l-30.069 24.918 2.773 2.064c2.594-5.7 7.047-10.137 11.629-14.282 4.717-4.267 9.672-8.322 13.561-13.4a29.53 29.53 0 0 0 4.837-9.181c.542-1.751-1.711-2.736-2.919-1.638l-27.662 25.132-7.829 7.114 2.49 2.41q14.251-15.746 28.5-31.494l8.073-8.925a1.75 1.75 0 0 0 0-2.45 1.84 1.84 0 0 0-2.5.028l-33.839 26.311 2.5 2.421 20.9-22.859a1.74 1.74 0 0 0-.079-2.42 1.74 1.74 0 0 0-2.421-.001c-6.576 6.588-13.927 12.354-21.892 17.171l2.413 2.345 13.782-18.2c.448-.749.251-1.715-.454-2.229-.712-.511-1.688-.444-2.323.161l-14.485 12.357 2.773 2.064q5.473-8.473 10.938-16.952c.347-.647.222-1.445-.304-1.956a1.64 1.64 0 0 0-1.964-.244 148.32 148.32 0 0 0-12.472 8.811c-1.309 1.033.442 3.232 1.789 2.261zm833.267 3.798c3.887-2.808 7.856-5.508 11.941-8.02l-2.271-2.2q-5.4 8.156-10.747 16.343a1.69 1.69 0 0 0 .452 2.225c.711.509 1.684.442 2.318-.161l14.008-11.981-2.776-2.067q-6.665 8.828-13.325 17.657c-1.1 1.462 1.021 3.19 2.414 2.345 7.961-4.829 15.308-10.604 21.88-17.2q-1.252-1.21-2.5-2.421-10.1 11.085-20.2 22.171c-.669.68-.669 1.77 0 2.45a1.84 1.84 0 0 0 2.5-.028q16.354-12.759 32.714-25.518-1.252-1.211-2.5-2.421-13.764 15.261-27.52 30.527-3.914 4.343-7.826 8.686c-.625.693-.59 1.757.081 2.406s1.735.651 2.407.004q13.354-12.182 26.7-24.365 3.792-3.464 7.592-6.927l-2.92-1.638c-1.723 5.591-5.628 10.021-9.8 13.972-4.388 4.158-9.186 7.907-13.2 12.452a34.72 34.72 0 0 0-5.717 8.515 1.75 1.75 0 0 0 2.773 2.064l29.018-24.217-2.718-2.022-15.463 24.088c-1.05 1.63 1.261 3.079 2.569 1.912q7.781-6.943 15.585-13.861l-2.72-1.525a51.8 51.8 0 0 1-5.433 13.608c-.883 1.55 1.4 3.378 2.56 1.9.846-1.079 1.859-2.553 3.262-2.935.557-.151 2.174.144 1.974 1.026-.42 1.847 2.441 2.565 2.855.749.589-2.6-1.557-4.714-4.063-4.931-2.691-.233-4.786 1.959-6.332 3.86l2.557 1.9a51.67 51.67 0 0 0 5.758-14.364c.16-.702-.161-1.427-.789-1.779s-1.414-.249-1.93.254q-7.793 6.933-15.6 13.85l2.568 1.912 15.627-24a1.66 1.66 0 0 0-.444-2.18 1.79 1.79 0 0 0-2.271.158l-29.069 24.167 2.774 2.064c5.1-11.242 16.948-17.221 24.28-26.758a28.77 28.77 0 0 0 4.752-9.009c.539-1.749-1.711-2.739-2.92-1.638q-13.356 12.175-26.715 24.351l-7.594 6.923q1.242 1.205 2.488 2.41 13.767-15.258 27.527-30.518l7.831-8.684a1.75 1.75 0 0 0 0-2.45 1.84 1.84 0 0 0-2.5.029q-16.359 12.758-32.714 25.518 1.252 1.21 2.5 2.421l20.2-22.171a1.74 1.74 0 0 0-.079-2.42 1.74 1.74 0 0 0-2.421-.001 111.29 111.29 0 0 1-21.151 16.646q1.2 1.173 2.413 2.346 6.661-8.829 13.323-17.658c.448-.749.251-1.716-.455-2.229-.712-.512-1.687-.444-2.322.161l-14 11.985 2.772 2.064q5.29-8.219 10.569-16.443a1.64 1.64 0 0 0-2.268-2.2 143.26 143.26 0 0 0-12.064 8.557c-1.3 1.036.444 3.234 1.791 2.261zm-418.81-202.74a66.45 66.45 0 0 1-13.784-19.759c-5.1-11.576-7.227-27.822 6.64-34.45 6.564-3.138 14.765-1.359 20.833 2.644s10.451 9.9 14.706 15.672c-1.739-9.655 2.924-20.312 11.821-25.042 12.064-6.412 28.654.68 32.132 13.63 3.635 13.532.058 27.249-6.631 39.286-5.167 9.3-14.484 25.478-24.686 30.421-5.434 2.633-11.906-.46-16.995-3.708-8.557-5.467-16.975-11.523-24.036-18.694z" fill="#ffb900"/><g fill="#353535"><path d="M382.8 259.327c-.673 6.894-1.735 13.78-1.831 20.717a48.46 48.46 0 0 0 3.721 19.914c5.568 12.991 16.479 23.315 28.406 30.532 3.109 1.959 6.377 3.654 9.769 5.067a12.32 12.32 0 0 0 5.688.963 16.11 16.11 0 0 0 5.6-1.769 77.54 77.54 0 0 0 17.328-12.272 85.62 85.62 0 0 0 13.666-16.047c2.071-3.045 3.819-6.299 5.214-9.707a44.14 44.14 0 0 0 2.62-10.769c.9-7.29.245-14.656-.268-21.949a34.9 34.9 0 0 0-1.9-10.423 31.52 31.52 0 0 0-5.267-8.833c-1.137-1.351-2.372-2.616-3.694-3.786-1.652-1.474-4.2.966-2.5 2.479 4.828 4.306 8.409 9.813 9.463 16.27.273 1.669.3 3.383.421 5.069l.37 5.4c.218 3.522.362 7.053.241 10.582a42.33 42.33 0 0 1-5.328 20.046 81.93 81.93 0 0 1-27.39 28.248c-2.74 1.705-5.947 3.986-9.293 4.042-1.769-.065-3.5-.531-5.062-1.365-1.5-.7-2.963-1.467-4.412-2.259-11.618-6.348-22.139-15.377-28.562-27.1-3.136-5.721-4.924-12.083-5.227-18.6-.312-6.466.521-12.923 1.233-19.336l.538-5.114a1.74 1.74 0 0 0-1.746-1.734c-.962.011-1.748.77-1.792 1.731z"/><path d="M408.124 329.497c-.187-.409-.161-.371-.11-.221.07.207-.011-.416-.023-.162-.005.129.012.266.014.395l-.04 1.411-.159 3.877-.38 8.459-1.118 20.482c-.282 4.009-.612 8.192-1.249 12.057a1.75 1.75 0 0 0 1.216 2.1 1.79 1.79 0 0 0 2.161-1.216c1.375-7.8 1.64-15.8 2.033-23.695.293-5.885.75-11.8.748-17.7 0-1.5.028-3.011-.079-4.507a6.3 6.3 0 0 0-.486-2.749 1.46 1.46 0 0 0-1.951-.457 1.46 1.46 0 0 0-.575 1.919zm38.352 46.137c.293-2.633.274-5.354.334-8q.1-4.225.19-8.449c.203-5.43.109-10.867-.281-16.287a49.97 49.97 0 0 0-1.318-8.217c-.563-2.16-3.987-1.245-3.424.918 1.094 4.775 1.614 9.663 1.547 14.561.085 5.582-.13 11.162-.24 16.742a51.35 51.35 0 0 0 .363 9.107 1.4 1.4 0 0 0 1.563 1.01c.7-.095 1.232-.676 1.266-1.381zm143.049-163.448c5.767-1.205 11.339 1.234 15.962 4.529 4.786 3.438 8.791 7.849 11.752 12.943 5.822 10.065 6.9 22 8.549 33.282.776 5.3 1.715 10.571 2.2 15.913a94.73 94.73 0 0 1 .269 15.254c-.643 9.067-3.172 18.459-9.659 25.127a34.36 34.36 0 0 1-13.808 8.275 58.96 58.96 0 0 1-16.536 2.983c-9.5.364-19.567-1.013-28.209-5.123a28.78 28.78 0 0 1-10.525-7.97c-3.876-5.021-5.252-11.6-6.008-17.765a100.44 100.44 0 0 1-.072-21.192c.615-6.843 1.6-13.688 2.872-20.441 1.038-5.525 2.542-11.618 6.23-15.952 2.621-3.053 6.156-5.179 10.082-6.061 8.079-1.967 17.26.227 24.452 4.489 1.676.978 3.253 2.116 4.708 3.4 1.661 1.463 4.209-.977 2.5-2.478a39.37 39.37 0 0 0-25.628-9.573 26.68 26.68 0 0 0-13.076 3.241c-4.433 2.664-7.852 6.728-9.718 11.551-2.688 6.323-3.529 13.349-4.526 20.092a156.2 156.2 0 0 0-1.958 22.18 71.9 71.9 0 0 0 2.675 21.313c1.594 5.537 4.881 10.437 9.4 14.011 8.269 6.387 19.083 8.939 29.337 9.629a68.31 68.31 0 0 0 14.98-.637 50.93 50.93 0 0 0 19.055-6.552 32.85 32.85 0 0 0 10.65-10.624 41.62 41.62 0 0 0 5.239-13.8c2.1-10.516 1.322-21.408-.224-31.942l-2.709-18.067a84.66 84.66 0 0 0-4.272-17.539 45.6 45.6 0 0 0-9.859-15.481c-4.358-4.486-9.718-8.575-15.93-9.969a18.3 18.3 0 0 0-8.95.153 1.45 1.45 0 0 0-1.025 1.775 1.45 1.45 0 0 0 1.775 1.025z"/><path d="M567.947 331.688l-.459 21.847a355.58 355.58 0 0 1-1.651 21.786 1.74 1.74 0 0 0 1.747 1.734c.962-.012 1.748-.77 1.793-1.731q1.156-10.865 1.65-21.787a214.83 214.83 0 0 0 .14-21.846 1.61 1.61 0 0 0-1.61-1.522 1.61 1.61 0 0 0-1.61 1.522zm41.245 39.364c-.032-.934.174-1.873.214-2.813l.043-2.815-.2-5.281q-.168-5.458-.178-10.92-.018-10.922.6-21.832c.126-2.248-3.415-2.218-3.539 0q-.613 10.905-.6 21.833.009 5.46.178 10.919l.2 5.282c.058.969.179 1.925.32 2.886.134.916.453 1.835.53 2.744.128 1.516 2.487 1.55 2.433 0zm-1.913-132.931a147.57 147.57 0 0 0-11.46-12.047 41.45 41.45 0 0 0-14.075-8.4 29.92 29.92 0 0 0-8.953-1.571 1.73 1.73 0 0 0-1.721 1.71c-.012.944.732 1.724 1.675 1.755 13.479.263 24.265 10.989 32.781 20.283 1.052 1.148 2.812-.561 1.753-1.735zm127.007-2.626a53.4 53.4 0 0 0-17.765 2.42c-5.187 1.63-9.664 4.648-12.055 9.668-2.33 4.9-2.374 10.278-3.6 15.471-1.309 5.553-3.185 10.941-4.186 16.57a51.14 51.14 0 0 0-.5 16.592c.821 5.528 3.068 10.746 6.519 15.142 6.53 8.139 15.238 14.255 25.111 17.634a55.9 55.9 0 0 0 15.107 3.023 44.02 44.02 0 0 0 15.419-1.546 23.3 23.3 0 0 0 12.753-9.28c2.565-3.775 4.208-8.115 5.935-12.315a146.39 146.39 0 0 0 7.2-21.154c1.71-7.064 2.686-14.51 1.366-21.725a26.05 26.05 0 0 0-11.085-17.083c-8.766-5.944-20.118-7.1-30.427-6.48-2.91.175-5.807.5-8.7.9a1.76 1.76 0 0 0-1.263 2.129c.281.915 1.231 1.448 2.159 1.211 10.4-1.427 21.717-1.752 31.53 2.562a26.02 26.02 0 0 1 8.69 5.925 22.16 22.16 0 0 1 4.555 7.52c2.134 6.074 1.91 12.774.823 19.065a111.23 111.23 0 0 1-6.042 20.649c-1.214 3.174-2.509 6.316-3.834 9.446-1.871 4.423-4.118 9.017-8.009 12.019-3.806 2.937-8.743 4.167-13.451 4.588a50.56 50.56 0 0 1-14.21-.744c-9.398-1.822-18.127-6.153-25.263-12.534a36.62 36.62 0 0 1-9.34-12.189 34.09 34.09 0 0 1-2.467-14.894c.27-5.158 1.136-10.268 2.58-15.227l2.279-8.28c.649-2.65 1.007-5.316 1.407-8.01.678-4.561 2.089-9.134 5.727-12.206a18.05 18.05 0 0 1 6.437-3.194 58.15 58.15 0 0 1 8.051-1.777q4.233-.655 8.5-1.006c.786-.007 1.422-.641 1.433-1.426s-.608-1.436-1.394-1.465z"/><path d="M703.512 265.408a6.15 6.15 0 0 0-4.46-5.415 7.89 7.89 0 0 0-7.377 1.331c-4.009 3.185-4.463 9.943-.719 13.5 1.171 1.006 2.451 1.878 3.815 2.6a7.06 7.06 0 0 1 2.9 2.607c1.042 1.962 4.118.213 3.064-1.772-1.126-2.119-3.231-3.273-5.217-4.456-1.692-1.008-2.974-2.054-3.427-3.841a6.32 6.32 0 0 1 .79-4.832 4.3 4.3 0 0 1 3.962-2.08c1.627.055 3.492.9 3.914 2.72.346 1.488 2.846 1.194 2.753-.361zm-444.598-53.472c-6.029-2.794-12.673-1.794-18.564.853-5.242 2.396-9.983 5.763-13.972 9.922-6.989 7.263-11.621 16.569-14.777 26.057a111.3 111.3 0 0 0-5.473 31.3 96.9 96.9 0 0 0 .58 14.769 57.4 57.4 0 0 0 3.58 15.028 36.93 36.93 0 0 0 10.287 14.64c5.207 4.305 11.576 6.349 18.195 7.235 5.546.742 11.21 1.137 16.8 1.327a62.22 62.22 0 0 0 16.758-1.3 27.9 27.9 0 0 0 7.418-2.875 20.23 20.23 0 0 0 6.629-6.48 69.48 69.48 0 0 0 8.715-18.368 73.44 73.44 0 0 0 1.627-35.794c-1.967-9.972-6.088-21.427-15.468-26.686-5.741-3.219-12.754-4.137-19.252-3.922-6.222.127-12.333 1.678-17.863 4.533-2.624 1.405-5.034 3.175-7.16 5.258-1.632 1.6.9 4 2.5 2.422 8.238-8.073 21.049-10.172 32.063-8.036 5.487 1.064 10.339 3.462 13.823 7.88a39.15 39.15 0 0 1 6.36 13.079c3.114 10.329 3.799 21.238 2 31.875a67.7 67.7 0 0 1-5.866 18.2 64.42 64.42 0 0 1-4.88 8.352c-1.495 2.205-3.525 3.994-5.9 5.2-4.407 2.275-9.6 2.964-14.529 3.182a125.2 125.2 0 0 1-15.616-.529c-6.018-.486-12.23-.906-17.832-3.367a28.19 28.19 0 0 1-12.359-10.931c-5.3-8.36-6.8-18.374-7.088-28.017-.291-9.95.779-19.893 3.178-29.553 2.334-9.407 5.921-18.663 11.549-26.612a44.43 44.43 0 0 1 9.1-9.582c4.6-3.536 10.113-6.647 15.957-7.406 2.817-.371 5.681-.027 8.33 1 1.527.593 2.678-1.953 1.148-2.663z"/><path d="M232.261 331.107l-.46 21.583c-.326 7.192-.879 14.368-1.651 21.523a1.74 1.74 0 0 0 1.746 1.735c.962-.012 1.748-.77 1.793-1.731q1.157-10.734 1.651-21.524a209.72 209.72 0 0 0 .139-21.583 1.61 1.61 0 0 0-1.609-1.531 1.61 1.61 0 0 0-1.609 1.531zm41.244 45.978c-.028-.744.122-1.429.162-2.169l.076-2.262c.059-1.586-.051-3.179-.1-4.764q-.163-5.026-.219-10.056-.122-10.271.139-20.543l.423-10.431c.128-2.248-3.413-2.218-3.539 0-.755 13.238-.775 26.545-.382 39.8.053 1.783.071 3.577.228 5.354.079.9.222 1.8.341 2.69.109.814.373 1.574.44 2.385.125 1.518 2.492 1.547 2.433 0zm27.646-88.249c.05-.028.584-.279.325-.178a4.46 4.46 0 0 1 .588-.179l.3-.062c-.278.052-.035 0 .027 0l.765-.005c.055 0 .321.034.028-.006l.3.053.6.14.6.2c-.311-.112.3.134.381.171q.284.138.554.3l.407.262c-.2-.147.2.172.188.16q.118.1.231.209a7.16 7.16 0 0 1 .479.507c.176.2-.145-.211.005.011l.172.253c.111.172.208.348.3.53l.064.132c-.082-.211.027.091.042.142l.163.665c-.068-.353.007.184.007.309 0 .208-.017.414-.036.621.031-.34-.037.179-.064.291a7 7 0 0 1-.217.691c.121-.343-.07.139-.123.236q-.136.249-.295.484l-.165.231c.041-.056.228-.253.009-.021l-.446.47-.438.388c-.2.174.229-.161.012-.006l-.245.173a9.58 9.58 0 0 1-1.126.656l-.573.266c.338-.147-.2.073-.308.111a13.88 13.88 0 0 1-1.417.419l-.816.173q-.165.03-.332.057l-.264.041c.219-.028-.136.014-.183.019l-.42.04q-.42.033-.841.046-.751.023-1.5-.021l-.817-.07c-.058-.006-.337-.042-.027 0l-.771-.092a1.75 1.75 0 0 0-1.743 1.494 1.69 1.69 0 0 0 1.247 1.88 16.86 16.86 0 0 0 7.038-.151c2.245-.431 4.328-1.469 6.025-3 1.637-1.535 2.497-3.724 2.342-5.963a7.56 7.56 0 0 0-3.983-5.77c-2.356-1.362-5.274-1.304-7.574.152a1.52 1.52 0 0 0-.552 2.034c.441.697 1.353.924 2.07.515zm-95.074-7.288c-1.635-3.3-5.888-4-9.021-2.654a6.18 6.18 0 0 0-3.436 4.063 8.46 8.46 0 0 0 .979 6.208 19.05 19.05 0 0 0 4.663 5.444 1.83 1.83 0 0 0 2.5-.028 1.73 1.73 0 0 0 0-2.45 23.27 23.27 0 0 1-1.943-1.812l-.843-.946-.087-.1c.11.137-.116-.152-.136-.178q-.215-.285-.415-.58l-.64-1.042-.272-.532-.139-.306c.071.171.038.092 0-.035a8.64 8.64 0 0 1-.312-1.088l-.055-.312c.011.073.022.331 0-.008l-.011-.623c0-.077.008-.156.015-.233 0-.048.056-.367.016-.165s.019-.068.024-.086l.079-.307.073-.229.062-.174c-.076.176.046-.088.051-.1l.174-.31c.1-.17.265-.344.042-.1l.285-.314.313-.284c.089-.08.25-.134-.077.057.069-.04.133-.092.2-.135l.421-.241a1.31 1.31 0 0 0 .165-.079c.175-.122-.167.076-.153.059.135-.17.74-.238.945-.28l.183-.034c.23-.067-.332.014-.091.009.145 0 .29-.027.436-.033h.437l.187.009.152.007c-.24-.028.029.005.088.017l.3.062.479.119.463.156c-.331-.123.037.028.165.1l.414.249c.239.147.01.011-.031-.026l.185.156c.134.122.261.252.381.389.114.128-.043-.055-.053-.068l.208.31c.441.676 1.333.888 2.031.484s.958-1.284.591-2.002zm35.918-46.733a52.59 52.59 0 0 1 6.836-5.056 70.77 70.77 0 0 1 7.393-4.352 61.05 61.05 0 0 1 7.624-3.278c2.832-.984 5.928-1.854 8.954-1.414 1.298.185 2.544.633 3.663 1.315a12.47 12.47 0 0 1 2.845 2.81c1 1.194 3.049-.1 2.639-1.512-.821-2.837-3.7-4.638-6.37-5.517-3.248-.907-6.689-.859-9.911.136-6.185 1.695-12.025 4.462-17.254 8.174a47.2 47.2 0 0 0-4.248 3.293c-1.347 1.2-2.536 2.544-3.844 3.781-1.11 1.049.582 2.65 1.673 1.619zM96.522 205.281c-5.706-2.665-12.053-1.977-17.735.391a45.75 45.75 0 0 0-15 10.3c-8.142 8.407-12 19.615-15.5 30.525-3.481 10.824-7.447 21.473-9.093 32.779-1.466 10.066-1.146 20.881 3.865 29.988 5.827 10.592 17.314 16.522 28.564 19.678 10.416 2.922 21.8 3.45 32.3.625a42.32 42.32 0 0 0 14.344-6.787 44.15 44.15 0 0 0 11.75-13.907 74.76 74.76 0 0 0 7.818-18.545c1.621-6.317 2.089-12.874 1.379-19.357a74.58 74.58 0 0 0-4.875-18.181c-1.921-5.027-4.181-10.023-7.795-14.079-3.775-4.237-8.874-6.448-14.389-7.417-6.147-1.089-12.466-.672-18.417 1.215a37.61 37.61 0 0 0-8.19 3.751c-.796.501-1.048 1.545-.566 2.354a1.73 1.73 0 0 0 2.339.623c4.864-2.987 10.396-4.715 16.095-5.026 5.331-.287 11.318.433 16.011 3.144 4.191 2.421 6.982 6.518 9.087 10.771a70.81 70.81 0 0 1 2.9 6.916c1.007 2.728 2 5.469 2.759 8.277a51.79 51.79 0 0 1 1.606 18.388 56.44 56.44 0 0 1-4.874 17.8c-1.346 2.949-2.848 5.824-4.5 8.613a44.34 44.34 0 0 1-5.353 7.5c-3.385 3.658-7.497 6.569-12.072 8.545-9.165 4.045-19.82 4.594-29.6 2.949a64.36 64.36 0 0 1-15.959-4.82 40.24 40.24 0 0 1-13.754-9.708c-6.311-7.19-8.076-16.913-7.634-26.212.5-10.467 3.514-20.585 6.875-30.441 3.531-10.354 6.151-21.289 12.024-30.65a41.79 41.79 0 0 1 11.056-11.782c4.51-3.238 9.864-6.143 15.491-6.659a17.15 17.15 0 0 1 7.9 1.1c1.525.6 2.675-1.949 1.148-2.663z"/><path d="M68.202 327.639l-.279 18.438q-.272 9.582-.974 19.144-.384 5.127-.925 10.24a1.74 1.74 0 0 0 1.746 1.734c.961-.011 1.748-.77 1.793-1.73 1.332-12.461 1.935-25.009 2.054-37.54.032-3.43-.012-6.857-.2-10.283a1.61 1.61 0 0 0-1.609-1.531 1.61 1.61 0 0 0-1.609 1.531zm42.569 49.091c-.031-.793.118-1.521.155-2.31l.072-2.425c.054-1.625-.052-3.257-.1-4.881q-.172-5.4-.229-10.809-.127-11.072.145-22.145l.436-10.954c.127-2.248-3.414-2.217-3.539 0-.8 14.16-.8 28.4-.393 42.571.055 1.9.059 3.824.245 5.718.089.912.222 1.821.338 2.73.109.852.371 1.652.439 2.5.123 1.52 2.494 1.545 2.433 0zM74.522 232.671c5.28-4.252 10.991-7.939 17.04-11 5.805-2.8 12.517-4.572 18.982-3.605a1.85 1.85 0 0 0 2.181-1.227 1.72 1.72 0 0 0-1.226-2.121c-11.555-1.727-22.172 3.5-31.153 10.3-2.564 1.938-5.048 3.979-7.574 5.966-.229.227-.358.535-.358.858s.129.631.358.858a1.29 1.29 0 0 0 1.752-.02zm65.008 51.542a2.36 2.36 0 0 1 .919-.369l.3-.064c.472-.1-.179 0 .106-.011a6.07 6.07 0 0 1 .693-.006l.31.028c-.292-.038-.026 0 .026.014l.609.137.6.194c-.4-.143.288.116.294.119-.32-.14.1.054.165.085q.285.14.557.3c.06.036.563.384.3.181a6.83 6.83 0 0 1 1.024.973c-.217-.249.122.174.184.27.113.174.2.357.307.535.163.279.04.07.009-.007l.105.288a5.45 5.45 0 0 1 .185.749c-.065-.36.006.222.006.321 0 .212-.018.421-.036.632-.029.336-.016.079 0 .01l-.063.294c-.058.24-.138.471-.218.7-.025.073-.141.289.007-.01l-.129.258-.295.494-.165.236c.038-.055.225-.256.008-.013l-.5.532-.443.394c-.054.048-.269.2.008 0l-.248.175a9.96 9.96 0 0 1-1.138.667q-.32.161-.651.3c.349-.148-.236.083-.318.112a14.43 14.43 0 0 1-1.351.4 15.06 15.06 0 0 1-1.577.3c.314-.042.022 0-.035 0l-.508.048q-.381.03-.764.043-.8.027-1.6-.021l-.823-.072c-.057-.006-.337-.043-.031 0l-.773-.093a1.75 1.75 0 0 0-1.744 1.494 1.69 1.69 0 0 0 1.247 1.88 17.04 17.04 0 0 0 7.256-.179c2.233-.451 4.303-1.496 5.992-3.025 1.696-1.59 2.576-3.866 2.389-6.183a7.73 7.73 0 0 0-3.963-5.778c-2.397-1.431-5.396-1.388-7.751.111-.702.419-.946 1.318-.552 2.034.441.698 1.353.926 2.07.516zm-96.819-21.819c-1.646-3.338-5.936-4.082-9.114-2.72a6.3 6.3 0 0 0-3.5 4.095 8.66 8.66 0 0 0 .977 6.407 19.56 19.56 0 0 0 4.742 5.582 1.84 1.84 0 0 0 2.5-.028c.327-.324.511-.765.511-1.225s-.184-.901-.511-1.225a23.66 23.66 0 0 1-1.939-1.821 13.2 13.2 0 0 1-1.541-1.892l-.661-1.084q-.148-.274-.279-.554l-.109-.239c.117.272-.026-.082-.044-.134-.135-.369-.241-.748-.318-1.133l-.044-.243c.052.3 0 .038 0-.027l-.015-.648c0-.108.013-.216.02-.323 0-.015.038-.278.009-.1s.021-.086.025-.1l.081-.32.1-.318.038-.11c-.062.151.054-.106.055-.109l.179-.323c.094-.155.275-.37.053-.114l.294-.326c.103-.105.215-.2.323-.293.087-.079.251-.137-.067.049.071-.042.137-.1.207-.14q.185-.118.38-.218c.165-.086.419-.176.081-.055a6.84 6.84 0 0 1 .914-.27c.172-.036.465-.061.108-.031l.449-.033a6.31 6.31 0 0 1 .962.037c-.376-.042.054.02.192.051l.494.122.478.159c-.365-.134.09.055.182.1.166.089.322.189.478.292s-.061-.043-.073-.054l.237.2a4.73 4.73 0 0 1 .347.361c.109.126-.036-.043-.047-.059l.213.322a1.55 1.55 0 0 0 2.07.516 1.51 1.51 0 0 0 .552-2.033zm40.861-3.836a13.24 13.24 0 0 0-1.084 8.918c.269.925 1.229 1.464 2.159 1.211.924-.255 1.482-1.194 1.264-2.128l-.174-.91q-.041-.3.007.067-.015-.132-.026-.264l-.027-.4a11.33 11.33 0 0 1 .055-1.851c.021-.181.023-.369.005-.08a3.78 3.78 0 0 1 .1-.521l.225-.9.3-.878.148-.368c-.194.414.063-.118.1-.193a1.73 1.73 0 0 0-.631-2.354 1.82 1.82 0 0 0-2.413.646zm18.333 3.533c-.046-.345.028.282.033.342l.033.47.094 1.1a15.44 15.44 0 0 1-.029 2.057l-.045.473-.038.314.009-.054-.195 1.01a15.65 15.65 0 0 1-.647 2.119 1.72 1.72 0 0 0 1.226 2.121c.936.223 1.886-.311 2.181-1.227a15.62 15.62 0 0 0 .62-9.6 1.68 1.68 0 0 0-2.044-1.147 1.71 1.71 0 0 0-1.2 2.016zm612.978 63.922a87.91 87.91 0 0 0 .06 9.784q.149 4.694.287 9.39.271 9.386.471 18.775.059 2.7.106 5.4.026 1.379.05 2.759a10.93 10.93 0 0 0 .234 3.052c.222.683.86 1.145 1.578 1.143s1.353-.469 1.57-1.154c.44-1.589.149-3.473.12-5.111l-.1-4.918q-.1-4.7-.212-9.4-.231-9.386-.532-18.77a98.9 98.9 0 0 0-.667-11.346 1.47 1.47 0 0 0-1.641-1.06 1.53 1.53 0 0 0-1.329 1.45zm41.212 2.961a62 62 0 0 0 .032 9.446q.267 4.526.541 9.052.542 8.965 1.082 17.93.312 5.309.608 10.616c.125 2.238 3.663 2.225 3.539 0l-2.172-36.6c-.12-3.616-.504-7.218-1.15-10.777-.3-1.449-2.358-.98-2.48.326zM925.99 201.571c11.128 2.49 18.638 12.468 22.605 22.57a114.67 114.67 0 0 1 5.166 18.576q2.087 9.994 3.243 20.152 1.15 10.217 1.357 20.51c.208 6.614.029 13.235-.536 19.829-.561 5.742-2.014 11.547-5.893 15.988-3.519 3.858-7.998 6.714-12.98 8.278a65.78 65.78 0 0 1-26.219 3.075c-8.665-.7-17.7-3.24-24.532-8.785a28.3 28.3 0 0 1-8.2-10.555 59.09 59.09 0 0 1-3.94-15.318c-1.794-12.213-1.719-24.667 1.284-36.687 1.463-5.846 3.423-11.79 7.543-16.336a29.78 29.78 0 0 1 12.491-7.965 55.86 55.86 0 0 1 15.143-2.742 39.18 39.18 0 0 1 16.646 2.258c2.477.968 4.789 2.314 6.855 3.988.713.644 1.801.632 2.5-.028.327-.324.511-.765.511-1.225s-.184-.901-.511-1.225c-9.517-7.777-22.335-8.289-33.968-6.366-5.411.796-10.623 2.608-15.362 5.339a29.78 29.78 0 0 0-11.593 12.7c-2.949 6.211-4.478 13.13-5.439 19.906a91.66 91.66 0 0 0-.523 20.491 107.04 107.04 0 0 0 2.447 16.429c1.243 5.131 3.079 10.232 6.356 14.429 5.97 7.645 14.953 12.091 24.313 14.038a69.26 69.26 0 0 0 28.91-.372c4.861-.966 9.532-2.718 13.83-5.186a27.37 27.37 0 0 0 11.555-13.377c2.375-6.072 2.587-12.83 2.784-19.268q.325-10.707-.375-21.412a208.2 208.2 0 0 0-6.733-41.787c-3.245-11.732-8.93-24.052-20.16-30.053-2.429-1.319-5.062-2.223-7.789-2.674a1.55 1.55 0 0 0-1.827 1.027 1.45 1.45 0 0 0 1.028 1.776z"/><path d="M901.412 331.688l-.459 21.847c-.324 7.281-.881 14.543-1.652 21.786a1.74 1.74 0 0 0 1.746 1.734c.962-.011 1.748-.77 1.793-1.731q1.156-10.865 1.65-21.787a214.5 214.5 0 0 0 .14-21.846 1.61 1.61 0 0 0-1.609-1.531 1.61 1.61 0 0 0-1.609 1.531zm41.247 39.364c-.033-.934.174-1.873.214-2.813l.042-2.815-.2-5.281q-.164-5.458-.176-10.92-.019-10.922.6-21.832c.127-2.248-3.415-2.218-3.54 0q-.614 10.905-.6 21.833.009 5.46.179 10.919l.2 5.282c.056.969.176 1.925.316 2.886.137.916.455 1.835.531 2.744.129 1.516 2.485 1.55 2.434 0zm-68.755-98.689a5.95 5.95 0 0 0-4.88-2.739c-2.033-.035-3.989.771-5.407 2.228-2.97 2.947-3.871 8.208-.938 11.5a5.54 5.54 0 0 0 6.579 1.371 1.57 1.57 0 0 0-1.209-2.862 3.33 3.33 0 0 1-.324.08c.17-.016.155-.015-.047 0-.22.015-.441.017-.66.031q-.3-.026-.059.013a3.98 3.98 0 0 1-.329-.064c-.063-.015-.627-.208-.4-.109a5.02 5.02 0 0 1-.6-.323c-.164-.113-.187-.127-.069-.044-.089-.071-.173-.146-.256-.224a2.3 2.3 0 0 1-.592-.783c-.373-.736-.542-1.559-.49-2.382a6.71 6.71 0 0 1 .528-2.36 5.68 5.68 0 0 1 1.36-1.9 4.24 4.24 0 0 1 1.878-1.023 3.27 3.27 0 0 1 .989-.116 3.96 3.96 0 0 1 1.1.1 4.31 4.31 0 0 1 2.049.971c.885.821 2.484-.255 1.774-1.355z"/><path d="M869.338 285.285c2.254 0 2.324-3.454.047-3.454-2.254 0-2.324 3.454-.047 3.454zm91.171-19.317c.863-.411 1.737-1.03 2.551-1.326.856-.331 1.76-.519 2.677-.557 1.671-.109 3.293.584 4.369 1.867.456.563.785 1.218.963 1.92a5.18 5.18 0 0 1 .12.585c-.038-.272-.007.013-.006.059l.008.337-.019.455c.021-.162-.021.11-.022.115l-.132.5-.088.245c-.1.271.1-.194-.026.053l-.273.5c-.059.1-.381.531-.188.3a6.38 6.38 0 0 1-.433.468l-.418.372c-.212.179.21-.143-.023.016l-.268.183a9.04 9.04 0 0 1-1.086.6l-.309.14c.3-.133-.057.02-.118.043l-.735.255-1.442.391-1.465.3-.669.17c-.196.063-.384.147-.562.25l-.337.257q.185-.149-.053.01a1.38 1.38 0 0 0 .324 2.51c.511.142-.385-.125.25.071a2.77 2.77 0 0 0 .566.137 4.15 4.15 0 0 0 .9-.02 16.16 16.16 0 0 0 1.852-.325 17.89 17.89 0 0 0 3.258-1.071 8.28 8.28 0 0 0 4.611-4.64c.717-2.265.299-4.737-1.121-6.641a8.57 8.57 0 0 0-6.307-3.591 10.21 10.21 0 0 0-4.15.5 8.91 8.91 0 0 0-3.963 2.336c-.485.519-.518 1.314-.077 1.871s1.222.708 1.839.356zm-585.718 12.997c-.948 6.9-1.857 13.768-2.349 20.72a254.94 254.94 0 0 0-.6 20.816c.077 6.944.473 13.876 1.12 20.784a17.47 17.47 0 0 0 .77 4.531 7.37 7.37 0 0 0 2.868 3.607 22.07 22.07 0 0 0 8.384 2.891 33.8 33.8 0 0 0 20.63-2.822 1.89 1.89 0 0 0 .7-2.575 1.97 1.97 0 0 0-2.623-.653 30.4 30.4 0 0 1-16.374 2.645 24.8 24.8 0 0 1-7.775-2.071 4.24 4.24 0 0 1-2.333-2.2c-.407-1.309-.634-2.668-.675-4.038a279.97 279.97 0 0 1-1.094-39.523c.306-7.367.778-14.8 1.782-22.106.09-.653-.613-1.185-1.2-1.192a1.25 1.25 0 0 0-1.232 1.189zm96.621 3.468c.845 11.91 3.029 23.647 4.155 35.523a102.84 102.84 0 0 1 .334 17.643 57.35 57.35 0 0 1-1.216 8.5 2.84 2.84 0 0 1-1.745 2.24 29.71 29.71 0 0 1-3.5 1.514 41.16 41.16 0 0 1-18.463 2.229c-2.017-.211-2.582 3.247-.518 3.523 5.933.819 11.973.372 17.721-1.311a43.29 43.29 0 0 0 4.266-1.521c1.363-.488 2.656-1.154 3.844-1.982 2.439-1.882 2.563-5.406 2.943-8.225 1.669-12.417-.273-25-2.324-37.245-1.161-6.933-2.475-13.879-3.087-20.887-.132-1.509-2.519-1.52-2.411 0zm-83.469-24.772c19.558 2.643 39.8-1.322 57.472-9.928a87.66 87.66 0 0 0 14.1-8.506c.56-.321.903-.919.897-1.565a1.79 1.79 0 0 0-.923-1.55c-.565-.312-1.254-.295-1.803.044a111.9 111.9 0 0 1-25.28 13.134c-9.003 3.202-18.398 5.166-27.929 5.84-5.383.374-10.784.391-16.169.05-1.416-.087-1.827 2.282-.365 2.48zm-7.844 1.254a37.57 37.57 0 0 1 8.494-28.622 35.78 35.78 0 0 1 30.71-12.2c1.44.147 2.865.476 4.314.532 3.1.12 5.318-1.691 7.915-3.06a29.34 29.34 0 0 1 13.535-3.264c9.359-.037 18.671 4.13 24.121 11.881a31.13 31.13 0 0 1 4.4 26.5c-.34 1.133-.747 2.252-1.193 3.348-.768 1.89 2.455 3.15 3.312 1.337 4.4-9.323 3.515-20.677-1.3-29.666-5.064-9.239-14.297-15.445-24.764-16.645a34.01 34.01 0 0 0-15.31 1.515c-2.478.895-4.854 2.051-7.087 3.449a6.29 6.29 0 0 1-4.079 1.087c-1.463-.122-2.91-.429-4.375-.556-11.23-.886-22.304 3.069-30.433 10.868a37.64 37.64 0 0 0-10.64 34.129c.187.642.854 1.017 1.5.841.64-.18 1.026-.83.877-1.477zm46.841 9.301l-.028.1.558-.712a1.88 1.88 0 0 0-1.016 1.686c-.005.223.012.447.021.67l.108 1.453.393 3.25a1.69 1.69 0 0 0 .812 1.037 1.82 1.82 0 0 0 1.094.194c.861-.1 1.519-.817 1.543-1.684-.032-1.094-.182-2.175-.319-3.259l-.2-1.441-.12-.657c-.162-.684-.698-1.218-1.384-1.375l.72.538-.049-.091a1.19 1.19 0 0 0-2.133.29zm21.325-1.992q-.084.257.015-.01a1.2 1.2 0 0 0-.194.587l-.07.616-.072.819-.152 1.843-.06 1.774c-.066.735-.012 1.475.159 2.193a1.87 1.87 0 0 0 1.782 1.345 1.95 1.95 0 0 0 1.825-1.358 6.54 6.54 0 0 0 .17-2.108l-.063-1.843-.147-1.774q-.038-.444-.077-.887l-.039-.409a1.58 1.58 0 0 0-.221-.825c.067.2.074.206.016.028a1.51 1.51 0 0 0-2.872.01zm-24.003-2.672l-.068-.08q.183.681.364 1.361a2.46 2.46 0 0 0 .112-.607 1.7 1.7 0 0 0-.236-.883 2.6 2.6 0 0 0-.388-.464l-.286-.309c-.189-.205-.393-.4-.6-.588l-1.29-1.087a1.31 1.31 0 0 0-.566-.351c-.205-.103-.433-.153-.662-.143a1.38 1.38 0 0 0-.69.153c-.223.07-.424.197-.584.368a1.76 1.76 0 0 0-.519 1.209 1.79 1.79 0 0 0 .518 1.24l1.2 1.179c.2.192.421.376.644.546l.336.258a4.04 4.04 0 0 0 .48.364 1.83 1.83 0 0 0 1.521.1l-1.083-.133.084.06a1.6 1.6 0 0 0 1.073.132 1.48 1.48 0 0 0 .753-.51c.193-.232.3-.523.305-.825l-.046-.368c-.063-.238-.191-.454-.368-.624zm4.039.887a6.55 6.55 0 0 0 .25-2.931 10.02 10.02 0 0 0-.648-2.934 1.75 1.75 0 0 0-.771-.988 1.72 1.72 0 0 0-1.266-.156 1.68 1.68 0 0 0-1.193 2.009c.286.954.496 1.93.628 2.917l-.055-.433c.1.844.072 1.691.249 2.525a1.44 1.44 0 0 0 1.387 1.047 1.76 1.76 0 0 0 .748-.2 1.55 1.55 0 0 0 .672-.856zm3.872 1.906l.09-.061-.369.153a2.11 2.11 0 0 0 .793-.437l.167-.167a3.52 3.52 0 0 0 .514-.668 7.1 7.1 0 0 0 .559-1.227 7.44 7.44 0 0 0 .424-2.283c-.001-.457-.183-.895-.508-1.217-.326-.309-.757-.482-1.206-.484a1.79 1.79 0 0 0-1.25.512l-.271.347a1.69 1.69 0 0 0-.239.839l-.032.242.065-.439a10.37 10.37 0 0 1-.381 1.687l-.282.8a3.07 3.07 0 0 0-.12.4l-.052.2a2.15 2.15 0 0 0 0 .885l-.048-.387-.007.051.054-.368-.009.058c-.054.242-.056.493-.006.736.16.543.626.94 1.188 1.011a1.4 1.4 0 0 0 .924-.174zm13.663-3.816c-.184-.171-.38-.329-.586-.472l.318.237a2.04 2.04 0 0 1-.367-.361q.129.164.26.328-.171-.22-.345-.437l.261.33a2.18 2.18 0 0 1-.277-.473l.172.408-.258-.641.173.411a1.9 1.9 0 0 1-.131-.473l.055.433-.013-.165a1.2 1.2 0 0 0-.139-.63 1.18 1.18 0 0 0-.345-.529 1.23 1.23 0 0 0-.529-.328 1.25 1.25 0 0 0-.619-.134c-.445.001-.872.176-1.19.488l-.259.331a1.61 1.61 0 0 0-.226.8 1.78 1.78 0 0 0 0 .342 4.61 4.61 0 0 0 .106.734 2.04 2.04 0 0 0 .107.271l.122.28.079.144a4.83 4.83 0 0 0 .44.58c.069.086.148.164.234.232a4.6 4.6 0 0 0 .583.409c.047.027.1.051.147.073.16.081.328.146.5.195.117.027.239.038.356.053a.97.97 0 0 0 .259.02l.453-.06a1.48 1.48 0 0 0 .66-.378 1.45 1.45 0 0 0 .375-.629c.137-.496-.005-1.027-.373-1.387zm5.432.21l.04-.105-.131.3.023-.042-.212.271c.215-.222.358-.504.409-.809a2.28 2.28 0 0 0 .03-.358l-.009-.362-.047-.785-.243-1.927a1.55 1.55 0 0 0-.741-.949c-.371-.203-.807-.257-1.216-.149a1.63 1.63 0 0 0-.978.738l-.16.371c-.077.268-.08.551-.007.82l.287 1.528.191.735.1.35.06.173c.114.357.356.66.68.849l-.274-.2.037.034-.208-.262.071.09a1.58 1.58 0 0 0 .452.439 1.25 1.25 0 0 0 .785.139c.495-.068.907-.414 1.058-.89zm5.353 2.542a9.2 9.2 0 0 0 2.065-1.574 14.3 14.3 0 0 0 1.679-2.021c.228-.378.291-.832.177-1.258s-.397-.787-.783-1.001a1.73 1.73 0 0 0-1.282-.158 1.87 1.87 0 0 0-1.033.778q-.292.44-.617.859.132-.167.263-.336l-.5.642.262-.335c-.608.777-1.312 1.467-1.976 2.193a1.41 1.41 0 0 0-.116 1.861 1.47 1.47 0 0 0 1.865.349zm277.355-29.812a1.53 1.53 0 0 1-.4-1.856 2.94 2.94 0 0 1 2.037-1.5 33.6 33.6 0 0 1 8.08-.962c2.223-.084 4.832-.271 6.939.616a2.56 2.56 0 0 1 1.609 1.525c.355 1.213-.34 2.6-.824 3.684a1.83 1.83 0 0 0 .661 2.466c.888.485 2 .187 2.526-.677 1.26-2.651 2.246-5.772.188-8.312-1.585-1.957-4.229-2.557-6.627-2.718a47.03 47.03 0 0 0-9.166.461c-2.646.344-5.744.627-7.533 2.881-.8 1.043-1.133 2.37-.921 3.667a3.33 3.33 0 0 0 2.241 2.726c1.087.427 2.127-1.261 1.189-2zm-31.14 30.161l4.811.384 4.957-.066c3.31-.178 6.601-.606 9.846-1.281a70.81 70.81 0 0 0 18.42-6.574c3.339-1.648 6.482-3.665 9.371-6.013 1.535-1.316-.468-3.732-2.138-2.7-2.69 1.666-5.267 3.47-8.059 4.977a71.16 71.16 0 0 1-8.42 3.886 77.11 77.11 0 0 1-18.078 4.458c-1.746.214-3.5.36-5.259.462-1.786.1-3.634.244-5.42.181a1.14 1.14 0 0 0-1.128 1.127c-.008.619.478 1.133 1.097 1.158z"/><path d="M749.056 252.268c2.254 0 2.324-3.454.047-3.454-2.255 0-2.325 3.454-.047 3.454z"/><path d="M748.95 253.394c8.489 7.751 19.062 15.757 31.279 14.293a2 2 0 0 0 1.956-1.887 1.9 1.9 0 0 0-1.9-1.892c-11.357 1-21.178-5.342-29.578-12.249-1.181-.971-2.94.65-1.752 1.735zm-15.873-23.624l-2.874-3.323a30.25 30.25 0 0 1-2.489-3.055 8 8 0 0 1-1.325-6.169c1-4.74 4.931-7.88 9.335-9.377a38.35 38.35 0 0 1 7.59-1.631 24.68 24.68 0 0 1 8.017-.148c4.485.936 7.5 5.065 8.017 9.494.5 4.285-1.15 9.02-5.015 11.24-1.977 1.136-.19 4.106 1.774 2.978 4.428-2.544 6.788-7.56 6.794-12.57.006-5.294-2.757-10.961-7.65-13.36a17.55 17.55 0 0 0-9.3-1.293 54.41 54.41 0 0 0-9.252 1.467c-5.71 1.507-10.9 4.79-13.086 10.494-1.158 2.899-1.049 6.151.3 8.966 1.613 3.239 4.667 5.781 7.428 8.006.48.446 1.227.434 1.692-.027s.485-1.207.045-1.692zm-4.216 44.985a3.83 3.83 0 0 0-.347.688 3.39 3.39 0 0 0-.136.676l-.1.861c-.057.594-.073 1.191-.049 1.787a17.8 17.8 0 0 0 .2 2.086 7.73 7.73 0 0 0 .6 2.033 1.57 1.57 0 0 0 .846.7 1.72 1.72 0 0 0 1.134.081 1.8 1.8 0 0 0 1.321-1.669c-.029-.777-.176-1.54-.273-2.31l.062.491-.2-2.4-.033-1.171.014-.615a3.68 3.68 0 0 0-.194-.895 1.58 1.58 0 0 0-2.845-.35zm21.606-.331l-.059.108.489-.482c-.468.28-.801.74-.919 1.273a8.51 8.51 0 0 0-.25 1.223l-.226 1.769a35.33 35.33 0 0 0-.306 3.675c.007 1.014.831 1.832 1.845 1.832a1.93 1.93 0 0 0 1.345-.551c.32-.353.513-.802.548-1.277a34.5 34.5 0 0 0 .243-3.606l.039-1.77c0-.4-.067-.775-.1-1.176q.037.3 0 .02l-.051-.407c-.085-.323-.274-.609-.538-.813l.351.6-.046-.122c-.146-.487-.564-.843-1.068-.91-.518-.07-1.028.173-1.3.619zm-24.106-2.996l-.1-.036.333.135a1.85 1.85 0 0 0-.586-.178l-.3-.036.377.049a2.18 2.18 0 0 1-.5-.132l.371.15a3.62 3.62 0 0 1-.753-.4l.342.253a4.06 4.06 0 0 1-.707-.685l.271.342a2.5 2.5 0 0 1-.33-.549l.173.41a2.25 2.25 0 0 1-.093-.266 4.4 4.4 0 0 0-.235-.637q.085.2.169.4c-.033-.081-.062-.163-.086-.247a1.61 1.61 0 0 0-1.514-1.142 1.94 1.94 0 0 0-.816.219c-.354.208-.615.541-.733.934a2.06 2.06 0 0 0-.066.282 1.89 1.89 0 0 0-.007.915l.021.13a4.05 4.05 0 0 0 .337.91 3.44 3.44 0 0 0 1.106 1.29 3.62 3.62 0 0 0 1.919.724 3.97 3.97 0 0 0 .923-.078c.402-.07.773-.26 1.064-.545a1.32 1.32 0 0 0 .353-1.278 1.28 1.28 0 0 0-.352-.6 1.35 1.35 0 0 0-.593-.333zm4.644-1.848c-.114-.096-.222-.199-.325-.307l.187.237a3.5 3.5 0 0 1-.361-.619l.132.312a4.76 4.76 0 0 1-.3-1.172l.049.392-.1-.841.051.405a8.11 8.11 0 0 1 0-1.279 1.51 1.51 0 0 0-1.334-1.5 1.58 1.58 0 0 0-1.717 1.1 3.13 3.13 0 0 0-.147.891c.01.296.039.591.086.883.078.469.239.92.475 1.333a5.32 5.32 0 0 0 .813 1.061 7.58 7.58 0 0 0 .818.754 1.27 1.27 0 0 0 .822.33 1.23 1.23 0 0 0 .851-.349 1.16 1.16 0 0 0 0-1.639zm3.652 2.445l.336-.546c.106-.185.186-.369.277-.553l.656-1.476c.066-.193.077-.401.033-.6a1.13 1.13 0 0 0-.187-.586c-.211-.345-.547-.596-.938-.7-.411-.106-.847-.046-1.215.165l-.324.248a1.56 1.56 0 0 0-.4.68l-.412 1.172-.174.57-.133.628c-.093.346-.046.714.132 1.025a1.38 1.38 0 0 0 .65.541 1.32 1.32 0 0 0 .872.062c.344-.099.639-.322.829-.625zm14.505-1.865c-.042 0-.083-.007-.126-.012l.326.042h-.032l.3.121-.1-.06.608.778v-.012l.044.35-.046-.363c-.078-.288-.255-.539-.5-.709a2.18 2.18 0 0 0-.244-.161c-.08-.045-.156-.096-.23-.15l.3.223-.582-.422.312.232a3.5 3.5 0 0 1-.593-.594l.257.324c-.136-.172-.247-.361-.333-.563l.167.4-.282-.654.166.4a2.7 2.7 0 0 1-.093-.267 1.59 1.59 0 0 0-.744-.952l-.378-.153a1.22 1.22 0 0 0-.628-.025.82.82 0 0 0-.414.111 1.22 1.22 0 0 0-.531.335 1.53 1.53 0 0 0-.471 1.1c.017.266.056.53.117.79a2.74 2.74 0 0 0 .312.709c.143.222.302.433.478.63a2.3 2.3 0 0 0 .276.278 4.05 4.05 0 0 0 1.32.723c.235.07.479.106.724.107h.183a2.7 2.7 0 0 0 .427-.054c.356-.09.66-.321.843-.64l-.21.269.011-.013-.6.342.111-.029-.336.044.157.006a1.33 1.33 0 0 0 .908-.372c.229-.229.361-.537.37-.861a1.23 1.23 0 0 0-.369-.884l-.254-.19a1.28 1.28 0 0 0-.621-.162zm4.922-.077c-.032-.121-.058-.243-.077-.367l.044.358a8.41 8.41 0 0 0-.142-1.072l.048.392a5.7 5.7 0 0 1-.006-1.425l-.059.4.06-.328a1.63 1.63 0 0 0-.156-1.208c-.215-.351-.557-.607-.955-.713a1.65 1.65 0 0 0-1.236.167l-.33.252a1.6 1.6 0 0 0-.411.692 7.14 7.14 0 0 0-.107 1.021 6 6 0 0 0 .1 1.05 3.32 3.32 0 0 0 .2.637l.266.617a2.82 2.82 0 0 0 .412.513l-.215-.272.419.516.26.193a.97.97 0 0 0 .467.144 1.26 1.26 0 0 0 .824-.156 1.3 1.3 0 0 0 .6-1.412zm3.619 2.822l.475-.689.5-.676a1.03 1.03 0 0 0 .167-.5 1.02 1.02 0 0 0-.019-.544 1.52 1.52 0 0 0-.652-.834l-.332-.134a1.44 1.44 0 0 0-.738 0l-.351.145c-.209.121-.384.293-.509.5l-.423.718-.444.706a1 1 0 0 0-.16.482 1.34 1.34 0 0 0 .644 1.319c.312.173.678.218 1.022.126l.334-.139a1.36 1.36 0 0 0 .488-.482zm-23.078 33.529a38.92 38.92 0 0 0 9.018.559 42.67 42.67 0 0 0 8.856-1.176c5.022-1.178 9.632-3.694 13.339-7.281a20.08 20.08 0 0 0 4.677-7.06l-3.29-.863c-1.848 6.349-2.373 13.5-6.164 19.1-1.438 2.243-3.494 4.023-5.92 5.125a9.6 9.6 0 0 1-7.907-.435c-3.09-1.51-5.6-4.005-7.947-6.471-.649-.603-1.657-.592-2.292.026a1.6 1.6 0 0 0 0 2.243c4.167 5.255 10.495 10.168 17.615 8.517 6.815-1.58 10.907-8.213 12.8-14.464 1.271-4.2 1.837-8.58 3.106-12.779.548-1.815-2.291-2.993-3.119-1.258a21.5 21.5 0 0 1-8.63 9.444c-4.381 2.434-9.257 3.844-14.261 4.123-3.175.258-6.361.087-9.535.3-1.282.084-1.79 2.06-.346 2.352z"/><path d="M737.456 312.075a19.83 19.83 0 0 0 17.483 1.207 21.85 21.85 0 0 0 11.73-11.369l-3.533-.92c.062 3.656-2.142 6.929-5 9.066a17.48 17.48 0 0 1-5.139 2.5 48.42 48.42 0 0 0-6.473 2.072 1.79 1.79 0 0 0-.766 2.249 1.86 1.86 0 0 0 2.153 1.039c2.317-.43 4.589-1.071 6.79-1.913a20.9 20.9 0 0 0 6.489-3.557c3.373-2.793 5.839-6.988 5.732-11.456-.006-.932-.703-1.715-1.628-1.828-.93-.107-1.806.456-2.095 1.346a18.1 18.1 0 0 1-9.67 9.444 20.82 20.82 0 0 1-15.117-.119c-1.314-.519-2.155 1.542-.964 2.235zm45.68-32.37a7.91 7.91 0 0 1 1.421-1.965 3.59 3.59 0 0 1 .884-.633l.559-.29.287-.133c.17-.075-.187.054.107-.038l1.292-.348.161-.031c-.215.029.113-.01.163-.013l.7-.023a5.43 5.43 0 0 1 .624.04c-.365-.041.3.07.386.089l.595.171.152.051c-.198-.083.175.088.213.107.208.109.41.229.606.359.229.148-.192-.166.014.011l.238.206c.155.141.292.294.436.446.188.2-.155-.22 0 0l.221.317.345.606.068.132c-.095-.218.032.087.049.14a10.26 10.26 0 0 1 .331 1.288c.1.491-.014-.239.012.066l.022.314.008.631-.045.629c-.024.277.054-.267 0 0l-.1.462-.174.6-.107.293c-.092.259.121-.241 0 0l-.291.549-.164.263-.176.255c.136-.166-.071.076-.107.113l-.27.28-.231.21c-.332.313.271-.139-.125.1a10.8 10.8 0 0 1-1.583.813l-4.244 1.54c-.758.434-1.072 1.365-.733 2.17s1.226 1.229 2.066.989c2.64-1.088 5.745-1.417 7.76-3.648a8.79 8.79 0 0 0 2.165-6.722 7.74 7.74 0 0 0-3.59-6.15c-2.125-1.345-4.771-1.573-7.094-.612-2.424.929-4.877 3.031-5.066 5.785-.081 1.2 1.647 1.53 2.205.574zm-219.744-18.402a7.45 7.45 0 0 0-.374 2.2c-.045.617-.059 1.236-.041 1.854a20.93 20.93 0 0 0 .555 4.094 1.88 1.88 0 0 0 2.294 1.288 1.9 1.9 0 0 0 1.343-2.262l-.287-1.765-.037-.272q.05.4.012.086l-.042-.411-.065-.891-.065-1.786.022-.892c-.006-.42-.047-.838-.125-1.251a1.62 1.62 0 0 0-1.577-1.19c-.737.022-1.382.501-1.615 1.2zm19.228 1.444q.557-1.007.021-.251a1.82 1.82 0 0 0-.178.434 5.17 5.17 0 0 0-.088.526 8.81 8.81 0 0 0-.069 1q-.03.822-.062 1.644a30.49 30.49 0 0 0 .043 3.353 1.742 1.742 0 1 0 3.484 0 30.36 30.36 0 0 0 .042-3.353l-.06-1.644-.039-.789a5.31 5.31 0 0 0-.094-.691 2.29 2.29 0 0 0-.2-.511q-.543-.765.018.281c-.013-.761-.63-1.374-1.392-1.382a1.45 1.45 0 0 0-1.428 1.379zm-20.985 30.264c13.371 4.845 28.532 3.4 41.064-3.172 3.591-1.89 6.941-4.207 9.977-6.9l-3.021-1.213a55.72 55.72 0 0 1-3.468 12.96 34.55 34.55 0 0 1-5.887 10.264c-2.376 2.87-5.842 4.619-9.562 4.827-4.066.134-7.976-1.359-11.521-3.222-3.788-1.989-8.007-4.351-10.242-8.136-.44-.71-1.333-.991-2.1-.661a1.64 1.64 0 0 0-1 1.943c1.768 4.24 6.053 6.878 9.868 9.112a30.56 30.56 0 0 0 13.222 4.525c4.542.289 9.006-1.286 12.36-4.363 3.262-2.943 5.488-6.91 7.249-10.883a60.18 60.18 0 0 0 4.613-16.363c.225-1.659-2.026-2.1-3.021-1.213-9.977 8.887-23.5 13.051-36.753 12.218a48.35 48.35 0 0 1-11.123-2.049c-1.507-.463-2.131 1.79-.663 2.322zm339.842-30.625l-.07.211q.293-.371.583-.743a2.6 2.6 0 0 0-.936 2.2 11.05 11.05 0 0 0-.018 1.6c.038.649.11 1.296.215 1.938a7.97 7.97 0 0 0 .363 1.561 1.86 1.86 0 0 0 .826 1.057 1.82 1.82 0 0 0 2.441-.654 1.99 1.99 0 0 0 .188-1.328c-.078-.527-.241-1.043-.347-1.565l-.289-1.454-.247-1.45a2.43 2.43 0 0 0-.927-1.919l.583.746-.061-.211a1.21 1.21 0 0 0-2.307.008zm19.852-1.727c-.29.766-.43 1.581-.414 2.4l-.07 2.031-.052 1.956c-.016.677.06 1.356.1 2.031a1.76 1.76 0 0 0 1.746 1.734 1.82 1.82 0 0 0 1.794-1.731l.1-1.956-.052-2.032-.067-1.956a6.72 6.72 0 0 0-.414-2.508c-.291-.461-.8-.739-1.346-.734a1.57 1.57 0 0 0-1.331.76zm-6.365 47.502a45.18 45.18 0 0 0 12.066-4.416 42.5 42.5 0 0 0 21.585-32.211 40.8 40.8 0 0 0-.939-15.77c-.584-2.165-3.894-1.256-3.424.917 1.939 8.53 1.189 17.45-2.146 25.537a40.84 40.84 0 0 1-15.458 18.224 40.35 40.35 0 0 1-12.277 5.5c-.594.178-.94.796-.779 1.395s.769.962 1.372.818z"/><path d="M945.236 258.019c2.254 0 2.325-3.455.047-3.455-2.255 0-2.324 3.455-.047 3.455z"/><path d="M941.954 257.388a3.7 3.7 0 0 0 .66-.082c.178-.046.942-.366.367-.135l.681-.294.189-.083-.13.056a9.77 9.77 0 0 1 1.576-.413l.2-.035c.191-.029.136-.022-.17.021.134 0 .271-.028.407-.037a7.57 7.57 0 0 1 .815-.01l.407.028.2.02q-.453-.062-.165-.021l.4.068.57.072q-.447-.06-.16-.018c.467.106.957.04 1.379-.187a1.82 1.82 0 0 0 .828-1.055c.238-.934-.313-1.887-1.241-2.147a7.97 7.97 0 0 0-4.325-.053 8.8 8.8 0 0 0-1.993.778c-.303.157-.593.34-.864.548a2.84 2.84 0 0 0-.952 1.277 1.35 1.35 0 0 0 1.313 1.7z"/><path d="M949.074 257.597c2.255 0 2.324-3.454.046-3.454-2.255 0-2.323 3.454-.046 3.454zm-14.008-36.935a11.26 11.26 0 0 0-2.287-3.593 23.44 23.44 0 0 0-2.893-2.9 29.33 29.33 0 0 0-7.02-4.5 28.61 28.61 0 0 0-17.645-1.99 29.97 29.97 0 0 0-9.621 3.838 1.73 1.73 0 0 0-.6 2.368 1.73 1.73 0 0 0 2.368.6 26.98 26.98 0 0 1 29.408 1.535 27.9 27.9 0 0 1 3.132 2.734 36.64 36.64 0 0 0 3.019 3.133c.891.7 2.543.085 2.139-1.226zm-688.333 41.911a12.13 12.13 0 0 0-.354 1.32 8.43 8.43 0 0 0-.076.971 15.49 15.49 0 0 0 .079 2c.07.777.207 1.547.409 2.3a16.09 16.09 0 0 0 .872 2.235c.445.726 1.356 1.014 2.137.674.791-.308 1.227-1.159 1.015-1.981a22.96 22.96 0 0 1-.959-3.684l-.082-.477-.018-.1a9.5 9.5 0 0 1-.085-.97l-.044-.971-.094-.685c-.009-.056-.064-.565-.054-.284a1.37 1.37 0 0 0-1.2-1.348c-.689-.094-1.345.327-1.545.993zm14.643-1.146q.2-.411-.08.209c-.046.097-.069.202-.07.309a4.06 4.06 0 0 0-.037.562l.017.715.17 1.608.466 3.508a1.74 1.74 0 0 0 .833 1.066 1.88 1.88 0 0 0 1.127.2c.888-.098 1.566-.839 1.586-1.732l-.461-3.508-.244-1.54-.183-.753-.1-.343a1.17 1.17 0 0 0-.232-.484q-.434-.533-.132-.18a1.48 1.48 0 0 0-2.659.361zm-41.575 17.727a17.76 17.76 0 0 0 .43 6.208 37.03 37.03 0 0 0 1.518 5.527 42.85 42.85 0 0 0 5.4 10.355 46.25 46.25 0 0 0 17.9 15.173c4.026 1.894 8.639 3.51 13.131 3.56 1.9.021 2.446-2.9.49-3.331a57.36 57.36 0 0 1-10.578-2.925 41.84 41.84 0 0 1-9.267-5.455c-5.779-4.502-10.324-10.395-13.21-17.128a41.26 41.26 0 0 1-2-5.907c-.244-.968-.472-1.939-.657-2.919-.139-1.068-.349-2.126-.627-3.166-.37-1.112-2.288-1.336-2.529.009z"/><path d="M224.383 293.598c1.906-1.4 3.542-3.174 5.789-4.058a5.06 5.06 0 0 1 4.929.5c1.713 1.4.788 4.263.34 6.194a43.88 43.88 0 0 1-2.62 7.816c-.475.852-.187 1.928.651 2.428.875.479 1.971.185 2.489-.667 1.446-3.112 2.514-6.385 3.183-9.751.6-3.04.959-6.439-1.74-8.6a8.08 8.08 0 0 0-7.538-1.212c-2.906 1.143-5.402 3.131-7.165 5.709-.712.981.722 2.339 1.682 1.634zm4.609 8.336c.089-.375.354-.858.5-1.3l.478-1.384.257-.645c-.079.183.036-.072.065-.135l.133-.277q.323-.656.705-1.279c.242-.4.5-.774.777-1.148l.031-.046.242-.3.452-.523a22.99 22.99 0 0 1 2.078-2.046c1.313-1.147-.432-3.34-1.87-2.362a14.53 14.53 0 0 0-4.433 4.9c-.531.94-.975 1.926-1.326 2.947a10.12 10.12 0 0 0-.4 1.485 6.7 6.7 0 0 0-.129.969c-.007.2.044.384.048.579 0-.191-.022.273-.021.254-.1 1.376 2.1 1.623 2.41.312zm337.493-1.668c5.792 3.157 12.499 4.214 18.981 2.989a39.42 39.42 0 0 0 17.328-8.217 54.8 54.8 0 0 0 7.74-7.522l-2.866-1.608c-1.573 4.4-5.337 7.61-9.4 9.677-4.845 2.465-10.382 3.7-15.7 4.62-3.189.551-6.406.926-9.637 1.124a1.8 1.8 0 0 0-.946 3.34 23.29 23.29 0 0 0 16.4 2.434c2.713-.592 5.289-1.696 7.589-3.253 2.441-1.657 4.629-3.685 7.382-4.835q-.905-1.517-1.807-3.034c-5.659 3.943-12.297 6.245-19.182 6.652-1.414.107-2.6 1.924-1.306 3.042 4.128 3.694 9.968 4.787 15.152 2.835a14.48 14.48 0 0 0 8.9-12.479c.105-1.751-2.477-2.329-3.278-.854-3.899 6.839-11.391 10.816-19.24 10.213-1.734-.124-2.552 2.529-.935 3.3a18.97 18.97 0 0 0 7.507 2.272 8.49 8.49 0 0 0 6.673-3.259c3.777-4.33 7.46-8.783 11.069-13.254l-2.309.026a2.09 2.09 0 0 1 .566 1.346c.113 2.006 3.246 2.015 3.185 0a5.74 5.74 0 0 0-1.441-3.635 1.66 1.66 0 0 0-2.308.026c-3.455 3.927-6.792 7.963-10.173 11.954-1.255 1.482-2.528 3.268-4.64 3.395-2.241.135-4.373-.949-6.308-1.942q-.468 1.649-.934 3.3c8.984.909 18-4.23 22.323-12.04l-3.278-.854a11.1 11.1 0 0 1-6.714 9.323 10.73 10.73 0 0 1-11.253-2.212q-.652 1.522-1.305 3.042a37.4 37.4 0 0 0 21.037-7.165c.817-.508 1.077-1.577.585-2.403a1.77 1.77 0 0 0-2.392-.631c-2.559 1.085-4.643 2.921-6.89 4.509a19.44 19.44 0 0 1-6.642 3.1 19.13 19.13 0 0 1-14.191-2.022q-.472 1.67-.947 3.34a87.92 87.92 0 0 0 18.494-2.949c5.442-1.491 10.855-3.747 14.908-7.8 2.098-2.078 3.702-4.601 4.693-7.382.564-1.592-1.789-2.875-2.865-1.608-7.658 9.027-18.265 15.944-30.5 15.49a26.29 26.29 0 0 1-10.029-2.237c-1.222-.556-2.335 1.149-1.1 1.846zm-125.829-6.377a47.1 47.1 0 0 1-33.131-6.147 45.63 45.63 0 0 1-7.565-5.993 1.85 1.85 0 0 0-3.095 1.267 50.96 50.96 0 0 0 1.647 15.055c1.221 4.699 3.26 9.146 6.024 13.138a14.83 14.83 0 0 0 5.1 4.667 15.45 15.45 0 0 0 7.461 1.432 26 26 0 0 0 12.188-3.509 24.05 24.05 0 0 0 9.945-10.414 1.7 1.7 0 0 0-.614-2.289 1.77 1.77 0 0 0-2.344.629 24.85 24.85 0 0 1-7.452 8.2c-3.048 2.079-6.562 3.375-10.23 3.773a15.32 15.32 0 0 1-6.156-.464c-1.788-.665-3.343-1.836-4.475-3.371a35.14 35.14 0 0 1-5.735-11.819 40.97 40.97 0 0 1-1.74-15.029l-3.094 1.267c8.771 9.07 20.922 14.08 33.537 13.826a38.53 38.53 0 0 0 10.425-1.609 1.351 1.351 0 1 0-.7-2.61z"/><path d="M399.21 287.153c.054 2.279 1.284 4.68 2.257 6.682 1.187 2.363 2.897 4.424 5 6.026 5.09 4.087 11.439 5.744 17.871 6.014a83.31 83.31 0 0 0 11.4-.454 2.09 2.09 0 0 0 2.051-1.979c-.013-1.097-.903-1.98-2-1.983-5.908-.144-11.8.2-17.631-.972a31.1 31.1 0 0 1-12.543-5.286 15.1 15.1 0 0 1-4.739-5.6c-.909-1.919-4.082-.554-3.5 1.452a77.34 77.34 0 0 0 8.927 19.87 1.94 1.94 0 0 0 2.124.842c.82-.212 1.4-.943 1.419-1.79a27.47 27.47 0 0 0-5.491-13.738 1.93 1.93 0 0 0-2.361-.744 1.85 1.85 0 0 0-1.123 2.19 37.58 37.58 0 0 0 4.5 7.993c1.77 2.442 3.6 4.824 5.125 7.433a1.95 1.95 0 0 0 3.575-.958 12.91 12.91 0 0 0-1.1-6.039c-.897-1.718-1.88-3.391-2.945-5.011-.5-.805-1.512-1.124-2.383-.751a1.87 1.87 0 0 0-1.132 2.209c1.771 4.686 4.09 9.145 6.911 13.285a1.97 1.97 0 0 0 2.143.849c.827-.215 1.412-.952 1.432-1.807a77.36 77.36 0 0 0-2.8-14.493l-3.7.992q2.432 6.486 4.864 12.971a1.91 1.91 0 0 0 2.08 1.344c.826-.121 1.8-.889 1.685-1.838q-.581-4.894-1.167-9.788l-3.553.952q2.019 4.2 4.038 8.393a1.9 1.9 0 0 0 2.12.84c.805-.233 1.374-.951 1.417-1.788.275-2.964.143-5.952-.39-8.88l-3.458 1.434q1.417 2.614 2.841 5.224c.7 1.292 3.183 1.126 3.422-.464q.39-2.6.781-5.207l-3.4.461q1.419 2.449 2.837 4.9a1.87 1.87 0 0 0 3.18-.031q.8-1.623 1.608-3.247l-3.324-.409c.604 1.727 2.306 2.821 4.128 2.653a4.04 4.04 0 0 0 3.891-3.042l-2.63 1.072c-.072-.041.114-.434-.09.094l1.3-1.264q-5.145 1.781-10.25 3.671a1.94 1.94 0 0 0-1.363 2.295 1.9 1.9 0 0 0 2.328 1.307l8.4-3.123a16.37 16.37 0 0 0 2.26-.885 2.35 2.35 0 0 0 1.023-1.962c.051-1.316-.646-2.547-1.8-3.181a1.83 1.83 0 0 0-2.631 1.072 1.8 1.8 0 0 1-.074.333c.065-.137.067-.153.007-.047-.006.009-.039.029-.027.025.254-.07-.549.255-.105.053-.078.036-.555.1-.192.064-.444.041-.406.068-.707-.088q.259.1-.017-.041l.11.08c-.143-.147-.153-.149-.027 0q-.152-.275-.023-.022c-.466-1.377-2.576-1.868-3.323-.409l-1.649 3.224 3.179-.031q-1.4-2.46-2.807-4.915c-.719-1.259-3.146-1.133-3.4.461q-.4 2.6-.81 5.2l3.423-.465q-1.408-2.621-2.815-5.24a1.9 1.9 0 0 0-3.458 1.435 29.1 29.1 0 0 1 .25 7.9l3.537-.948q-2.01-4.2-4.022-8.4c-.768-1.6-3.767-.87-3.553.952q.574 4.894 1.149 9.788l3.764-.493q-2.429-6.486-4.861-12.972c-.306-.989-1.332-1.565-2.336-1.312a1.92 1.92 0 0 0-1.368 2.3 72.26 72.26 0 0 1 2.675 13.5l3.576-.958c-2.653-3.848-4.841-7.997-6.519-12.36l-3.516 1.458c.9 1.546 1.96 3.014 2.757 4.617a7.82 7.82 0 0 1 .625 1.816c.166.887.218 1.792.152 2.692l3.575-.958c-2.911-4.948-7.083-9.117-9.261-14.492l-3.484 1.445a23.99 23.99 0 0 1 4.983 11.829l3.542-.949a72.33 72.33 0 0 1-8.519-18.959l-3.5 1.451c2.126 4.546 6.4 7.835 10.822 9.978a42.65 42.65 0 0 0 16.5 3.862c3.6.187 7.24.157 10.846.064q-.242-1.946-.484-3.891c-5.908.866-12.054 1.317-17.916-.109a24.72 24.72 0 0 1-7.682-3.308 23.57 23.57 0 0 1-3.463-2.747c-.273-.261-.529-.541-.8-.8s.056.106-.1-.12c-.282-.4-.54-.807-.786-1.226-.673-1.145-1.283-2.335-1.845-3.539a10.54 10.54 0 0 1-1.077-2.841c-.187-1.33-2.4-1-2.371.312zm166.517 42.442c-6.553 8.686-12.537 18.028-21.414 24.593a40.86 40.86 0 0 1-13.5 6.782 33.23 33.23 0 0 1-3.68.776c-1.293.056-2.565.347-3.753.859-2.414 1.354-2.076 4.191-3.371 6.287a6.19 6.19 0 0 1-5.407 3.054 5.65 5.65 0 0 1-4.877-3.45c-.773-1.781-3.96-.492-3.263 1.354a9.03 9.03 0 0 0 12.607 4.588 10.92 10.92 0 0 0 4.987-5.69c.211-.573.384-1.159.519-1.755.108-.425.17-.942.558-1.195a3.06 3.06 0 0 1 1.178-.3c.778-.117 1.561-.194 2.337-.327 11.156-1.9 20.579-9.261 27.789-17.641a127.25 127.25 0 0 0 11.859-16.492c.193-.334.245-.731.146-1.103s-.344-.69-.678-.883a1.55 1.55 0 0 0-2.035.545z"/><path d="M439.232 331.19c8.241 7.397 17.038 14.15 26.313 20.2a210.95 210.95 0 0 0 29.057 15.806q8.617 3.844 17.545 6.936c1.249.433 2.872-.979 2.354-2.294-.373-.832-.205-1.807.424-2.466a3.53 3.53 0 0 1 2.191-1.266c2.452-.3 4.707 1.77 6.167 3.529 1.257 1.513 4.073-.557 2.836-2.166-2.376-3.091-6.062-5.768-10.178-4.88-3.465.748-6.547 4.67-5.123 8.235l2.355-2.294a210.76 210.76 0 0 1-29.836-12.784c-9.656-5.032-18.921-10.782-27.717-17.2-4.927-3.6-9.715-7.4-14.308-11.418-1.381-1.209-3.492.8-2.082 2.06zm164.482-1.82c6.864 12.753 16.432 23.853 28.035 32.521 3.392 2.516 7.165 4.633 11.489 4.749a1.87 1.87 0 0 0 1.861-1.8c.252-12.108-6.539-22.84-12.925-32.6q-.331 1.216-.66 2.431c2.85-1.258 6.141-3.133 6.435-6.6.249-2.924-2.245-6.026-5.339-5.217-1.674.438-1.449 3.191.381 3.052.592-.045.735.109 1.05.648a2.21 2.21 0 0 1 .2 1.767c-.731 1.756-2.933 2.587-4.542 3.3a1.78 1.78 0 0 0-.661 2.432c6.065 9.252 12.535 19.295 12.386 30.777l1.862-1.8c-3.425-.065-6.461-1.86-9.174-3.8a86.4 86.4 0 0 1-7.9-6.489 104.99 104.99 0 0 1-13.57-15.043 102.17 102.17 0 0 1-6.426-9.788c-.419-.645-1.27-.849-1.936-.463s-.914 1.224-.564 1.909zm-195.47-2.35c-8.881 4.207-17.27 9.381-25.015 15.429-6.871 5.222-13.338 11.064-18.287 18.188a45.73 45.73 0 0 0-6.339 12.917 1.71 1.71 0 0 0 .455 1.639c.432.427 1.059.591 1.645.432l16.9-4.754 8.621-2.416c1.237-.346 2.586-.66 3.275-1.866.528-.923.338-2 .746-2.954a4.21 4.21 0 0 1 4.487-2.417c2 .423 2.926-2.557.877-3.076a7.28 7.28 0 0 0-6.425 1.533 7.07 7.07 0 0 0-1.955 2.513 6.36 6.36 0 0 0-.5 1.5c-.055.3-.091.6-.124.9-.016.154-.132.476.087.254-.276.279-1.121.35-1.5.454l-2.2.614-4.4 1.228-8.792 2.455-9.981 2.767 2.1 2.07c2.473-7.862 7.263-14.6 13.006-20.419a127.09 127.09 0 0 1 20.639-16.379c4.537-3 9.235-5.742 13.9-8.526 1.4-.833.172-2.729-1.241-2.084zm-24.131-64.941c-1.773-2.14-3.711-4.206-6.373-5.2a7.31 7.31 0 0 0-7.6 1.291 9.6 9.6 0 0 0-2.523 7.11 12.88 12.88 0 0 0 2.07 6.584c1.443 2.276 3.628 3.984 6.185 4.833 1.69.553 2.984-2.208 1.26-2.92-3.929-1.622-6.686-5.908-5.9-10.128.149-1.138.644-2.202 1.42-3.047a3.79 3.79 0 0 1 2.914-.891c2.73.144 4.915 2.358 6.823 4.074.478.42 1.199.398 1.652-.049s.483-1.168.07-1.651zm87.333-2.932c.996.072 1.967.343 2.857.795.881.504 1.596 1.253 2.058 2.157l.173.357c-.115-.272.06.194.063.2a6.39 6.39 0 0 1 .212.845c.018.1.045.357.023.126l.029.475a6.71 6.71 0 0 1-.032.874c-.009.092-.042.36-.008.134l-.091.468c-.066.283-.15.562-.252.835-.03.084-.145.328-.049.128l-.212.427a7.64 7.64 0 0 1-.471.823c-.982 1.485 1.288 3.129 2.464 1.835 2.212-2.541 2.579-6.201.916-9.13-1.478-2.611-4.961-4.593-7.991-3.851a1.27 1.27 0 0 0 .311 2.5zm73.255-1.701c-.43-1.605-1.564-2.929-3.085-3.6-1.596-.723-3.407-.82-5.071-.271a8.72 8.72 0 0 0-5.3 8.993 7.67 7.67 0 0 0 3.291 5.985c1.649 1.057 3.728-1.45 2.172-2.779a6.58 6.58 0 0 1-.506-.482l-.275-.294a6.43 6.43 0 0 1-.727-1.2c.146.308-.113-.318-.136-.386l-.143-.516-.089-.411a6.64 6.64 0 0 1-.042-.71l.02-.67q.013-.167.033-.335c-.029.171-.026.154.009-.051a8.67 8.67 0 0 1 .3-1.141l.139-.369.312-.592.363-.557q.183-.245.027-.044l.16-.189a6.53 6.53 0 0 1 .4-.415c.048-.045.54-.431.281-.25a5.85 5.85 0 0 1 .562-.35c.074-.04.67-.286.286-.151a5.14 5.14 0 0 1 1.006-.257c-.379.052.236 0 .306 0a5.77 5.77 0 0 1 .6.026c-.31-.029.267.056.326.07a5.5 5.5 0 0 1 .568.167l.186.071a5.96 5.96 0 0 1 .521.269 2.61 2.61 0 0 1 .733.577 2.28 2.28 0 0 1 .561.784c.573 1.215 2.6.351 2.221-.92zm80.283.97c1.161-.158 2.259-.656 3.441-.777a9.76 9.76 0 0 1 3.24.171 7.52 7.52 0 0 1 2.8 1.255 7.42 7.42 0 0 1 1.611 1.727 5.2 5.2 0 0 1 .895 2.377 4.91 4.91 0 0 1-.346 2.175 4.5 4.5 0 0 1-3.786 2.752c-.799.206-1.321.973-1.22 1.792.12.806.805 1.406 1.62 1.419a6.61 6.61 0 0 0 5.436-2.574 7.93 7.93 0 0 0 1.858-6.067c-.721-4.336-4.16-7.711-8.509-8.349a14.31 14.31 0 0 0-4.263-.018c-1.404.114-2.765.539-3.984 1.244a1.59 1.59 0 0 0-.669 1.965c.327.716 1.117 1.097 1.881.907zM510.29 38.575c-15.475 2.11-30.821 6.4-44.547 13.984-13.136 7.256-24.605 17.839-31.15 31.5a68.01 68.01 0 0 0-6.328 23.608 67.02 67.02 0 0 0 3.374 26.724c5.873 17.271 17.218 32.157 32.313 42.4 16.738 11.342 37.785 15.674 57.768 15.48 10.273-.1 20.677-1.632 30.223-5.546a63.16 63.16 0 0 0 19.31-12.378c9.474-9.139 16.043-20.87 18.885-33.723 5.836-26.689-.87-54.581-18.2-75.7-10.362-12.327-24.711-21.425-41-22.9a49.49 49.49 0 0 0-14.493.975 1.68 1.68 0 1 0 .871 3.247 46.71 46.71 0 0 1 14.17-.45 50.96 50.96 0 0 1 13.612 3.436 58.7 58.7 0 0 1 18.158 11.9 79.08 79.08 0 0 1 20.216 31.937c4.273 12.196 5.752 25.195 4.326 38.039-.341 3.03-.872 6.036-1.589 9a72.1 72.1 0 0 1-2.767 8.934q-.42 1.1-.88 2.183l-.109.259-.238.537-.489 1.068q-1 2.126-2.145 4.178-1.145 2.052-2.445 4.013-.65.982-1.337 1.938-.344.479-.7.951l-.236.314-.288.379a59.06 59.06 0 0 1-6.459 7.012q-1.785 1.653-3.7 3.156c-.524.411-1 .769-1.726 1.287q-1.014.726-2.058 1.41a64.49 64.49 0 0 1-25.148 9.458c-9.766 1.453-19.686 1.542-29.476.263a97.73 97.73 0 0 1-28.076-7.391 79.43 79.43 0 0 1-37.9-35.824 70.07 70.07 0 0 1-7.7-24.379c-.913-8.275-.198-16.648 2.106-24.648a60.7 60.7 0 0 1 9.695-19.62 69.9 69.9 0 0 1 15.124-14.641c12.167-8.746 26.4-14.046 40.915-17.412q5.4-1.253 10.88-2.119a1.5 1.5 0 0 0 1.074-1.81c-.24-.778-1.047-1.231-1.836-1.03zM422.735 145.54c-1.251-2.225-4.167-2.952-6.556-2.725-2.38.252-4.618 1.256-6.389 2.867a12.85 12.85 0 0 0-4.016 12.6 12.52 12.52 0 0 0 9.585 8.563 11.67 11.67 0 0 0 12.053-4.592 13.36 13.36 0 0 0 2.408-7.046c.131-2.478-.464-5.433-2.221-7.277-.529-.498-1.341-.537-1.915-.091-.562.438-.724 1.22-.382 1.845a12.36 12.36 0 0 1 1.294 4.738 10.28 10.28 0 0 1-1.1 4.842 8.34 8.34 0 0 1-8.025 4.708c-3.318-.188-6.318-2.038-7.975-4.919-1.678-3.08-.922-6.912 1.089-9.644 2.266-3.08 6.983-5.154 10.319-2.469.961.774 2.5-.2 1.827-1.395zm-12.253 34.606c-3.178.808-6.883 2.747-8.426 5.8-1.754 3.466-.2 7.218 3.05 9.091 3.207 1.732 7.02 1.946 10.4.582 3.194-1.276 6.045-4.107 5.933-7.768-.111-3.622-2.956-7.56-6.923-7.147a1.65 1.65 0 0 0-1.614 1.558 1.57 1.57 0 0 0 1.572 1.561c1.958-.135 3.409 1.646 3.666 3.669.274 2.169-1.415 4.087-3.465 5a9.1 9.1 0 0 1-7.091.115c-2-.867-3.644-2.741-2.781-4.894 1.061-2.65 4.308-4.05 6.61-5.373a1.2 1.2 0 0 0-.926-2.191zm192.296-29.737c-4.567-.529-9.035 1.602-11.498 5.485s-2.488 8.832-.064 12.739c4.533 7.545 16.882 7.621 20.9-.489 2.11-4.265 1.792-9.736-1.567-13.277-1.218-1.284-3.721.486-2.583 1.972 1.898 2.436 2.464 5.655 1.51 8.592a7.85 7.85 0 0 1-6.526 5.391 8.96 8.96 0 0 1-8.089-3.007c-2.301-2.842-2.679-6.785-.959-10.013s5.204-5.113 8.846-4.787c1.7.147 1.731-2.452.035-2.61zm12.125 35.865c-2.753-1.34-6.04-.912-8.359 1.087a7.89 7.89 0 0 0-2.772 8.008c1.578 6.606 10.587 9.973 15.708 5.1 2.729-2.6 2.859-7.307-.371-9.529a1.46 1.46 0 0 0-1.862.385c-.435.558-.387 1.352.111 1.854 1.116 1.383 1.058 3.373-.137 4.688a5.55 5.55 0 0 1-5.665 1.22c-.967-.318-1.85-.848-2.586-1.551a5.65 5.65 0 0 1-.9-1.025 8.04 8.04 0 0 1-.44-.724 4.02 4.02 0 0 1-.279-.6c-.081-.235-.154-.473-.212-.715a6.39 6.39 0 0 1-.077-.365c-.106-.577 0 .145-.027-.2a4.6 4.6 0 0 1 .066-1.446 6.94 6.94 0 0 1 .191-.651c.172-.5-.075.132.057-.15.047-.1.1-.2.153-.3a4.13 4.13 0 0 1 .788-1.106c1.309-1.38 3.347-2.342 5.155-1.528a1.5 1.5 0 0 0 1.967-.527 1.4 1.4 0 0 0-.514-1.919zM427.915 79.334a119.68 119.68 0 0 1 23.056-25.229l7.656-5.83c.502-.283.811-.815.808-1.392s-.318-1.105-.823-1.382-1.121-.259-1.608.048a77.28 77.28 0 0 0-14 10.9 95.84 95.84 0 0 0-11.659 13.313 85.17 85.17 0 0 0-5.461 8.428c-.752 1.338 1.2 2.35 2.032 1.14zm-1.427-14.907l2.969-4.1 3.431-3.9a59.4 59.4 0 0 1 7.751-6.632 1.64 1.64 0 0 0 .594-2.189 1.66 1.66 0 0 0-2.229-.555 38.31 38.31 0 0 0-8.562 7.008 35.52 35.52 0 0 0-6.331 9.034c-.337.653-.097 1.455.544 1.814s1.451.147 1.832-.481zm93.075 136.044a24.4 24.4 0 0 0 4.505.433l4.656.012c9.168-.336 18.231-2.06 26.882-5.114a55.29 55.29 0 0 0 9.727-4.229c1.633-.971.571-3.867-1.323-3.129-2.738 1.068-5.391 2.336-8.147 3.368-2.808 1.052-5.67 1.967-8.565 2.75a92.64 92.64 0 0 1-17.245 2.941c-1.658.123-3.318.209-4.979.269-1.707.061-3.45-.018-5.145.2a1.34 1.34 0 0 0-1.292 1.108 1.25 1.25 0 0 0 .925 1.394zm20.292 10.242c3.07.418 6.19.273 9.207-.429a29.73 29.73 0 0 0 8.579-3.419c.781-.5 1.024-1.528.55-2.325s-1.495-1.073-2.306-.624a41.97 41.97 0 0 1-15.675 4.392 1.28 1.28 0 0 0-1.244 1.065c-.094.61.292 1.191.89 1.34zM560.94 43.539l6.757 5.051c2.248 1.728 4.4 3.578 6.468 5.513 4.155 3.868 7.896 8.158 11.163 12.8 1.854 2.641 3.53 5.392 5.337 8.063.414.658 1.274.871 1.947.482s.917-1.241.553-1.928c-2.284-5.357-5.969-10.2-9.728-14.6a81.47 81.47 0 0 0-12.647-11.981 41.46 41.46 0 0 0-8.379-5.276c-.531-.28-1.186-.145-1.562.323s-.335 1.139.093 1.555zM54.545 276.552c-2.541 9.486 2.873 19.851 10.077 25.828 8.089 6.711 18.868 9.528 29.22 9.814 4.786.132 11.3-.637 13.9-5.307.372-.705.175-1.575-.464-2.051s-1.53-.415-2.098.144a10.37 10.37 0 0 1-4.662 3.051 19.93 19.93 0 0 1-5.866.716 53.31 53.31 0 0 1-13.706-1.917c-8.824-2.416-16.892-7.6-21.235-15.854-2.255-4.363-3.308-9.247-3.05-14.151-.023-.527-.422-.96-.945-1.028s-1.019.25-1.175.754zm14.424 52.225a79.28 79.28 0 0 1-14.867-10.076c-4.535-3.984-8.61-8.462-12.148-13.353-7.912-10.878-13.246-23.344-17.236-36.128-2.4-7.69-4.374-15.516-6.214-23.358a1.73 1.73 0 0 0-2.874-.729c-1.053 1.284-2.326 1.435-4 .88-1.458-.484-2.616-1.606-3.146-3.048a5.28 5.28 0 0 1 1.823-5.027 8.41 8.41 0 0 1 6.042-2.1c1.574.089 2.015-2.455.4-2.749-4.815-.882-10.242 2.029-11.545 6.924-1.179 4.427 2.033 8.66 6.411 9.479a6.6 6.6 0 0 0 6.439-2.012l-2.874-.729c3.328 14.227 7.071 28.406 13.137 41.748 5.29 11.635 12.52 22.572 22.1 31.126a57.52 57.52 0 0 0 17.688 11.153c1.168.443 1.97-1.411.864-2zm42.343-.348c4.725-.025 9.447-.511 14.174-.6a78.52 78.52 0 0 1 13.964.788c2.3.365 4.572.887 6.8 1.564 1.013.311 2.039.632 3.017 1.042.409.172 1.617.709 1.658 1.227-.02-.249-.019-.08-.369.082a11.72 11.72 0 0 1-1.537.53 29.19 29.19 0 0 1-3.8.843c-2.316.372-4.657.559-6.977.9-4.464.649-9.183 2.081-12.235 5.605l2.8 1.124a6.47 6.47 0 0 0-5.529-6.475 6.31 6.31 0 0 0-6.847 4.948c-.326 1.837 2.363 2.58 2.856.749a3.44 3.44 0 0 1 3.535-2.6 3.3 3.3 0 0 1 2.7 3.374 1.65 1.65 0 0 0 2.8 1.124c2.888-3.269 7.288-4.283 11.448-4.814 2.633-.336 5.288-.544 7.891-1.076 1.169-.23 2.318-.55 3.437-.957 1.195-.299 2.223-1.059 2.86-2.114 1.167-2.375-1.085-4.5-3.1-5.34a41.54 41.54 0 0 0-7.412-2.213 69.03 69.03 0 0 0-15.013-1.328 105.92 105.92 0 0 0-17.383 1.494c-1.236.221-.961 2.131.265 2.124zM86.879 165.501c.565 2.414 1.485 4.725 2.175 7.106l1.742 7.092a66.24 66.24 0 0 1 1.119 14.554c-.057 1.736 2.62 2.515 3.39.883l6.355-13.673q1.557-3.336 3.107-6.676l3.168-7.1c.632-1.747-2.061-2.7-2.944-1.188-1.234 2.11-2.2 4.392-3.243 6.6q-1.614 3.4-3.217 6.814l-6.367 13.466 3.39.883a68.22 68.22 0 0 0-1.311-15.314c-.48-2.444-1.114-4.855-1.9-7.218a29.08 29.08 0 0 0-3.215-7.158 1.24 1.24 0 0 0-2.253.934z"/><path d="M88.176 162.289c-17.007 0-34.187-1.408-50.631-5.967-6.664-1.848-13.238-4.37-18.925-8.374A32.77 32.77 0 0 1 6.362 131.31c-4.49-13.531-2.7-28.691 2.853-41.628a73.64 73.64 0 0 1 26.83-31.986 94.53 94.53 0 0 1 41.352-14.739 109.23 109.23 0 0 1 45.133 3.969c14.109 4.41 27.1 12.214 36.791 23.465 8.947 10.386 15.014 23.686 15.594 37.488.587 13.157-3.77 26.058-12.215 36.164a45.3 45.3 0 0 1-16.276 12.025c-7.433 3.271-15.711 4.8-23.771 5.409a96.1 96.1 0 0 1-12.83.228c-1.035.001-1.884.821-1.921 1.855.014 1.025.846 1.851 1.871 1.858 4.615.332 9.249.332 13.864 0a93.29 93.29 0 0 0 12.982-1.956 55.77 55.77 0 0 0 21.854-9.916c11.061-8.549 17.859-21.814 19.788-35.523 2.011-14.288-1.905-28.847-9.509-40.975a78.3 78.3 0 0 0-33.7-29.121 106.91 106.91 0 0 0-46.625-9.307 105.35 105.35 0 0 0-45.06 10.639 80.23 80.23 0 0 0-32.874 29.845C2.942 91.528-1.154 106.338.284 120.904c.792 8.02 3.068 16.142 8.078 22.591a43.23 43.23 0 0 0 17.259 12.766 104.15 104.15 0 0 0 22.313 6.341 171.4 171.4 0 0 0 27.132 2.882 126.26 126.26 0 0 0 13.07-.371c1.8-.141 1.921-2.816.038-2.817zM59.735 136.3c2.1-.166 4.136.7 6.225.987s4.632-.315 5.394-2.281a6.03 6.03 0 0 0 .2-2.588q-.8-11.986-1.607-23.973a23.69 23.69 0 0 1 11.986-.577l1.946 25.146c-.213.92.076 1.884.761 2.534a2.67 2.67 0 0 0 2.569.631l5.216-.318a2.09 2.09 0 0 0 2.317-2.825l-2.7-34.33c-.382-4.853-1.258-9.317-1.382-14.194-.016-5.408-.695-10.793-2.022-16.035a1.5 1.5 0 0 0-.423-.808c-.448-.239-.984-.243-1.435-.01l-8.753 2.922c.486 8.667 1.562 17.191 2.512 25.841-1.018.2-11.8 2.067-11.819 1.2q-.35-13.4-1.843-26.741c-.091-.815-9.968 2.948-10.97 4.78-2.221 4.059-.874 9.933-.466 14.282.374 3.936 2.88 46.468 4.294 46.357zm46.563-2.96l9.381-.511c.946-.052.806-27.546-.3-30.31a7.1 7.1 0 0 0-5.62-3.958 20.95 20.95 0 0 0-7.134.53 2.52 2.52 0 0 0-1.779.889c-1.756 2.843 6.332 33.312 5.452 33.36zm-6.552-59.933q.256 5.463.511 10.926a2.33 2.33 0 0 0 .62 1.8 2.25 2.25 0 0 0 1.444.318c3.94-.058 7.851-.691 11.609-1.878a36.42 36.42 0 0 0-1.882-12.975c-3.78.353-7.52 1.048-11.175 2.074m277.612 40.664c-3.007-2.684-5.499-5.894-7.353-9.473a21.93 21.93 0 0 1-2.05-11.838c.845-8.65 6.083-16.121 12.122-22.042a146.08 146.08 0 0 1 11.541-9.849 1.94 1.94 0 0 0-1.374-3.3c-14.152 1.73-29.49-.383-42.165-7.1a48.55 48.55 0 0 1-16.627-14.746 101.47 101.47 0 0 1-9.6-16.793 65.17 65.17 0 0 1-3.617-9.255c-.22-.753-.419-1.512-.584-2.278q-.116-.54-.208-1.085l-.065-.421c-.068-.475.006.14-.032-.285a15.91 15.91 0 0 1-.032-1.965c0-.061.042-.425.009-.164s.048-.247.061-.3c.033-.145.317-.953.1-.457a2.04 2.04 0 0 0-.734-2.739 2.1 2.1 0 0 0-2.806.752 57.88 57.88 0 0 1-13.874 19.1c-5.887 5.264-12.923 9.079-20.546 11.141-15.279 4.162-31.715 1.343-46.056-4.812a104.11 104.11 0 0 1-23.083-13.671c-1.907-1.494-4.575.89-2.791 2.762a91.45 91.45 0 0 1 10.766 13.509 50.2 50.2 0 0 1 7.308 16.613c1.188 5.629.787 11.794-2.2 16.826-1.831 2.849-4.064 5.417-6.631 7.626a57.31 57.31 0 0 1-7.755 6c-6.203 4-13.097 6.808-20.33 8.28-.674.173-1.204.693-1.39 1.364s.001 1.39.49 1.885c7.559 6.072 15.444 12.522 18.586 22.052 2.786 8.618 2.197 17.972-1.647 26.173a38.44 38.44 0 0 1-8.882 12.084 1.92 1.92 0 0 0-.562 1.357c0 .509.202.997.562 1.356a2.04 2.04 0 0 0 2.772-.031c4.823-3.7 11.174-4.557 17.08-4.43a69.52 69.52 0 0 1 9.052.842 44.11 44.11 0 0 1 8.647 1.947c10.736 3.96 16.229 15.049 18.9 25.471 2.175 8.491 2.69 17.268 3.2 25.984.149 2.531 4.129 2.532 4.015 0a8.29 8.29 0 0 1 .712-3.7c.564-1.338 1.261-2.616 2.079-3.815a50.12 50.12 0 0 1 6.626-7.822 59.19 59.19 0 0 1 17.509-12.342 47.77 47.77 0 0 1 24.46-3.888 72.08 72.08 0 0 1 23.771 7.271 100.64 100.64 0 0 1 22.971 15.359 2.06 2.06 0 0 0 3.4-1.945c-1.582-9.941-3.549-19.924-3.155-30.042a39.4 39.4 0 0 1 2.825-14.042 27.25 27.25 0 0 1 9.88-11.583 50.86 50.86 0 0 1 18.241-7.359c.786-.214 1.368-.875 1.482-1.682s-.264-1.603-.961-2.025a95.2 95.2 0 0 1-11.8-8.735c-1.872-1.7-4.776 1.086-2.856 2.827a103.23 103.23 0 0 0 12.566 9.423q.261-1.853.521-3.707c-11.5 2.433-23.816 7.989-29.649 18.8-5.17 9.584-4.913 21.149-3.689 31.66.684 5.869 1.731 11.681 2.669 17.513l3.4-1.946a106.73 106.73 0 0 0-21.389-14.8 80.17 80.17 0 0 0-25.277-8.674A51.95 51.95 0 0 0 288.6 168a60.8 60.8 0 0 0-20.056 13.031 60.13 60.13 0 0 0-8.092 9.274c-2 2.912-3.93 6.465-3.76 10.112h4.015c-.881-14.588-1.829-30.435-10.132-43.015a30.5 30.5 0 0 0-12.954-11.356 37.13 37.13 0 0 0-9.02-2.475 89.9 89.9 0 0 0-9.963-1.164c-7.627-.4-15.4.765-21.594 5.511l2.77 2.682c7.278-6.68 11.944-15.73 13.165-25.533a38.2 38.2 0 0 0-.973-14.343A36.16 36.16 0 0 0 204.8 96.87c-3.769-4.579-8.411-8.336-13.018-12.029l-.9 3.249a62.6 62.6 0 0 0 19.629-7.667 56.62 56.62 0 0 0 15.978-13.895c8.5-11.227 4.393-26.056-2.134-37.111a92.91 92.91 0 0 0-12.839-16.67l-2.791 2.762c13.118 10.29 28.759 18.034 45.329 20.612 8.199 1.361 16.579 1.196 24.719-.486a56.07 56.07 0 0 0 22.59-10.6c7.419-5.882 13.332-13.444 17.253-22.061l-3.54-1.987c-1.105 2.546-.8 5.3-.209 7.95a53.67 53.67 0 0 0 3.2 9.224 108.2 108.2 0 0 0 8.814 16.7c4.578 7 10.148 13.212 17.309 17.619a66.06 66.06 0 0 0 21.576 8.186 79.59 79.59 0 0 0 25.551 1.045l-1.374-3.3c-7.375 5.907-14.986 12.036-19.853 20.295-4.657 7.9-6.522 17.548-2.825 26.2 2.078 4.507 5.107 8.51 8.88 11.734 1.534 1.396 3.893-.85 2.34-2.304zm-129.208 1.968a65.15 65.15 0 0 0-4.11 9.978 2.85 2.85 0 0 0-.051 2.287c.461.58 1.125.962 1.858 1.068l7.074 1.931a1.6 1.6 0 0 0 1.159.018 1.57 1.57 0 0 0 .613-.862 51.53 51.53 0 0 0 3.041-10.892l-8.691-3.011"/><path d="M260.418 65.957q.383-1.741.772-3.488a1.88 1.88 0 0 1 .75-1.354c.386-.144.81-.15 1.2-.017l10.925 2.411a2.16 2.16 0 0 1 1.607.92 2.24 2.24 0 0 1-.087 1.618l-7.909 25.25c-2.008 6.411-2.366 16.082-5.831 21.637-3.312-.662-6.658-1.727-9.973-2.573a2.31 2.31 0 0 1-1.484-.826 2.43 2.43 0 0 1 .02-1.948c4.144-13.878 6.93-27.626 10.01-41.63zm13.062 57.233c-2.282 4.033-3.748 8.475-4.316 13.074l12.992 3.291a99.51 99.51 0 0 0 3.95-12.847 53.28 53.28 0 0 0-10.94-2.792m12.544-5.717c7.133-15.179 12.434-31.152 15.79-47.584.362-.598.371-1.346.023-1.953s-.998-.977-1.697-.967l-13.277-2.378c-4.613 16.074-7.514 32.511-11.58 48.773-1.21 4.707 6.279 5.754 9.616 6.464q.569-1.172 1.125-2.355zm11.956 11.339l-3.043 10.994c-.3.718-.306 1.524-.019 2.247a2.92 2.92 0 0 0 1.842 1.112 81.95 81.95 0 0 0 13.567 2.743 60.35 60.35 0 0 0 3.751-12.707 3.07 3.07 0 0 0-.118-2.04c-.52-.675-1.294-1.109-2.141-1.2q-6.384-1.524-12.9-2.43m16.578-57.787c4.928.008 9.796 1.083 14.27 3.151a2.52 2.52 0 0 1 1.54 1.38 2.59 2.59 0 0 1-.216 1.541c-3.841 10.71-7.168 21.6-11.035 32.3-1.289 3.567-3.033 12.742-5.957 15.133-1.272 1.041-12.1.646-11.78-.995.848-4.327 10.156-52.498 13.178-52.51zM698.1 178.137c-8.538-.927-16.946 1.141-25.467 1.085-3.822.077-7.616-.662-11.128-2.17a22.5 22.5 0 0 1-7.371-5.487c-4.152-4.6-6.571-10.579-8.166-16.585a148.74 148.74 0 0 1-3.719-23.366 247.47 247.47 0 0 1 .686-55.162q.837-6.708 2.056-13.361c.71-4.43 1.661-8.818 2.85-13.144a14.62 14.62 0 0 1 6.083-8.558 37.31 37.31 0 0 1 10.33-4.118 264.5 264.5 0 0 1 52.81-8.944 271.07 271.07 0 0 1 53.806 1.663 97.15 97.15 0 0 1 12.273 2.137c3.468.925 6.881 2.347 9.385 5 5.032 5.339 4.615 13.685 4.664 20.487q.205 28.341-1.986 56.637-1.089 14.054-2.777 28.053-.851 7.046-1.849 14.073-.48 3.389-1 6.773a15.07 15.07 0 0 1-1.293 5.206 5.33 5.33 0 0 1-3.862 2.334 47.51 47.51 0 0 1-6.166.645q-7.067.55-14.15.884-14.169.667-28.36.469l-13.655-.3c-2.531-.107-2.6 3.768-.052 3.877 9.75.414 19.478.608 29.238.4q14.528-.3 29.019-1.517c4.168-.349 8.9-.692 11.359-4.6.96-1.756 1.549-3.691 1.73-5.684q.573-3.72 1.1-7.447 2.06-14.392 3.472-28.867 2.832-28.909 3.1-57.992.062-7.26-.039-14.519a61.23 61.23 0 0 0-.922-11.618 20.21 20.21 0 0 0-5.084-10.143 22.83 22.83 0 0 0-10.294-5.584c-4.163-1.056-8.395-1.814-12.666-2.268q-6.874-.916-13.787-1.5a273.8 273.8 0 0 0-27.94-.886 276.74 276.74 0 0 0-55.341 6.67c-4.337.976-8.666 2.033-12.939 3.262-3.8 1.093-7.722 2.418-10.958 4.753a18.6 18.6 0 0 0-6.9 9.943c-1.248 4.413-2.234 8.896-2.952 13.425a248.13 248.13 0 0 0-.96 84.928c1.088 6.739 2.694 13.438 5.776 19.571 3.011 5.992 7.678 11.282 13.931 13.967 8.148 3.5 16.948 2.252 25.47 1.209a65.07 65.07 0 0 1 12.611-.687 1.53 1.53 0 0 0 1.529-1.476 1.51 1.51 0 0 0-1.49-1.48z"/><path d="M693.72 180.299a49.78 49.78 0 0 0 3.615 17.1 55.94 55.94 0 0 0 9.557 15.461 2 2 0 0 0 3.352-1.372 48.25 48.25 0 0 1 2.313-17.511c1.9-5.834 5-10.927 8.42-15.973 1.1-1.628-1.419-3.44-2.717-2.022a46.88 46.88 0 0 0-9.4 16.873c-1.989 6-2.851 12.316-2.543 18.63l3.353-1.372a54.34 54.34 0 0 1-13.24-29.814c-.169-1.676-2.776-1.733-2.71 0zm-22.292-34.807l.05.3a74.22 74.22 0 0 1 12.614-1.646q-.359-20.56-2.636-41.027c4.312 1.274 7.388.3 11.507-.053.055-1.223-.71-14.614-.546-14.634l-14.232 1.7-.592-7.7c1.478-.416 16.129-2.574 16.128-2.567a75.42 75.42 0 0 0-.362-17.311q-9.81 1.75-19.565 3.792c-4.933 1.033-12.547.258-12.353 6.493.243 7.733 2.668 14.818 3.591 22.458q1.251 10.375 2.526 20.746c1.217 9.907 2.26 19.644 3.87 29.449zm31.453-25.827c1.129 6.208 2.666 12.634 7.058 17.106a11.92 11.92 0 0 0 5.215 3.258c12.379 3.42 16.242-14.279 17.267-23.027 1.328-11.345.131-23.1-1.611-34.532-.382-2.5-.411-10.985-1.607-12.934-1.733-2.822-8.263-.31-10.621-.021 1.187 8.981 1.839 18 2.853 26.984.666 5.907 1.444 12.109-.071 17.953-1.285 4.954-5.2 9.143-6.886 1.732a172.24 172.24 0 0 1-4.111-45.74c-4.153.122-8.165.4-12.287.9-.436 15.818 1.851 31.582 4.595 47.166l.206 1.155zm32.751-51.534l.268-.335c1.96-2.235 9.563-2.481 11.881-1.214a8.31 8.31 0 0 1 3.014 3.587c2.856 5.3 4.561 11.1 7.24 16.59 3.99 8.172 5.516 17.657 11.186 24.768.5-5.692-.586-11.839-1.049-17.5-.736-9.011-1.705-17.9-2.748-26.848-.107-.263-.062-.563.118-.783s.465-.324.744-.271l6.56-.539c2.843-.233 3.873-.992 4.272 2.078l1.64 13.745c1.367 12.148 2.556 24.128 2.556 36.318q.042 7.374.083 14.748a33.78 33.78 0 0 0-7.863 1.844c-2.25.872-4.674.8-7.014 1.275-1.917.393-2.415.807-3.389-1.514-.842-2.007-1.291-4.4-2.194-6.5-3.624-8.423-6.088-17.39-10.055-25.622l1.6 31.9a1.55 1.55 0 0 1-1.773 1.95c-2.816.264-8.935 1.468-10.732-.863-1.487-1.928-.363-6.546-.468-8.822q-.584-12.7-1.547-25.377-.674-8.885-1.532-17.76c-.386-3.998-3.438-11.198-.798-14.855zm107.324 71.89c-4.848-.378-9.121-3.608-11.792-7.534a28.95 28.95 0 0 1-4.559-12.3 23.81 23.81 0 0 1 1.273-11.76 17.89 17.89 0 0 1 7.257-8.639c1.545-.943 3.98-1.395 3.982-3.583a15 15 0 0 0-.748-3.739c-.874-3.237-1.934-6.42-2.818-9.653-.142-.518-.272-1.038-.387-1.562-.016-.071-.018-.15-.039-.219-.077-.248.086.367.043.35a2.49 2.49 0 0 1-.036-.432q-.08-1.085-.062-2.174a25.62 25.62 0 0 1 1.446-7.949 24.21 24.21 0 0 1 13.397-14.515 24.2 24.2 0 0 1 19.75.299 25.39 25.39 0 0 1 2.978 1.7 2.05 2.05 0 0 0 2.611-.54 1.93 1.93 0 0 0-.156-2.6c-.17-.129-.108-.222.182.252.075.122.218.828.219.748 0-.3-.083.561-.03.238.013-.082.063-.154.082-.234-.143.613-.007.06.132-.166s.281-.422.427-.629c.055-.079.353-.456.031-.05q.144-.18.288-.357.313-.379.64-.745a43.1 43.1 0 0 1 1.462-1.561c1-1.024 2.037-2.015 3.1-2.979a55.34 55.34 0 0 1 1.222-1.087 5.07 5.07 0 0 1 1.058-.881c-.59.247-.239.176-.02.031a21.63 21.63 0 0 1 1.127-.7 17.62 17.62 0 0 1 2.488-1.188 19.77 19.77 0 0 1 2.444-.722 13.81 13.81 0 0 1 2.414-.364c7.718-.51 15.067 3.365 19.007 10.021 1.321 2.232 4.767.249 3.56-2.06a1.28 1.28 0 0 1 .208.8v-.1c-.024.543-.091.525-.043.354.075-.267-.316.432-.1.239.077-.086.138-.184.183-.29.012-.161-.37.38-.13.17.072-.063.131-.148.2-.217a9.4 9.4 0 0 1 .752-.7c.168-.143.343-.278.512-.419.359-.3-.277.2-.028.02l.36-.266a61.4 61.4 0 0 1 5.9-3.693c1.884-1.066 3.8-2.086 5.736-3.045.621-.307 1.25-.592 1.877-.885.385-.181-.511.167-.193.079.241-.067.475-.17.713-.251q1.594-.541 3.23-.95a33.72 33.72 0 0 1 22.542 1.92c5.827 2.838 10.808 7.156 14.443 12.523a40.05 40.05 0 0 1 7.11 20.756 2 2 0 0 0 1.477 1.915c5.5.994 10.35 4.205 13.415 8.879a21.5 21.5 0 0 1 2.869 16.708c-.713 3.206-2.16 6.203-4.227 8.756a1.99 1.99 0 0 0 0 2.774c4.174 4.207 6.607 9.835 6.813 15.758-.025 5.788-1.682 11.452-4.781 16.34-6.921 11.5-19.064 19.266-31.888 22.538-3.49.891-7.308 1.733-10.791.416-3.443-1.3-6.37-3.81-9.206-6.08-.81-.746-2.061-.732-2.855.032-4.866 5.742-12.69 8.024-19.881 5.8-1.192-.361-2.344-.84-3.441-1.43q-.843-.452-1.643-.977c-.567-.372-1.083-.89-1.668-1.219-1.4-.788-2.54.322-3.53 1.159l-3.181 2.77-6.426 5.576c-.283.234.127-.153.2-.148-.113-.007-.321.226-.414.289a29.8 29.8 0 0 1-1.5.958c-1.124.678-2.287 1.294-3.474 1.857-2.322 1.113-4.757 1.974-7.262 2.569a32.38 32.38 0 0 1-12.171.24 40.44 40.44 0 0 1-22.486-11.675 30.52 30.52 0 0 1-8.244-26.476 34.2 34.2 0 0 1 1.031-4c.806-2.534-3.2-3.525-3.993-1.048-2.753 8.825-1.843 18.387 2.524 26.535 3.657 6.457 9.041 11.767 15.548 15.335a43.72 43.72 0 0 0 20.98 5.765 33.76 33.76 0 0 0 11.439-1.892 36.86 36.86 0 0 0 10.7-5.523c2-1.588 3.881-3.336 5.8-5.025l3.181-2.787 1.062-.9c.173-.142.665-.446-.018 0 .3-.2.265-.058-.289.071h-1.064.007l-.892-.5a23.31 23.31 0 0 0 16.715 5.182 23.7 23.7 0 0 0 15.242-7.75l-2.855.032c2.895 2.308 5.816 4.745 9.2 6.315a15.92 15.92 0 0 0 5.341 1.515 22.45 22.45 0 0 0 5.652-.425 56.8 56.8 0 0 0 21.065-8.273c11.343-7.333 21.454-19.167 22.224-33.209.332-7.649-2.543-15.09-7.934-20.528v2.774c4.485-5.414 6.591-12.41 5.839-19.4a24.76 24.76 0 0 0-9.513-16.959 23.41 23.41 0 0 0-10.122-4.55l1.477 1.915c-.634-14.61-9.021-28.924-22-35.914a37.7 37.7 0 0 0-24.8-3.589 33.24 33.24 0 0 0-8.21 2.527c-2 .944-3.952 1.97-5.883 3.036a59.62 59.62 0 0 0-7.042 4.378c-1.674 1.256-4.178 3.2-2.933 5.575l3.56-2.06c-4.502-7.548-12.695-12.113-21.482-11.972a21.63 21.63 0 0 0-11.789 3.729 47 47 0 0 0-6.047 5.47c-1.217 1.187-2.319 2.487-3.29 3.882-.758 1.155-1.464 3.114-.087 4.158q1.229-1.57 2.455-3.14c-8.453-5.6-19.613-5.774-28.52-1.122-9.829 5.134-16.2 16.55-15.054 27.661a20.74 20.74 0 0 0 .868 3.684l1.574 5.242c.477 1.6.961 3.2 1.337 4.826.062.268.122.536.171.807a1.4 1.4 0 0 1 .062.38 2.89 2.89 0 0 1-.042-.32 3.82 3.82 0 0 0 .012.177c.1.006-.187.534.031-.033.257-.667-.218.309.111-.37.058-.119.653-.921.762-.867-.233-.114-1.512.711-1.753.84-4.084 2.162-7.371 5.572-9.381 9.733a25.83 25.83 0 0 0-2.3 13.065c.784 9.953 6.151 20.872 16.334 23.913 1.307.381 2.655.603 4.015.661 2.032.101 2.054-2.96.024-3.118zm127.685 42.096a9.38 9.38 0 0 0-7.785 6.1 8.32 8.32 0 0 0 2.162 9.248c2.442 2.182 5.84 2.943 8.979 2.011 3.132-1.067 5.233-4.014 5.221-7.323.053-3.251-2.04-7.718-5.769-7.821-.693.004-1.304.458-1.507 1.121-.164.66.122 1.35.706 1.7l.746.483.368.238a4.88 4.88 0 0 1 .545.48l.295.322c-.266-.3.117.169.16.236a6.29 6.29 0 0 1 .37.637l.1.192c-.106-.247.074.2.074.2.091.26.168.524.232.792l.076.369.049.3c-.026-.21-.028-.214-.01-.01a10.44 10.44 0 0 1-.026 1.5c.042-.393-.019.09-.032.145l-.1.434-.088.284c-.026.074-.271.631-.1.278a6.63 6.63 0 0 1-.354.646l-.255.364c.247-.317-.071.061-.11.1a4.58 4.58 0 0 1-.562.514c.266-.2-.021 0-.092.045l-.479.274c-.055.028-.528.222-.133.073l-.293.1c-.298.093-.602.167-.909.223-.341.068-.067.006 0 0l-.47.031a8.95 8.95 0 0 1-.948-.031c-.5-.038.313.083-.178-.028l-.469-.1a7.79 7.79 0 0 1-.769-.225l-.183-.066-.293-.134-.9-.514c-.066-.041-.345-.247-.1-.06l-.368-.3c-.199-.175-.389-.36-.567-.556-.024-.027-.343-.431-.126-.139l-.184-.258c-.21-.306-.39-.632-.537-.973.033.081.086.282 0-.028l-.153-.51-.11-.516c-.008-.043-.036-.331-.012-.068a7.58 7.58 0 0 1-.018-1.044 3.28 3.28 0 0 1 .094-.778c.118-.612.323-1.204.609-1.758a7.87 7.87 0 0 1 1.148-1.724c.875-1.036 2.037-1.79 3.34-2.166 1.253-.346 1.108-2.456-.289-2.318zm-6.319 32.298a5.58 5.58 0 0 0-.654.22l-.363.15c.188-.081.2-.093.045-.034a6.36 6.36 0 0 0-.587.239 4.77 4.77 0 0 0-1.444 1.05 7.3 7.3 0 0 0-1.763 3.007 6.39 6.39 0 0 0 1.6 6.433c1.75 1.639 4.181 2.337 6.534 1.875 2.308-.489 4.163-2.204 4.831-4.467.746-2.352.268-5.751-2.06-7.084-.57-.308-1.275-.208-1.736.247s-.571 1.158-.271 1.733l.567.969a1.19 1.19 0 0 1 .147.306c-.037-.286-.084-.218-.045-.083l.2.648c.016.063.162.5.111.558l-.027-.215.018.227.012.228-.013.571a1.01 1.01 0 0 1-.035.342l.03-.206-.043.225c-.039.186-.088.37-.146.551l-.093.269c-.095.283.056.074.021-.034.024.075-.227.433-.266.5l-.153.238c-.226.367.192-.191-.035.054l-.394.407a3.05 3.05 0 0 1-.172.149c-.004-.003.345-.236-.006 0a4.62 4.62 0 0 1-.494.283 1.13 1.13 0 0 0-.2.1l.124-.056-.215.071c-.18.056-.363.091-.547.134-.2.047-.092-.076.135-.011a1.41 1.41 0 0 0-.34.029 5.38 5.38 0 0 1-.568 0c-.076 0-.152-.012-.229-.016-.348-.018.38.087-.054-.011-.145-.032-1.006-.152-1.047-.293l.206.083q-.105-.045-.208-.095l-.2-.1c-.046-.025-.592-.3-.579-.357l.177.132-.177-.142-.168-.15c-.017-.016-.4-.4-.392-.408s.24.335 0-.006l-.125-.19-.168-.3-.052-.1c-.08-.176-.067-.14.042.109-.007 0-.166-.514-.174-.548l-.059-.28c-.082-.341.076.013 0 .064.018-.013-.035-.525-.035-.572 0-.123-.041-.6.042-.687-.055.055-.065.331-.011.1l.1-.45.2-.6c.061-.229-.184.359-.006.025l.156-.31c.109-.2.239-.393.365-.588.209-.327-.244.257.021-.031l.23-.256.492-.475.162-.153c.092-.083.441-.269.13-.12l.2-.105c.15-.069.137-.065-.044.012l.22-.078c.749-.201 1.194-.972.993-1.721s-.972-1.194-1.721-.993zm-91.103-88.816a10 10 0 0 0-2.462 6.811c.2 3.564 2.727 6.439 5.476 8.2a13.83 13.83 0 0 0 9.05 2.381 10.26 10.26 0 0 0 7.774-5.364 12.42 12.42 0 0 0-1.986-13.488c-5.226-5.6-13.173-4.117-17.852 1.46zm31.93-1.289c-1.534 2.328-1.995 5.202-1.266 7.893a9.18 9.18 0 0 0 5.98 5.75c5.324 1.8 11.356-.755 14.614-5.842l.808-4.563c.138-3.482-1.899-6.684-5.112-8.034-5.513-2.14-11.771-.142-15.024 4.796zm35.537 10.282a11.38 11.38 0 0 0 12.836-.5c1.225-.84 2.264-1.925 3.05-3.186 1.924-3.55 1.809-7.857-.3-11.3-9.709-15.645-30.883 4.71-15.586 14.986zm-183.733 199.3c6.9-.717 12.961-5.739 17.836-10.313a103.38 103.38 0 0 0 23.719-33.454c2.874-6.124 4.921-12.603 6.087-19.266 1.114-7.356.583-15.229-3.816-21.491l-3.179 1.839a5.4 5.4 0 0 0 6.054 1.864 6 6 0 0 0 4.206-5.14 8.3 8.3 0 0 0-2.519-6.712 14.7 14.7 0 0 0-7.183-3.528 1.72 1.72 0 0 0-2.11 1.186 1.72 1.72 0 0 0 1.167 2.12c2.816.89 6.428 2.333 6.92 5.671a3.34 3.34 0 0 1-.2 1.791 1.9 1.9 0 0 1-1.009 1.018c-.415.196-.874.279-1.332.243-.293-.057-.571-.177-.812-.353a1.9 1.9 0 0 0-2.51-.625 1.81 1.81 0 0 0-.669 2.464c7.425 10.473 2.981 24.833-1.446 35.584a101.54 101.54 0 0 1-21.465 32.383 69 69 0 0 1-8.2 7.339 39.57 39.57 0 0 1-9.819 5.125 1.18 1.18 0 0 0-.857 1.258c.068.575.559 1.007 1.138 1zm-42.864-9.466c-5.003-2.067-9.646-4.916-13.756-8.439a52.39 52.39 0 0 1-10.618-12.1c-9.939-15.857-10.432-35.874-1.285-52.2a1.84 1.84 0 0 0-.145-2.068 1.99 1.99 0 0 0-1.982-.654c-2.257.3-4.8-1.14-6.284-3a7.75 7.75 0 0 1-1.524-7.311c.118-.44.056-.908-.172-1.302s-.603-.681-1.043-.798c-.927-.222-1.868.308-2.16 1.215-3.029 7.1 4.161 15.84 11.642 14.864l-1.62-2.789a55.34 55.34 0 0 0-6.093 37.434c3.615 18.397 16.618 33.549 34.254 39.914a1.49 1.49 0 0 0 1.8-1.012c.195-.762-.255-1.539-1.012-1.75zm189.414 6.261a299.29 299.29 0 0 1-24.279 27.428q-3.693 3.653-7.536 7.151l3.212.815c-1.295-3.82-.328-8.114.455-11.95a86.54 86.54 0 0 1 3.326-11.826c.688-1.927 1.442-3.832 2.283-5.7.863-1.922 2.016-3.787 2.731-5.767.749-2.07-.133-3.739-1.53-5.238a4.83 4.83 0 0 1-1.548-3.762c.18-4.143 4.073-6.456 7.022-8.677a1.7 1.7 0 0 0 .617-2.271c-.493-.778-1.511-1.032-2.312-.576-3.5 1.892-7.011 4.617-8.447 8.458a9.44 9.44 0 0 0-.345 5.606 7.23 7.23 0 0 0 1.209 2.515c.511.677 1.194 1.234 1.672 1.929.423.613.009 1.042-.345 1.7a68.22 68.22 0 0 0-1.538 3.028q-1.456 3.071-2.684 6.248a81.43 81.43 0 0 0-3.665 12.4c-1 4.734-2.238 10.155-.613 14.879.201.645.723 1.139 1.377 1.305a1.95 1.95 0 0 0 1.834-.489c9.062-8.299 17.478-17.278 25.175-26.857 2.223-2.779 4.314-5.625 6.374-8.524 1.018-1.431-1.366-3.19-2.445-1.822zm35.434-.798a131.81 131.81 0 0 1 22.141 11.372l4.849 3.336a3.55 3.55 0 0 1 .422.378 3.33 3.33 0 0 0-.044-.489 3.91 3.91 0 0 1-.362.355 29.59 29.59 0 0 1-2.689 1.88 84.36 84.36 0 0 1-10.459 5.946c-4.078 1.94-8.309 3.539-12.651 4.779-1.034.29-1.659 1.341-1.419 2.388a11.41 11.41 0 0 0 11.553 9.146 1.96 1.96 0 0 0 1.927-1.86 1.88 1.88 0 0 0-1.876-1.865c-3.804.001-7.067-2.711-7.762-6.451l-1.42 2.388a83 83 0 0 0 24.19-11.282 72.13 72.13 0 0 0 2.549-1.813c.991-.6 1.741-1.526 2.122-2.62.673-2.729-2.262-4.163-4.134-5.4-3.747-2.467-7.638-4.706-11.653-6.707-4.607-2.299-9.396-4.213-14.318-5.721-1.293-.4-2.292 1.694-.964 2.236zm-667.412 2.922a19.25 19.25 0 0 0 4.928 2.591 21.44 21.44 0 0 0 5.363 1 27.3 27.3 0 0 0 10.956-1.538c7.23-2.553 12.98-7.817 17.412-13.954a79.07 79.07 0 0 0 10.421-21.064 95.16 95.16 0 0 0 4.719-23.9 93 93 0 0 0-.075-13.609 70.2 70.2 0 0 0-2.169-13.735c-.6-2.08-3.642-1.2-3.274.877.677 3.823 1.464 7.594 1.838 11.467a92.15 92.15 0 0 1-3.126 34.2 83.17 83.17 0 0 1-9 20.793c-3.665 5.93-8.478 11.423-14.781 14.611-6.689 3.382-15.245 3.86-21.862-.007a1.32 1.32 0 0 0-1.347 2.268z"/><path d="M324.334 266.644a38.47 38.47 0 0 0-6.922-5.83 1.85 1.85 0 0 0-2.156.3 15.01 15.01 0 0 0-2.848 3.219c-.853 1.214-1.464 2.581-1.8 4.026a3.18 3.18 0 0 0 2.25 3.828 11.33 11.33 0 0 0 1.438.276l.757.163c.049.013.363.142.16.045s.193.135.232.163c.686.382 1.548.204 2.026-.418a1.52 1.52 0 0 0-.121-2.017 5.18 5.18 0 0 0-2.8-1.207l-.612-.145c-.284-.059.137.115.012.016a2.23 2.23 0 0 0-.246-.136l.172.12q-.149-.157-.011 0c.074.1.087.11.038.032q-.079-.141.038.082c0 .03.009.06.013.09q.012-.29.007-.147c-.014.078.1-.315.1-.325l.32-.83c-.07.167 0-.01.036-.076l.23-.474c.254-.495.539-.974.853-1.434l.254-.359c.324-.452-.1.116.1-.133q.275-.342.574-.664a13.51 13.51 0 0 1 1.343-1.263l-2.156.3a41.19 41.19 0 0 1 6.411 5.086 1.68 1.68 0 0 0 2.307-.026 1.6 1.6 0 0 0 0-2.258zm-93.549 64.954a25.4 25.4 0 0 1-5.174-.629 22.61 22.61 0 0 1-4.763-1.858 49.27 49.27 0 0 1-8.753-6.082 79.03 79.03 0 0 1-14.388-15.225c-8.19-11.656-12.44-26.521-8.1-40.477 2.464-7.919 7.25-14.739 11.952-21.464a1.62 1.62 0 0 0-.6-2.229 1.74 1.74 0 0 0-2.285.612c-4.57 6.153-8.884 12.672-11.608 19.876-2.691 7.314-3.38 15.213-1.998 22.883 2.541 14.991 11.953 27.724 23.3 37.409a55.7 55.7 0 0 0 10.374 7.345c3.68 1.9 8.2 3.371 12.348 2.3.602-.165.991-.747.914-1.366s-.597-1.088-1.221-1.101z"/><path d="M192.628 259.303c.476-.545.816-1.168 1.327-1.686.483-.493 1.039-.91 1.648-1.236a5.17 5.17 0 0 1 1.751-.646c.262-.06.535-.041.787.053-.132-.056.173.16.064.062.116.103.212.227.283.365a7.56 7.56 0 0 1 1.082 4.284 4.94 4.94 0 0 1-.473 1.863c-.083.158-.183.305-.272.46-.14.243.072-.05-.114.16a5.47 5.47 0 0 1-.776.744c.225-.171-.152.087-.228.132a5.69 5.69 0 0 1-.54.286c-.184.086.039-.016.065-.025l-.286.1c-.167.052-.344.075-.51.129-.241.078.26 0 .008.005-.1 0-.2.014-.3.019l-.517.008c-.073 0-.147-.011-.22-.016-.179-.011.206.057-.089-.015-.195-.045-.387-.1-.576-.165a1.57 1.57 0 0 0-1.23 2.851c1.876.949 4.119.806 5.859-.373a7.29 7.29 0 0 0 3.316-5.332c.229-2.21-.252-4.435-1.375-6.352a3.91 3.91 0 0 0-2.616-2.069 5.85 5.85 0 0 0-3.39.548 9.03 9.03 0 0 0-2.765 1.866c-.873.773-1.532 1.759-1.91 2.862a1.19 1.19 0 0 0 1.994 1.119z"/></g></svg>