<svg xmlns="http://www.w3.org/2000/svg" width="247.5818" height="191.7436" viewBox="0 0 247.5818 191.7436"><path d="M234.7122,88.735a5.1287,5.1287,0,0,0-8.6725-3.4812,151.6938,151.6938,0,0,0-19.9135,24.1633c2.7493-9.0427,4.3684-18.3259,2.9649-28.3236-.6607-4.6989-6.8455-3.9576-8.9927-1.106q-3.9867,5.2914-7.73,10.7486a128.78,128.78,0,0,0,6.0145-24.9973c.6505-5.0947-5.9663-6.0368-8.99-3.6089a60.6148,60.6148,0,0,0-10.22,10.6177q3.2343-7.5447,6.5342-15.0645c1.6859-3.8559-2.043-8.6438-6.2243-6.0469-10.8,6.7068-16.9823,18.1519-23.178,28.93q1.4632-4.3295,2.93-8.6576c3.58-10.556,15.9118-31.9291,4.4671-41.3715a4.7556,4.7556,0,0,0-7.6967,2.0607q-6.0489,14.0276-12.0924,28.0492a4.6205,4.6205,0,0,0-5.8218,1.5581Q129.022,76.34,119.9331,90.4617q1.7538-5.5236,3.5068-11.05c1.3785-4.3191-4.3845-7.0564-7.3715-4.1374A153.7527,153.7527,0,0,0,100.77,92.5934q2.4111-9.346,4.8247-18.6922a4.3584,4.3584,0,0,0-7.9725-3.2188Q92.3355,78.7569,87.0283,86.818q1.7167-4.9917,3.4356-9.9826C91.9288,72.597,86.04,69.7892,83.15,72.73Q73.46,82.5425,64.6762,93.1692A46.1167,46.1167,0,0,0,68.0611,77.21c.05-3.5618-5.0846-6.06-7.5455-3.0263Q50.49,86.5915,41.1748,99.5074q3.6983-10.3338,8.2772-20.333c2.0506-4.3661-3.7366-9.6507-7.22-5.3755q-8.979,11.013-17.4079,22.4367a225.4478,225.4478,0,0,1,9.922-25.1117c2.038-4.4-3.4506-9.2945-7.1326-5.3107A177.4093,177.4093,0,0,0,4.1114,98.1844c-2.2564,3.9366,3.6426,7.08,6.05,3.3827l.0457-.0165q2.9053-4.4085,6.0492-8.6463a211.8842,211.8842,0,0,0-6.7581,25.5,4.5716,4.5716,0,0,0,8.3649,3.3827q5.62-8.4132,11.55-16.5916-2.9946,9.4355-5.17,19.118a4.6316,4.6316,0,0,0,8.4718,3.4189q10.06-15.94,21.3166-31.0671c-3.745,8.1952-8.4263,16.1628-10.1971,24.989a4.4546,4.4546,0,0,0,8.1515,3.2887A303.5285,303.5285,0,0,1,75.3129,94.01q-3.9851,11.48-7.93,22.9728c-1.6758,4.8972,5.4645,7.1529,8.022,3.2366Q82.971,108.6369,90.568,97.0765q-2.7952,10.6959-5.5914,21.3915c-1.2286,4.7148,5.8545,7.806,8.0995,3.2709a147.8721,147.8721,0,0,1,15.5812-25.0425q-3.7936,11.7921-7.591,23.5827c-1.6161,5.0166,5.6131,7.4051,8.2329,3.3231q8.67-13.5168,17.2579-27.0873-3.2148,9.6056-6.3939,19.222l-.0469.1088.0125.0033c-1.5707,4.865,6.3892,8.104,8.4325,3.3763q11.6738-27.0068,23.2856-54.0391-2.8757,8.4357-5.7513,16.8723-7.9966,23.4541-15.9843,46.9115c-1.6732,4.9436,6.18,8.0506,8.4883,3.424q10.0395-20.1057,21.0993-39.67c1.1627-2.0485,2.3229-4.2193,3.51-6.4391-9.503,22.3541-17.971,45.1208-23.1983,68.904l-.03.07.0141.0037c-1.4178,6.5724,7.4345,8.3555,9.892,2.5741,7.1059-16.7516,14.2144-33.5058,21.7193-50.0834,3.6342-8.0283,7.2262-16.139,11.9386-23.4516-8.0468,25.6553-22.9942,49.1305-27.0869,76.0716l-.0008.0053-.0042.0112.0022.0006a5.33,5.33,0,0,0,10.3,2.7026l.0017,0,.0014-.0077.0037-.0087a258.1841,258.1841,0,0,1,32.1416-65.1035c-3.4856,20.006-16.3047,38.3989-18.2347,58.9707-.4892,5.22,7.7666,7.2126,9.9633,2.602,9.6741-20.3325,19.6142-40.7665,34.0507-58.0322a45.6261,45.6261,0,0,1-10.0242,23.1422c-4.1113,5.0528,3.0594,12.0082,7.22,6.9941A55.2053,55.2053,0,0,0,234.7122,88.735Z" transform="translate(-0.9168 -3.4183)" fill="#ffb900"/><path d="M244.955,99.2826a6.5667,6.5667,0,0,0-7.3532.8938c-4.811-7.11-12.0439-12.6635-18.6781-17.9493-9.3929-7.4858-18.7349-15.0346-27.6361-23.0978-18.045-16.3356-35.705-33.6386-48.8446-54.2234a3.1068,3.1068,0,0,0-5.37,3.1223l-.0153-.012q2.5642,5.1156,5.42,10.0628a3.5824,3.5824,0,0,0-1,1.0271c-5.077,6.8537-4.36,18.29-4.5485,26.504a105.8234,105.8234,0,0,0,1.0571,22.8162c-8.3787-1.23-18.0707.143-25.756.1351-12.8334-.0159-25.6656-.0185-38.5091.0756-12.2756.0908-24.5576.1639-36.8307.52-11.1525.33-24.5754-.7389-34.784,4.3661a2.3781,2.3781,0,0,0,0,4.1189l.0026.0083c9.6978,4.9175,22.333,3.9449,32.9468,4.2854,12.8257.4135,25.6579.4917,38.4887.5857,12.2756.0908,24.5475.0908,36.8231.0781,11.0737,0,26.2258,2.7348,36.2247-2.5632a5.1785,5.1785,0,0,0,.02-8.964c-.1429-.0768-.2967-.1359-.4418-.2092.6557-8.3779.2923-16.855.878-25.2431.3615-5.19,1.7714-11.2294,1.9827-16.9155a200.9165,200.9165,0,0,0,29.3976,35.0745c8.3523,7.8867,17.0947,15.3515,26.02,22.58,8.9377,7.2509,17.1895,15.5651,26.09,22.8041-12.3353,14.33-29.0534,25.1125-43.6667,36.8166-8.9037,7.1345-17.9065,14.168-26.72,21.4169-1.3274,1.0921-2.6364,2.2112-3.9393,3.34-.2221-6.5584-1.56-13.2858-2.2464-19.4493-.75-6.6987-.5633-15.3382-3.6813-21.71,1.4157-2.7911.4043-6.9256-3.1782-7.6141-21.8209-4.1921-45.2592-2.0088-67.3915-1.8969-11.3088.0572-22.5959.4033-33.8805,1.1682-11.9695.8119-23.5946,3.0753-35.606,3.6165a2.1753,2.1753,0,0,0-.06,4.3477l-.0013-.0019c11.4155.52,22.45,2.6591,33.826,3.5047,11.8284.8792,23.6784,1.22,35.5386,1.28,20.4419.1007,41.9575,1.9319,62.33-1.0526-1.3368,6.9419.1227,15.2953.6279,21.5613.6539,8.0339.6425,17.1555,3.665,24.8573a69.3062,69.3062,0,0,1-12.8449,8.5015c-3.71,1.8213-1.7647,7.1891,1.9566,7.3035l-.0051-.0007c10.7383.33,19.2545-7.5664,27.4176-13.5588,10.5846-7.785,20.85-16.0078,31.2239-24.0812,10.6685-8.311,21.3369-16.6264,31.8872-25.0829,8.5035-6.8144,17.3246-14.1941,21.9683-24.2921A6.5672,6.5672,0,0,0,244.955,99.2826Z" transform="translate(-0.9168 -3.4183)" fill="#353535"/></svg>