<svg xmlns="http://www.w3.org/2000/svg" width="46.36" height="74.56" viewBox="0 0 46.36 74.56"><g transform="translate(-1416.058 -5701.129)"><path d="M591.323,336.493a71.135,71.135,0,0,1,15.566-12.558l-1.675-2.116c-5.642,5.878-11.307,11.862-15.556,18.86-.848,1.4,1.064,2.647,2.187,1.628l22.622-20.517-1.924-1.862A192.793,192.793,0,0,0,594,339.708q-2.488,3.064-4.854,6.224a1.307,1.307,0,0,0,.21,1.6,1.423,1.423,0,0,0,1.634.191,25.736,25.736,0,0,0,5.94-4.2c2.018-1.771,4.022-3.558,6.033-5.338l12.251-10.841-1.921-1.86a190.516,190.516,0,0,0-19.088,21.193q-2.446,3.159-4.756,6.421c-.914,1.289,1.1,2.67,2.151,1.6q10.812-11.015,21.612-22.043l6.123-6.246-1.922-1.861q-5.033,6.32-10.08,12.63a1.346,1.346,0,0,0-.11,1.763,1.366,1.366,0,0,0,1.767.33q7.223-5.348,14.439-10.706l-1.661-2.1q-4.133,4.719-8.265,9.439a1.351,1.351,0,0,0,1.659,2.1,104.76,104.76,0,0,0,12.529-8.124l-1.65-2.084a137.731,137.731,0,0,0-8.7,11.813c-.725,1.1.769,2.6,1.861,1.809l10.141-7.356-1.651-2.085-11.108,12.983a1.338,1.338,0,0,0-.11,1.761,1.371,1.371,0,0,0,1.765.33l13.221-8.887-1.659-2.1a225.873,225.873,0,0,0-14.657,17.841c-.82,1.109.8,2.57,1.88,1.827q7.438-5.112,14.875-10.226l-1.666-2.1q-10.02,10.978-20.059,21.94a1.365,1.365,0,0,0-.112,1.8,1.4,1.4,0,0,0,1.808.338q8.867-6.4,17.723-12.819l-1.92-1.866a104.445,104.445,0,0,1-16.2,17.224,1.361,1.361,0,0,0-.113,1.82,1.448,1.448,0,0,0,1.824.341,89.5,89.5,0,0,0,10.409-5.833l-2.078-1.553a8.4,8.4,0,0,1-3.015,4.99,1.39,1.39,0,1,0,1.423,2.389,11.3,11.3,0,0,0,4.327-6.661,1.415,1.415,0,0,0-2.078-1.553,90.327,90.327,0,0,1-10.406,5.838l1.711,2.161a108.075,108.075,0,0,0,16.626-17.8c.831-1.117-.827-2.656-1.92-1.866q-8.861,6.411-17.72,12.825l1.7,2.142q10.01-10.989,20.024-21.974a1.341,1.341,0,0,0,.11-1.772,1.379,1.379,0,0,0-1.776-.332q-7.438,5.113-14.874,10.227l1.88,1.827a219.064,219.064,0,0,1,14.219-17.3,1.336,1.336,0,0,0,.11-1.765,1.375,1.375,0,0,0-1.769-.331l-13.218,8.893,1.655,2.091,11.1-12.988a1.335,1.335,0,0,0,.109-1.756,1.362,1.362,0,0,0-1.76-.329l-10.139,7.36,1.861,1.809a129.518,129.518,0,0,1,8.279-11.265,1.338,1.338,0,0,0,.109-1.755,1.359,1.359,0,0,0-1.759-.329A104.726,104.726,0,0,1,613.79,335.7l1.659,2.1q4.135-4.717,8.267-9.437a1.341,1.341,0,0,0,.11-1.767,1.369,1.369,0,0,0-1.771-.331q-7.219,5.354-14.435,10.711l1.657,2.093q5.031-6.324,10.062-12.647a1.354,1.354,0,0,0,0-1.882,1.4,1.4,0,0,0-1.923.022l-21.625,22.031q-3.064,3.121-6.126,6.243l2.151,1.6a185.976,185.976,0,0,1,17.739-21.443q2.77-2.88,5.661-5.639c1.277-1.22-.64-2.995-1.921-1.86l-12.052,10.679q-2.942,2.607-5.884,5.213a24.417,24.417,0,0,1-5.722,4.07l1.844,1.792A189.128,189.128,0,0,1,608.938,327.1q2.709-2.714,5.528-5.314c1.294-1.2-.647-3.016-1.924-1.862L589.875,340.4l2.187,1.628c4.148-6.8,9.653-12.566,15.112-18.311A1.364,1.364,0,0,0,605.5,321.6a65.279,65.279,0,0,0-15.636,13.477c-.853,1,.56,2.389,1.461,1.414" transform="translate(828.469 5381.569)" fill="#ffb900"/><path d="M790.139,982.9a29.261,29.261,0,0,0,4.505-3.776c1.453-1.315,2.895-2.643,4.373-3.93l-1.833-1.775c-2.978,3.458-5.792,7.069-8.667,10.613a1.357,1.357,0,0,0,1.666,2.1c5.7-2.608,10.22-7.133,14.567-11.535l-2.177-1.621a52.721,52.721,0,0,1-9.356,12.162c-1.111,1.076.371,3.02,1.68,2.122q5.012-3.439,10.016-6.888l-1.883-1.83-2.2,3.98a42.846,42.846,0,0,0-2.135,4.1,1.224,1.224,0,0,0,.738,1.476,1.327,1.327,0,0,0,1.6-.531,41.271,41.271,0,0,0,2.227-3.822l2.152-3.865c.636-1.142-.715-2.63-1.883-1.83q-5.015,3.434-10.027,6.871l1.68,2.122a55.324,55.324,0,0,0,9.784-12.722,1.373,1.373,0,0,0-2.177-1.621c-4.2,4.257-8.492,8.563-13.989,11.112l1.666,2.105c2.928-3.649,5.933-7.253,8.753-10.986.907-1.2-1.038-2.5-2.036-1.516-1.391,1.376-2.822,2.711-4.239,4.059a28.794,28.794,0,0,0-4.068,4.2c-.542.785.515,1.663,1.262,1.226" transform="translate(646.818 4786.33)" fill="#ffb900"/><path d="M811.643,988.464a8.463,8.463,0,0,0-2.192-.441,9.141,9.141,0,0,0-2.452.319,9.853,9.853,0,0,0-4.01,2.18c-2.593,2.329-3.846,6.345-1.771,9.411,3.5,5.176,12.356,5.119,15.142-.756a8.758,8.758,0,0,0,.82-4.707,6.929,6.929,0,0,0-2.11-4.581c-.884-.731-2.447.214-1.736,1.325a8.426,8.426,0,0,1,1.4,3.065,6.431,6.431,0,0,1-.221,3.063,5.747,5.747,0,0,1-4.617,3.942,7.029,7.029,0,0,1-5.934-1.664,4.4,4.4,0,0,1-1.5-3.663,5.992,5.992,0,0,1,1.6-3.381,8.194,8.194,0,0,1,3.295-2.167,10.189,10.189,0,0,1,4.084-.607c.792.074.937-1.128.2-1.338" transform="translate(635.854 4771.985)" fill="#2f2f31"/><path d="M576.969,376.89a90.148,90.148,0,0,0,11.931.67,1.194,1.194,0,0,0,1.161-1.466,20.234,20.234,0,0,1-.913-7.26,8.174,8.174,0,0,1,2.43-4.9,8.6,8.6,0,0,1,9.94-1.561,8.788,8.788,0,0,1,3.9,3.767,9.974,9.974,0,0,1,.851,5.946c-.6,4.374-3.094,8.151-5.4,11.8-2.642,4.182-5.294,8.769-5.076,13.888.025.589.53,1.277,1.2,1.192a44.292,44.292,0,0,1,10.509-.082,1.239,1.239,0,0,0,1.232-1.19c.547-7.012,5-12.92,7.95-19.076a28.76,28.76,0,0,0,3.025-10.073,19.89,19.89,0,0,0-2-10.072,21.976,21.976,0,0,0-16.387-12.194,24.5,24.5,0,0,0-20.2,6.105,25.133,25.133,0,0,0-7.673,19.61,26.114,26.114,0,0,0,.324,2.733,1.164,1.164,0,0,0,1.425.8,1.182,1.182,0,0,0,.834-1.405,23.089,23.089,0,0,1,5.266-18.563,21.889,21.889,0,0,1,18.034-7.181,19.734,19.734,0,0,1,15.726,10.115,17.94,17.94,0,0,1,2.333,9.027,23.526,23.526,0,0,1-2.48,9.333c-2.805,6.035-6.981,11.629-8.261,18.276a23.471,23.471,0,0,0-.349,2.562l1.232-1.189a44.211,44.211,0,0,0-10.509.082l1.2,1.192c-.2-4.792,2.4-8.992,4.855-12.9,2.557-4.073,5.132-8.3,5.606-13.2a11.257,11.257,0,0,0-5.89-11.264,11.077,11.077,0,0,0-12.143,1.226,10.46,10.46,0,0,0-3.687,5.948c-.626,3.061.041,6.152.806,9.124l1.161-1.466c-3.987.056-7.958-.031-11.935-.329a1.024,1.024,0,0,0-1.024.988,1.008,1.008,0,0,0,1,.99" transform="translate(842.655 5357.455)" fill="#2f2f31"/></g></svg>