<svg xmlns="http://www.w3.org/2000/svg" width="663.106" height="627.506" xmlns:v="https://vecta.io/nano"><path d="M341.397 66.045a121.86 121.86 0 0 0-16.665 14.471 2.27 2.27 0 0 0 1.841 3.744 79.49 79.49 0 0 0 22.698-6.66l-2.58-3.869a88.62 88.62 0 0 0-13.592 15.999c-1.252 1.873 1.142 3.983 2.98 3.413a74.92 74.92 0 0 0 22.819-11.572l-3.587-3.185c-2.473 6.326-7.087 10.9-11.971 15.442-1.526 1.419-.067 4.44 2.016 4.091 8.957-1.481 17.621-4.382 25.663-8.596l-3.232-3.715a106.04 106.04 0 0 0-11.226 14.608c-1.198 1.87 1.124 4.136 3.029 3.469a138.97 138.97 0 0 0 21.792-9.799l-3.835-2.587c-.651 5.222-2.877 10.123-6.381 14.049-.717.852-.785 2.076-.167 3.002s1.774 1.334 2.836 1q10.425-3.375 20.558-7.526l-3.048-3.489q-3.949 6.737-7.897 13.472c-.886 1.519.284 3.116 1.733 3.555 9.491 2.881 15.396-7.419 24.271-7.752l-2.047-4.154q-4.762 5.754-9.533 11.502c-1.514 1.824.253 5.119 2.722 4.081l22.102-9.284-3.167-3.628c-2.759 5.408-5.818 10.657-9.164 15.722-1.517 2.296 1.794 4.71 3.831 3.401q9.979-6.408 19.945-12.836l-4.116-2.777a24.92 24.92 0 0 1-8.667 13.907c-2.481 2.081 1.042 5.293 3.479 4l9.749-5.17-3.479-4c-3.182 3.944-5.561 8.474-7.002 13.332-.982 3.248 4.299 4.358 5.278 1.118 1.174-3.97 3.121-7.67 5.729-10.886a2.69 2.69 0 0 0-3.48-4l-9.749 5.17 3.479 4a29.51 29.51 0 0 0 9.94-16.351c.172-1.053-.284-2.11-1.168-2.707s-2.035-.624-2.947-.071q-9.963 6.43-19.91 12.887l3.831 3.401a162.53 162.53 0 0 0 9.087-15.761c.956-1.897-1.026-4.539-3.167-3.628l-22.067 9.388 2.722 4.081q4.745-5.775 9.491-11.539c.649-.767.781-1.846.337-2.748s-1.38-1.454-2.384-1.407c-3.939.158-7.26 1.78-10.599 3.764-3.8 2.259-7.658 5.534-12.32 4.122l1.733 3.555q3.945-6.738 7.891-13.475a2.53 2.53 0 0 0-3.048-3.489q-10.138 4.159-20.553 7.535l2.669 4.002a30.87 30.87 0 0 0 7.561-16.332c.154-.979-.273-1.959-1.095-2.514s-1.89-.583-2.741-.074a131.43 131.43 0 0 1-20.634 9.269l3.029 3.469c3.093-4.82 6.601-9.362 10.482-13.574 2.013-2.189-.867-4.952-3.232-3.715a77.65 77.65 0 0 1-23.239 7.837l2.015 4.091c5.212-4.852 10.068-9.743 12.699-16.481.809-2.073-1.433-4.791-3.587-3.185a71.78 71.78 0 0 1-21.655 11.088l2.98 3.413c3.663-5.496 7.965-10.537 12.815-15.019 1.726-1.605-.43-4.862-2.58-3.869-7.023 3.198-14.423 5.493-22.024 6.829l2.424 3.633a181.13 181.13 0 0 1 15.002-15.506c1.114-1.027-.528-2.851-1.729-1.988z" fill="#ffb800"/><g fill="#ebeaea"><path d="M289.432 426.701c-1.76.664-3.639 1.489-4.484 3.075-1.209 2.27.369 5.141 2.707 6.429s5.182 1.408 7.9 1.493c33.459 1.047 39.48 7.32 72.633 2.975 2.042-.268 31.825-5.83 33.438-7.03 18.285-13.605-41.157-18.487-48.291-18.034-20.876 1.325-44.533 3.785-63.903 11.092zM95.169 529.261c-2.491 1.5-5.115 3.217-5.922 5.145-1.154 2.758 2.145 4.709 6.121 4.779s8.368-1.223 12.55-2.485c51.561-15.551 62.709-12.561 112.143-33.092 3.046-1.266 46.944-21.288 49.045-23.227 23.82-21.99-68.709 2.763-79.495 6.722-31.554 11.583-67.027 25.624-94.442 42.158z"/><path d="M288.114 463.908c-1.735 1.259-3.552 2.712-4 4.523-.635 2.59 1.987 4.76 4.958 5.155s6.14-.5 9.156-1.389c37.179-10.906 45.739-7.08 80.923-23.009 2.168-.981 33.265-16.87 34.673-18.585 15.96-19.452-51.019-2.951-58.738.019-22.578 8.684-47.882 19.441-66.972 33.286zm162.543-53.844c-1.735 1.258-3.551 2.711-4 4.522-.634 2.59 1.987 4.761 4.959 5.155s6.14-.5 9.155-1.388c37.179-10.906 45.739-7.08 80.923-23.009 2.168-.981 33.265-16.869 34.673-18.585 15.961-19.452-51.018-2.95-58.737.019-22.578 8.686-47.883 19.443-66.973 33.286zm-343.276-33.629c-29.42 1.868-62.77 5.335-90.075 15.636-2.481.936-5.13 2.1-6.321 4.335-1.7 3.2.52 7.247 3.816 9.063s7.3 1.984 11.13 2.1c47.166 1.477 55.654 10.318 102.388 4.193.744-.1 4.111-.7 8.719-1.555-1.793-4.247-3.347-8.591-4.657-13.011-.677-2.313.823-5.342 3.309-5.828 5.556-1.087 11.133-2.124 16.763-2.751a4.09 4.09 0 0 1 3.643 2.089c2 3.955 3.433 8.627 2.585 13.037q2 .624 3.952 1.4c6.771-1.447 12.056-2.716 12.823-3.286 25.776-19.177-58.018-26.059-68.075-25.422zm358.048-20.867c-1.3.49-2.689 1.1-3.313 2.272-.894 1.677.272 3.8 2 4.751a12.86 12.86 0 0 0 5.834 1.1c24.722.774 29.171 5.408 53.667 2.2 1.509-.2 23.514-4.308 24.706-5.195 13.511-10.052-30.409-13.66-35.681-13.325-15.422.977-32.902 2.797-47.213 8.197z"/><path d="M53.994 466.538c-13.209-13.622-22.854-30.127-30.475-47.416-7.754-17.592-12.6-36.034-18.8-54.17-.973-2.851-5.342-1.732-4.65 1.246 8.624 37.1 23.592 75.938 51.082 103.149 1.791 1.773 4.627-.965 2.838-2.809zm164.377-23.866c-7.325-5.967-14.759-12.784-23.872-15.9-1.845-.632-3.719 2.161-2.04 3.435 7.354 5.576 16.042 9.312 23.349 15.006 1.76 1.372 4.375-1.059 2.562-2.536zm105.69-45.602c6.008 3.434 12.92 7.027 19.627 8.843a2.1 2.1 0 0 0 1.643-3.807c-5.833-3.744-13.166-6.417-19.746-8.566-2.1-.687-3.442 2.433-1.523 3.53zm201.096-45.954a116.24 116.24 0 0 0-30.07-15.729c-2.445-.831-4.251 3.081-1.819 4.215 10.129 4.728 20.155 9.4 30.066 14.581.843.463 1.902.174 2.393-.653s.239-1.895-.57-2.414zM119.87 528.324c49.6 44.819 112.427 75.346 177.335 90.444a377.6 377.6 0 0 0 55.547 8.728c3.052.244 3.051-4.314.063-4.643-65.536-7.211-128.646-28.328-184.37-63.789a510.5 510.5 0 0 1-46.081-33.207c-1.689-1.359-4.2.93-2.494 2.467zm170.236-44.548c54.128 43.382 123.95 56.786 191.733 59.122 19.069.757 38.164.521 57.208-.708 2.923-.2 3.09-4.6.061-4.547-66.747 1.193-135.175-.464-197.441-27.565-17.469-7.6-34.115-16.9-49.021-28.815-1.742-1.392-4.334 1.075-2.54 2.513zm129.099-71.547c8.467 9.7 16.829 18.53 29.11 23.235 13.417 5.14 28.3 7.31 42.375 9.885 29.345 5.521 59.046 8.942 88.877 10.237 3.024.115 3.048-4.362.063-4.594-28.667-2.242-57.193-5.3-85.524-10.285-13.1-2.3-26.5-4.47-39.284-8.2-13.635-3.979-23.521-12.661-33.216-22.654-1.5-1.544-3.816.756-2.4 2.376zm158.153-40.875c12.368 7.088 25.573 11.548 39.241 15.415 14.452 4.087 29.055 8.087 44.211 6.625 2.978-.287 3.124-4.906.063-4.642-14.711 1.268-28.935-2.619-43.01-6.412-13.236-3.566-26.8-7.056-38.831-13.8-1.821-1.021-3.526 1.757-1.674 2.818z"/></g><path d="M83.242 276.683c7.012-2.655 14.11-4.776 21.31-6.844l-2.493-4.23-21.872 17.592c-2.463 1.981.7 5.088 3.138 3.964a91.45 91.45 0 0 1 24.3-7.293l-1.314-4.905c-11.196 4.464-21.068 11.709-28.683 21.051-1.406 1.733-.153 5.324 2.495 4.233l41.184-16.968-1.963-4.648-43.02 24.367a2.56 2.56 0 0 0-1.234 2.527c.13 1.013.851 1.851 1.834 2.132 8.141 2.229 15.632-2.238 22.8-5.579l28.065-13.078-2.613-4.386a238.51 238.51 0 0 0-46 31.9c-1.906 1.683.1 5.085 2.5 4.243q23.238-8.146 45.773-18.091l-2.6-4.372c-16.9 8.178-34.073 16.771-46.548 31.216-1.526 1.767-.111 5.192 2.493 4.23a467.81 467.81 0 0 0 48.73-21.209l-2.6-4.372-29.245 20.41c-2.276 1.588-1.006 5.534 1.959 4.638l24.2-7.308-3.255-2.455a7.65 7.65 0 0 1-3.235 7.34c-2.634 2.065 1.108 5.566 3.672 3.555 3.39-2.541 5.197-6.675 4.76-10.889a2.59 2.59 0 0 0-3.255-2.455l-24.2 7.308 1.959 4.638 29.245-20.41c1.172-.733 1.544-2.269.837-3.457s-2.233-1.595-3.437-.915c-15.409 7.786-31.248 14.689-47.441 20.676l2.493 4.23c12.195-14.12 28.968-22.408 45.48-30.4 3.051-1.477.374-5.686-2.6-4.372q-21.892 9.66-44.488 17.542l2.5 4.244a234.26 234.26 0 0 1 44.937-31.071c3.012-1.6.359-5.781-2.616-4.393l-22.45 10.466c-7.017 3.271-16.38 9.844-24.391 7.652q.3 2.33.6 4.66l42.999-24.379c2.473-1.4.8-5.787-1.963-4.647l-41.182 16.974 2.495 4.233a65.75 65.75 0 0 1 26.326-19.708c3.078-1.256 2.03-5.431-1.314-4.905-8.853 1.405-17.467 4.039-25.592 7.826l3.138 3.964 21.872-17.593c2.017-1.622-.161-5.024-2.493-4.23-7.244 2.465-14.335 5.5-21.318 8.617-1.789.8-.521 3.829 1.322 3.131zm416.385-58.759c5.882-1.909 11.529-4.37 17.2-6.822l-2.824-3.567-19.794 18.2c-1.672 1.483.522 4.189 2.377 3a121.4 121.4 0 0 1 32.918-14.839q-.8-1.892-1.6-3.783-16.088 12.18-32.055 24.518c-2.093 1.609.605 4.736 2.76 3.486 13.81-8.05 28.226-15.012 43.117-20.824l-2.318-3.933c-15.345 11.738-33.77 18.712-48.218 31.731-2.421 2.182.688 5.525 3.32 4.193a362.67 362.67 0 0 1 44.543-18.905l-2.844-4.825c-7.592 6.652-16.491 11.291-25.134 16.387a126.87 126.87 0 0 0-12.172 7.966c-2.274 1.718-6.1 3.989-6.111 7.3-.023 9.107 14.14-.291 16.977-1.7q16.042-7.975 32.112-15.89l-3.6-4.544q-10.065 7.993-20.157 15.952c-3.318 2.624-12.98 7.919-12.5 13.165.467 5.052 5.9 3.49 8.91 2.188l23.724-10.342-4.146-4.029c-1.523 2.222-3.255 4.293-5.171 6.186-1.526 1.483-3.707 2.642-5.088 4.183a4.8 4.8 0 0 0-1.331 2.073c-.264 1.068-.7 2.894.223 1.117l4.16-1.115-.369-.252q.543 2.029 1.087 4.058c.057-.1.115-.19.17-.285 2.016-3.361-3.273-6.231-5.246-2.944-.057.1-.113.19-.171.286a3 3 0 0 0 1.087 4.058l.37.252a3.11 3.11 0 0 0 4.158-1.114c.5-.961.259-1.927.582-2.765q-.2-1.565.054.5 1.008-.765 2-1.553a48 48 0 0 0 8.733-9.736c1.946-2.786-1.739-5.074-4.146-4.029q-7.307 3.171-14.621 6.328c-2.244.968-5.347 1.719-7.315 3.155l-1.829.788q.686 1.036 1.375 2.073c.418.106 3.08-2.79 3.449-3.1 8.583-7.182 17.467-14.038 26.215-21.018 2.784-2.221-.791-5.941-3.6-4.545l-21.075 10.487q-5.041 2.507-10.081 5.015-2.75 1.365-5.507 2.719c-1.179.582-4.186 2.816-5.306 2.547l2.073 2.04c-.8-2.156 18.71-12.439 21.048-13.79 7.162-4.138 14.143-8.5 20.349-14.009 2.157-1.912-.112-5.794-2.843-4.826-15.699 5.58-31.001 12.22-45.8 19.875l3.319 4.193c14.262-13.073 32.681-20.173 47.747-32.187 1.836-1.464-.154-4.8-2.318-3.933a330.12 330.12 0 0 0-44.185 21.54l2.76 3.487q15.72-12.17 31.384-24.413c1.7-1.339-.155-4-2.034-3.45a127.93 127.93 0 0 0-33.82 15.526l2.377 3c6.665-6.016 13.578-11.761 20.318-17.694 2.164-1.906-.622-4.519-2.824-3.568-5.487 2.37-10.955 4.723-16.2 7.6a1.73 1.73 0 0 0 1.334 3.157z" fill="#ffb900"/><g fill="#353535"><path d="M136.733 107.564c-31.395 1.753-53.922 29.08-67.129 54.96-7.13 13.971-13.484 28.941-16.19 44.467-2.184 12.526-.96 23.187 5.629 34.111 12.207 20.238 36.7 46.857 62.964 37.081 14.052-5.23 23.774-17.1 32.821-28.47 9.553-12.01 19.666-24.135 26.011-38.234 7-15.552 4.786-31.114-7.265-43.563-14.175-14.643-35.767-18.518-55.323-18.874-4.063-.074-4.148 6.007-.084 6.2 16.423.784 34.209 2.942 47.3 13.9 11.55 9.664 16.171 23.133 10.6 37.314-5.085 12.947-14.235 24.32-22.8 35.108-7.853 9.887-15.587 20.613-26.517 27.34-11.408 7.021-23.385 6.348-34.252-1.038-10.009-6.8-18.745-16.253-25.507-26.238-6.388-9.433-9.268-18.155-7.905-29.612 1.636-13.765 6.928-27.264 12.78-39.729 6.217-13.243 13.4-26.376 23.579-37.015 11.753-12.286 25.514-19.631 41.708-24.364 1.806-.528 1.61-3.454-.417-3.341zm-28.204 82.063c-1.228 2.208-1.664 4.817-2.583 7.168-1.3 3.312 4.72 4.866 5.348 1.4.449-2.477 1.453-4.927 1.561-7.444.1-2.311-3.242-3.075-4.326-1.127zm23.903 7.925q-.027.406-.091.807l.356-1.255a12.57 12.57 0 0 1-3.123 4.656 3.12 3.12 0 0 0 0 4.429 3.29 3.29 0 0 0 4.524-.051c1.162-1.129 2.094-2.473 2.742-3.958a13.74 13.74 0 0 0 .791-4.623 2.56 2.56 0 0 0-2.564-2.547c-1.413.014-2.568 1.13-2.633 2.541zm-23.375-54.155c8.414-5.774 18.223-10.11 28.417-11.278 5.627-.645 26.735-1.245 26.649 7.446-.044 4.492 6.34 4.174 6.885.007 1.715-13.1-19.572-13.914-27.853-13.182-13.3 1.174-25.847 5.9-35.315 15.471-.781.79.26 2.191 1.216 1.536z"/><path d="M67.926 172.652c1.213-10.386-12.857-11.827-18.38-5.449a13.63 13.63 0 0 0-2.93 11.866c1.437 5.875 7.875 7.468 9.988 12.655 1.221 3 6.26 1.682 5.027-1.347-2.076-5.1-8.782-7.463-9.988-12.655-1.991-8.573 11.083-14 13.312-4.68.416 1.74 2.789 1.167 2.971-.39zm109.921 43.075c2.144-2.865 7.212-.66 8.3 1.781 1.548 3.471-.67 7.734-3.288 10.064-4.848 4.315-12.122 4.517-17.718 1.712-1.17-.639-2.635-.237-3.316.909s-.332 2.625.789 3.346c9.667 6.861 25.489 2.533 29-9.251 1.519-5.095.1-11.026-5.035-13.359a7.63 7.63 0 0 0-10.5 3.807c-.253.485-.075 1.084.402 1.352s1.081.108 1.364-.361zm-92.771 52.521c-8.384 2.239-11.178 10.79-12.38 18.568a292 292 0 0 0-3.22 40.63c-.042 3.665 5.1 3.359 5.586.006 1.6-11.084 2.183-22.424 2.816-33.6.45-7.951.7-17.925 8.607-22.271a1.83 1.83 0 0 0-1.408-3.333zM61.404 334.04c8.664 4.55 18.31 7.067 27.92 9.015 9.515 1.929 19.971 3.984 29.706 3.726 3.628-.1 4.913-5.814.961-6.533-9.812-1.785-19.91-2.311-29.782-3.932-9.4-1.544-18.714-3.667-28.166-4.534a1.22 1.22 0 0 0-.64 2.258z"/><path d="M125.295 278.117c-.915-.063 1.58 14.783 1.683 15.988a96.51 96.51 0 0 1-.081 16.777c-.494 5.586-1.546 11.108-3.141 16.484-1.543 5.166-4.894 10.3-5.2 15.675-.146 2.555 2.987 3.229 4.628 1.858 5.312-4.438 7.37-14.429 8.785-20.869a77.8 77.8 0 0 0 1.656-24.635 89.15 89.15 0 0 0-1.867-11.239c-.713-3.029-1.389-7.457-3.515-9.9-1.369-1.573-5.256-2.239-4.246.859.104.353.427.597.795.6l.482-.04a.78.78 0 0 0 .789-.769.78.78 0 0 0-.768-.789zM593.311 66.454a87.8 87.8 0 0 0-49.4-.379 60.09 60.09 0 0 0-32.639 22.234c-9.445 12.658-17.339 26.403-23.512 40.94-5.982 13.754-14.208 29.063-9.191 44.267 4.238 12.846 12.153 26.68 21.727 36.314 9.977 10.039 23.671 13.494 37.555 12.115 14.353-1.425 28.156-8.125 37.2-19.5 8.434-10.607 12.409-23.889 16.422-36.613 4.949-15.692 10.365-33.784 1.284-49.091-7.839-13.215-23.16-19.339-37.436-22.666-2.883-.672-4.182 3.616-1.262 4.424 11.439 3.163 23.824 7.684 31.6 17.141 9.87 12 7.093 27.857 3.069 41.556-3.443 11.724-6.851 24.063-12.837 34.781a48.03 48.03 0 0 1-30.253 23.482c-13 3.4-28.411 2.3-38.957-6.69-9.378-7.995-15.756-19.832-20.816-30.894-2.922-6.393-4.816-13.005-3.4-20.038 1.473-7.281 4.968-14.545 7.78-21.4 5.439-13.104 12.084-25.674 19.849-37.548 7.929-12.264 17.384-22.224 31.581-26.863 16.531-5.4 33.608-5.128 50.445-1.408 1.14.303 2.313-.363 2.637-1.497s-.32-2.319-1.449-2.664zm-37.166 20.141c8.082-.627 15.811-.954 23.8.872 3.855.867 7.619 2.096 11.243 3.67 3.445 1.512 9.772 3.731 10.424 7.909.41 2.635 5.088 2.031 4.78-.628-1.016-8.748-12.619-12.369-19.845-14.585-9.739-2.986-21-4-30.885-1.131-2.094.608-1.876 4.076.484 3.892z"/><path d="M589.667 158.529c5.575-1.032 11.126 1.914 13.395 7.109 1 2.57 1.085 6.326-1.332 8.172s-5.418.53-6.8-1.849c-1.218-2.1-5.016-.7-4.152 1.722 1.53 3.997 5.677 6.351 9.893 5.615 4.749-.67 7.685-4.955 7.964-9.546.633-10.457-10.413-17.91-19.991-15.045a1.98 1.98 0 0 0-1.371 2.415 1.98 1.98 0 0 0 2.394 1.406zm-90.257-39.847c-3.293-7.576-14.4-10.36-20.8-4.97a13.08 13.08 0 0 0-4.281 12.668c1.125 4.37 5.358 7.326 9.794 6.028a2.34 2.34 0 0 0 1.613-2.853 2.34 2.34 0 0 0-2.823-1.665c-4.811.97-4.331-5.572-3.112-8.037a7.19 7.19 0 0 1 5.311-4.139c4.254-.774 8.457 1.525 10.754 5.016a2.05 2.05 0 0 0 3.542-2.05zm-.688 86.562c-4.841 6.924-7.029 17.126-9.208 25.229a147.79 147.79 0 0 0-5.034 26.569c-.2 2.555 4.031 3.082 4.518.584 1.69-8.667 3.095-17.335 5.38-25.877q1.7-6.369 3.8-12.624c1.374-4.094 3.422-8.177 4.141-12.43.213-.941-.288-1.897-1.183-2.257s-1.919-.019-2.417.806zm-15.801 59.067c9.242 2.885 18.5 5.709 27.568 9.131q4.244 1.6 8.437 3.339c1.645.684 3.694 2 5.518 2.2a4.64 4.64 0 0 0 5.034-2.547c2.1-3.712 2.663-9.167 3.8-13.273q2.033-7.367 4.059-14.735l8.278-30.481c.772-3.018-3.629-4.038-4.636-1.216-.591 1.654-1.223 3.284-1.865 4.918-.92 2.339 3.092 3.924 4.09 1.65l2.171-4.794-4.4-1.774c-5 16.935-9.487 34.031-14.162 51.058-.184.667-1.076 5.531-1.619 5.9-.959.644-4.435-1.445-5.541-1.9q-5.685-2.317-11.469-4.376a189.56 189.56 0 0 0-24.155-6.994c-1.061-.269-2.144.354-2.444 1.407s.291 2.153 1.334 2.484z"/><path d="M519.303 277.952c12.8-1.826 25.46-7.868 36.236-14.819 2.648-1.708 7.228-6.132 10.662-5.415 3.195.667 5.088 4.618 6.467 7.222 3.5 6.611 7.018 13.338 10.073 20.164.761 1.7 3.526 1.472 4.322-.042 1.865-3.549 3.735-7.106 5.433-10.737 1.321-2.825-2.722-5.144-4.25-2.385-1.941 3.506-3.721 7.108-5.5 10.7l4.322-.042c-4.267-7.533-7.264-16.012-12.091-23.207-2.882-4.3-6.993-7.53-12.4-5.919-3.227.963-5.882 3.352-8.654 5.181a111.17 111.17 0 0 1-10.979 6.371c-7.919 4.012-16.232 6.517-24.625 9.277a1.89 1.89 0 0 0-1.316 2.308 1.89 1.89 0 0 0 2.294 1.341zm-28.511-14.476c-6.335 6.709-12.072 14.012-17.969 21.1l3.813.445q-4.764-8.933-9.528-17.866c-2.635-4.941-4.892-11.519-8.574-15.731-5.785-6.616-14.484 5.289-17.08 9.9-1.534 2.726 2.685 5.024 4.193 2.353 1.468-2.6 4.2-7.234 7.263-8.389 2.67-1.008 3.019 1.3 4.244 3.6q1.43 2.679 2.864 5.357l12.42 23.205a2.46 2.46 0 0 0 3.813.445c6.01-7.249 12.253-14.381 17.8-22 1.4-1.921-1.692-4.083-3.257-2.425zm5.411-54.379c-10.889-7.731-17.352-19.362-27.341-27.959-3.018-2.6-7.328-4.531-9.724-.1-2.871 5.311-1.531 14.588-.877 20.243.36 3.115 2.125 7.75 1.371 10.678-.67 2.6-3.154 4.6-3.926 7.357-1.172 4.176-.229 8.9 3.333 11.61 7.379 5.614 16.655-4.237 10.172-10.872-1.707-1.747-5.146.65-3.58 2.734 2.9 3.856-2.7 6.854-4.944 2.95-1.275-2.214-.587-5.324.541-7.41 1.358-2.513 3.34-4.108 3.406-7.136.091-4.183-1.56-8.639-1.9-12.825-.153-1.91-1.328-13.216.345-14.354 3.168-2.157 14.086 13.208 15.89 15.325 4.362 5.122 9.058 10.215 15.252 13.087a1.94 1.94 0 0 0 1.979-3.332zM104.411 342.301a488.4 488.4 0 0 0 19.508 48.669c1.371 2.952 5.88.375 4.5-2.6a475.52 475.52 0 0 1-18.979-47.413c-1.049-3.089-6.082-1.761-5.027 1.347zm-25.461-8.459c-5.06 9.194-7.878 19.742-10.057 29.95l4.616-1.237a93.8 93.8 0 0 1-17.058-17.205 2.91 2.91 0 0 0-4.91.047c-1.816 2.986-3.727 5.936-5.339 9.037-1.631 3.14 2.742 5.425 4.694 2.634 2.006-2.867 3.738-5.926 5.548-8.92l-4.91.047a95.1 95.1 0 0 0 18.064 18.23c1.466 1.119 4.174.982 4.616-1.237 2.041-10.252 5.593-19.811 8.708-29.742.737-2.351-2.81-3.716-3.973-1.6zm4.683-62.841c-6.912-5.5-14.51-10.192-21.86-15.076-4.545-3.02-11.13-8.776-16.587-4.24-4.6 3.827-4.954 12.5-5.577 17.973a78.24 78.24 0 0 0 1.577 25.832l3.37-3.282c-8.052-1.118-13.036 9.406-5.669 14.094 8.351 5.315 16.435-3.118 16.758-11.349.1-2.629-4.279-3.256-4.7-.607s-1 5.645-3.37 7.279c-1.215 1.015-2.859 1.348-4.373.886q-2.128.042-1.5-2.42-1.471-2.661 1.385-2.731c2.008.287 3.84-1.119 3.37-3.282a74.93 74.93 0 0 1-1.758-18.6 71.39 71.39 0 0 1 1.025-9.937c.323-1.832.574-6.5 1.876-7.858 1.527-1.59 4.754-1.105 6.417-.435a22.66 22.66 0 0 1 3.357 2.171l7.557 4.88c5.316 3.409 10.585 6.979 16.163 9.946 1.948 1.037 4.475-1.71 2.54-3.249zm42.18 3.163c-1.041 18.366 18.927 30.759 32.589 38.771 1.29.702 2.904.27 3.67-.984a53.27 53.27 0 0 0 6.518-24.923c.006-1.958-.925-5.088-.441-6.919.684-2.59 2.464-3.987 4.574-5.1a12.6 12.6 0 0 0 5.626-6.123c5.5-12.381-9.4-22.136-19.422-14.22-1.975 1.562.6 4.676 2.667 3.37 5.384-3.406 13.885-.206 12.426 7.061-1.2 5.967-7.736 5.17-10.334 9.771-2.333 4.131-.37 10.263-.616 14.8-.422 6.895-2.343 13.615-5.628 19.692l3.67-.984c-14.432-8.406-27.582-17.626-31.5-34.705-.495-2.158-3.685-1.566-3.8.5zm-21.796 121.24a344.53 344.53 0 0 1 3.713 40.554 2.6 2.6 0 1 0 5.2 0 141.08 141.08 0 0 0-4.84-41.649c-.7-2.614-4.476-1.477-4.069 1.091zm3.054 48.639c26.113-5.715 51.942-13.031 77.782-19.859q38.8-10.254 77.558-20.694c3.306-.886 1.967-5.9-1.347-5.027q-38.809 10.232-77.593 20.564c-25.818 6.909-51.868 13.388-77.369 21.4-.983.28-1.56 1.298-1.296 2.286s1.273 1.581 2.265 1.332z"/><path d="M104.191 400.208c26.966-4.242 53.847-8.9 80.637-14.142q19.572-3.83 39.086-7.947c13.577-2.88 27.605-5.178 40.9-9.19 3.236-.977 1.9-5.348-1.3-4.859-13.418 2.048-26.733 5.723-40.014 8.539q-20.005 4.242-40.05 8.294-40.07 8.059-80.256 15.564c-2.527.469-1.472 4.129 1 3.74z"/><path d="M263.617 365.077c-.624 9.966-2.386 19.836-3.313 29.766-.281 3.016 4.552 3.513 5.26.679 2.488-9.972 2.448-20.279 1.788-30.441a1.87 1.87 0 0 0-3.735 0zm-152.128 75.956c-2.655 6.263-2.625 13.671-2.895 20.376l-.638 21.517q-.465 22.087-.416 44.179l5.135-2.1c-9.564-10.429-20.025-21-31.91-28.79-2.524-1.655-5.671 2.2-3.328 4.257 10.673 9.375 21.436 18.143 30.983 28.743 1.726 1.917 5.123.345 5.135-2.1q.1-21.577.453-43.152l.381-20.544c.164-7.262 1.174-14.638 1.005-21.876-.056-2.378-3.083-2.444-3.9-.5zm149.176-40.514c-1.8 28.1-2.044 56.31-2.656 84.464l4.371-2.468q-10.891-7.022-21.049-15.061c-6.13-4.841-11.742-10.517-18.1-15.031-2.573-1.828-4.972 1.972-3.21 4.105 5.322 6.443 12.716 11.809 19.322 16.874 6.491 4.978 13.223 9.628 20.1 14.054.896.49 1.981.482 2.871-.02a2.95 2.95 0 0 0 1.5-2.447c.587-28.143 1.543-56.323.939-84.466-.055-2.613-3.928-2.561-4.092 0z"/><path d="M256.641 479.408c-24.8 9.01-49.49 18.041-74.99 24.927-23.447 6.331-48.954 9.222-70.716 20.55-3.1 1.614-.371 5.935 2.685 4.508 22.832-10.652 48.174-13.933 72.329-20.484 24.637-6.681 49.21-14.726 72.314-25.66 2.173-1.029.653-4.667-1.622-3.842zm214.958-166.031c1.535 9.662 2.049 18.381-.433 27.965-.446 1.724 1.269 3.853 3.152 3.1 10.7-4.273 22.071-5.992 33.342-8.076a175.23 175.23 0 0 0 33.667-10.076c5.124-2.051 10.255-4.108 15.562-5.646a67.7 67.7 0 0 1 8-1.854c2.044-.332 5.035-.257 6.924-1.345 3.166-1.824 2.926-5.753 2.991-8.93a76.65 76.65 0 0 0-1.835-17.763c-.395-1.329-1.775-2.103-3.115-1.748-15.5 3.517-30.667 8.18-45.983 12.4-15.824 4.355-31.4 6.871-47.666 8.787-2.812.331-3.071 4.331-.06 4.451 15.769.635 32.1-3.813 47.177-7.932 15.92-4.349 31.646-9.532 47.822-12.882l-3.116-1.748a72.19 72.19 0 0 1 1.459 16.434c-.107 3.365-.064 4.181-3.437 4.817-2.034.384-4.087.6-6.112 1.055-9.914 2.206-19.135 6.6-28.577 10.206-18.907 7.217-39.511 7.624-58.351 14.962l3.151 3.1c2.855-9.73 3.384-20.827-.459-30.372-.354-1.07-1.481-1.678-2.569-1.386s-1.76 1.382-1.531 2.486z"/><path d="M468.273 340.017c-2.57 11.848-3.429 24.063-4.985 36.076q-2.524 19.473-5.57 38.872l3.844-1.566c-9.284-6.63-17.517-14.214-25.963-21.836a2.42 2.42 0 0 0-3.436 3.4c7.834 8.686 17.28 16.082 26.752 22.891.706.39 1.55.44 2.297.136s1.316-.93 1.547-1.703l5.469-37.142c1.676-12.766 3.826-25.759 3.693-38.657-.021-2.027-3.2-2.538-3.65-.471z"/><path d="M458.565 418.976c16.148-5.794 31.71-13.021 47.646-19.354a455.81 455.81 0 0 1 48.371-16.062c3.251-.887 1.937-5.814-1.327-4.951-33.129 8.761-65.507 21.617-96.08 37.076-1.832.927-.571 3.994 1.39 3.291z"/><path d="M565.33 315.008c-5.817 21.79-7.821 45.117-10.107 67.5l3.291-2.448c-14.078-4.694-27.031-11.439-39.946-18.648-2.586-1.444-4.751 2.261-2.337 3.937 12.464 8.652 26.586 14.706 40.885 19.613 1.691.58 3.122-.92 3.291-2.448 2.482-22.344 6.828-44.629 8.606-67.025.168-2.124-3.155-2.446-3.682-.476zM283.294 361.26a93.54 93.54 0 0 1-27.267-24.583c-7.3-9.87-11.523-20.741-14.92-32.432-.863-2.971-5.02-1.668-4.618 1.237 3.5 25.35 22.515 47.91 45.107 58.638 1.892.9 3.587-1.748 1.7-2.86zm-156.566 34.27c-.548 6.456 1.183 13.54 2.068 19.938.976 7.052 1.8 14.213 3.3 21.174.54 2.513 4.788 1.991 4.616-.605-.44-6.664-1.527-13.325-2.433-19.938-.937-6.84-1.2-14.6-3.655-21.08a2 2 0 0 0-3.9.511zm30.049-6.346c-1.963 5.9-.547 13.409.07 19.484.659 6.5 1.384 13.2 3.14 19.5.686 2.463 4.971 2.09 4.712-.618-.636-6.645-1.883-13.225-2.529-19.877-.574-5.909.072-12.933-2.023-18.5a1.77 1.77 0 0 0-3.37.011zm27.36-4.796c-.438 5.645.232 11.45.8 17.069.525 5.188.912 10.609 2.426 15.612.753 2.49 4.658 2.066 4.68-.615.047-5.655-1.012-11.371-1.57-17-.518-5.219-.708-10.524-1.672-15.683-.508-2.719-4.473-1.854-4.664.612zm53.404-10.473c-.341 5.543.324 11.155.768 16.679.406 5.062.475 10.417 1.788 15.333.707 2.643 4.419 1.9 4.648-.61.5-5.45-.459-11.243-.974-16.68-.483-5.107-.772-10.281-1.95-15.285-.572-2.43-4.138-1.762-4.281.562z"/><path d="M235.318 373.276a96.57 96.57 0 0 0 3.733 29.408c.778 2.544 5.087 2.215 4.92-.646a168.44 168.44 0 0 0-4.6-29.3c-.553-2.255-3.989-1.715-4.057.533zm252.009-60.278a60.03 60.03 0 0 0 .094 11.634c.237 3.525.255 7.167 1.155 10.589.7 2.666 4.425 1.9 4.666-.612.364-3.814-.319-7.821-.689-11.634a54.74 54.74 0 0 0-1.68-10.442c-.6-2.027-3.305-1.436-3.545.465zm17.976-1.979c-.131 7.577-1.068 15.364.473 22.883.574 2.8 4.445 1.825 4.728-.621.856-7.424-.768-14.913-1.53-22.259-.235-2.266-3.629-2.364-3.67 0zm14.728-5.042c-1.146 4.169-.785 8.639-.579 12.924.209 4.332.362 8.831 1.454 13.041.689 2.655 4.828 2.09 4.856-.637.045-4.434-.708-8.92-.987-13.355-.251-3.991-.068-8.107-1.092-11.985-.257-.793-.997-1.328-1.83-1.325a1.92 1.92 0 0 0-1.821 1.338zm14.646-2.841a105.13 105.13 0 0 0 1.987 19.637c.518 2.69 4.706 1.979 4.759-.625a56.06 56.06 0 0 0-3.12-19.488c-.673-1.833-3.622-1.675-3.626.475zm16.505-3.219c.187 5.671.134 11.37 1.028 17 .443 2.793 5.039 2.1 4.983-.654-.114-5.675-1.22-11.278-2.035-16.869-.324-2.225-4.05-1.678-3.977.522zM111.195 405.15a43.02 43.02 0 0 0 14.519-4.505c2.815-1.422.878-5.82-2.1-4.96a41.92 41.92 0 0 0-13.4 6.5c-2.344 1.731-6.808 4.607-6.762 8.031.12 9 17.447-1.1 20.5-2.636l-3.421-4.321q-4.483 4.352-8.934 8.736c-1.714 1.685-.5 4.948 2.011 4.824a41.09 41.09 0 0 0 12.193-2.387l-2.8-4.744-13.546 11.159c-.63.621-.933 1.502-.818 2.379s.635 1.65 1.404 2.088c6.289 3.17 10.526-2.765 16.667-2l-2.016-4.835-12.76 10.948c-1.885 1.617-.382 4.928 2.012 4.828a32.59 32.59 0 0 0 13.565-3.518l-2.9-4.875-10.1 6.74c-1.912 1.276-1.9 4.6.666 5.146a21.55 21.55 0 0 0 15.787-2.426c3.2-1.834.314-6.619-2.864-4.809a15.38 15.38 0 0 1-11.369 1.788q.332 2.573.665 5.146l10.122-6.71a2.84 2.84 0 0 0-2.9-4.875c-3.289 1.664-6.901 2.589-10.585 2.71l2.012 4.827 12.767-10.941c2.119-1.816.183-4.562-2.016-4.836a12.92 12.92 0 0 0-6.252.927c-2.169.785-5.208 3-7.552 1.818q.293 2.233.586 4.467l13.551-11.155c2.213-1.822-.163-5.691-2.8-4.744a36.68 36.68 0 0 1-10.642 2.208l2.011 4.824q4.432-4.4 8.838-8.829c2.336-2.35-.642-5.728-3.421-4.321-2.613 1.324-5.246 2.579-7.968 3.668-1.269.508-4.441 2.287-5.777 1.892l1.963 1.933c-.429-1.031 6.157-5.133 7.17-5.732a39.1 39.1 0 0 1 8.518-3.643q-1.048-2.48-2.1-4.961a45.61 45.61 0 0 1-12.342 4.31c-2.726.582-2.262 5.212.607 4.871zm49.761-7.761c7.442-4.4 14.431-8.475 22.8-10.954l-2.131-5.044c-7.6 5.741-15.138 11.521-21.477 18.683-2.045 2.31.6 6.092 3.421 4.322q10.794-6.781 21.572-13.585l-3.395-4.288-12.091 11.874c-3.424 3.363-6.864 6.563-8.984 10.934a2.73 2.73 0 0 0 1.649 3.976c4.049 1.325 7.758-2.577 10.842-4.688l15.284-10.463-4.025-3.008c-1.3 5.119-7.984 8.007-11.863 11.084a98.05 98.05 0 0 0-12.7 12.191c-1.4 1.59-.624 4.834 1.909 4.58 8.677-.87 13.939-8.435 22.192-10.127l-3.081-3.943-9.724 12.746c-1.578 2.069 1.029 4.411 3.1 3.964 4.994-1.041 9.385-3.989 12.239-8.218 2.065-2.927-2.752-5.469-4.778-2.68a14.08 14.08 0 0 1-8.865 5.658l3.1 3.964 9.7-12.76c1.576-2.073-1.028-4.366-3.081-3.943-7.7 1.586-12.957 9.165-20.722 9.948l1.909 4.58c4.913-5.67 10.479-10.738 16.583-15.1 4.042-2.857 8.078-5.5 9.379-10.558.563-2.187-2-4.386-4.025-3.007l-11.277 7.685c-1.936 1.32-8.656 7.472-10.593 6.833l1.649 3.976c2.2-4.513 6.023-7.738 9.559-11.2l10.689-10.456c2.259-2.21-.7-5.982-3.394-4.289q-10.8 6.773-21.594 13.548l3.422 4.322c6.014-6.8 13.086-12.348 20.305-17.8 2.348-1.776 1.171-6.046-2.131-5.045-8.666 2.628-17.41 6.629-24 12.968-1.785 1.718.529 4.562 2.627 3.32z"/><path d="M214.311 386.254c6.043-2.991 12.409-5.277 18.974-6.814l-2.634-4.47c-4.183 4.65-8.228 9.43-12.327 14.155-2 2.3-5.106 5.257-3.684 8.616 1.147 2.707 4.223 2.984 6.646 1.931 5.552-2.415 10.8-7.1 15.828-10.465l-3.436-4.341-17.383 18.571c-2.29 2.447.6 5.692 3.442 4.347l17.047-8.081-3.429-4.33a143.02 143.02 0 0 1-15.179 13.027c-2.541 1.881-1.121 5.7 2.139 5.065a35.2 35.2 0 0 0 14.9-6.673c3.247-2.479-.176-6.824-3.432-4.335a30.2 30.2 0 0 1-12.9 5.652q1.069 2.533 2.139 5.065a155.26 155.26 0 0 0 16.347-13.916c2.419-2.373-.667-5.635-3.428-4.331l-17.059 8.063 3.441 4.348 17.376-18.577c2.124-2.271-.684-6.184-3.436-4.341l-8.154 5.462c-1.4.939-3.72 2.068-4.892 3.278l-1.63 1.092q.313 2.488 1.317.423c2.432-1.556 4.67-5.477 6.565-7.68l7.062-8.267c1.626-1.961.156-5.3-2.634-4.469-6.85 2.096-13.442 4.956-19.652 8.527-2.331 1.319-.27 4.649 2.066 3.47z"/></g><g transform="matrix(.469 .883 -.883 .469 516.019 -49.569)" fill="#353535"><path d="M274.238 315.552c-.909 5.208-.973 10.544-1.368 15.809-.431 5.733-1.505 11.554-1.312 17.3.05 1.043.841 1.9 1.876 2.034s2.018-.494 2.332-1.49c1.694-5.364 1.958-11.231 2.313-16.819s.666-11.291-.236-16.848c-.288-1.776-3.3-1.731-3.6.012z"/><path d="M273.082 351.449c17.363-4.452 34.35-10.306 51.738-14.738s34.979-7.958 52.639-11.184c1.199-.319 2.046-1.388 2.083-2.629l1.156-31.771c.082-3.167-4.748-3.087-4.953 0l-1.78 31.77 2.083-2.629c-18.08 2.754-35.998 6.482-53.675 11.169-17.07 4.449-34.636 9.3-50.724 16.625-2 .908-.574 3.906 1.432 3.392z"/><path d="M276.64 319.107c18.75-5.89 38.431-8.015 57.8-10.874 9.381-1.385 18.774-2.885 27.979-5.194 4.489-1.127 10.488-1.994 14.5-4.365 1.894-1.12 2.6-2.193 2.283-4.423-.25-1.777-2.4-2-3.67-1.456l-.274.118c-2.228.96-1.107 4.578 1.192 4.45l.3-.017-2.374-3.079c-.178.8-10.158 2.87-11.488 3.206-4.283 1.079-8.608 2.01-12.945 2.844-8.092 1.558-16.251 2.723-24.4 3.93-16.979 2.514-33.712 5.227-49.876 11.2-2.3.849-1.433 4.422.981 3.663zm-5.016 27.161c-2.345 9.543-2.8 19.645-3.783 29.4q-1.554 15.5-2.976 31.016l-1.333 14.474c-.323 3.453-.994 1.746-3.518.313-2.359-1.338-4.652-2.812-6.973-4.215-8.681-5.248-17.217-11.01-26.236-15.651a2.49 2.49 0 0 0-3.33.918c-.683 1.151-.336 2.636.787 3.364 9.93 7.022 20.834 12.9 31.22 19.226 2.806 1.709 6.438 4.583 9.986 3.353 3.21-1.113 3.348-4.444 3.641-7.3l3.469-36.186c1.166-12.562 3.264-25.63 2.6-38.254-.1-1.95-3.055-2.493-3.554-.459z"/><path d="M268.001 428.273c31.44-5.235 62.529-16.743 91.955-28.72 1.74-.708 3.155-3.143 1.292-4.672-10.977-9-22.508-18.642-34.931-25.59-2.464-1.378-5.671 2.217-3.22 4.117 11.223 8.705 23.135 16.4 34.13 25.452q.645-2.336 1.292-4.672-22.346 9.1-45.3 16.551c-15.3 4.973-30.9 8.913-46.229 13.779-1.024.289-1.626 1.347-1.35 2.375s1.326 1.643 2.357 1.38z"/><path d="M374.905 321.316c-2.748 12.177-3.64 24.754-6.144 37-2.519 12.321-5.877 24.353-9.583 36.362-1 3.251 4.009 4.441 5.082 1.333a281.76 281.76 0 0 0 9.908-37.3c2.363-11.967 4.944-24.7 4.291-36.942-.1-1.935-3.091-2.511-3.554-.459zm-79.698-9.318c-1.356 4.625-1.175 9.679-1.335 14.468a92.17 92.17 0 0 0 .164 14.625c.265 2.1 3.855 1.987 4.2-.015.829-4.81.754-9.734.812-14.605.057-4.787.462-9.809-.69-14.484-.222-.684-.86-1.146-1.579-1.144s-1.354.469-1.571 1.154zm17.255-1.567a120.3 120.3 0 0 0-.26 22.9 2.36 2.36 0 0 0 2.354 2.23 2.36 2.36 0 0 0 2.354-2.23 122.83 122.83 0 0 0-.328-23.442c-.323-2.5-3.856-1.522-4.121.541zm16.979-3.271c-.982 7.578-1.006 15.25-.072 22.835.389 2.735 4.158 1.63 4.472-.588a89.16 89.16 0 0 0-.146-22.243 2.13 2.13 0 0 0-4.255 0zm19.891-3.757c-1.2 6.876-1.006 14.48-.477 21.42a2.34 2.34 0 0 0 2.338 2.205 2.34 2.34 0 0 0 2.338-2.205c.529-6.939.742-14.567-.469-21.438-.322-1.826-3.412-1.8-3.73.013zm13.798-1.946c-1.912 6.831-1.077 15.682-.7 22.712a2.5 2.5 0 1 0 5 .006c.375-7.029 1.224-15.919-.694-22.73a1.89 1.89 0 0 0-1.804-1.301c-.819.003-1.544.533-1.796 1.313z"/><path d="M279.996 323.972c1.029-.6 11.521-5.45 11.629-5.025l1.283-3.029-13.567 8.146a2.72 2.72 0 0 0-.012 4.7c4.966 2.9 8.86-2.455 13.44-.9l-1.22-4.552a37.07 37.07 0 0 1-11.849 8.725c-2.77 1.3-1.027 4.764 1.356 5.059a26.84 26.84 0 0 0 9.838-.6l-2.089-4.948q-5.485 4.113-10.969 8.228c-1.927 1.447-1.675 5.239 1.346 5.023a31.21 31.21 0 0 0 9.184-1.973l-3.052-3.906-1.541 1.272c-2.764 1.2-.815 5.683 2.014 4.769 1.833-.477 3.376-1.71 4.247-3.392 1.086-1.906-.765-4.767-3.051-3.906a25.93 25.93 0 0 1-7.727 1.733l1.346 5.023q5.492-4.1 10.981-8.207c2.406-1.8 1.129-5.706-2.09-4.948a22.77 22.77 0 0 1-8.362.385q.677 2.53 1.356 5.06a41.02 41.02 0 0 0 13.01-9.58c.678-.691.94-1.689.69-2.624s-.977-1.668-1.91-1.928a8.79 8.79 0 0 0-5.215-.112c-1.891.468-5 2.691-6.927 1.576q-.005 2.348-.012 4.7l13.544-8.184c1.05-.615 1.572-1.847 1.284-3.029-2.388-8.315-15.479-.238-19.289 2.532-2.379 1.729-.288 5.46 2.335 3.921zm39.136-11.456c2.732-.837 5.595-1.168 8.446-.975l-1.86-4.462-9.877 10.613c-1.4 1.51-.582 4.812 1.873 4.494l8.645-1.117q-1.149-1.98-2.3-3.958a82.96 82.96 0 0 1-6.827 8.735c-1.437 1.606-.58 4.667 1.879 4.509a26.56 26.56 0 0 0 9.275-2.29l-3.945-2.947a6.98 6.98 0 0 1-5.025 4.488l3.334 2.515c-.349-4.034.124-7.807.287-11.821.112-2.738-3.818-2.985-4.622-.6-1.341 3.981-1.318 8.261-.988 12.413a2.65 2.65 0 0 0 1.055 2.068c.651.49 1.491.655 2.279.446a12.69 12.69 0 0 0 8.869-8.15c.955-2.473-2.1-3.74-3.945-2.948a18.48 18.48 0 0 1-6.5 1.516l1.879 4.508a93.44 93.44 0 0 0 7.665-9.825c1.056-1.557-.315-4.217-2.3-3.958l-8.645 1.124 1.873 4.494 9.851-10.64c.728-.756.938-1.872.534-2.841s-1.344-1.605-2.394-1.62c-3.712-.237-7.384.882-10.333 3.148-1.562 1.205.159 3.517 1.815 3.08zm35.183-4.774a21.34 21.34 0 0 1 2.609-.865l1.36-.28q3.546.04 1.245-.565-.838-.719-1.376.148-.642.579-1.335 1.1l-3.1 2.2c-1.026.597-1.535 1.799-1.251 2.952.92 2.273 2.423 2.922 4.78 3.2a5.35 5.35 0 0 0 1.46.123q1.249.27-.815-.99l-.953 1.255c-1.869 1.493-3.321 4.368-4.771 6.274-1.046 1.376.075 3.484 1.594 3.844l3.994.868c3.206.573 4.657-3.928 1.4-4.916l-3.944-1.038 1.594 3.844c2.15-2.791 8.064-7.813 6.552-11.779a4.1 4.1 0 0 0-2.844-2.433 9.58 9.58 0 0 0-1.719-.235c-1.539-.169-1.66-.665-1.138.594l-1.251 2.952c2.746-1.834 10.416-6.149 8.352-10.476-2.147-4.5-9.087-.893-11.937.7-1.9 1.058-.621 4.365 1.493 3.537z"/></g><path d="M475.453 316.267l.051.514a2.4 2.4 0 0 0 1.7 2.2c.841.306 1.749.373 2.626.195 1.752-.247 2.814-1.414.793.792-1.946 2.122-3.654 3.289-3.8 6.387a2.64 2.64 0 0 0 2.651 2.633l6.406-.485-2.564-3.326a12.27 12.27 0 0 1-5.118 6.476c-2.422 1.565-.959 5.868 2.031 4.808l1.353-1.241c-2.128-.511-4.541 2.492-2.421 4.076a4.56 4.56 0 0 0 7.406-2.941c.646-4.328-4.295-6.178-7.7-4.979l2.031 4.808c3.588-2.226 6.283-5.638 7.618-9.644a2.64 2.64 0 0 0-2.563-3.326l-6.406.511 2.651 2.633c.084-1.907 3.61-3.78 4.423-5.735a5.51 5.51 0 0 0-.017-4.905c-2.289-3.974-5.665-.7-8.743-1.242-1.048-.184-2.531.482-2.4 1.788zm34.963-2.991c2.296-1.667 5.157-2.359 7.961-1.926l-1.154-4.306-5.813 6.863c-.861 1.052-1.97 2.211-1.941 3.687a4.16 4.16 0 0 0 1.712 3.123c1.5 1.1 3.281.191 4.682.932q-.489-1.824-.978-3.649-2.628 3.573-5.254 7.148c-1.337 1.817.524 3.818 2.318 3.994 2.441.259 4.91.006 7.247-.745l-2.559-4.344-4.948 4.333c-1.926 1.939.628 5.344 2.981 3.765 2.016-1.352 3.853-2.918 5.737-4.448 2.153-1.748-.2-4.953-2.56-4.343a16.05 16.05 0 0 1-5.827.435l2.32 3.995 5.261-7.144a2.65 2.65 0 0 0-.978-3.65 5.89 5.89 0 0 0-2.159-.783c-.507-.078-3.158.309-1.338.4q.762.877 1.167-.253l1.559-1.9q1.559-1.9 3.1-3.808a2.6 2.6 0 0 0-1.831-4.394 12.59 12.59 0 0 0-10.955 4.175c-1.318 1.52.388 4.01 2.246 2.836zm28.712-6.622c1.316-.62 2.689-1.112 4.1-1.47q1.179-.348 2.383-.6 2.02-.158.806-.294c-.239.355-1.911 1.65-2.5 2.235a30.27 30.27 0 0 1-3.75 3.179c-1.673 1.207-1.837 4.278.616 4.761a30.33 30.33 0 0 0 7.025.576q-.931-2.236-1.863-4.471c-2.234 2.69-7.3 3.937-6.063 8.521.918 3.407 4.579 4.034 7.091 2.095 2.383-1.839-.69-5.4-3.146-3.973l-2.858 1.655c-2.218 1.285-.749 5.206 1.776 4.2l3.046-1.209-1.964-4.649a2.78 2.78 0 0 0 2.632-.33q.662-.391 1.308-.811a9.56 9.56 0 0 0 1.977-1.822c1.364-1.654.622-4.568-1.863-4.472-1.894.086-3.791-.032-5.66-.351q.308 2.381.616 4.761c3.032-2.292 11.048-8.067 8.668-12.818-2.54-5.069-11.3.281-14.208 2.226a1.78 1.78 0 0 0-.59 2.424 1.78 1.78 0 0 0 2.412.636zm.119-89.939l14.322 17.559c2.678 3.236 6.108 8.661 11.054 8.1 4.718-.535 8.192-7.22 10.437-10.745a87.19 87.19 0 0 0 8.747-18.367l-4.29.583a6.23 6.23 0 0 0 8.316 2.117c4-2.127 4.723-7.554 4.914-11.592.185-3.91-.757-8.273-4.667-10.021-3.071-1.537-6.808-.388-8.484 2.609-1.376 2.521 2.413 4.588 3.853 2.161q2.632-2.633 4.459 2.045a11.71 11.71 0 0 1 .147 3.2 21.84 21.84 0 0 1-.216 2.311q.122 3.907-4.26 4.818a2.4 2.4 0 0 0-4.291.583c-1.6 4.619-10.875 28.345-17.442 24.536-3.637-2.11-6.723-7.671-9.42-10.866l-10.206-11.974c-1.756-2.018-4.611.884-2.973 2.942zm-421.028 32.666c-4.776-12.651-12.971-23.028-22.128-32.809-5.2-5.55-15.992-21.2-23.932-11.142-7.017 8.892-4.051 26.412 1.519 35.278 2.378 3.785 6.251 6.947 10.953 6.58 4.348-.339 7.786-3.243 8.3-7.578.37-3.138-4.345-3.311-5.259-.68-2.109 6.07-8.4 1.253-10.457-2.079-2.427-3.925-3.6-9.1-4.005-13.645-.364-4.1-.358-8.877 1.143-12.738 2.52-6.482 7.63-2.438 11.119.817 12.031 11.223 23.748 23.265 30.174 38.685.63 1.512 3.177.9 2.576-.69zm447.234-107.022c-1.185 1.33-1.13 2.853-1.887 4.394-.686 1.4-1.937 2.367-2.5 3.817-.631 1.616 1.166 2.672 2.506 2.466 2.078-.321 3.576-2.578 4.376-4.352a10.27 10.27 0 0 0 .851-2.918 3.71 3.71 0 0 0-1.026-3.433 1.67 1.67 0 0 0-2.315.026zm-22.408-8.957l-2.452 5.531c-.8 1.719-1.98 3.282-2.545 5.1-.718 2.307 2.12 3.258 3.66 2.054 1.726-1.35 2.752-3.671 3.578-5.653a17.31 17.31 0 0 0 1.273-6.575c.069-2.139-2.831-2.193-3.514-.454z" fill="#353535"/><g transform="matrix(.848 .53 -.53 .848 21.862 -1795.474)" fill="#353535"><path d="M1283.941 1551.795c5.858-4.309 11.767-8.55 17.861-12.52l-3.112-3.024-16.1 25.858c-1.606 2.585 1.987 4.911 4.065 3.026l20.8-19.005-4.078-3.036-19.785 28.012c-1.508 2.135 1.474 4.8 3.544 3.444 11.872-7.763 22.777-16.914 32.483-27.258l-3.672-3.555-30 35.173c-.947 1.019-.905 2.609.094 3.576s2.59.958 3.578-.021l48.58-40.483-3.672-3.555q-26.247 31.1-52.477 62.217c-2.113 2.507 1.264 5.842 3.64 3.524l50.906-49.656-4.235-2.377c-7.045 23.271-33.016 33.56-42.668 55.471-.586 1.118-.273 2.496.74 3.25s2.423.659 3.326-.223l43.059-38.445-3.916-2.915-22.835 38.28c-1.311 2.185 1.7 4.266 3.465 2.58q11.535-11.033 23.134-22l-3.645-2.046c-1.794 7.533-4.512 14.815-8.092 21.681-1.306 2.549 2.163 4.309 3.773 2.118.55-.867 1.193-1.672 1.918-2.4q2.095-2.664 6.048.679c-.07 2.275 3.254 2.139 3.508 0 .392-3.316-1.974-6.324-5.29-6.723-4.177-.61-7.308 2.96-9.615 5.888l3.432 2.555c3.893-7.129 6.763-14.771 8.524-22.7a2.18 2.18 0 0 0-3.645-2.045q-11.563 11-23.17 21.963l3.466 2.58 23.331-38c1.576-2.521-1.9-4.657-3.916-2.915l-43.194 38.314 4.066 3.026c9.807-22.369 35.8-32.723 43.083-56.7.755-2.482-2.5-4.066-4.235-2.377l-50.961 49.6 3.64 3.524q26.264-31.086 52.51-62.186c.947-1.019.905-2.609-.094-3.576s-2.59-.958-3.578.021l-48.576 40.484 3.672 3.555 30-35.173c2.147-2.518-1.387-5.988-3.672-3.555a172.7 172.7 0 0 1-31.414 26.441l3.544 3.444q9.891-14.006 19.785-28.012c1.773-2.51-2.036-4.9-4.078-3.036L1283 1561.578l4.065 3.026 15.563-26.156c1.1-1.878-1.216-4.343-3.112-3.024a198.27 198.27 0 0 0-17.693 13.683c-1.476 1.3.525 3.848 2.118 2.675z"/><path d="M1319.459 1348.829c-16.584-8.337-35.28 3.373-46.77 15.281-12.654 13.114-18.639 30.818-23.742 47.913-9.227 30.908-23.861 68.7-7.292 99.784 8.409 15.773 24.884 25.185 41.51 30.194 15.854 4.777 33.467 5.529 49.348.457 17.332-5.536 29.269-17.519 37.64-33.38 9.612-18.213 14.919-38.356 12.532-59.01-1.262-10.922-4.619-21.507-8.644-31.706-3.3-8.371-7.5-16.829-14.621-22.615-15.379-12.49-40.538-10.05-55.932.9-3.02 2.148-.369 6.811 2.929 4.918 13.973-8.02 35.3-11.975 48.866-.751 5.731 4.742 9.282 11.775 11.975 18.573 3.091 7.564 5.533 15.377 7.3 23.354 3.914 18.728 1.048 37.978-6.823 55.315-6.878 15.152-15.33 28.9-30.954 36.083-13.371 6.15-29.073 6.823-43.363 4.028-15.828-3.1-32.82-10.341-42.714-23.613-18.129-24.318-8.8-59.259-.418-85.434 5.554-17.344 9.418-35.99 19.093-51.651 9.383-15.188 29.709-32.285 48.717-25.487 1.833.655 3.139-2.256 1.359-3.151z"/><path d="M1280.369 1539.662c-.7 11.535-.442 23.113-1.009 34.658-.561 11.434-2.61 23.144-2.359 34.563.063 2.82 4.459 3.558 5.1.659 2.426-10.966 2.209-23 2.606-34.2.421-11.856.974-23.844-.084-35.678a2.13 2.13 0 0 0-4.255 0zm2.02 73.65c9.776 2.669 19.644 4.094 29.667 5.434 8.795 1.175 19.02 3.414 27.792 2.107 3-.447 2.653-4.818.05-5.555-4.142-1.171-8.6-.962-12.879-1.214l-15.142-1.031c-9.751-.6-19.406-1.611-29.188-1.771-.516-.002-.955.375-1.03.885a1.04 1.04 0 0 0 .73 1.146zm58.096-10.962c2.5-10.843 1.169-22.778 1.228-33.856.063-11.674 1.719-24.077.323-35.656-.32-2.647-4.4-3.725-5.1-.659-2.547 11.216-1.678 23.841-1.562 35.289.114 11.315-.548 24.1 3.232 34.889a.99.99 0 0 0 1.88-.007zm-53.446-211.801c15.388-12.677 32.984-23.951 53.724-21.436 3.827.464 4.885-6.063.984-6.689-22.819-3.664-40.228 13.165-56.177 26.7-1.027.872.463 2.251 1.469 1.422zm95.165 80.746c6.236-3.028 12.436 5.186 8.245 10.523-3.412 4.345-10.213 4.9-15.277 4.371-2.834-.294-3.543 4.309-.722 4.908 8.473 1.8 20.6-.924 22.706-10.742 1.956-9.138-8.592-18.23-16.807-12.174-.842.52-1.111 1.62-.604 2.47s1.601 1.137 2.459.645zm-141.323-10.923c-2.945-6.431-12.093-7.057-16.392-1.634-6.006 7.576.8 17.82 7.163 22.537 2.451 1.816 4.952-1.951 3.151-4.03-3.131-3.613-8.127-8.341-6.851-13.689 1.08-4.528 7.236-4.84 9.725-1.33.547.804 1.621 1.048 2.462.561s1.163-1.541.738-2.415z"/><path d="M1341.421 1533.774c11.862 13.111 27.79 23.854 43.5 31.806 6.6 3.339 11.726 3.119 14.811-4.29a87.77 87.77 0 0 0 5.952-40.575c-.392-4.194-2.325-9.1 1.221-12.152 4.454-3.83 7.773-7.673 6.572-14.144-2.228-11.99-19.817-10.691-20.413 1.366-.167 3.364 4.77 3.139 5.18.005.917-6.994 10.465-5.256 9.957 1.721-.419 5.749-5.442 5.714-8.079 9.673-2.8 4.2-.09 10.807.221 15.372a83.49 83.49 0 0 1-3.2 29.521c-.433 1.473-.9 2.935-1.416 4.381-.965 2.708-.915 3.974-4.036 4.684-5.189 1.18-12.634-4.911-17.065-7.682-10.781-6.739-20.113-14.909-29.788-23.071-2.31-1.949-5.509 1.072-3.419 3.383zm-13.548 82.917c7.28-3.56 13.967-8.594 20.747-13.014q10.263-6.692 20.514-13.4c1.63-1.067 3.345-2.634 5.127-3.355 2.156-.873 1.951-1.124 3.679 1 2.348 2.885 3.581 8.062 4.962 11.5 3.079 7.317 5.676 14.828 7.774 22.484.619 2.416 3.363 2.583 5.046 1.281a20.96 20.96 0 0 0 8.365-17.273c-.17-3.75-5.325-3.542-5.781-.006-.7 5.421-2.5 9.688-6.845 13.154l5.046 1.281c-3.364-8.9-6.316-17.92-10-26.7-2.12-5.05-4.776-15.063-12.262-12.793-4.01 1.216-7.834 4.724-11.3 7q-6.405 4.2-12.806 8.4c-8.335 5.483-17.379 10.525-24.985 17-2.061 1.755.587 4.49 2.726 3.444zm-41.059-8.383c-2.709 4.188-4.055 9.337-5.723 14.016l-5.536 15.7 4.23-1.723a90.96 90.96 0 0 1-33.1-44.436c-.981-2.8-4.463-2.527-5.533.019l-7.042 16.835c-1.123 2.921 3.788 4.852 5.085 2.052 2.658-5.735 5-11.625 7.478-17.439l-5.533.019a95.62 95.62 0 0 0 35.74 47.852c1.581 1.1 3.691-.133 4.23-1.723l5.338-15.751c1.575-4.7 3.618-9.5 4.063-14.459.187-2.084-2.724-2.455-3.69-.961zm29.493-167.503c-2.136 4.328-4.294 11.834-1.3 16.246 1.178 1.733 4.283 1.638 4.81-.653.506-2.2-.081-4.436 0-6.687.094-2.386.447-4.755 1.054-7.064.7-2.657-3.3-4.4-4.565-1.843zm30.592-.495c-.418 5.068-.957 11.222.216 16.193.628 2.662 4.959 2.715 5.533-.019 1.054-5.022.406-11.094-.131-16.168-.083-1.49-1.314-2.656-2.807-2.658s-2.726 1.162-2.812 2.652zm-63.126 102.594c-8.158-5.142-16.307-10.294-24.2-15.842q-6.861-4.823-13.469-9.989c-2.44-1.915-5.023-4.61-8.175-5.306-6.918-1.528-8.93 7.144-10.235 12.063-2.106 8.224-2.465 16.798-1.054 25.169l2.568-3.242c-7.927.35-14.807 7.349-11.532 15.533 2.673 6.675 12.3 7.688 15.429.809 1.308-2.87-2.665-5.178-4.309-2.418-2.282 3.833-6.634 1.681-6.711-2.413-.075-4.026 3.423-6.227 7.052-6.384.804-.007 1.561-.377 2.059-1.007a2.66 2.66 0 0 0 .509-2.236 54.91 54.91 0 0 1 1.023-22.491q.584-2.223 1.365-4.389c1.039-2.881 2.021-3.988 5.289-2.458 2.936 1.374 5.82 4.575 8.43 6.531 10.658 8.14 21.956 15.407 33.783 21.73a2.13 2.13 0 0 0 2.174-3.661zm35.634-43.536c-13.4 4.7-23.271-6.117-31.5-14.914-5.42-5.794-14.142-11.423-21.947-6.318-5.652 3.7-5.946 11.685-2.4 16.979 4.466 6.671 14.151 7.913 21.218 5.3 1.184-.342 1.877-1.569 1.558-2.76s-1.532-1.907-2.729-1.611c-4.032.58-8.148 1.189-11.937-.706-3.749-1.874-6.926-6.825-4.568-11.086 3.155-5.7 10.895-1.883 14.328 1.116 2.7 2.356 4.907 5.226 7.406 7.782 8.558 8.749 19.881 14.674 31.9 9.35 1.8-.8.532-3.785-1.323-3.135z"/></g><path d="M533.976 177.948c-3.013-7.982-8.183-14.528-13.96-20.7-3.278-3.5-10.089-13.377-15.1-7.03-4.427 5.61-2.556 16.663.958 22.257 1.5 2.388 3.943 4.383 6.91 4.151a5.45 5.45 0 0 0 5.234-4.781c.234-1.979-2.741-2.089-3.318-.429-1.331 3.829-5.3.791-6.6-1.312-1.472-2.646-2.336-5.587-2.527-8.609a18.52 18.52 0 0 1 .721-8.036c1.59-4.09 4.814-1.538 7.015.516 7.59 7.08 14.983 14.678 19.037 24.406.4.954 2 .568 1.625-.435z" fill="#353535"/><path d="M333.837 63.553c9.175 14.319 27.578 21.356 42.337 28.229 16.465 7.668 34.867 16.106 53.192 17.62 1.39.245 2.716-.683 2.961-2.073s-.683-2.716-2.073-2.961c-8.955-2.503-17.921-4.552-26.675-7.764-8.089-2.969-16.008-6.414-23.855-9.969-15.255-6.912-31.839-12.881-43.961-24.792-1.085-1.066-2.7.499-1.924 1.711zm-14.894 16.601c13.537 15.532 32.402 23.427 50.744 31.814l29.592 13.205c9.456 3.979 20.298 9.302 30.621 10.177 2.759.235 4.44-3.557 1.558-4.824-4.77-2.091-9.998-3.167-14.91-4.92-4.956-1.769-9.833-3.744-14.663-5.828-9.32-4.021-18.483-8.398-27.725-12.589-18.321-8.313-37.609-15.986-53.55-28.518-.948-.745-2.554.464-1.665 1.482z" fill="#2e2e2d"/></svg>