<?xml version="1.0" encoding="UTF-8"?><svg id="a" xmlns="http://www.w3.org/2000/svg" viewBox="0 0 4581.14 4056.61"><g id="b"><path d="M575.08,1632.92c48.44-18.34,97.48-32.99,147.23-47.28-5.74-9.74-11.48-19.48-17.22-29.22-50.37,40.51-100.73,81.03-151.1,121.54-17.02,13.69,4.87,35.15,21.68,27.38,53.65-24.78,109.56-41.21,167.9-50.39-3.03-11.3-6.05-22.59-9.08-33.89-77.84,31.75-145.12,80.03-198.18,145.46-9.71,11.98-1.06,36.78,17.24,29.25,94.84-39.08,189.68-78.15,284.52-117.23-4.52-10.7-9.04-21.41-13.56-32.11-99.07,56.11-198.14,112.23-297.21,168.34-13.5,7.65-10.61,28.14,4.16,32.19,56.24,15.4,107.99-15.46,157.51-38.54,64.63-30.12,129.26-60.24,193.89-90.35-6.03-10.12-12.05-20.23-18.08-30.35-114.39,60.81-220.74,134.61-317.83,220.37-13.17,11.63.7,35.13,17.28,29.32,107.03-37.52,212.47-79.2,316.23-124.99-6-10.07-11.99-20.13-17.99-30.2-116.74,56.5-235.4,115.87-321.59,215.66-10.54,12.21-.77,35.87,17.22,29.22,114.93-42.47,227.27-91.29,336.65-146.52-6-10.07-11.99-20.13-17.99-30.2-67.35,47-134.7,94-202.04,141-15.72,10.97-6.95,38.23,13.53,32.04,55.73-16.83,111.46-33.66,167.19-50.49-7.5-5.65-14.99-11.31-22.49-16.96,1.85,22.18-5.19,37.25-22.35,50.71-18.19,14.27,7.65,38.45,25.37,24.56,23.94-18.77,35.4-44.94,32.88-75.23-.93-11.12-10.66-20.53-22.49-16.96-55.73,16.83-111.46,33.66-167.19,50.49,4.51,10.68,9.02,21.36,13.53,32.04,67.35-47,134.7-94,202.04-141,18.9-13.19,2.67-40.63-17.99-30.2-106.53,53.79-215.8,101.48-327.75,142.84,5.74,9.74,11.48,19.48,17.22,29.22,84.25-97.55,200.13-154.81,314.2-210.02,21.08-10.2,2.59-39.28-17.99-30.2-100.83,44.49-203.3,84.88-307.35,121.19,5.76,9.77,11.52,19.55,17.28,29.32,94.93-83.61,198.78-155.27,310.45-214.66,20.81-11.07,2.48-39.93-18.08-30.35-51.7,24.1-103.4,48.2-155.1,72.3-48.48,22.6-113.16,68.01-168.51,52.87,1.39,10.73,2.78,21.46,4.16,32.19,99.06-56.13,198.12-112.26,297.18-168.38,17.08-9.68,5.54-39.98-13.56-32.11-94.84,39.09-189.67,78.18-284.51,117.27,5.75,9.75,11.49,19.5,17.24,29.25,48.72-60.09,110.11-106.88,181.87-136.15,21.27-8.67,14.02-37.52-9.08-33.89-61.68,9.7-120.16,27.91-176.8,54.07,7.23,9.13,14.45,18.26,21.68,27.38,50.37-40.51,100.73-81.03,151.1-121.54,13.93-11.21-1.11-34.71-17.22-29.22-50.04,17.03-99.03,37.98-147.28,59.54-12.36,5.52-3.6,26.45,9.14,21.63h0Z" style="fill:#f3973a; stroke-width:0px;"/><path d="M2103.11,1436.91c40.47-29.77,81.29-59.07,123.4-86.5-7.17-6.96-14.33-13.93-21.5-20.89-37.38,59.35-74.19,119.06-111.2,178.64-11.09,17.86,13.73,33.93,28.09,20.91,48.06-43.59,95.82-87.52,143.71-131.3-9.39-6.99-18.78-13.98-28.17-20.97-45.56,64.51-91.12,129.02-136.68,193.52-10.42,14.75,10.18,33.14,24.48,23.79,82.18-53.75,157.19-116.73,224.41-188.31-8.46-8.19-16.91-16.38-25.37-24.56-69.09,81-138.17,162-207.26,243-15.13,17.74,7.89,39.13,25.37,24.56,111.86-93.23,223.73-186.46,335.59-279.69-8.46-8.19-16.91-16.38-25.37-24.56-120.89,143.24-241.73,286.52-362.55,429.83-14.6,17.32,8.74,40.36,25.15,24.35,117.23-114.35,234.46-228.7,351.69-343.05-9.75-5.47-19.51-10.95-29.26-16.42-48.67,160.77-228.09,231.85-294.78,383.23-8.04,18.26,12.44,34.81,28.09,20.91,99.35-88.26,199.49-175.83,297.48-265.6-9.02-6.71-18.04-13.43-27.05-20.14-51.87,88.58-104.95,176.44-157.76,264.47-9.06,15.09,11.77,29.47,23.94,17.82,53.12-50.82,106.45-101.42,159.82-151.97-8.39-4.71-16.79-9.42-25.18-14.13-12.28,52.65-31.27,101.69-55.9,149.79-9.02,17.61,14.94,29.77,26.07,14.63,3.83-6.03,8.24-11.57,13.25-16.6,9.64-12.27,23.57-10.7,41.78,4.69-.49,15.72,22.47,14.77,24.23.02,2.75-23.03-13.27-43.04-36.55-46.44-28.85-4.21-50.49,20.45-66.43,40.68,7.9,5.88,15.81,11.77,23.71,17.65,27.34-49.2,46.25-102.01,58.88-156.79,3.38-14.68-14.28-24.51-25.18-14.13-53.26,50.68-106.56,101.31-160.07,151.73,7.98,5.94,15.96,11.88,23.94,17.82,53.5-87.66,106.74-175.47,161.18-262.55,10.89-17.42-13.13-32.17-27.05-20.14-100.56,86.93-199.19,176.24-298.41,264.7,9.36,6.97,18.73,13.94,28.09,20.91,67.75-154.54,247.3-226.07,297.64-391.7,5.21-17.15-17.27-28.09-29.26-16.42-117.36,114.23-234.71,228.46-352.07,342.69,8.38,8.12,16.76,16.23,25.15,24.35,120.96-143.17,241.88-286.38,362.77-429.62,15.02-17.8-7.86-39.16-25.37-24.56-111.86,93.23-223.73,186.46-335.59,279.69,8.46,8.19,16.91,16.38,25.37,24.56,69.09-81,138.17-162,207.26-243,14.84-17.4-9.59-41.37-25.37-24.56-65.14,69.36-137.37,130.57-217.03,182.67,8.16,7.93,16.32,15.86,24.48,23.79,45.56-64.51,91.12-129.02,136.68-193.52,12.25-17.34-14.07-33.87-28.17-20.97-47.89,43.78-95.91,87.41-143.63,131.38,9.36,6.97,18.72,13.94,28.09,20.91,35.9-60.2,72-120.28,107.52-180.7,7.63-12.98-8.4-30-21.5-20.89-42.42,29.5-83.39,60.44-122.23,94.53-10.2,8.95,3.62,26.58,14.63,18.48h0Z" style="fill:#f3973a; stroke-width:0px;"/><path d="M3451.72,1226.98c40.64-13.19,79.66-30.19,118.87-47.13-6.5-8.21-13.01-16.43-19.51-24.64-45.8,41.66-90.45,84.65-136.76,125.73-11.54,10.24,3.61,28.94,16.43,20.75,70.67-45.16,146.55-80.03,227.42-102.51-3.68-8.71-7.36-17.42-11.04-26.14-74.1,56.1-147.76,112.75-221.45,169.39-14.46,11.11,4.18,32.72,19.07,24.09,95.59-55.47,194.83-103.87,297.88-143.87-5.34-9.06-10.68-18.11-16.01-27.17-106.01,81.1-233.3,129.27-333.12,219.22-16.73,15.08,4.75,38.17,22.93,28.97,99.65-50.4,202.27-93.9,307.73-130.61-6.55-11.11-13.1-22.22-19.65-33.34-52.45,45.95-113.93,78-173.64,113.21-28.89,17.03-57.32,34.8-84.09,55.03-15.71,11.87-42.16,27.56-42.22,50.41-.16,62.91,97.69-2.01,117.29-11.76,73.88-36.73,147.9-73.19,221.85-109.78-8.28-10.47-16.57-20.93-24.85-31.4-46.36,36.81-92.83,73.48-139.26,110.21-22.92,18.13-89.67,54.71-86.32,90.95,3.22,34.9,40.75,24.11,61.55,15.11,54.7-23.66,109.23-47.72,163.89-71.45-9.55-9.28-19.1-18.56-28.64-27.84-10.71,15.33-22.31,29.69-35.73,42.74-10.54,10.25-25.61,18.26-35.15,28.9-3.93,4.39-7.7,8.23-9.2,14.32-1.82,7.38-4.86,20,1.54,7.72,9.58-2.57,19.15-5.13,28.73-7.7-.85-.58-1.7-1.16-2.55-1.74,2.5,9.34,5.01,18.69,7.51,28.03.39-.66.79-1.31,1.18-1.97,13.92-23.22-22.62-43.05-36.24-20.34-.39.66-.79,1.31-1.18,1.97-6.13,10.22-1.7,21.73,7.51,28.03.85.58,1.7,1.16,2.55,1.74,8.93,6.11,23.87,1.61,28.73-7.7,3.46-6.63,1.79-13.31,4.01-19.1-.92-7.21-.79-6.07.38,3.42,4.64-3.52,9.25-7.1,13.8-10.73,23.54-19.41,42.93-42.34,60.33-67.26,13.44-19.25-12.02-35.05-28.64-27.84-33.65,14.61-67.32,29.19-101,43.72-15.51,6.69-36.94,11.88-50.54,21.79-4.21,1.82-8.42,3.63-12.64,5.45,3.17,4.77,6.34,9.55,9.51,14.32,2.89.73,21.28-19.27,23.83-21.4,59.29-49.62,120.67-96.98,181.11-145.21,19.23-15.34-5.46-41.04-24.85-31.4-48.53,24.15-97.07,48.3-145.6,72.45-23.21,11.55-46.41,23.13-69.64,34.65-12.67,6.29-25.36,12.53-38.05,18.79-8.15,4.02-28.92,19.45-36.65,17.6,4.77,4.7,9.54,9.4,14.32,14.09-5.5-14.89,129.26-85.94,145.42-95.27,49.48-28.59,97.71-58.75,140.58-96.78,14.9-13.21-.78-40.03-19.65-33.34-108.54,38.51-214.09,84.46-316.41,137.31,7.64,9.66,15.29,19.31,22.93,28.97,98.53-90.32,225.78-139.37,329.86-222.37,12.69-10.12-1.06-33.15-16.01-27.17-105.36,42.14-207.29,91.5-305.26,148.81,6.36,8.03,12.71,16.06,19.07,24.09,72.41-56.05,144.83-112.07,216.82-168.66,11.77-9.25-1.07-27.67-14.05-23.84-83.07,24.5-161.03,59.99-233.65,107.26,5.48,6.92,10.95,13.84,16.43,20.75,46.05-41.56,93.81-81.25,140.36-122.24,14.95-13.16-4.29-31.22-19.51-24.64-37.9,16.37-75.68,32.63-111.89,52.5-11.92,6.54-3.99,26.09,9.21,21.81h0Z" style="fill:#f3973a; stroke-width:0px;"/><path d="M1999.58,2669.33c-12.16,4.59-25.14,10.28-30.98,21.25-8.35,15.68,2.55,35.52,18.7,44.42,16.15,8.9,35.8,9.72,54.55,10.31,231.16,7.24,272.75,50.57,501.79,20.55,14.11-1.85,219.86-40.28,231.01-48.57,126.32-93.99-284.34-127.72-333.62-124.59-144.19,9.16-307.63,26.15-441.44,76.63Z" style="fill:#344255; stroke-width:0px;"/><path d="M1990.46,2926.38c-11.98,8.69-24.53,18.73-27.6,31.24-4.38,17.89,13.72,32.89,34.25,35.62,20.53,2.73,42.42-3.48,63.25-9.59,256.85-75.35,315.99-48.91,559.06-158.96,14.98-6.78,229.81-116.54,239.54-128.4,110.27-134.38-352.46-20.38-405.79.13-156.01,60.01-330.83,134.32-462.72,229.97Z" style="fill:#344255; stroke-width:0px;"/><path d="M3113.41,2554.4c-11.98,8.69-24.53,18.73-27.6,31.24-4.38,17.89,13.72,32.89,34.25,35.62,20.53,2.73,42.42-3.48,63.25-9.59,256.85-75.35,315.99-48.91,559.06-158.96,14.98-6.78,229.81-116.54,239.54-128.4,110.27-134.38-352.46-20.38-405.79.13-156.01,60.01-330.83,134.32-462.72,229.97Z" style="fill:#344255; stroke-width:0px;"/><path d="M741.86,2322.07c-203.25,12.91-433.65,36.86-622.29,108.02-17.14,6.47-35.44,14.5-43.67,29.95-11.78,22.11,3.59,50.07,26.36,62.62,22.77,12.55,50.47,13.71,76.89,14.53,325.85,10.2,384.49,71.29,707.36,28.97,5.14-.67,28.4-4.81,60.23-10.75-12.28-29.36-23.2-59.26-32.17-89.89-4.68-15.98,5.69-36.9,22.86-40.26,38.39-7.51,76.92-14.67,115.81-19.01,9.43-1.05,21,6.18,25.17,14.44,13.8,27.32,23.72,59.6,17.86,90.06,9.23,2.88,18.33,6.1,27.3,9.65,46.78-9.99,83.29-18.76,88.59-22.7,178.07-132.5-400.82-180.04-470.3-175.63Z" style="fill:#344255; stroke-width:0px;"/><path d="M3215.46,2177.9c-8.98,3.39-18.58,7.6-22.89,15.7-6.17,11.59,1.88,26.24,13.82,32.82,11.94,6.58,26.45,7.18,40.3,7.62,170.8,5.35,201.53,37.36,370.76,15.18,10.43-1.37,162.45-29.76,170.69-35.89,93.34-69.45-210.09-94.37-246.51-92.06-106.54,6.76-227.3,19.32-326.17,56.62Z" style="fill:#344255; stroke-width:0px;"/><path d="M373.03,2944.55c-91.26-94.11-157.89-208.14-210.54-327.58-53.57-121.54-87.08-248.94-129.86-374.24-6.73-19.7-36.9-11.97-32.12,8.61,59.58,256.34,162.98,524.63,352.91,712.62,12.38,12.25,31.96-6.66,19.61-19.4h0Z" style="fill:#344255; stroke-width:0px;"/><path d="M1508.64,2779.65c-50.6-41.22-101.96-88.32-164.92-109.88-12.75-4.36-25.69,14.94-14.09,23.73,50.81,38.52,110.82,64.33,161.31,103.67,12.16,9.48,30.23-7.32,17.7-17.52h0Z" style="fill:#344255; stroke-width:0px;"/><path d="M1978.46,2201.99c-72.33-42.56-138.5-102.42-188.37-169.84-50.44-68.18-79.61-143.29-103.08-224.06-5.96-20.52-34.68-11.53-31.91,8.55,24.21,175.13,155.55,330.99,311.63,405.11,13.07,6.21,24.78-12.08,11.73-19.76h0Z" style="fill:#344255; stroke-width:0px;"/><path d="M2238.81,2464.63c41.51,23.72,89.26,48.54,135.59,61.09,16.14,4.37,25.17-17.43,11.35-26.3-40.3-25.86-90.96-44.33-136.42-59.17-14.54-4.75-23.78,16.81-10.52,24.39h0Z" style="fill:#344255; stroke-width:0px;"/><path d="M3628.1,2147.14c-62.75-45.24-134.35-83.75-207.74-108.67-16.89-5.74-29.37,21.28-12.56,29.12,69.98,32.66,139.24,64.93,207.72,100.73,14.19,7.42,25.38-11.96,12.58-21.19h0Z" style="fill:#344255; stroke-width:0px;"/><path d="M828.13,3371.42c342.67,309.63,776.71,520.53,1225.14,624.84,126.4,29.4,254.39,49.97,383.75,60.29,21.09,1.68,21.07-29.8.43-32.07-452.77-49.82-888.77-195.71-1273.74-440.7-110.41-70.26-216.45-147.32-318.36-229.41-11.66-9.39-28.98,6.42-17.23,17.05h0Z" style="fill:#344255; stroke-width:0px;"/><path d="M2004.22,3063.64c373.95,299.71,856.32,392.31,1324.61,408.45,131.55,4.54,263.87,4.29,395.22-4.89,20.2-1.41,21.35-31.79.43-31.41-461.13,8.24-933.87-3.21-1364.04-190.43-120.69-52.53-235.69-116.75-338.67-199.07-12.04-9.62-29.94,7.42-17.54,17.36h0Z" style="fill:#344255; stroke-width:0px;"/><path d="M2896.13,2569.35c58.49,67.01,116.27,128.01,201.11,160.52,92.7,35.51,195.5,50.51,292.76,68.3,202.53,37.04,408.2,62.88,614.02,70.72,20.89.8,21.05-30.13.43-31.74-198.04-15.49-395.12-36.64-590.86-71.05-90.49-15.91-183.1-30.88-271.39-56.64-94.2-27.49-162.5-87.47-229.48-156.51-10.35-10.67-26.36,5.23-16.59,16.42h0Z" style="fill:#344255; stroke-width:0px;"/><path d="M3988.74,2286.97c85.45,48.97,176.67,79.78,271.1,106.49,99.84,28.24,200.73,55.87,305.44,45.77,20.57-1.98,21.58-33.9.43-32.07-101.64,8.76-199.91-18.09-297.15-44.3-91.43-24.64-185.14-48.75-268.26-95.37-12.58-7.06-24.36,12.13-11.56,19.47h0Z" style="fill:#344255; stroke-width:0px;"/><path d="M657.48,3377.88c-17.21,10.38-35.34,22.22-40.91,35.54-7.97,19.05,14.82,32.54,42.29,33.02,27.47.48,57.81-8.45,86.7-17.17,356.21-107.44,433.23-86.78,774.75-228.62,21.04-8.74,324.32-147.07,338.84-160.47,164.57-151.92-474.68,19.09-549.2,46.44-217.99,80.02-463.06,177.03-652.47,291.25Z" style="fill:#344255; stroke-width:0px;"/><path d="M965.94,449.29c-216.89,12.11-372.53,200.9-463.77,379.7-49.26,96.52-93.15,199.94-111.85,307.21-15.09,86.54-6.63,160.18,38.89,235.66,84.34,139.81,253.54,323.71,434.99,256.17,97.08-36.13,164.24-118.11,226.74-196.69,66-82.97,135.86-166.74,179.7-264.14,48.35-107.44,33.06-214.95-50.19-300.96-97.93-101.16-247.1-127.93-382.21-130.39-28.07-.51-28.66,41.5-.58,42.84,113.46,5.41,236.34,20.32,326.79,96,79.79,66.77,111.72,159.81,73.23,257.79-35.13,89.45-98.35,168.02-157.54,242.55-54.25,68.31-107.69,142.41-183.19,188.88-78.81,48.5-161.56,43.85-236.63-7.17-69.15-47-129.5-112.29-176.22-181.27-44.13-65.17-64.02-125.42-54.61-204.58,11.31-95.1,47.86-188.36,88.29-274.47,42.95-91.49,92.58-182.22,162.9-255.72,81.2-84.88,176.27-135.62,288.14-168.32,12.48-3.65,11.12-23.87-2.88-23.08h0Z" style="fill:#f2f5f9; stroke-width:0px;"/><path d="M771.08,1016.23c-8.48,15.26-11.49,33.28-17.84,49.52-8.95,22.88,32.61,33.62,36.94,9.69,3.1-17.11,10.04-34.04,10.78-51.43.68-15.97-22.4-21.24-29.89-7.78h0Z" style="fill:#f2f5f9; stroke-width:0px;"/><path d="M936.22,1070.99c-.13,1.87-.34,3.73-.63,5.58.82-2.89,1.64-5.78,2.46-8.67-5.75,12.2-11.08,23.37-21.57,32.17-9.01,7.56-8.02,22.85-.02,30.6,8.59,8.32,22.8,7.92,31.26-.35,8.06-7.88,14.44-17.02,18.94-27.35,4.68-10.75,4.45-20.58,5.47-31.94.86-9.6-8.72-17.59-17.71-17.59-10.18,0-17.32,7.9-18.19,17.56h0Z" style="fill:#f2f5f9; stroke-width:0px;"/><path d="M774.73,696.85c58.13-39.89,125.9-69.84,196.32-77.91,38.87-4.46,184.7-8.6,184.11,51.44-.31,31.04,43.8,28.84,47.57.05,11.85-90.51-135.22-96.12-192.42-91.07-91.9,8.11-178.57,40.74-243.98,106.89-5.39,5.45,1.8,15.14,8.4,10.61h0Z" style="fill:#f2f5f9; stroke-width:0px;"/><path d="M490.57,898.95c8.38-71.76-88.83-81.71-126.98-37.64-18.96,21.9-27.16,53.69-20.24,81.98,9.93,40.59,54.41,51.6,69,87.43,8.44,20.72,43.25,11.62,34.73-9.31-14.35-35.23-60.67-51.56-69-87.43-13.76-59.22,76.57-96.7,91.97-32.33,2.88,12.02,19.27,8.07,20.53-2.69h0Z" style="fill:#f2f5f9; stroke-width:0px;"/><path d="M1249.98,1196.55c14.81-19.79,49.83-4.56,57.35,12.31,10.7,23.98-4.63,53.43-22.71,69.53-33.49,29.81-83.74,31.2-122.4,11.83-19.75-9.9-35.42,16.64-17.46,29.4,66.78,47.4,176.09,17.5,200.37-63.91,10.5-35.2.7-76.18-34.79-92.29-29.32-13.32-58.66-2.45-72.57,26.3-4.03,8.32,6.91,13.91,12.2,6.84h0Z" style="fill:#f2f5f9; stroke-width:0px;"/><path d="M609.05,1559.4c-57.92,15.47-77.23,74.55-85.53,128.28-14.14,91.51-21.18,188.14-22.25,280.7-.29,25.32,35.25,23.21,38.59.04,11.04-76.58,15.08-154.92,19.45-232.13,3.11-54.93,4.83-123.84,59.46-153.86,12.84-7.06,4.21-26.75-9.73-23.03h0Z" style="fill:#f2f5f9; stroke-width:0px;"/><path d="M445.51,2013.93c59.85,31.43,126.5,48.82,192.89,62.28,65.74,13.33,137.97,27.53,205.23,25.74,25.06-.66,33.94-40.17,6.64-45.13-67.79-12.33-137.55-15.97-205.75-27.17-64.96-10.67-129.29-25.34-194.58-31.32-8.44-.77-11.72,11.77-4.42,15.6h0Z" style="fill:#f2f5f9; stroke-width:0px;"/><path d="M886.92,1627.58c-6.32-.44,10.92,102.13,11.63,110.46,3.27,38.38,2.91,77.55-.56,115.91-3.49,38.61-10.6,76.73-21.7,113.88-10.66,35.69-33.81,71.13-35.93,108.29-1.01,17.65,20.64,22.31,31.97,12.84,36.7-30.66,50.91-99.69,60.69-144.18,12.24-55.66,17.33-113.4,11.44-170.2-2.71-26.12-6.88-52.07-12.9-77.64-4.93-20.93-9.6-51.52-24.29-68.39-9.46-10.87-36.31-15.47-29.33,5.93.73,2.23,2.95,4.35,5.49,4.14,1.11-.09,2.22-.18,3.33-.28,6.96-.58,7.29-10.27.15-10.76h0Z" style="fill:#f2f5f9; stroke-width:0px;"/><path d="M2369.8,19.44c-114.57-57.6-243.74,23.3-323.12,105.57-87.42,90.6-128.77,212.91-164.02,331.01-63.75,213.53-164.84,474.65-50.38,689.37,58.09,108.97,171.91,173.99,286.78,208.6,109.53,33,231.21,38.2,340.93,3.16,119.74-38.25,202.21-121.03,260.04-230.61,66.4-125.82,103.07-264.99,86.58-407.68-8.72-75.46-31.91-148.59-59.72-219.05-22.82-57.83-51.8-116.27-101.01-156.24-106.24-86.29-280.06-69.43-386.41,6.21-20.86,14.84-2.55,47.05,20.24,33.98,96.54-55.41,243.88-82.73,337.6-5.19,39.59,32.76,64.13,81.35,82.73,128.31,20.63,52.1,38.98,106.47,50.45,161.34,27.04,129.39,7.24,262.38-47.13,382.15-47.52,104.68-105.91,199.63-213.85,249.28-92.37,42.49-200.86,47.14-299.57,27.83-109.35-21.39-226.75-71.45-295.1-163.13-125.25-168-60.81-409.39-2.89-590.23,38.38-119.82,65.07-248.64,131.91-356.84,64.82-104.93,205.25-223.04,336.57-176.08,12.66,4.53,21.68-15.59,9.39-21.77h0Z" style="fill:#f2f5f9; stroke-width:0px;"/><path d="M2099.74,1337.84c-4.82,79.69-3.05,159.68-6.97,239.44-3.88,78.99-18.03,159.9-16.3,238.78.43,19.49,30.8,24.58,35.23,4.55,16.76-75.76,15.26-158.92,18-236.26,2.91-81.91,6.73-164.73-.58-246.48-1.65-18.4-28.26-18.73-29.39-.03h0Z" style="fill:#f2f5f9; stroke-width:0px;"/><path d="M2113.69,1846.66c67.54,18.44,135.71,28.29,204.96,37.54,60.76,8.12,131.4,23.58,192,14.55,20.74-3.09,18.33-33.29.34-38.37-28.61-8.09-59.4-6.65-88.98-8.39-34.89-2.05-69.72-4.98-104.61-7.13-67.37-4.15-134.07-11.13-201.65-12.24-8.19-.13-10.07,11.85-2.06,14.04h0Z" style="fill:#f2f5f9; stroke-width:0px;"/><path d="M2515.06,1770.95c17.27-74.91,8.07-157.36,8.48-233.9.43-80.65,11.87-166.34,2.23-246.33-2.2-18.29-30.42-25.74-35.23-4.55-17.59,77.49-11.59,164.71-10.79,243.8.79,78.17-3.78,166.48,22.32,241.03,2.03,5.81,11.42,6.76,12.99-.04h0Z" style="fill:#f2f5f9; stroke-width:0px;"/><path d="M2145.82,307.67c106.31-87.58,227.87-165.47,371.16-148.1,26.44,3.21,33.75-41.89,6.8-46.21-157.64-25.32-277.91,90.95-388.1,184.48-7.1,6.03,3.2,15.55,10.15,9.83h0Z" style="fill:#f2f5f9; stroke-width:0px;"/><path d="M2803.28,865.51c43.08-20.92,85.92,35.83,56.96,72.7-23.57,30.02-70.56,33.83-105.55,30.19-19.58-2.03-24.47,29.77-4.99,33.91,58.54,12.41,142.35-6.39,156.87-74.21,13.51-63.13-59.36-125.94-116.11-84.11-13.17,9.71-2.1,28.76,12.82,21.52h0Z" style="fill:#f2f5f9; stroke-width:0px;"/><path d="M1826.93,790.05c-20.35-44.43-83.55-48.75-113.25-11.29-41.5,52.34,5.51,123.11,49.48,155.7,16.93,12.55,34.21-13.48,21.77-27.84-21.63-24.96-56.15-57.63-47.33-94.57,7.46-31.28,49.99-33.44,67.19-9.18,9.37,13.21,28.9,1.94,22.14-12.81h0Z" style="fill:#f2f5f9; stroke-width:0px;"/><path d="M4120.25,165.28c-109.72-34.44-230.83-33.52-341.31-2.62-93.35,26.11-166.76,76.68-225.49,153.6-65.65,85.99-119.39,183.87-162.44,282.84-41.33,95.02-98.16,200.79-63.5,305.83,29.28,88.75,83.97,184.32,150.11,250.88,68.92,69.36,163.53,93.22,259.45,83.7,99.16-9.85,194.52-56.13,257-134.71,58.27-73.28,85.73-165.04,113.45-252.95,34.19-108.41,71.61-233.4,8.88-339.15-54.16-91.3-160-133.6-258.64-156.59-19.92-4.64-28.89,24.98-8.72,30.56,79.02,21.85,164.59,53.09,218.34,118.42,68.19,82.88,49,192.46,21.21,287.09-23.79,80.99-47.33,166.24-88.69,240.29-45.55,81.56-118.29,138.48-209.01,162.23-89.81,23.51-196.28,15.88-269.13-46.22-64.79-55.23-108.86-137.01-143.81-213.44-20.2-44.17-33.28-89.85-23.45-138.43,10.17-50.3,34.32-100.49,53.74-147.87,37.34-91.09,83.7-176.79,137.12-259.41,54.79-84.73,120.1-153.54,218.19-185.58,114.2-37.31,232.19-35.43,348.51-9.72,18.83,4.16,26.96-22.86,8.2-28.75h0Z" style="fill:#f2f5f9; stroke-width:0px;"/><path d="M3863.49,304.43c55.83-4.33,109.23-6.59,164.42,6.02,26.59,6.08,52.69,14.39,77.68,25.35,23.8,10.44,67.51,25.78,72.01,54.64,2.84,18.2,35.16,14.03,33.02-4.33-7.02-60.44-87.18-85.45-137.1-100.76-67.28-20.63-145.1-27.63-213.37-7.81-14.46,4.2-12.96,28.16,3.35,26.89h0Z" style="fill:#f2f5f9; stroke-width:0px;"/><path d="M4095.08,801.39c36.51-8.17,78.92,14.29,92.53,49.12,6.94,17.75,7.5,43.7-9.2,56.46-16.67,12.74-37.43,3.66-46.97-12.77-8.42-14.5-34.65-4.83-28.68,11.9,10.06,28.21,39.07,42.92,68.35,38.79,32.81-4.63,53.09-34.23,55.01-65.95,4.38-72.24-71.93-123.73-138.11-103.94-17.25,5.16-10.46,30.32,7.07,26.4h0Z" style="fill:#f2f5f9; stroke-width:0px;"/><path d="M3471.52,526.1c-22.74-52.34-99.46-71.57-143.68-34.34-24.15,20.34-37.56,56.51-29.57,87.52,7.77,30.19,37.01,50.61,67.67,41.65,20.54-6.01,12.35-35.39-8.36-31.21-33.24,6.71-29.92-38.5-21.5-55.52,7.6-15.37,19.76-25.51,36.69-28.59,29.39-5.35,58.42,10.54,74.29,34.65,9.99,15.18,31.49,2,24.47-14.16h0Z" style="fill:#f2f5f9; stroke-width:0px;"/><path d="M3466.78,1124.13c-33.45,47.84-48.57,118.32-63.62,174.29-16.12,59.95-29.88,121.58-34.78,183.56-1.39,17.65,27.85,21.3,31.22,4.03,11.67-59.87,21.38-119.76,37.17-178.77,7.85-29.33,16.59-58.42,26.25-87.21,9.49-28.29,23.64-56.49,28.61-85.87,2.57-15.2-15.93-22.77-24.84-10.02h0Z" style="fill:#f2f5f9; stroke-width:0px;"/><path d="M3357.61,1532.2c63.85,19.94,127.84,39.44,190.46,63.09,19.55,7.38,38.99,15.04,58.29,23.07,11.36,4.72,25.52,13.81,38.12,15.22,15.95,1.8,26.95-3.75,34.78-17.6,14.5-25.64,18.4-63.34,26.23-91.7,9.36-33.93,18.7-67.86,28.04-101.8,19.29-70.12,39.19-140.12,57.2-210.58,5.33-20.85-25.07-27.9-32.04-8.4-4.08,11.43-8.44,22.69-12.88,33.98-6.35,16.16,21.36,27.11,28.25,11.4,4.87-11.12,9.78-22.16,15-33.12-10.12-4.09-20.25-8.17-30.37-12.26-34.53,117-65.53,235.11-97.83,352.74-1.27,4.61-7.43,38.21-11.18,40.73-6.62,4.45-30.63-9.98-38.27-13.1-26.19-10.67-52.59-20.77-79.23-30.23-54.71-19.42-110.07-36.3-166.88-48.32-17.6-3.72-25.26,21.39-7.67,26.88h0Z" style="fill:#f2f5f9; stroke-width:0px;"/><path d="M3608.96,1626.43c88.42-12.62,175.9-54.36,250.34-102.38,18.3-11.8,49.93-42.36,73.66-37.41,22.07,4.61,35.15,31.9,44.68,49.89,24.18,45.67,48.48,92.14,69.59,139.31,5.25,11.74,24.36,10.17,29.86-.29,12.88-24.51,25.8-49.09,37.53-74.18,9.12-19.52-18.8-35.54-29.36-16.47-13.41,24.22-25.71,49.11-37.98,73.92,9.95-.1,19.91-.19,29.86-.29-29.48-52.04-50.19-110.62-83.53-160.33-19.91-29.69-48.31-52.02-85.63-40.89-22.3,6.65-40.64,23.16-59.78,35.79-24.41,16.1-49.77,30.8-75.86,44.01-54.71,27.72-112.14,45.03-170.12,64.1-16.66,5.48-9.94,27.59,6.75,25.21h0Z" style="fill:#f2f5f9; stroke-width:0px;"/><path d="M3411.99,1526.42c-43.76,46.35-83.4,96.8-124.14,145.8,8.78,1.02,17.56,2.05,26.34,3.07-21.94-41.14-43.88-82.28-65.82-123.43-18.2-34.13-33.8-79.58-59.24-108.68-39.97-45.71-100.06,36.54-118,68.41-10.6,18.83,18.55,34.71,28.97,16.25,10.14-17.95,29.02-49.98,50.18-57.96,18.45-6.96,20.85,9,29.32,24.86,6.59,12.34,13.18,24.68,19.78,37.01,28.6,53.44,57.2,106.88,85.81,160.32,4.74,8.86,19.69,11.1,26.34,3.07,41.52-50.08,84.65-99.35,122.96-151.97,9.66-13.27-11.69-28.21-22.5-16.75h0Z" style="fill:#f2f5f9; stroke-width:0px;"/><path d="M3449.37,1150.74c-75.23-53.41-119.88-133.76-188.89-193.15-20.85-17.94-50.63-31.3-67.18-.67-19.82,36.69-10.58,100.79-6.06,139.85,2.49,21.52,14.68,53.54,9.48,73.77-4.63,18-21.79,31.8-27.13,50.82-8.09,28.85-1.59,61.49,23.03,80.21,50.98,38.78,115.06-29.27,70.27-75.11-11.79-12.07-35.55,4.49-24.74,18.89,20.01,26.64-18.63,47.35-34.16,20.38-8.81-15.3-4.05-36.78,3.74-51.19,9.39-17.36,23.07-28.38,23.53-49.3.63-28.9-10.78-59.68-13.09-88.6-1.06-13.19-9.17-91.3,2.38-99.17,21.89-14.9,97.32,91.25,109.78,105.88,30.13,35.38,62.58,70.57,105.37,90.41,15.58,7.22,27.87-12.94,13.67-23.02h0Z" style="fill:#f2f5f9; stroke-width:0px;"/><path d="M2521.53,1297.16c81.94,90.58,191.99,164.8,300.54,219.73,45.59,23.07,81.01,21.55,102.32-29.64,23.47-56.36,36.81-117.2,41.69-177.95,2.74-34.04,2.61-68.35-.58-102.36-2.71-28.98-16.06-62.89,8.43-83.95,30.77-26.46,53.71-53.01,45.4-97.72-15.39-82.83-136.91-73.86-141.03,9.44-1.15,23.24,32.95,21.69,35.79.04,6.33-48.32,72.3-36.31,68.78,11.89-2.89,39.72-37.59,39.48-55.82,66.83-19.32,29-.62,74.66,1.53,106.2,3.23,47.33.84,95.16-7.47,141.87-3.73,20.95-8.62,41.67-14.63,62.09-2.99,10.17-6.22,20.28-9.78,30.27-6.67,18.71-6.32,27.46-27.88,32.36-35.85,8.15-87.29-33.93-117.9-53.07-74.48-46.56-138.95-103-205.79-159.39-15.96-13.46-38.06,7.41-23.62,23.37h0Z" style="fill:#f2f5f9; stroke-width:0px;"/><path d="M2427.92,1870c50.3-24.59,96.49-59.37,143.33-89.91,47.27-30.82,94.51-61.71,141.73-92.61,11.26-7.37,23.11-18.19,35.42-23.18,14.9-6.03,13.48-7.77,25.42,6.9,16.22,19.93,24.74,55.7,34.28,79.47,20.38,50.75,40.13,102.32,53.71,155.33,4.28,16.69,23.23,17.85,34.86,8.85,36.54-28.26,59.92-72.59,57.8-119.33-1.17-25.91-36.79-24.48-39.94-.04-4.82,37.45-17.3,66.93-47.29,90.88,11.62,2.95,23.24,5.9,34.86,8.85-23.24-61.49-43.64-123.8-69.11-184.48-14.65-34.89-33-104.07-84.71-88.39-27.71,8.4-54.12,32.64-78.1,48.35-29.5,19.34-59,38.67-88.47,58.06-57.58,37.88-120.06,72.71-172.61,117.45-14.24,12.12,4.06,31.01,18.83,23.79h0Z" style="fill:#f2f5f9; stroke-width:0px;"/><path d="M2144.25,1812.1c-18.72,28.94-28.01,64.51-39.54,96.83-12.87,36.11-25.5,72.3-38.25,108.46,9.74-3.97,19.48-7.94,29.23-11.91-106.79-75.19-185.67-184.08-228.71-306.99-6.78-19.36-30.84-17.46-38.23.13-16.27,38.72-33.57,77.11-48.65,116.31-7.76,20.18,26.16,33.52,35.13,14.18,18.36-39.62,34.52-80.31,51.66-120.48-12.74.04-25.49.09-38.23.13,46.12,134.07,130.32,249.42,246.91,330.59,10.92,7.6,25.5-.92,29.23-11.91,12.29-36.27,24.71-72.5,36.88-108.81,10.88-32.47,25-65.63,28.07-99.89,1.29-14.4-18.82-16.96-25.5-6.64h0Z" style="fill:#f2f5f9; stroke-width:0px;"/><path d="M742.63,2071c38.86,114.46,83.88,226.6,134.78,336.23,9.47,20.4,40.62,2.59,31.07-17.98-49.59-106.81-93.27-216.05-131.12-327.56-7.25-21.34-42.02-12.17-34.73,9.3h0Z" style="fill:#f2f5f9; stroke-width:0px;"/><path d="M566.73,2012.57c-34.96,63.52-54.42,136.38-69.48,206.91,10.63-2.85,21.26-5.7,31.89-8.55-44.25-34.69-83.89-73.99-117.85-118.86-8.65-11.43-25.78-13.06-33.92.33-12.55,20.63-25.75,41-36.88,62.44-11.27,21.69,18.94,37.47,32.43,18.2,13.86-19.81,25.82-40.94,38.33-61.63-11.31.11-22.61.22-33.92.33,36.28,47.66,77.15,89.57,124.8,125.94,10.13,7.73,28.84,6.79,31.89-8.55,14.1-70.82,38.64-136.87,60.16-205.48,5.09-16.24-19.41-25.68-27.45-11.08h0Z" style="fill:#f2f5f9; stroke-width:0px;"/><path d="M599.09,1578.41c-47.75-37.97-100.25-70.41-151.02-104.15-31.4-20.86-76.9-60.63-114.59-29.3-31.81,26.44-34.22,86.34-38.53,124.17-6.81,59.82-2.11,119.82,10.89,178.47,7.76-7.56,15.52-15.12,23.28-22.68-55.63-7.72-90.06,64.98-39.16,97.37,57.69,36.72,113.54-21.54,115.77-78.4.71-18.17-29.56-22.49-32.48-4.2-2.92,18.32-6.9,39-23.29,50.29-8.83,6.08-19.41,10.26-30.21,6.12-9.8.19-13.25-5.38-10.36-16.72-6.77-12.25-3.58-18.54,9.57-18.86,13.87,1.98,26.53-7.73,23.28-22.68-9.21-42.36-13.65-85.11-12.14-128.48.8-23.02,3.07-45.96,7.08-68.65,2.24-12.66,3.97-44.92,12.96-54.29,10.55-10.99,32.84-7.64,44.33-3,7.98,3.22,15.95,10.32,23.19,15,17.39,11.25,34.77,22.53,52.2,33.71,36.73,23.55,73.12,48.22,111.67,68.72,13.46,7.16,30.92-11.82,17.55-22.45h0Z" style="fill:#f2f5f9; stroke-width:0px;"/><path d="M890.5,1600.27c-7.19,126.89,130.76,212.51,225.15,267.85,8.28,4.85,20.75,1.85,25.36-6.79,28.35-53.24,44.86-111.61,45.03-172.18.04-13.53-6.39-35.15-3.05-47.81,4.73-17.89,17.02-27.55,31.6-35.26,17.62-9.31,30.81-24.18,38.87-42.3,38.02-85.54-64.96-152.93-134.18-98.23-13.65,10.78,4.15,32.3,18.43,23.28,37.2-23.53,95.93-1.42,85.85,48.78-8.28,41.22-53.45,35.72-71.4,67.5-16.12,28.54-2.55,70.91-4.26,102.23-2.61,47.99-16.49,93.7-38.88,136.04,8.45-2.26,16.9-4.53,25.36-6.79-99.71-58.07-190.55-121.77-217.61-239.76-3.42-14.91-25.46-10.82-26.26,3.45h0Z" style="fill:#f2f5f9; stroke-width:0px;"/><path d="M2348.02,654.87c-14.76,29.9-29.66,81.76-8.96,112.24,8.14,11.98,29.59,11.32,33.23-4.51,3.49-15.17-.56-30.64-.01-46.2.58-16.27,3.16-33.06,7.28-48.8,4.81-18.36-22.82-30.41-31.54-12.73h0Z" style="fill:#f2f5f9; stroke-width:0px;"/><path d="M2559.37,651.46c-2.89,35.02-6.61,77.52,1.5,111.87,4.34,18.39,34.26,18.75,38.22-.13,7.28-34.7,2.8-76.65-.9-111.7-2.57-24.26-36.78-24.76-38.82-.04h0Z" style="fill:#f2f5f9; stroke-width:0px;"/><path d="M2514.7,963.71c-113.01,34.49-223.29.75-318.54-63.51-35.49-23.94-63.05-55.09-96.85-80.57-19.35-14.59-42.89-24.14-65.06-9.49-32.29,21.34-40.01,76.1-46.35,110.58-8.96,48.74-11.97,99.85-4.67,149.02,11.05,74.45,55.01,153.13,127.91,181.86,92.44,36.43,199.27-33.41,252.88-106.29,10.41-14.16-10.54-34-24.41-23.72-40.92,30.36-72.74,70.63-120.68,91.56-51.97,22.68-106.04,9.53-144.01-31.71-73.17-79.49-69.52-210.95-35.94-307.1,11.46-32.82,19.07-39.68,45.07-17.21,13.34,11.53,25.31,24.58,38.82,35.94,36.45,30.65,78.05,57.55,121.2,77.65,88.36,41.17,188.98,55.42,280.6,16.62,13.81-5.85,4.04-27.91-9.98-23.63h0Z" style="fill:#f2f5f9; stroke-width:0px;"/><path d="M739.91,2437.86c14.84,93.49,21.86,185.72,25.65,280.17.91,22.76,34.94,22.64,35.9.04,4.06-95.82-8.84-195.21-33.44-287.74-4.8-18.06-30.92-10.21-28.11,7.53h0Z" style="fill:#f2f5f9; stroke-width:0px;"/><path d="M761,2773.9c180.4-39.48,358.84-90.02,537.36-137.2,178.72-47.23,357.27-95.08,535.82-142.97,22.84-6.13,13.59-40.77-9.31-34.73-178.75,47.13-357.49,94.28-536.06,142.07-178.36,47.73-358.33,92.5-534.51,147.84-16.25,5.1-9.95,28.63,6.7,24.99h0Z" style="fill:#f2f5f9; stroke-width:0px;"/><path d="M741.11,2471.06c186.3-29.31,372-61.48,557.09-97.7,90.14-17.64,180.17-35.84,270.03-54.9,93.8-19.89,190.72-35.77,282.54-63.49,22.35-6.75,13.16-36.95-8.99-33.57-92.7,14.15-184.69,39.53-276.44,58.99-92.14,19.54-184.35,38.73-276.69,57.3-184.55,37.12-369.36,73.23-554.46,107.53-17.46,3.24-10.17,28.53,6.92,25.84h0Z" style="fill:#f2f5f9; stroke-width:0px;"/><path d="M1842.52,2228.35c-4.31,68.85-16.48,137.03-22.88,205.64-1.94,20.84,31.45,24.28,36.34,4.69,17.19-68.89,16.91-140.1,12.35-210.3-1.06-16.31-24.78-16.31-25.8-.03h0Z" style="fill:#f2f5f9; stroke-width:0px;"/><path d="M791.53,2753.1c-18.34,43.27-18.14,94.44-20,140.77-1.99,49.52-3.37,99.09-4.41,148.65-2.14,101.73-3.17,203.46-2.87,305.22,11.82-4.84,23.65-9.68,35.47-14.53-66.08-72.05-138.34-145.06-220.46-198.9-17.44-11.43-39.18,15.19-22.99,29.41,73.73,64.77,148.09,125.35,214.05,198.58,11.92,13.24,35.39,2.38,35.47-14.53.48-99.38,1.37-198.76,3.13-298.12.84-47.31,1.57-94.63,2.64-141.93,1.13-50.17,8.11-101.13,6.94-151.14-.38-16.43-21.3-16.88-26.98-3.49h0Z" style="fill:#f2f5f9; stroke-width:0px;"/><path d="M1822.13,2473.21c-12.43,194.16-14.12,389.03-18.34,583.53,10.07-5.68,20.13-11.36,30.2-17.05-50.16-32.34-98.58-67.05-145.42-104.05-42.35-33.44-81.12-72.66-125.03-103.85-17.78-12.63-34.35,13.63-22.18,28.36,36.77,44.52,87.85,81.58,133.49,116.58,44.85,34.39,91.36,66.51,138.87,97.09,12.72,8.19,29.9-2.76,30.2-17.05,4.05-194.43,10.66-389.11,6.49-583.54-.39-18.05-27.14-17.69-28.27-.03h0Z" style="fill:#f2f5f9; stroke-width:0px;"/><path d="M1794.33,3018.23c-171.34,62.24-341.91,124.64-518.08,172.21-161.98,43.74-338.2,63.71-488.55,141.98-21.42,11.15-2.56,41,18.55,31.15,157.74-73.59,332.82-96.26,499.69-141.52,170.2-46.16,339.97-101.74,499.59-177.28,15.01-7.11,4.51-32.25-11.21-26.54h0Z" style="fill:#f2f5f9; stroke-width:0px;"/><path d="M2159.71,2180.03c-6.28,35.98-6.72,72.85-9.45,109.22-2.98,39.61-10.4,79.83-9.06,119.53.56,16.63,24.07,19.57,29.07,3.76,11.7-37.06,13.52-77.59,15.98-116.2,2.46-38.68,4.6-78.01-1.63-116.4-1.99-12.27-22.8-11.96-24.9.08h0Z" style="fill:#f2f5f9; stroke-width:0px;"/><path d="M2151.73,2428.03c119.96-30.76,237.31-71.2,357.44-101.82,120.22-30.64,241.65-54.98,363.66-77.27,8.21-1.5,14.16-10.22,14.39-18.16,2.1-73.18,6.1-146.3,7.99-219.49.56-21.88-32.8-21.33-34.22-.03-4.87,73.11-7.64,146.36-12.3,219.48,4.8-6.05,9.59-12.11,14.39-18.16-124.9,18.46-248.68,45.33-370.82,77.17-117.93,30.74-239.29,64.25-350.43,114.85-13.79,6.28-3.96,26.99,9.9,23.43h0Z" style="fill:#f2f5f9; stroke-width:0px;"/><path d="M2176.32,2204.58c129.53-40.69,265.5-55.37,399.28-75.13,64.81-9.57,129.7-19.92,193.29-35.89,31.01-7.78,72.46-13.78,100.15-30.16,13.08-7.74,17.94-15.15,15.77-30.56-1.73-12.28-16.59-13.83-25.36-10.05-.63.27-1.26.54-1.9.82-15.39,6.63-7.65,31.63,8.24,30.74.69-.04,1.39-.08,2.08-.12-5.47-7.09-10.93-14.18-16.4-21.27-1.23,5.55-70.18,19.83-79.37,22.15-29.59,7.46-59.47,13.88-89.43,19.65-55.91,10.76-112.27,18.81-168.58,27.15-117.3,17.37-232.91,36.12-344.58,77.35-15.88,5.86-9.9,30.55,6.78,25.31h0Z" style="fill:#f2f5f9; stroke-width:0px;"/><path d="M2141.66,2392.25c-16.19,65.93-19.37,135.72-26.13,203.13-7.16,71.4-13.88,142.84-20.56,214.28-3.11,33.33-6.09,66.67-9.21,100-2.23,23.85-6.86,12.06-24.31,2.16-16.29-9.25-32.14-19.42-48.17-29.12-59.98-36.26-118.95-76.07-181.26-108.13-19.79-10.18-35.64,16.81-17.57,29.59,68.6,48.51,143.93,89.11,215.69,132.82,19.39,11.81,44.48,31.66,68.99,23.16,22.18-7.69,23.13-30.7,25.15-50.45,8.54-83.27,16.23-166.64,23.97-249.99,8.05-86.79,22.54-177.06,17.95-264.28-.71-13.47-21.1-17.22-24.55-3.17h0Z" style="fill:#f2f5f9; stroke-width:0px;"/><path d="M2116.61,2958.78c217.21-36.17,431.99-115.67,635.28-198.42,12.02-4.89,21.8-21.71,8.93-32.27-75.83-62.21-155.5-128.79-241.32-176.79-17.02-9.52-39.18,15.31-22.25,28.45,77.53,60.14,159.83,113.27,235.79,175.83,2.98-10.76,5.95-21.52,8.93-32.27-102.92,41.92-207.24,80-312.93,114.34-105.72,34.36-213.48,61.58-319.38,95.19-17.08,5.42-10.27,28.81,6.95,25.94h0Z" style="fill:#f2f5f9; stroke-width:0px;"/><path d="M2855.18,2219.85c-18.99,84.13-25.14,171.01-42.45,255.65-17.4,85.12-40.61,168.25-66.2,251.21-6.93,22.46,27.7,30.68,35.11,9.21,28.96-83.89,51.26-170.64,68.45-257.68,16.33-82.67,34.16-170.66,29.64-255.22-.71-13.37-21.36-17.35-24.55-3.17h0Z" style="fill:#f2f5f9; stroke-width:0px;"/><path d="M3279.39,1871.18c10.61,66.75,14.16,126.99-2.99,193.2-3.08,11.91,8.76,26.62,21.77,21.43,73.95-29.52,152.48-41.4,230.35-55.8,80.99-14.98,156.25-39.04,232.59-69.61,35.39-14.17,70.85-28.38,107.51-39.01,18.15-5.26,36.58-9.78,55.24-12.8,14.12-2.29,34.79-1.78,47.83-9.3,21.87-12.6,20.21-39.75,20.66-61.7.84-41.31-3.95-82.38-12.67-122.72-2.06-9.54-12.75-14.07-21.53-12.08-107.1,24.3-211.86,56.51-317.68,85.64-109.32,30.09-216.93,47.47-329.3,60.71-19.43,2.29-21.22,29.92-.42,30.76,108.94,4.38,221.75-26.34,325.93-54.8,109.99-30.05,218.63-65.85,330.39-89-7.18-4.03-14.35-8.05-21.53-12.08,7.46,37.52,11.3,75.27,10.08,113.54-.74,23.25-.44,28.88-23.75,33.28-14.05,2.65-28.24,4.17-42.24,7.29-68.49,15.24-132.19,45.61-197.43,70.51-130.62,49.86-272.96,52.67-403.12,103.37,7.26,7.14,14.51,14.28,21.77,21.43,19.73-67.22,23.38-143.88-3.18-209.83-6.88-17.08-31.26-10.87-28.32,7.59h0Z" style="fill:#f2f5f9; stroke-width:0px;"/><path d="M3256.42,2055.23c-17.75,81.85-23.69,166.25-34.44,249.24-11.62,89.69-24.38,179.21-38.48,268.55,8.85-3.61,17.71-7.21,26.56-10.82-64.14-45.8-121.02-98.2-179.36-150.85-15.69-14.16-38.11,7.56-23.74,23.49,54.13,60.01,119.38,111.11,184.82,158.15,8.67,6.23,24.84-.13,26.56-10.82,13.74-85.36,26.53-170.88,37.78-256.6,11.58-88.2,26.43-177.95,25.51-267.06-.14-14-22.12-17.53-25.21-3.26h0Z" style="fill:#f2f5f9; stroke-width:0px;"/><path d="M3189.34,2600.72c111.56-40.03,219.08-89.96,329.17-133.7,109.16-43.37,220.87-80.07,334.18-110.97,22.46-6.13,13.38-40.17-9.17-34.2-228.88,60.53-452.57,149.35-663.78,256.15-12.65,6.4-3.95,27.59,9.6,22.73h0Z" style="fill:#f2f5f9; stroke-width:0px;"/><path d="M3926.95,1882.45c-40.19,150.54-54.03,311.7-69.82,466.3,7.58-5.64,15.15-11.28,22.73-16.91-97.26-32.43-186.74-79.02-275.97-128.84-17.87-9.97-32.83,15.63-16.15,27.2,86.12,59.77,183.68,101.6,282.46,135.5,11.68,4.01,21.56-6.36,22.73-16.91,17.15-154.37,47.17-308.32,59.46-463.05,1.17-14.67-21.8-16.9-25.43-3.29h0Z" style="fill:#f2f5f9; stroke-width:0px;"/><path d="M896.81,2438.74c-3.78,44.6,8.17,93.54,14.29,137.74,6.74,48.71,12.47,98.19,22.81,146.29,3.73,17.36,33.08,13.76,31.89-4.19-3.04-46.04-10.55-92.06-16.81-137.74-6.48-47.26-8.3-100.89-25.26-145.63-5.36-14.16-25.61-12-26.93,3.53h0Z" style="fill:#f2f5f9; stroke-width:0px;"/><path d="M1104.41,2394.91c-13.56,40.75-3.77,92.64.48,134.6,4.55,44.89,9.56,91.2,21.69,134.73,4.74,17.02,34.35,14.44,32.55-4.27-4.4-45.91-13.01-91.36-17.48-137.32-3.97-40.82.5-89.35-13.97-127.82-4.11-10.93-19.41-11.55-23.28.08h0Z" style="fill:#f2f5f9; stroke-width:0px;"/><path d="M1293.43,2361.76c-3.02,39,1.6,79.1,5.54,117.93,3.63,35.84,6.3,73.29,16.76,107.85,5.21,17.2,32.18,14.28,32.33-4.24.32-39.07-6.99-78.56-10.85-117.41-3.58-36.06-4.89-72.7-11.55-108.35-3.51-18.78-30.9-12.8-32.22,4.23h0Z" style="fill:#f2f5f9; stroke-width:0px;"/><path d="M1662.37,2289.41c-2.35,38.3,2.24,77.06,5.31,115.23,2.81,34.97,3.28,71.97,12.36,105.93,4.88,18.26,30.53,13.15,32.11-4.21,3.43-37.65-3.17-77.67-6.73-115.23-3.34-35.28-5.33-71.02-13.47-105.6-3.95-16.79-28.59-12.18-29.58,3.88h0Z" style="fill:#f2f5f9; stroke-width:0px;"/><path d="M1647.01,2284.99c-1.95,64.78,6.84,141.14,25.79,203.17,5.37,17.58,35.15,15.31,33.99-4.46-3.87-66.08-15.97-138.12-31.75-202.39-3.83-15.58-27.56-11.85-28.03,3.68h0Z" style="fill:#f2f5f9; stroke-width:0px;"/><path d="M3388.05,1868.56c-3.39,26.8-1.16,53.53.65,80.37,1.64,24.35,1.76,49.51,7.99,73.16,4.84,18.41,30.56,13.11,32.22-4.23,2.52-26.35-2.2-54.03-4.75-80.38-2.35-24.34-4.62-48.6-11.61-72.14-4.16-14.01-22.84-9.92-24.5,3.22h0Z" style="fill:#f2f5f9; stroke-width:0px;"/><path d="M3512.24,1854.89c-.91,52.35-7.38,106.15,3.26,158.09,3.97,19.37,30.72,12.61,32.67-4.29,5.91-51.29-5.3-103.03-10.57-153.78-1.62-15.65-25.07-16.33-25.35-.03h0Z" style="fill:#f2f5f9; stroke-width:0px;"/><path d="M3613.98,1820.05c-7.92,28.8-5.42,59.68-4,89.28,1.44,29.93,2.5,61.01,10.04,90.1,4.75,18.34,33.36,14.43,33.55-4.4.31-30.63-4.89-61.63-6.82-92.26-1.73-27.57-.47-56.01-7.55-82.8-3.27-12.38-21.88-12.1-25.23.09h0Z" style="fill:#f2f5f9; stroke-width:0px;"/><path d="M3715.17,1800.43c-.11,44.35,5.33,92.12,13.73,135.66,3.58,18.58,32.52,13.67,32.89-4.32.9-43.63-6.56-93.76-21.56-134.63-4.65-12.66-25.01-11.57-25.05,3.29h0Z" style="fill:#f2f5f9; stroke-width:0px;"/><path d="M3829.2,1778.19c1.3,39.18.93,78.55,7.1,117.45,3.06,19.3,34.81,14.48,34.43-4.52-.79-39.21-8.44-77.91-14.06-116.54-2.24-15.37-27.98-11.59-27.48,3.61h0Z" style="fill:#f2f5f9; stroke-width:0px;"/><path d="M789.5,2505.22c35.6-4.22,68.36-14.98,100.31-31.12,19.44-9.83,6.06-40.21-14.48-34.28-33.37,9.64-64.56,24.22-92.56,44.89-16.19,11.96-47.03,31.83-46.72,55.48.83,62.18,120.53-7.59,141.61-18.21-7.88-9.95-15.75-19.9-23.63-29.85-20.65,20.04-41.2,40.18-61.72,60.35-11.84,11.64-3.46,34.18,13.89,33.33,29.39-1.45,56.47-6.49,84.24-16.49-6.44-10.92-12.88-21.85-19.31-32.77-31.19,25.7-62.39,51.4-93.58,77.09-9.72,8-6.71,25.44,4.05,30.86,43.45,21.9,72.72-19.11,115.15-13.84-4.64-11.14-9.28-22.27-13.93-33.41-29.39,25.21-58.77,50.42-88.16,75.63-13.02,11.17-2.64,34.04,13.9,33.35,33.51-1.4,63.76-9.32,93.72-24.31-6.69-11.23-13.37-22.46-20.06-33.68-23.27,15.52-46.53,31.05-69.8,46.57-13.21,8.82-13.16,31.77,4.6,35.55,38.66,8.24,74.7,2.95,109.07-16.76,22.09-12.67,2.17-45.73-19.79-33.22-24.96,14.22-50.31,18.46-78.55,12.35,1.53,11.85,3.07,23.7,4.6,35.55,23.31-15.45,46.62-30.9,69.93-46.36,21.58-14.3,2.85-45.11-20.06-33.68-23.55,11.74-46.87,17.64-73.12,18.73,4.63,11.12,9.27,22.23,13.9,33.35,29.4-25.2,58.81-50.39,88.2-75.59,14.64-12.55,1.26-31.52-13.93-33.41-15.42-1.92-28.67,1.15-43.19,6.4-14.98,5.42-35.98,20.73-52.17,12.56,1.35,10.29,2.7,20.57,4.05,30.86,31.21-25.69,62.41-51.38,93.62-77.06,15.29-12.58-1.13-39.31-19.31-32.77-24.19,8.7-47.8,13.86-73.52,15.26,4.63,11.11,9.26,22.22,13.89,33.33,20.41-20.28,40.78-40.59,61.06-60.99,16.14-16.24-4.44-39.57-23.63-29.85-18.05,9.14-36.25,17.82-55.05,25.34-8.76,3.51-30.69,15.8-39.92,13.07,4.52,4.45,9.04,8.9,13.57,13.35-2.96-7.12,42.53-35.46,49.53-39.6,18.55-10.97,38.29-18.84,58.85-25.16-4.83-11.43-9.65-22.85-14.48-34.28-27.45,14.66-54.99,23.31-85.26,29.77-18.83,4.02-15.62,36.01,4.19,33.65h0Z" style="fill:#f2f5f9; stroke-width:0px;"/><path d="M1133.29,2451.58c51.41-30.42,99.7-58.55,157.51-75.67-4.91-11.62-9.81-23.23-14.72-34.85-52.52,39.66-104.58,79.6-148.38,129.07-14.13,15.96,4.17,42.08,23.64,29.86,49.71-31.23,99.36-62.56,149.03-93.85-7.82-9.88-15.64-19.75-23.45-29.63-27.84,27.35-55.69,54.69-83.53,82.04-23.66,23.23-47.42,45.34-62.06,75.54-5.56,11.46-.91,23.44,11.39,27.47,27.97,9.16,53.6-17.81,74.9-32.39,35.2-24.1,70.4-48.19,105.59-72.29-9.27-6.93-18.54-13.85-27.81-20.78-9.01,35.36-55.16,55.32-81.96,76.58-31.9,25.31-60.86,53.65-87.71,84.22-9.65,10.99-4.31,33.4,13.19,31.64,59.95-6.01,96.3-58.28,153.31-69.97l-21.28-27.24c-22.39,29.35-44.79,58.71-67.18,88.06-10.9,14.29,7.11,30.47,21.39,27.38,35.76-7.74,63.54-26.99,84.56-56.77,14.27-20.22-19.01-37.78-33.01-18.52-15.55,21.4-35.53,33.49-61.25,39.09,7.13,9.13,14.26,18.25,21.39,27.38,22.34-29.39,44.67-58.77,67.01-88.16,10.89-14.32-7.1-30.16-21.28-27.24-53.17,10.96-89.51,63.32-143.16,68.73,4.4,10.55,8.79,21.09,13.19,31.64,34.27-39.07,72.07-74.27,114.56-104.3,27.92-19.73,55.81-37.97,64.8-72.94,3.89-15.11-13.82-30.31-27.81-20.78-25.97,17.7-51.94,35.39-77.91,53.09-13.37,9.11-59.8,51.62-73.18,47.21,3.8,9.16,7.59,18.31,11.39,27.47,15.19-31.17,41.61-53.46,66.04-77.36,24.62-24.08,49.23-48.16,73.85-72.24,15.6-15.26-4.81-41.32-23.45-29.63-49.73,31.19-99.49,62.35-149.18,93.6,7.88,9.95,15.76,19.9,23.64,29.86,41.55-46.99,90.41-85.31,140.28-123.01,16.23-12.26,8.09-41.77-14.72-34.85-59.87,18.16-120.28,45.8-165.79,89.59-12.33,11.87,3.66,31.51,18.15,22.93h0Z" style="fill:#f2f5f9; stroke-width:0px;"/><path d="M1501.87,2374.66c41.96-21.18,85.5-35.93,131.08-47.08-6.07-10.29-12.13-20.59-18.2-30.88-28.9,32.13-56.84,65.15-85.16,97.79-13.81,15.92-35.28,36.32-25.45,59.53,7.92,18.7,29.17,20.62,45.91,13.34,38.36-16.69,74.63-49.06,109.35-72.3-7.91-10-15.83-19.99-23.74-29.99-40.03,42.77-80.06,85.53-120.09,128.3-15.83,16.91,4.17,39.33,23.78,30.04,39.26-18.61,78.52-37.22,117.77-55.83-7.89-9.97-15.79-19.94-23.68-29.92-32.95,32.41-67.71,62.48-104.87,90-17.55,13-7.74,39.39,14.78,34.99,38.13-7.45,72.04-22.51,102.95-46.1,22.43-17.12-1.21-47.14-23.71-29.95-26.86,20.53-56.17,32.59-89.15,39.05,4.93,11.66,9.85,23.33,14.78,34.99,39.86-29.56,77.51-61.38,112.94-96.14,16.71-16.4-4.61-38.93-23.68-29.92-39.28,18.57-78.57,37.13-117.85,55.7,7.93,10.01,15.85,20.02,23.78,30.04,40.02-42.78,80.03-85.56,120.05-128.34,14.67-15.69-4.73-42.72-23.74-29.99-18.78,12.58-37.55,25.16-56.33,37.74-9.68,6.49-25.7,14.29-33.8,22.64-3.76,2.52-7.51,5.03-11.27,7.55,1.45,11.46,4.48,12.43,9.1,2.92,16.8-10.75,32.27-37.84,45.35-53.06,16.32-18.98,32.81-37.84,48.79-57.11,11.23-13.55,1.08-36.64-18.2-30.88-47.58,14.22-92.57,34.49-135.77,58.91-16.11,9.11-1.86,32.12,14.28,23.97h0Z" style="fill:#f2f5f9; stroke-width:0px;"/><path d="M2304.58,2155.46c-9.37,31.95-8.12,66.87-9.23,99.95-1.13,33.67-3.09,67.55,1.13,101.04,1.83,14.5,26.63,13.73,29.02-.1,5.73-33.23,5.21-67.25,5.61-100.9.39-33.07,3.19-67.76-4.77-100.06-2.69-10.92-18.75-10.19-21.76.07h0Z" style="fill:#f2f5f9; stroke-width:0px;"/><path d="M2423.79,2144.65c-6.58,51.15-5.27,106.76-1.8,158.19,1.39,20.57,31.15,20.55,32.53.03,3.57-52.76,4.49-109.48-2.27-161.96-2.23-17.28-26.64-10.52-28.47,3.74h0Z" style="fill:#f2f5f9; stroke-width:0px;"/><path d="M2541.08,2122.05c-6.2,49.53-7.53,108.33-.5,157.76,2.69,18.89,28.73,11.26,30.9-4.06,6.81-48.01,5.02-105.54-1.01-153.67-2.31-18.48-27.07-18.6-29.39-.03h0Z" style="fill:#f2f5f9; stroke-width:0px;"/><path d="M2678.51,2096.1c-8.32,47.51-6.95,100.04-3.3,147.99,1.55,20.41,30.76,20.42,32.31.03,3.65-47.94,5.12-100.64-3.24-148.11-2.22-12.61-23.57-12.46-25.77.09h0Z" style="fill:#f2f5f9; stroke-width:0px;"/><path d="M2773.86,2082.65c-13.21,47.19-7.44,108.34-4.85,156.91,1.16,21.87,33.39,21.81,34.55.03,2.59-48.56,8.46-109.98-4.8-157.03-3.41-12.11-21.51-12.04-24.9.09h0Z" style="fill:#f2f5f9; stroke-width:0px;"/><path d="M2199.5,2238.2c7.11-4.17,79.59-37.65,80.34-34.72l8.87-20.93c-31.24,18.76-62.49,37.52-93.73,56.27-12.29,7.38-12.63,25.12-.08,32.44,34.31,20.01,61.21-16.96,92.85-6.24-2.81-10.48-5.62-20.96-8.43-31.45-23.63,25.87-50.2,45.35-81.86,60.27-19.13,9.02-7.09,32.91,9.37,34.95,23.54,2.92,44.9,1.36,67.97-4.11-4.81-11.39-9.62-22.79-14.44-34.18-25.26,18.95-50.53,37.89-75.78,56.84-13.31,9.99-11.57,36.19,9.3,34.7,22.19-1.58,42.57-5.64,63.44-13.63-7.03-9-14.06-17.99-21.08-26.99-3.55,2.93-7.1,5.86-10.65,8.78-19.1,8.26-5.63,39.27,13.91,32.95,13.88-4.49,21.99-10.53,29.34-23.43,7.5-13.17-5.29-32.94-21.08-26.99-17.8,6.71-34.27,10.72-53.38,11.97,3.1,11.57,6.2,23.14,9.3,34.7,25.29-18.89,50.58-37.8,75.86-56.7,16.62-12.43,7.8-39.42-14.44-34.18-19.68,4.63-37.85,5.17-57.77,2.66,3.12,11.65,6.24,23.3,9.37,34.95,34.56-16.22,64.1-38.05,89.88-66.18,10.11-11.04,5.42-26.73-8.43-31.45-12.28-4.18-23.44-3.89-36.03-.78-13.07,3.23-34.56,18.59-47.86,10.88-.03,10.81-.05,21.63-.08,32.44,31.19-18.85,62.38-37.69,93.57-56.54,6.95-4.2,11.18-12.88,8.87-20.93-16.49-57.45-106.93-1.64-133.26,17.49-16.44,11.95-2,37.72,16.13,27.09h0Z" style="fill:#f2f5f9; stroke-width:0px;"/><path d="M2469.87,2159.05c19.77-5.22,37.93-8.66,58.35-6.74-4.28-10.28-8.57-20.55-12.85-30.83-22.9,24.3-45.51,48.86-68.24,73.32-9.69,10.43-4.02,33.24,12.94,31.05,19.91-2.57,39.82-5.14,59.72-7.72-5.29-9.12-10.59-18.23-15.88-27.35-14.43,21.24-30.05,41.22-47.17,60.35-9.93,11.1-4.01,32.24,12.98,31.15,23.07-1.49,42.92-6.58,64.07-15.81-9.08-6.79-18.17-13.58-27.26-20.37-6.31,16.67-17.77,26.25-34.72,31.01,7.68,5.79,15.36,11.58,23.04,17.37-2.41-27.86.86-53.94,1.99-81.67.77-18.91-26.38-20.62-31.93-4.13-9.27,27.51-9.11,57.08-6.83,85.76.93,11.67,10.9,20.7,23.04,17.37,30.08-8.24,50.12-27.43,61.27-56.31,6.6-17.08-14.49-25.84-27.26-20.37-15.25,6.54-28.41,9.39-44.92,10.47,4.33,10.38,8.66,20.76,12.98,31.15,19.2-21.49,36.78-44.02,52.96-67.88,7.29-10.75-2.18-29.13-15.88-27.35-19.91,2.59-39.82,5.18-59.73,7.77,4.31,10.35,8.63,20.7,12.94,31.05,22.7-24.48,45.52-48.86,68.05-73.5,10.71-11.71,3.37-30.46-12.85-30.83-27.11-.61-49.91,5.18-71.38,21.75-10.79,8.33,1.1,24.3,12.54,21.28h0Z" style="fill:#f2f5f9; stroke-width:0px;"/><path d="M2712.93,2126.07c5.97-2.34,11.8-4.4,18.02-5.97,3.13-.64,6.26-1.29,9.4-1.93,16.33.18,19.2-1.12,8.6-3.91-3.86-3.31-7.03-2.97-9.51,1.02-2.96,2.66-6.03,5.19-9.23,7.57-6.93,5.45-14.03,10.33-21.4,15.17-6.04,3.96-11.73,12.77-8.64,20.4,6.35,15.7,16.74,20.19,33.02,22.1,1.55.18,9,1.63,10.09.84,5.75,1.25,3.87-1.03-5.63-6.84-2.2,2.89-4.39,5.78-6.59,8.67-12.91,10.32-22.94,30.17-32.96,43.35-7.23,9.51.52,24.07,11.01,26.56,9.2,2.18,18.28,4.33,27.59,6,22.15,3.96,32.17-27.13,9.69-33.96-9.04-2.74-18.08-4.94-27.25-7.17,3.67,8.85,7.34,17.71,11.01,26.56,14.85-19.28,55.71-53.97,45.26-81.38-3.4-8.92-10.71-14.11-19.66-16.81-3.78-1.14-7.99-1.2-11.87-1.62-10.63-1.16-11.47-4.59-7.86,4.1-2.88,6.8-5.76,13.6-8.64,20.4,18.97-12.67,71.96-42.48,57.69-72.37-14.83-31.08-62.78-6.17-82.47,4.81-13.11,7.3-4.29,30.16,10.32,24.43h0Z" style="fill:#f2f5f9; stroke-width:0px;"/><path d="M3306.02,1891.14c.12,1.18.23,2.37.35,3.55.78,7.85,4.52,12.41,11.73,15.21,6.21,2.41,11.58,2.27,18.14,1.35,12.1-1.7,19.45-9.76,5.48,5.47-13.44,14.66-25.24,22.73-26.27,44.13-.45,9.42,8.72,18.92,18.32,18.19,14.75-1.12,29.5-2.23,44.25-3.35-5.91-7.66-11.81-15.32-17.72-22.98-6.85,19.3-18.22,33.67-35.35,44.74-16.74,10.81-6.63,40.54,14.03,33.22,3.11-2.86,6.22-5.71,9.34-8.57-14.7-3.53-31.37,17.22-16.72,28.16,19.22,14.36,47.28,5.66,51.16-20.32,4.47-29.91-29.67-42.68-53.19-34.4,4.68,11.07,9.35,22.14,14.03,33.22,25.64-16.48,42.56-37.85,52.63-66.62,3.77-10.77-6.27-23.89-17.72-22.98-14.75,1.18-29.5,2.35-44.26,3.53,6.11,6.06,12.21,12.13,18.32,18.19.58-13.18,24.94-26.11,30.56-39.62,4.51-10.84,5.98-23.3-.12-33.89-15.81-27.45-39.13-4.84-60.4-8.58-7.24-1.27-17.49,3.33-16.6,12.35h0Z" style="fill:#f2f5f9; stroke-width:0px;"/><path d="M3547.56,1870.51c17.22-10.88,34.39-16.97,55-13.31-2.66-9.92-5.31-19.83-7.97-29.75-13.52,15.67-27.06,31.39-40.17,47.41-5.95,7.27-13.61,15.27-13.41,25.47.16,8.45,5.24,16.73,11.83,21.58,10.37,7.63,22.67,1.32,32.35,6.44-2.25-8.4-4.5-16.81-6.76-25.21-12.1,16.46-24.2,32.92-36.3,49.38-9.23,12.56,3.64,26.38,16.02,27.6,17.49,1.72,33.29.12,50.07-5.15-5.89-10-11.79-20-17.68-30-11.65,9.76-23.47,19.14-34.18,29.93-13.3,13.39,4.34,36.92,20.59,26.01,13.93-9.34,26.61-20.16,39.63-30.72,14.88-12.07-1.36-34.22-17.68-30-13.72,3.54-26.22,4.4-40.25,3.01,5.34,9.2,10.68,18.4,16.02,27.6,12.12-16.45,24.23-32.9,36.35-49.35,5.89-8,1.48-20.85-6.76-25.21-5.59-2.96-8.8-4.47-14.92-5.41-3.5-.54-21.82,2.14-9.24,2.78,3.51,4.04,6.2,3.46,8.07-1.75,3.59-4.37,7.18-8.74,10.77-13.11,7.18-8.74,14.36-17.49,21.45-26.31,10.04-12.5,3.63-28.95-12.65-30.35-29.08-2.5-56.31,6.51-75.68,28.84-9.1,10.5,2.68,27.71,15.51,19.6h0Z" style="fill:#f2f5f9; stroke-width:0px;"/><path d="M3745.92,1824.73c9.27-4.5,18.48-7.49,28.35-10.16,5.43-1.6,10.92-2.98,16.46-4.14,9.3-.73,11.16-1.41,5.57-2.03-1.66,2.45-13.21,11.39-17.25,15.44-8.07,8.08-16.63,15.28-25.9,21.96-11.56,8.33-12.7,29.55,4.26,32.89,16.2,3.19,32.01,4.56,48.54,3.98-4.29-10.3-8.58-20.59-12.88-30.89-15.44,18.58-50.42,27.2-41.89,58.86,6.34,23.54,31.63,27.87,48.99,14.48,16.46-12.71-4.77-37.28-21.73-27.45-6.58,3.81-13.16,7.62-19.74,11.43-15.33,8.87-5.18,35.96,12.26,29.04,7.01-2.78,14.03-5.57,21.05-8.35-4.52-10.71-9.04-21.41-13.57-32.12,6.94,2.25,13.01,1.49,18.18-2.28,3.05-1.8,6.07-3.67,9.04-5.6,5.23-3.64,9.59-7.67,13.65-12.59,9.42-11.42,4.3-31.55-12.88-30.89-13.37.51-25.88-.15-39.1-2.43,1.42,10.96,2.84,21.93,4.26,32.89,20.95-15.84,76.33-55.73,59.89-88.55-17.55-35.02-78.07,1.95-98.16,15.38-13.54,9.05-1.84,28.14,12.59,21.14h0Z" style="fill:#f2f5f9; stroke-width:0px;"/><path d="M3746.74,1203.38c32.48,40.83,65.69,81.11,98.95,121.31,18.5,22.36,42.2,59.84,76.36,55.96,32.6-3.7,56.59-49.88,72.11-74.23,25.32-39.75,45.01-82.42,60.43-126.89-9.88,1.34-19.76,2.68-29.64,4.02,13.06,19.11,36.1,25.98,57.46,14.63,27.64-14.69,32.63-52.19,33.95-80.09,1.28-27.01-5.23-57.15-32.23-69.23-22.06-9.87-47.05-3.17-58.62,18.02-9.5,17.42,16.67,31.7,26.62,14.93,12.12-12.13,22.39-7.42,30.81,14.13,1.35,7.36,1.69,14.73,1.02,22.12-.21,5.35-.71,10.67-1.5,15.97.56,18-9.25,29.09-29.43,33.29-7.92-11.61-25.05-9.19-29.64,4.02-11.08,31.91-75.13,195.83-120.5,169.51-25.13-14.58-46.45-53-65.08-75.07-23.37-27.68-46.73-55.4-70.51-82.73-12.14-13.94-31.85,6.11-20.54,20.33h0Z" style="fill:#f2f5f9; stroke-width:0px;"/><path d="M2123.26,1360.24c-56.36-35.53-112.66-71.12-167.17-109.45-31.6-22.22-62.66-45.16-93.06-69.01-16.86-13.23-34.7-31.85-56.47-36.66-47.8-10.56-61.69,49.36-70.71,83.34-15.14,57.07-16.44,115.74-7.28,173.88,5.91-7.47,11.83-14.93,17.74-22.4-54.76,2.41-102.3,50.77-79.67,107.31,18.46,46.12,84.94,53.11,106.59,5.59,9.03-19.83-18.41-35.77-29.77-16.7-15.77,26.48-45.83,11.61-46.36-16.68-.52-27.81,23.65-43.01,48.72-44.1,12.45-.54,19.59-10.57,17.74-22.4-8.13-51.83-6.26-104.53,7.07-155.38,2.69-10.24,5.83-20.37,9.43-30.33,7.18-19.9,13.96-27.55,36.54-16.98,20.28,9.5,40.21,31.6,58.24,45.12,74.08,55.53,151.29,107.19,233.4,150.12,16.63,8.7,31.22-15.08,15.02-25.29h0Z" style="fill:#f2f5f9; stroke-width:0px;"/><path d="M838.02,1429.05c-32.99-87.4-89.61-159.09-152.87-226.66-35.9-38.35-110.48-146.49-165.34-76.98-48.48,61.43-27.99,182.47,10.49,243.72,16.43,26.15,43.18,47.99,75.67,45.46,30.04-2.34,53.79-22.41,57.32-52.35,2.56-21.67-30.02-22.88-36.34-4.69-14.57,41.93-58,8.66-72.24-14.36-16.77-27.12-24.88-62.88-27.67-94.27-2.52-28.31-2.48-61.33,7.9-88,17.41-44.78,52.71-16.84,76.82,5.65,83.11,77.53,164.07,160.73,208.46,267.26,4.35,10.45,21.95,6.22,17.8-4.77h0Z" style="fill:#f2f5f9; stroke-width:0px;"/><path d="M3743.25,881.88c-79.74,27.95-138.51-36.41-187.49-88.77-32.26-34.48-84.17-67.99-130.62-37.6-33.65,22.01-35.4,69.55-14.3,101.06,26.58,39.7,84.23,47.1,126.29,31.56,16.83-6.22,10.47-28.53-6.97-26.02-23.99,3.45-48.49,7.08-71.05-4.2-22.31-11.15-41.22-40.62-27.18-65.99,18.78-33.94,64.84-11.21,85.28,6.64,16.05,14.03,29.21,31.11,44.09,46.32,50.93,52.08,118.33,87.34,189.85,55.65,10.71-4.75,3.17-22.53-7.88-18.66h0Z" style="fill:#f2f5f9; stroke-width:0px;"/><path d="M3927.79,689.68c-8.18,9.19-7.81,19.71-13.04,30.36-4.74,9.65-13.38,16.35-17.3,26.37-4.36,11.16,8.06,18.46,17.31,17.03,14.36-2.22,24.7-17.81,30.24-30.06,2.95-6.54,4.92-13.03,5.88-20.16,1.33-9.9-.25-16.1-7.1-23.72-3.89-4.32-12.19-4.09-15.99.18h0Z" style="fill:#f2f5f9; stroke-width:0px;"/><path d="M3772.98,627.8c-4.96,12.61-11.15,25.81-16.94,38.21-5.55,11.88-13.68,22.67-17.58,35.22-4.95,15.94,14.65,22.51,25.29,14.19,11.92-9.32,19.01-25.36,24.71-39.05,6.49-15.57,8.27-28.95,8.8-45.42.47-14.78-19.56-15.15-24.28-3.14h0Z" style="fill:#f2f5f9; stroke-width:0px;"/></g></svg>