<svg xmlns="http://www.w3.org/2000/svg" xmlns:xlink="http://www.w3.org/1999/xlink" width="337.487" height="2942.681" viewBox="0 0 337.487 2942.681"><defs><clipPath id="a"><rect width="337.487" height="2942.681" fill="none"/></clipPath><filter id="b" x="0" y="0" width="507.863" height="2976.681" filterUnits="userSpaceOnUse"><feOffset dx="64" dy="-10" input="SourceAlpha"/><feGaussianBlur stdDeviation="34.5" result="c"/><feFlood/><feComposite operator="in" in2="c"/><feComposite in="SourceGraphic"/></filter></defs><g clip-path="url(#a)"><g transform="translate(-1580.638 113.5)"><g transform="matrix(1, 0, 0, 1, 1580.64, -113.5)" filter="url(#b)"><path d="M182.11,18.328H282.4l-52.76-102.9c23.11-11.337,52.324-37.935,52.324-88.079,0-54.5-36.627-99.852-104.648-99.852H22.086V18.328h88.079V-74.983H142Zm10.465-192.291c0,16.133-13.953,25.726-28.778,25.726H110.165v-51.016H163.8C178.622-199.252,192.575-189.659,192.575-173.962ZM317.716,18.328H405.8V-272.506H317.716Zm119.473-145.2c0,92.875,71.945,150.431,160.024,150.431,57.12,0,100.724-23.11,132.99-58.864V-152.161H588.493v72.381h56.248v12.645C633.4-58.85,615.963-54.053,597.213-54.053c-42.3,0-70.637-32.266-70.637-72.818s28.342-72.817,70.637-72.817a60.207,60.207,0,0,1,53.632,31.83l74.126-37.935C704.914-243.291,664.8-277.3,597.213-277.3,509.135-277.3,437.189-220.182,437.189-126.871Zm524.548,145.2h88.079V-272.506H961.737v102.9H857.525v-102.9H769.446V18.328h88.079V-92.86H961.737Zm197.523,0h88.079V-195.764h77.614v-76.742H1081.21v76.742h78.05Zm308.275,0h182.7c58.428,0,85.9-38.371,85.9-78.922,0-37.5-23.982-66.277-55.376-71.073,28.342-6.1,49.708-30.522,49.708-66.713,0-34.011-26.162-74.126-86.335-74.126H1467.535Zm88.078-182.7V-201h68.021a17.873,17.873,0,0,1,17.441,17.877c0,10.465-8.285,18.749-17.441,18.749Zm0,111.188V-92.86h70.637c12.645,0,20.494,9.593,20.494,20.058,0,10.9-7.849,19.621-20.494,19.621Zm375.86,71.509h100.288L1979-84.575c23.11-11.337,52.324-37.935,52.324-88.079,0-54.5-36.627-99.852-104.648-99.852H1771.45V18.328h88.079V-74.983h31.83Zm10.465-192.291c0,16.133-13.953,25.726-28.778,25.726h-53.632v-51.016h53.632C1927.986-199.252,1941.939-189.659,1941.939-173.962ZM2265.476,18.328h95.491L2253.7-272.506H2142.95L2035.686,18.328h95.491l11.337-37.5h111.625Zm-67.149-213.22,33.138,102.468h-66.277Zm178.337,213.22h88.079V-272.506h-88.079Zm330.513,0h84.59V-272.506h-88.079V-126l-101.16-146.507h-90.695V18.328h88.079v-156.1Z" transform="translate(316.8 2905.27) rotate(-90)" fill="#f7f7f7" opacity="0.08"/></g></g></g></svg>