<svg xmlns="http://www.w3.org/2000/svg" width="53.703" height="87.668" viewBox="0 0 53.703 87.668"><g transform="translate(-1597.197 -6744.613)"><path d="M5601.161,359.094a54.707,54.707,0,0,1,10.383-10.923l-1.861-1.385c-4.31,6.341-8.533,12.744-12.78,19.127-.828,1.245.975,2.364,1.977,1.471l3.751-3.345-2.112-1.185q-1.7,4.484-3.4,8.968c-.459,1.214,1.312,2.066,2.128,1.194a19.283,19.283,0,0,1,4.121-3.351l-1.738-1.689a42.133,42.133,0,0,0-2.94,7.082,1.267,1.267,0,0,0,1.864,1.393l5.657-3.2-1.863-1.392a31.33,31.33,0,0,1-2.8,6.748,1.258,1.258,0,0,0,1.734,1.686l5.179-2.522-1.86-1.39a19.948,19.948,0,0,1-2.285,6.069,1.261,1.261,0,0,0,1.427,1.827,13.928,13.928,0,0,0,5.425-2.687l-2.136-1.2-.8,4.723a1.271,1.271,0,0,0,1.865,1.394,23.262,23.262,0,0,0,5.762-5.149l-2.1-1.179q-1.06,2.6-2.134,5.19a1.214,1.214,0,0,0,.576,1.388,1.349,1.349,0,0,0,1.525-.21l7.379-5.659-1.987-1.479c-.957,2.123-1.948,4.23-2.9,6.354a1.294,1.294,0,0,0,2.052,1.527l6.97-6.292-2.176-1.221a99,99,0,0,1-5.2,12.694,1.346,1.346,0,0,0,2.346,1.316c3.412-4.731,6.785-9.49,10.174-14.237l-2.477-1q-3.823,10.57-7.682,21.127c-.532,1.463,1.821,2.368,2.514,1.015a381.36,381.36,0,0,1,19.137-33.185q2.938-4.548,6.006-9.009l-2.415-1.355-10.187,21.813a1.39,1.39,0,0,0,2.423,1.36q4.975-7.273,9.951-14.547a1.368,1.368,0,0,0-.5-1.879,1.46,1.46,0,0,0-1.925.516q-4.974,7.274-9.945,14.55l2.423,1.36,10.179-21.817a1.386,1.386,0,0,0-2.415-1.355,376.319,376.319,0,0,0-20.053,32.639q-2.595,4.752-5.052,9.577l2.515,1.015q3.82-10.569,7.642-21.138a1.3,1.3,0,0,0-.78-1.561,1.4,1.4,0,0,0-1.7.562c-3.4,4.743-6.807,9.475-10.179,14.234l2.346,1.316a110.957,110.957,0,0,0,5.361-13.352c.431-1.31-1.287-2.024-2.177-1.221l-6.975,6.288,2.051,1.527c.957-2.125,1.878-4.267,2.832-6.393a1.254,1.254,0,0,0-1.987-1.479l-7.368,5.67,2.1,1.179q1.065-2.6,2.135-5.19c.477-1.149-1.351-2.113-2.1-1.179a21.483,21.483,0,0,1-5.26,4.728l1.865,1.394.81-4.72a1.278,1.278,0,0,0-2.135-1.2,11.115,11.115,0,0,1-4.264,2.022l1.427,1.827a22.371,22.371,0,0,0,2.526-6.666,1.268,1.268,0,0,0-1.861-1.391L5602,378.158l1.734,1.686a34.264,34.264,0,0,0,3.057-7.337,1.267,1.267,0,0,0-1.863-1.392l-5.657,3.195,1.864,1.393a38.514,38.514,0,0,1,2.688-6.492,1.259,1.259,0,0,0-1.737-1.689,21.809,21.809,0,0,0-4.645,3.751l2.128,1.194q1.7-4.485,3.385-8.973c.479-1.273-1.273-1.937-2.113-1.185l-3.743,3.353,1.977,1.471c4.23-6.391,8.487-12.767,12.654-19.2a1.136,1.136,0,0,0-.3-1.494,1.227,1.227,0,0,0-1.557.108,43.952,43.952,0,0,0-10.137,11.743c-.546.942.827,1.628,1.43.8" transform="translate(-3999.214 6405.34)" fill="#ffb900"/><path d="M5731.3,287.189q2.1-1.915,4.181-3.844c1.38-1.285,2.719-2.653,4.191-3.834l-2.061-1.157c-.474,1.5-.965,2.995-1.429,4.5a1.248,1.248,0,0,0,.585,1.412,1.366,1.366,0,0,0,1.551-.213l8.228-6.517-2.214-.889a28.476,28.476,0,0,1-1.5,6.081,1.268,1.268,0,0,0,.6,1.442,1.391,1.391,0,0,0,1.584-.218q3.154-2.548,6.361-5.03l-2.248-.9a4.487,4.487,0,0,1-1.336,3.758,1.3,1.3,0,0,0,1.274,2.162,24.19,24.19,0,0,0,6.574-3.4l-1.967-1.469-.935,5.123a1.349,1.349,0,0,0,2.256,1.266,15.222,15.222,0,0,1,5.8-3.294l-1.708-1.288a25.513,25.513,0,0,1-1.349,6.9,1.355,1.355,0,0,0,1.672,1.645l4.017-1.113-1.729-1.3a21.955,21.955,0,0,1-2.287,8.941,1.391,1.391,0,0,0,.5,1.884,1.449,1.449,0,0,0,1.931-.517,25.511,25.511,0,0,0,2.611-10.305,1.368,1.368,0,0,0-1.729-1.3l-4.014,1.123,1.672,1.645a28.168,28.168,0,0,0,1.427-7.6,1.35,1.35,0,0,0-1.708-1.288,18.4,18.4,0,0,0-7.016,4.018l2.256,1.266.919-5.127a1.312,1.312,0,0,0-.479-1.381,1.342,1.342,0,0,0-1.488-.088,22.021,22.021,0,0,1-5.9,3.15l1.274,2.162a6.964,6.964,0,0,0,2.093-5.572,1.331,1.331,0,0,0-2.247-.9q-3.2,2.489-6.348,5.044l2.183,1.224a31.259,31.259,0,0,0,1.572-6.738,1.238,1.238,0,0,0-.795-1.167,1.373,1.373,0,0,0-1.419.278l-8.2,6.542,2.135,1.2c.46-1.5.894-3.014,1.344-4.52a1.23,1.23,0,0,0-2.061-1.157c-1.206,1.447-2.6,2.758-3.905,4.111s-2.615,2.729-3.916,4.1a.831.831,0,0,0,1.194,1.156" transform="translate(-4120.66 6469.926)" fill="#ffb900"/><path d="M5879.926,842.874c-.646,1.335-1.345,2.642-1.948,4q-.92,2.064-1.812,4.139c-1.184,2.744-2.383,5.481-3.555,8.229a1.334,1.334,0,0,0,.806,1.611,1.437,1.437,0,0,0,1.75-.58,13.126,13.126,0,0,1,5.91-4.952l-2.072-1.549c-2.415,5.924-4.865,11.834-7.251,17.768a1.436,1.436,0,0,0,.68,1.64,1.548,1.548,0,0,0,1.8-.247l8.8-8.554L5880.586,863c-1.681,4.663-3.71,9.154-5.732,13.673a1.492,1.492,0,0,0,.537,2.008,1.545,1.545,0,0,0,2.058-.551,135.1,135.1,0,0,0,5.966-14.387c.524-1.443-1.482-2.314-2.453-1.376l-8.827,8.53,2.482,1.393c2.4-5.923,4.741-11.871,7.115-17.8a1.346,1.346,0,0,0-.5-1.455,1.491,1.491,0,0,0-1.567-.093,15.7,15.7,0,0,0-6.908,5.978l2.556,1.031c1.081-2.725,2.135-5.461,3.2-8.19q.791-2.016,1.559-4.041c.524-1.386.946-2.805,1.426-4.207.313-.913-1.153-1.5-1.571-.634" transform="translate(-4249.985 5952.807)" fill="#ffb900"/><path d="M5616.3,312.752a16.785,16.785,0,0,1-11.5-2.143,17.365,17.365,0,0,1-7.649-9.073,21.24,21.24,0,0,1-.187-13.22,23.823,23.823,0,0,1,7.072-10.838,30.458,30.458,0,0,1,11.287-6.268c4.751-1.467,10-2.027,14.691-.027,8.1,3.457,14.273,12.068,14.66,20.9.344,7.869-4.488,15.992-12.19,18.456a15.429,15.429,0,0,1-2.751.629,1.322,1.322,0,0,0-1.29,1.246,1.251,1.251,0,0,0,1.256,1.249c9.106-1.007,16.159-9.033,17.334-17.9,1.3-9.836-4.417-19.714-12.536-24.966a20.406,20.406,0,0,0-7.291-3.007,24.1,24.1,0,0,0-8.8.147,33.833,33.833,0,0,0-13.395,5.655,27.549,27.549,0,0,0-9.24,10.9,24.5,24.5,0,0,0-1.847,14.634,19.4,19.4,0,0,0,7.07,11.7,18.168,18.168,0,0,0,12.507,4.04,17.122,17.122,0,0,0,3.2-.632.768.768,0,0,0-.4-1.483" transform="translate(-3996.319 6477.162)" fill="#2f2f31"/><path d="M5853.672,764.858a68.525,68.525,0,0,0,.781,9.486c.382,3.094.808,6.183,1.324,9.258q.792,4.709,1.764,9.385.473,2.276.993,4.541a36.469,36.469,0,0,0,1.053,4.027c.9,2.542,2.7,4.79,5.552,5.063a4.629,4.629,0,0,0,4.858-4.11c.464-2.642-.183-5.418-.517-8.04l-1.217-9.551q-.681-5.349-1.364-10.7c-.459-3.6-.84-7.228-1.418-10.815-.206-1.276-2.436-.986-2.314.3.567,6.019,1.494,12.021,2.26,18.017q.576,4.521,1.154,9.041c.362,2.836.813,5.676,1.078,8.522.137,1.475.33,4.125-1.4,4.819a2.757,2.757,0,0,1-2.506-.526,5.31,5.31,0,0,1-1.7-2.474,30.794,30.794,0,0,1-1.033-3.859q-.494-2.142-.959-4.291-.94-4.359-1.723-8.75c-.572-3.213-1.105-6.434-1.574-9.664-.478-3.289-.757-6.654-1.437-9.906-.195-.931-1.644-.695-1.659.218" transform="translate(-4233.556 6025.641)" fill="#2f2f31"/><path d="M5872.007,1053.444a15.119,15.119,0,0,0,2.795-.678l2.518-.727c1.738-.5,3.5-.975,5.212-1.561a1.272,1.272,0,0,0,.9-1.511,1.257,1.257,0,0,0-1.532-.86c-1.742.5-3.458,1.121-5.174,1.7l-2.485.846a15.328,15.328,0,0,0-2.7,1.027c-.78.448-.508,1.846.472,1.759" transform="translate(-4249.437 5765.307)" fill="#2f2f31"/><path d="M5673.053,336.984c-6.886,2.5-13.763,7.626-16.174,14.789a16.645,16.645,0,0,0-.192,10.317,13.147,13.147,0,0,0,6.967,7.824,31.111,31.111,0,0,0,11.57,2.485c4.085.233,8.39-.256,11.886-2.544,6.249-4.09,8.9-12.1,7.8-19.274a16.922,16.922,0,0,0-5.236-10.1,13.709,13.709,0,0,0-10.194-3.514,9.766,9.766,0,0,0-2.73.645,1.124,1.124,0,0,0-.786,1.324,1.1,1.1,0,0,0,1.343.753,11.466,11.466,0,0,1,9.126,1.307,13.483,13.483,0,0,1,5.709,7.987c1.733,6.188.061,13.5-4.841,17.823a14.648,14.648,0,0,1-9.547,3.313,33.912,33.912,0,0,1-10.819-1.427,11.887,11.887,0,0,1-7.305-5.7,13.4,13.4,0,0,1-.966-8.747c1.411-6.706,7.038-11.236,12.763-14.371.771-.423,1.55-.829,2.323-1.249.892-.485.292-2-.693-1.641" transform="translate(-4053.261 6413.825)" fill="#2f2f31"/><path d="M5896.2,434.352a4.851,4.851,0,0,0-2.682.288,4.937,4.937,0,0,0-2.056,1.758,4.2,4.2,0,0,0,.186,4.956,5.013,5.013,0,0,0,4.32,1.884,4.443,4.443,0,0,0,3.78-3.054,4.655,4.655,0,0,0-1.235-4.978,1.1,1.1,0,0,0-1.5.017,1.042,1.042,0,0,0,0,1.468c.057.055.114.111.167.17.011.012.16.213.067.075s.047.074.053.084c.043.065.084.132.122.2.025.046.048.093.073.139-.133-.241-.026-.048,0,.026.049.149.095.3.129.452.019.087.107.311.074.388.031-.073-.018-.214-.01-.062,0,.079.012.158.014.238,0,.133,0,.266-.008.4,0,.065-.019.134-.018.2q-.016.126.015-.093-.013.079-.029.157a2,2,0,0,1-.233.758c.162-.2.028-.069-.017.018-.023.047-.049.093-.075.138q-.057.1-.123.2c-.055.083-.1.252,0,.021a1.17,1.17,0,0,1-.263.29c-.057.055-.117.1-.175.158-.185.169.16-.075.018-.014a4.105,4.105,0,0,0-.382.224c-.117.068-.023.071.063-.02a.767.767,0,0,1-.267.091c-.1.028-.333.126-.43.094.007,0,.292-.02.066-.014-.081,0-.16.009-.241.009a1.154,1.154,0,0,1-.4-.021c.2.094.119.021.014,0s-.186-.037-.278-.061c-.132-.034-.26-.078-.389-.122-.245-.083.135.09,0,0a1.714,1.714,0,0,0-.184-.088q-.182-.093-.354-.2c-.046-.03-.265-.2-.036-.016-.064-.05-.128-.1-.189-.153a3.862,3.862,0,0,1-.293-.278c-.056-.059-.106-.121-.16-.181.165.181.065.086.031.033-.08-.124-.163-.244-.232-.375-.031-.059-.059-.12-.089-.18.133.269.006,0-.016-.069a3.263,3.263,0,0,1-.105-.447c.008.045.012.215.007.011,0-.092-.007-.183,0-.275,0-.061.006-.121.011-.182,0-.041.061-.322.008-.087a4.392,4.392,0,0,1,.144-.528c.02-.057.042-.115.065-.17-.089.208.077-.133.1-.168a5.057,5.057,0,0,1,.3-.467c-.024.034-.116.132.013-.015.082-.093.163-.186.251-.273.043-.043.088-.086.134-.127.026-.024.3-.239.161-.139a5.082,5.082,0,0,1,.47-.289c.053-.03.1-.058.158-.09a.878.878,0,0,1,.156-.09c-.06.026-.061.028,0,.006a2.537,2.537,0,0,1,.526-.14c.025,0,.308.007.364.016a.825.825,0,0,0,.972-.547.768.768,0,0,0-.546-.946" transform="translate(-4267.368 6325.024)" fill="#2f2f31"/></g></svg>