<svg xmlns="http://www.w3.org/2000/svg" width="72.667" height="92.089" viewBox="0 0 72.667 92.089"><g transform="translate(-1012.028 -6926.957) rotate(7)"><path d="M8574.412,1040a20,20,0,0,1,8.831-6.6l-1.316-2.234a45.662,45.662,0,0,0-8.026,14.854,1.348,1.348,0,0,0,.807,1.615,1.463,1.463,0,0,0,1.755-.581q6.791-8.8,13.58-17.6l-2.377-1.334q-6.287,12.477-12.609,24.935a1.382,1.382,0,0,0,2.19,1.631l13.7-12.713-2.215-1.649q-3.454,7.31-6.936,14.608a1.414,1.414,0,0,0,.373,1.829,1.479,1.479,0,0,0,1.907-.132c1.736-1.747,3.525-3.464,5.142-5.325a1.338,1.338,0,0,0-1.922-1.86c-1.845,1.635-3.544,3.442-5.272,5.2l2.279,1.7q3.432-7.324,6.864-14.648a1.4,1.4,0,0,0-2.215-1.649l-13.675,12.733,2.19,1.631q6.289-12.477,12.578-24.953a1.356,1.356,0,0,0-.492-1.839,1.439,1.439,0,0,0-1.885.5q-6.81,8.789-13.625,17.574l2.563,1.034a46.291,46.291,0,0,1,7.479-13.959c.707-.918-.481-2.368-1.531-1.96a18.117,18.117,0,0,0-9.57,8.124c-.448.871.755,1.9,1.433,1.067" transform="translate(-6713.265 5784.116)" fill="#ffb900"/><path d="M8818.684,858.964a38.34,38.34,0,0,1,7.095-7.59l-2.208-1.239c-2.159,5.394-4.2,10.839-6.274,16.266-.579,1.515,1.779,2.32,2.554,1.031a83.811,83.811,0,0,1,12.027-15.562l-2.2-1.64q-5.5,11.376-11.048,22.734a1.429,1.429,0,0,0,2.491,1.4q6.612-9.7,13.214-19.407l-2.6-1.049q-5.418,14.313-12.045,28.129a1.435,1.435,0,0,0,.521,1.939,1.492,1.492,0,0,0,1.986-.533,66.868,66.868,0,0,1,12.514-16.713l-2.259-1.682q-6.315,11.677-12.639,23.348a1.5,1.5,0,0,0,2.377,1.77q6.516-7.007,13-14.042l-2.521-1.414c-.943,4.952-3.28,9.413-5.621,13.825-.922,1.736,1.739,3.187,2.637,1.48,2.434-4.626,4.9-9.362,5.893-14.542a1.5,1.5,0,0,0-.69-1.666,1.557,1.557,0,0,0-1.83.251q-6.505,7.017-13.008,14.035l2.378,1.769q6.264-11.7,12.509-23.421a1.425,1.425,0,0,0-2.259-1.682,68.474,68.474,0,0,0-12.987,17.277l2.507,1.407q6.721-14.153,12.279-28.816a1.36,1.36,0,0,0-.818-1.638,1.467,1.467,0,0,0-1.779.589q-6.625,9.694-13.25,19.387l2.491,1.4q5.48-11.392,10.979-22.773a1.39,1.39,0,0,0-2.2-1.64,86.022,86.022,0,0,0-12.456,16.129l2.553,1.031c2.059-5.428,4.155-10.845,6.128-16.3a1.284,1.284,0,0,0-.6-1.459,1.4,1.4,0,0,0-1.6.22,32.46,32.46,0,0,0-7.052,8.376c-.694,1.2,1.063,2.091,1.825,1.024" transform="translate(-6935.607 5946.67)" fill="#ffb900"/><path d="M9041.444,504.544a12.275,12.275,0,0,1,5.753-5.839l-1.944-1.452q-2.514,7.827-4.992,15.665a1.411,1.411,0,0,0,2.583,1.042,160.214,160.214,0,0,1,11.141-18.424l-2.593-1.046q-4.937,13.982-9.892,27.958c-.553,1.559,1.848,2.424,2.631,1.062q5.115-8.908,10.846-17.44l-2.615-1.055a194.685,194.685,0,0,1-9.421,25.974,1.484,1.484,0,0,0,.535,2,1.547,1.547,0,0,0,2.046-.548,156.275,156.275,0,0,1,12.671-17.445l-2.5-1.405q-5.4,13.2-10.839,26.39a1.482,1.482,0,0,0,.894,1.787,1.617,1.617,0,0,0,1.94-.643q5.613-7.3,11.194-14.626l-2.831-1.142q-5.331,13.1-10.714,26.178a1.523,1.523,0,0,0,.918,1.836,1.662,1.662,0,0,0,2-.661q5.984-7.825,11.923-15.687l-2.874-1.16a91.979,91.979,0,0,1-9.259,23.372,1.593,1.593,0,0,0,2.526,1.881q5.5-6.1,10.963-12.235l-2.706-1.087a17.449,17.449,0,0,1-2.93,10.361,1.542,1.542,0,0,0,.566,2.115,1.642,1.642,0,0,0,2.168-.581,20.4,20.4,0,0,0,3.366-11.892,1.6,1.6,0,0,0-2.706-1.087q-5.5,6.1-11,12.2l2.526,1.881a97.4,97.4,0,0,0,9.513-24.136,1.523,1.523,0,0,0-.905-1.811,1.639,1.639,0,0,0-1.968.652q-5.984,7.83-11.96,15.666l2.913,1.176q5.309-13.1,10.626-26.2a1.479,1.479,0,0,0-.892-1.784,1.614,1.614,0,0,0-1.937.642q-5.6,7.31-11.2,14.623l2.834,1.144q5.366-13.21,10.738-26.417c.565-1.385-1.591-2.492-2.5-1.405a156.588,156.588,0,0,0-13.133,18.05l2.581,1.448a210.431,210.431,0,0,0,9.6-26.7c.462-1.617-1.752-2.334-2.615-1.055q-5.747,8.514-10.86,17.431l2.63,1.062q4.925-13.985,9.852-27.969a1.361,1.361,0,0,0-.816-1.634,1.468,1.468,0,0,0-1.775.588,151.529,151.529,0,0,0-11.132,18.429l2.583,1.042q2.423-7.851,4.825-15.708a1.322,1.322,0,0,0-1.944-1.452,14.589,14.589,0,0,0-6.287,7.321c-.43,1.069,1.369,1.766,1.865.753" transform="translate(-7138.796 6271.051)" fill="#ffb900"/><path d="M8584.272,1068a14.919,14.919,0,0,0-.325-3.369c-.135-.864-.308-1.721-.49-2.576-.269-1.255-.565-2.505-.905-3.742-.866-3.137-1.554-6.3-2.136-9.5-.289.489-.58.977-.869,1.465a87.619,87.619,0,0,0,13.378-3.873l-1.579-1.191q.564,5.262,1.222,10.512c.151,1.2.313,2.49.48,3.887q.371,3.1.707,6.205a1.3,1.3,0,0,0,1.269,1.259c.615,0,1.378-.567,1.3-1.257-.781-7.065-1.665-13.6-2.459-20.6-.081-.72-.744-1.514-1.579-1.191a83.506,83.506,0,0,1-13.357,3.953,1.229,1.229,0,0,0-.87,1.465,94.939,94.939,0,0,0,2.211,9.484c.355,1.233.736,2.458,1.061,3.7a33.932,33.932,0,0,0,1.6,5.735c.317.684,1.294.268,1.344-.36" transform="translate(-6717.967 5769.063)" fill="#2f2f31"/><path d="M8818.565,894.375c.041-9.421-1.323-18.792-2.732-28.089-.428-2.82-.885-5.635-1.334-8.452l-.874,1.472a39.6,39.6,0,0,1,13.576-2.087l-1.254-1.245c.733,9.268,1.685,18.516,2.512,27.776q.376,4.2.722,8.412a1.269,1.269,0,0,0,1.25,1.242,1.282,1.282,0,0,0,1.283-1.239c-.72-9.27-1.681-18.517-2.512-27.776q-.378-4.2-.713-8.412a1.271,1.271,0,0,0-1.254-1.245A41.667,41.667,0,0,0,8813.007,857a1.252,1.252,0,0,0-.874,1.472c1.411,9.187,2.831,18.36,3.853,27.6.313,2.843.64,5.677,1.006,8.513.114.893,1.569.652,1.574-.207" transform="translate(-6931.424 5941.616)" fill="#2f2f31"/><path d="M9048.545,611.062c-.377-3.88-1.022-7.736-1.618-11.588-.636-4.113-1.251-8.229-1.876-12.343-1.256-8.261-2.482-16.526-3.792-24.778q-1.042-6.578-2.169-13.143a1.219,1.219,0,0,0-1.492-.838,1.235,1.235,0,0,0-.875,1.472c1.369,7.9,2.6,15.814,3.822,23.732,1.281,8.253,2.527,16.51,3.881,24.751.711,4.33,1.37,8.7,2.445,12.955.225.889,1.766.733,1.674-.22" transform="translate(-7136.23 6221.019)" fill="#2f2f31"/><path d="M9051.7,509.562a23.308,23.308,0,0,0,5.711-1.344q2.837-.836,5.669-1.694l-1.56-.875q1.922,13.48,3.76,26.969c1.234,9.159,2.45,18.32,3.771,27.467.349,2.409.772,4.816,1.073,7.231.025.2.1.618-.039.742-.283.253-1.089.231-1.459.277a35.951,35.951,0,0,0-4.553.7,1.173,1.173,0,0,0,.287,2.3,30.979,30.979,0,0,0,3.981-.381,6.458,6.458,0,0,0,3.481-.977c1.074-.893,1.031-2.185.842-3.445q-.246-1.628-.491-3.257-1.03-6.946-1.978-13.9c-1.33-9.672-2.594-19.352-3.943-29.021-.715-5.126-1.426-10.255-2.26-15.363a1.271,1.271,0,0,0-1.56-.875q-2.817.92-5.622,1.869-1.345.453-2.68.931a12.69,12.69,0,0,0-2.809,1.24.759.759,0,0,0,.377,1.41" transform="translate(-7149.232 6261.39)" fill="#2f2f31"/><path d="M8557.571,392.838a59.608,59.608,0,0,0,11.056-7.224,71.331,71.331,0,0,0,9.354-9.061c5.895-6.857,10.289-14.77,14.091-22.936,1.095-2.35,2.14-4.724,3.153-7.11.987-2.325,2.033-4.656,2.854-7.045.438-1.275-1.648-2.114-2.2-.889-.9,2-1.67,4.058-2.516,6.08q-1.307,3.128-2.7,6.217c-1.872,4.122-3.879,8.189-6.125,12.121a75.744,75.744,0,0,1-16.177,19.847,92.18,92.18,0,0,1-11.733,8.41.926.926,0,0,0,.948,1.591" transform="translate(-6698.02 6412.852)" fill="#2f2f31"/><path d="M8885.659,317.286a14.725,14.725,0,0,0,3.243-2.583q1.569-1.4,3.129-2.8c2.068-1.871,4.056-3.884,6.211-5.653l-2.092-.84c.1,2.388.469,4.761.562,7.155s.008,4.791-.047,7.187a1.255,1.255,0,0,0,1.25,1.242,1.3,1.3,0,0,0,1.285-1.24,45.484,45.484,0,0,0,.2-7.312,34.679,34.679,0,0,0-.836-7.348,1.237,1.237,0,0,0-2.052-.521c-1.9,2.033-4.035,3.884-6.034,5.824q-1.458,1.416-2.9,2.847a14.83,14.83,0,0,0-2.846,3.141.675.675,0,0,0,.931.9" transform="translate(-6997.562 6443.641)" fill="#2f2f31"/></g></svg>