<svg xmlns="http://www.w3.org/2000/svg" width="566.081" height="520.346" viewBox="0 0 566.081 520.346"><g transform="translate(-194.776 -2475.427)"><path d="M2907.815,4059.37c-4.632,1.72-9.575,3.855-11.8,7.965-3.182,5.878.971,13.314,7.123,16.651s56.1,17.512,63.244,17.733c88.039,2.714,134.135-8.464,221.369-19.717,5.375-.693,11.016-1.545,15.261-4.654,48.113-35.235-108.294-47.879-127.066-46.706C3021.03,4034.076,2958.781,4040.445,2907.815,4059.37Z" transform="translate(-2490.902 -1106.359)" fill="#ebeaea"/><g transform="translate(482.901 2714.876)" style="mix-blend-mode:multiply;isolation:isolate"><g transform="translate(-472.715 -341.922)"><g transform="translate(184.59 102.472)"><g transform="translate(329.781 277.826)"><path d="M3781.719,2798.362c8.618-3.968,17.1-8.222,25.676-12.27l-3.678-4.646a373.594,373.594,0,0,0-26.935,39.714c-2.056,3.425,2.518,6.218,5.25,3.908q16.351-13.826,32.667-27.692l-5.331-3.968c-11.665,16.516-23.038,33.157-30.271,52.166-1.279,3.362,3.326,5.01,5.525,3.1q32.313-28.059,64.584-56.169l-4.406-4.266c-21.65,24.494-43.544,49.735-53.488,81.5-1.125,3.591,3.674,4.728,5.586,2.254a492.742,492.742,0,0,1,62.457-66.823l-4.32-4.184c-19.848,22.241-39.672,44.628-53.154,71.464a3.321,3.321,0,0,0,5.265,3.919q25.713-23.692,51.253-47.572l-4.586-4.441a201.745,201.745,0,0,0-30.945,46.2c-1.47,3.037,1.476,5.405,4.332,4.21a78.778,78.778,0,0,0,35.17-29.044l-5.761-.708c1.532,7.994-7.463,14.276-7.152,22.619.181,4.859,2.592,8.887,7.518,9.908,3.744.776,5.476-4.844,1.638-5.74-7.8-1.822.646-13.7,2.225-16.85a16.889,16.889,0,0,0,1.861-11.569c-.542-2.852-4.391-2.734-5.76-.708a73.142,73.142,0,0,1-32.921,26.747l4.332,4.21a192.6,192.6,0,0,1,30.05-44.837c2.8-3.112-1.545-7.239-4.586-4.441q-25.734,23.68-51.408,47.423l5.265,3.919c13.084-26.321,32.349-48.641,51.686-70.529a3.008,3.008,0,0,0-4.32-4.184,506.39,506.39,0,0,0-63.416,68.044l5.586,2.254c9.64-30.688,30.969-55.207,52-78.784,2.695-3.021-1.417-6.841-4.406-4.266q-32.429,27.95-64.855,55.906l5.525,3.1c7.071-18.423,18.4-34.564,29.758-50.548,2.378-3.347-2.639-6.249-5.33-3.968q-16.334,13.838-32.594,27.762l5.25,3.908c8.045-13.553,16.938-26.472,25.943-39.395,1.808-2.595-1.7-5.448-4.155-4.037-8.189,4.714-16.489,9.227-24.635,14.018-2.271,1.336-.277,4.431,2.011,3.377Z" transform="translate(-3776.266 -2780.593)" fill="#353535"/></g><g transform="translate(422.748 296.796)"><path d="M4476.49,2922.236a16.592,16.592,0,0,0-6.451,9.6,33.939,33.939,0,0,0-.674,6.551c-.056,1.455.651,6.423-.583,7.405l2.835-1.162-.926.056,2.7,1.083c-2.565-1.941-3.78-9.236-4.754-12.1-1.324-3.9-2.5-7.842-3.718-11.775a3.591,3.591,0,0,0-5.242-2.078c-2.932,1.958-4.483,4.74-3.239,8.214a3.185,3.185,0,0,0,6.205-.814q.3-.7.611-1.393l-5.242-2.078q3.353,9.907,6.393,19.9c1.148,3.81,2.646,10.108,8.159,8.561,10.247-2.876.22-20.261,6.842-26.29,1.991-1.812-.708-5.294-2.915-3.681Z" transform="translate(-4456.003 -2919.29)" fill="#ffb900"/></g><g transform="translate(13.646 192.075)"><path d="M1778.667,2253.557q-5.951,5.173-12,10.22l4.76,1.208c-1.575-3.914-3.159-7.82-4.8-11.7-1.084-2.557-5.43-1.193-5.3,1.42a15.128,15.128,0,0,1-2.768,9.617l4.948.608a18.075,18.075,0,0,0-8.7-13.209,3.019,3.019,0,0,0-4,1.071q-3.106,4.76-6.224,9.511l4.884-.672c-3.085-3.181-6.214-6.31-9.361-9.429a3.316,3.316,0,0,0-5.084.7c-1.507,2.7-3.018,5.392-4.506,8.1l5.593-.054a23.694,23.694,0,0,0-10.5-10.661,3.225,3.225,0,0,0-3.764.517,26.375,26.375,0,0,0-5.723,9.339l5.027-1.347q-5.158-4.347-10.254-8.763a3.049,3.049,0,0,0-4.186.047l-8.756,9.334,4.715.55c-3.436-7.391-13.651-5.91-16.547.975l5.592-.759-5.44-8.343a3.178,3.178,0,0,0-5.365.052q-4.942,7.217-9.847,14.458l5.748.707a21.2,21.2,0,0,0-12.457-14.331,3.253,3.253,0,0,0-4.242,1.137,24.7,24.7,0,0,0-3.885,10.982l5.108-2.092c-3.627-3.425-7.2-6.9-10.782-10.378-1.723-1.673-4.144-.629-4.968,1.331l-5.523,13.14,5.529-.75a60,60,0,0,0-14.225-18.125c-1.344-1.168-4.013-1.23-4.872.67q-2.945,6.519-5.931,13.018l5.958,1.552a34.254,34.254,0,0,0-11.565-25.786,3.468,3.468,0,0,0-5.781,2.368,64.152,64.152,0,0,1-4.16,16.309l6.509-.022a48.985,48.985,0,0,0-15.37-25.537,3.553,3.553,0,0,0-5.793,1.552l-5.663,20.5,6.819-.023a48.586,48.586,0,0,0-17.955-31.942c-2.178-1.75-6.388-.812-6.213,2.544l.737,14.123,7.116-.934a174.277,174.277,0,0,0-13.352-27.676c-1.314-2.2-4.932-2.313-6.173.06a41.584,41.584,0,0,0-4.851,23.66c.4,4.433,7.259,4.56,7.137.007a53.216,53.216,0,0,0-19.532-40.232c-2.587-2.12-6.951-.167-6.018,3.447l4.126,15.977c1.156,4.478,7.689,2.534,6.969-1.867a49.246,49.246,0,0,0-19.225-31.749c-1.868-1.4-5.346-1.276-5.9,1.58a83.3,83.3,0,0,0-1.221,23.852l6.82-.9a103.713,103.713,0,0,0-20.768-40.97c-1.946-2.37-5.987-.312-6.007,2.46-.071,9.551-.127,19.1-.227,28.654l6.992-.917a121.692,121.692,0,0,0-13.575-36.394c-1.239-2.186-5.206-2.448-6.318.061a62.317,62.317,0,0,0-5.493,30.414c.332,4.584,7.163,4.655,7.311.008a31.847,31.847,0,0,0-12.338-26.7,3.752,3.752,0,0,0-6.243,2.556q-1.249,12.51-2.485,25.022c-.456,4.594,6.808,4.512,7.264.008q1.267-12.511,2.532-25.022l-6.242,2.556a25.381,25.381,0,0,1,10.2,21.576l7.311.008a55.309,55.309,0,0,1,4.49-26.882l-6.319.061a118.461,118.461,0,0,1,13.028,34.574c.813,3.9,6.981,2.949,6.992-.918.027-9.551.1-19.1.155-28.654l-6.007,2.46a95.951,95.951,0,0,1,19.04,37.84c.919,3.623,7.181,2.988,6.82-.9a75.29,75.29,0,0,1,1.085-22.075l-5.9,1.58a43.986,43.986,0,0,1,17.251,28.673l6.969-1.867-4.144-15.972-6.018,3.447a46.424,46.424,0,0,1,17.479,35.194l7.137.007a34.771,34.771,0,0,1,3.877-20.209l-6.173.06a163.473,163.473,0,0,1,12.536,25.973c1.312,3.483,7.326,3.353,7.116-.934q-.347-7.061-.694-14.122l-6.213,2.544a43.71,43.71,0,0,1,16.27,28.678c.5,3.561,5.991,3.048,6.819-.023l5.538-20.53-5.793,1.552a42.247,42.247,0,0,1,13.754,22.428c.85,3.473,5.393,2.807,6.509-.022a70.819,70.819,0,0,0,4.437-18.006l-5.781,2.367a28.84,28.84,0,0,1,9.96,21.039c.106,2.883,4.622,4.621,5.957,1.552q2.857-6.567,5.765-13.111l-4.872.67a55.755,55.755,0,0,1,13.381,16.809c1.314,2.509,4.641,1.4,5.529-.751l5.427-13.165-4.968,1.331c3.6,3.451,7.2,6.9,10.758,10.4,1.43,1.409,4.657.915,5-1.339a20.2,20.2,0,0,1,3.365-8.738l-4.242,1.136c5,2.18,8.039,5.478,9.514,10.683.769,2.716,4.278,2.865,5.748.707q4.922-7.227,9.784-14.494l-5.365.052,5.519,8.3c1.536,2.309,4.619,1.613,5.592-.76q2.776-3.358,5.465.484c.811,1.717,3.515,1.845,4.715.55l8.7-9.388-4.186.047q5.122,4.383,10.184,8.833a3.1,3.1,0,0,0,5.027-1.347,15.1,15.1,0,0,1,4.317-6.609l-3.764.517a18.4,18.4,0,0,1,8.034,8.618c1.063,2.194,4.49,1.9,5.593-.054,1.517-2.692,3.011-5.4,4.509-8.1l-5.085.7c3.158,3.11,6.324,6.2,9.542,9.25a3.193,3.193,0,0,0,4.883-.672q2.943-4.851,5.9-9.694l-4,1.071a12.859,12.859,0,0,1,6.425,9.64c.44,2.527,3.748,2.254,4.948.608a18.335,18.335,0,0,0,3.783-12.229l-5.588.733c1.459,3.692,2.983,7.355,4.509,11.02.735,1.763,3.237,3.025,4.76,1.208q5.054-6.025,10.21-11.953a1.552,1.552,0,0,0-2.229-2.158Z" transform="translate(-1464.809 -2153.618)" fill="#ffb900"/></g><g transform="translate(293.2 76.738)"><path d="M3520.6,1316.929a171.876,171.876,0,0,0-11.68,28.865c-.787,2.571,2.419,5.1,4.712,3.521a112.146,112.146,0,0,0,24.268-22.911l-5.722-3.211a125.036,125.036,0,0,0-6.839,28.817c-.374,3.156,3.987,4.275,5.933,2.382a105.7,105.7,0,0,0,21.273-29.162l-6.548-1.705c.943,9.536-1.928,18.242-5.157,27.08-1.009,2.761,2.76,5.625,5.155,3.852a120.284,120.284,0,0,0,26.753-27.243l-6.442-2.6a149.642,149.642,0,0,0-4.754,25.553c-.309,3.118,4.062,4.479,6.03,2.421a196.1,196.1,0,0,0,21.118-26.276l-6.479-.8a36.558,36.558,0,0,1,.978,21.748,3.535,3.535,0,0,0,5.918,3.321q10.944-10.921,21.02-22.629l-6.061-2.433q-.649,11-1.3,21.994c-.146,2.478,2.353,3.735,4.455,3.36,13.775-2.457,14.6-19.181,25.545-25.29l-5.234-3.911q-2.3,10.284-4.617,20.564c-.734,3.264,3.6,6.272,6.036,3.387L3650.8,1319.8l-6.306-2.532a229.739,229.739,0,0,1-1.449,25.633c-.436,3.857,5.272,4.771,7,1.822q8.44-14.447,16.849-28.911l-6.953-.855a35.158,35.158,0,0,1-1.988,23.033c-1.786,4.205,4.7,5.987,6.936,2.8l8.943-12.745-6.936-2.8a54.754,54.754,0,0,0-.262,21.245c.848,4.712,8.195,2.724,7.35-1.969a44.383,44.383,0,0,1,.228-17.357c.886-4.3-4.5-6.266-6.937-2.8l-8.943,12.745,6.936,2.8a41.632,41.632,0,0,0,2.021-26.922c-.785-3.188-5.361-3.595-6.953-.855q-8.405,14.466-16.773,28.953l7,1.822a229.343,229.343,0,0,0,1.328-25.633c-.012-3-4.2-5.048-6.305-2.532l-21.725,25.935,6.036,3.387q2.265-10.293,4.54-20.584a3.563,3.563,0,0,0-5.234-3.911c-4.85,2.722-7.987,6.888-10.913,11.521-3.33,5.274-6.082,11.863-12.848,13.073l4.455,3.36q.644-11,1.288-21.994c.175-2.984-4.1-4.716-6.061-2.433q-10.08,11.722-21.011,22.637l5.918,3.321a43.555,43.555,0,0,0-.956-25.374,3.6,3.6,0,0,0-6.479-.8,185.408,185.408,0,0,1-20,24.868l6.03,2.421a139.181,139.181,0,0,1,4.482-23.777c1.125-4.041-4.262-5.67-6.442-2.6a109.539,109.539,0,0,1-24.193,24.736l5.154,3.852c3.444-9.437,6.416-18.7,5.407-28.852-.311-3.123-4.87-5.1-6.549-1.706a101.273,101.273,0,0,1-20.12,27.809l5.933,2.382a117.777,117.777,0,0,1,6.486-27.093c1.141-3.124-3.656-5.837-5.722-3.211a128.73,128.73,0,0,1-23.312,22.69l5.375,3.016a255.562,255.562,0,0,1,8.927-29.1c.742-2-2.49-3.238-3.446-1.391Z" transform="translate(-3508.796 -1310.313)" fill="#ffb800"/></g><g transform="translate(324.411 278.046)"><path d="M3747.7,2783.91c-6.266,16.126-9.355,33.723-10.267,50.966-.871,16.487-.912,36.292,4.945,51.959,1.682,4.5,9.554,4.338,9.213-1.209-.49-7.978-2.487-15.839-3.26-23.812A251.679,251.679,0,0,1,3747,2836.3c.086-17.32,2.45-34.124,5.432-51.15a2.453,2.453,0,0,0-4.739-1.244Z" transform="translate(-3737.006 -2782.201)" fill="#2e2e2d"/></g><g transform="translate(338.031 367.208)"><path d="M3839.181,3447.906a103.737,103.737,0,0,1,35.506-4.072,92.657,92.657,0,0,1,17.547,2.9c5.765,1.5,11.122,4.376,16.9,5.646,4.271.939,8.867-4.759,4.788-8.062-9.868-7.99-25.451-10.147-37.826-10.2a77.794,77.794,0,0,0-38.5,10.032,2.059,2.059,0,0,0,1.585,3.754Z" transform="translate(-3836.584 -3434.12)" fill="#2e2e2d"/></g><g transform="translate(405.695 274.305)"><path d="M4346.629,2872.514c4.81-18.13,4.932-37.891,4.1-56.51-.855-19.084-3.157-38.425-8.1-56.9l-10.577,4.386c1.567,2.1,3.216,4.117,4.876,6.143,2.9,3.545,9.839-.306,8.124-4.653-.965-2.445-1.937-4.871-3.011-7.27-2.693-6.012-11.931-1.587-10.576,4.386,4.158,18.337,8.016,36.589,9.81,55.339,1.744,18.218,1.031,36.447,2.173,54.67a1.633,1.633,0,0,0,3.189.412Z" transform="translate(-4331.322 -2754.845)" fill="#2e2e2d"/></g><g transform="translate(264.663)"><path d="M3437.291,750.748a114.454,114.454,0,0,0-48.578,2.491c-12.819,3.49-26.812,8.877-35.6,19.317-13.974,16.594-19.505,41.349-25.2,61.732-2.9,10.369-5.485,20.859-8.911,31.071-4.189,12.487-9.153,24.606-12.55,37.367-6.645,24.958-10.126,52.916.314,77.35,11.5,26.921,38.852,42.361,65.861,50.2,26.2,7.608,55.531,8.132,81-2.449,28.8-11.967,47.293-39.7,57.781-68.145a118.953,118.953,0,0,0,7.406-47.161c-.729-13.75-4.922-26.393-7.709-39.727-4.683-22.4-5.406-49.493-18.8-68.941-7.127-10.35-18.764-13.545-30.786-15.136-17.657-2.337-35.683.925-50.943,10.22-5.348,3.257-.657,10.732,4.813,8.081,13.154-6.377,27.616-9.606,42.25-8.193,10.531,1.017,21.256,3.2,26.911,12.786,9.537,16.162,11.074,37.235,14.244,55.363,1.694,9.688,4.538,18.965,6.565,28.563a106.245,106.245,0,0,1,.135,43.729c-3.163,14.959-9.405,28.835-17.085,41.991-7.345,12.579-15.9,24.056-28.444,31.834-21.334,13.232-48.3,15.037-72.484,10.369-25.589-4.938-54.313-17.078-68.021-40.526-24.235-41.457,2.577-89.918,14.149-130.746,6.2-21.889,10.929-45.425,21.567-65.71,14.25-27.171,53.934-31.9,81.386-30.767,2.825.116,3.667-4.491.73-4.967Z" transform="translate(-3300.146 -749.238)" fill="#2e2e2d"/></g><g transform="translate(349.456 9.995)"><path d="M3922.326,853.651c28.136-19.592,61.7-24.361,94.97-18.708,6.912,1.174,10.208-9.149,3.03-10.622-35.615-7.31-70.848,6.225-99.533,26.757-1.583,1.133-.082,3.7,1.532,2.573Z" transform="translate(-3920.121 -822.316)" fill="#2e2e2d"/></g><g transform="translate(399.801 138.943)"><path d="M4290.577,1767.64c-1.3,6.309-1.7,12.836-2.328,19.238-.608,6.192,10,6.3,9.892.01-.106-6.1.024-12.3-.716-18.363-.431-3.519-5.995-5.038-6.848-.885Z" transform="translate(-4288.224 -1765.137)" fill="#2e2e2d"/></g><g transform="translate(436.569 138.786)"><path d="M4561.088,1764.077c-4.083,1.068-3.949,6.626-4.01,10.046-.091,5.07.071,11.182,3.008,15.493,1.437,2.109,5.463,2.108,6.028-.819,1.07-5.534-.451-11.7-.906-17.284-.162-1.988-.514-8.38-4.12-7.436Z" transform="translate(-4557.061 -1763.983)" fill="#2e2e2d"/></g><g transform="translate(318.824 130.385)"><path d="M3711.382,1702.79c-13.44,6.2-17.534,24.279-14.045,37.507,4.5,17.054,19.358,30.218,34.213,38.55,31.212,17.508,76.662,15.846,99.834-14.453,2.825-3.693-2.951-6.78-5.925-4.411-11.794,9.393-23.611,17.142-38.684,20.057-15.549,3.007-31.809.2-46.008-6.6-24.558-11.762-51.878-42.115-26.7-67.262,1.883-1.881-.515-4.39-2.684-3.39Z" transform="translate(-3696.154 -1702.563)" fill="#2e2e2d"/></g><g transform="translate(189.327 107.134)"><path d="M2897.9,1704.327c-19.914-3.231-41.074-1.831-60.5-7.534-16.031-4.706-29.722-15.786-39.463-29.16-21.933-30.112-25.428-70.309-13.156-104.93.965-2.722-1.617-6.243-4.574-5.933-10.885,1.143-19.734-5.806-22.128-16.327l-1.172,4.24c3.753-3.179,7.854-4.6,12.556-5.684,3.718-.86,2.921-6.349-.8-6.433a30.273,30.273,0,0,0-17.182,5.261,4.637,4.637,0,0,0-2.1,4.945c1.96,14.578,16.321,24.859,30.7,23.429l-4.574-5.933c-13.361,37.032-8.937,81.115,14.866,113.065,10.284,13.8,23.835,25.048,40.2,30.8,20.456,7.185,45.41,5.886,66.7,4.474,2.306-.153,3.283-3.847.629-4.277Z" transform="translate(-2749.319 -1532.56)" fill="#2e2e2d"/></g><g transform="translate(415.4 113.494)"><path d="M4403.384,1738.762c19.025,11.736,45.377,7.1,64.139-2.536,22.289-11.443,38.115-32.375,48.444-54.729a246.321,246.321,0,0,0,12.81-35.239c3.931-13.64,7.675-26.143,16.583-37.458,5.423-6.887,11.286-16.458,4.638-24.6-4.749-5.814-14.105-7.666-18.259-.4-2.061,3.608,2.777,7.056,5.7,4.243,1.525-1.467,4.1.455,4.923,1.984,1.487,2.753-.4,5.776-1.77,8.049-2.188,3.635-5.367,6.654-7.857,10.089-5.509,7.6-8.876,16.536-11.631,25.441-5.822,18.831-10.912,37.466-20.722,54.754-9.555,16.841-22.527,31.637-39.9,40.655a78.884,78.884,0,0,1-25.416,8.179c-10.523,1.453-19.7-.24-29.891-2.6a2.294,2.294,0,0,0-1.8,4.164Z" transform="translate(-4402.279 -1579.064)" fill="#2e2e2d"/></g><g transform="translate(303.496 150.884)"><path d="M3600.982,1853.2c-13.525,23.948-27.257,65.2-5.557,88.7,21.861,23.674,58.867,10.481,77.494-10.014,3.421-3.764-1.711-8.345-5.47-5.3-10.092,8.183-20.8,16.212-33.933,18.5-12.7,2.208-27.182-1.823-34.605-12.909-6.984-10.429-6.782-24.189-5.327-36.168a179.8,179.8,0,0,1,10.321-41.631c.648-1.717-2.066-2.7-2.923-1.179Z" transform="translate(-3584.08 -1852.444)" fill="#2e2e2d"/></g><g transform="translate(384.37 374.518)"><path d="M4175.7,3491.063c12.685,26.225,29.8,50.564,46.717,74.2,5.46,7.632,11.584,20.3,22.947,15.467,9.2-3.911,18.253-14.1,21.759-23.3,1.536-4.026-4.32-6.772-7.021-3.939-3.156,3.312-5.762,7.08-8.96,10.364a58.832,58.832,0,0,1-4.588,4.273c-4.041,3.347-6.96,2.594-10.3-.782-7.256-7.345-12.785-17.767-18.733-26.206-12.388-17.574-24.28-35.647-37.606-52.525-1.863-2.359-5.6-.417-4.219,2.442Z" transform="translate(-4175.402 -3487.566)" fill="#2e2e2d"/></g><g transform="translate(263.295 371.822)"><path d="M3377.45,3469.508c-5.033,13.3-6.827,28.01-10.222,41.8-1.958,7.953-6.473,10.159-14.311,8.307-6.108-1.443-11.929-4.874-17.188-8.2-6.056-3.835-10.97-8.512-16.174-13.352-3.023-2.812-6.062-4.917-10.315-3.677-9.659,2.817-16.165,16.808-18.914,25.489-1.33,4.2,5.259,6.869,7.2,2.9,2.75-5.62,6.676-13.649,11.838-17.408,1.979-1.442,1.28-1.771,3.566-.75,1.249.558,2.684,2.727,3.705,3.684a95.714,95.714,0,0,0,8.023,6.689c8.984,6.746,20.313,13.67,31.871,14.206,10.1.469,16.721-5.032,18.758-14.736,2.988-14.234,6.43-29.788,6.855-44.344.083-2.831-3.8-2.96-4.69-.606Z" transform="translate(-3290.149 -3467.857)" fill="#2e2e2d"/></g><g transform="translate(298.829 76.67)"><path d="M3550.84,1315.483c21.393,13.552,50.654,11.465,74.891,11.453,27.043-.014,57.186-.207,82.869-9.694a3.806,3.806,0,0,0-1.97-7.352c-13.66,2.257-27.047,5.134-40.882,6.308-12.784,1.085-25.639,1.417-38.464,1.558-24.935.273-51.07,2.653-74.925-5.792-2.136-.756-3.33,2.373-1.519,3.52Z" transform="translate(-3549.954 -1309.817)" fill="#2e2e2d"/></g><g transform="translate(289.198 111.019)"><path d="M3480.4,1564.052c28.042,12.441,58.466,11.224,88.5,11,16.078-.119,32.175-.19,48.243-.8,15.266-.581,33.244-.22,47.726-5.534,3.866-1.418,3.754-7.6-.934-7.489-7.753.18-15.484,2.017-23.216,2.742-7.8.731-15.625,1.135-23.455,1.362-15.106.438-30.225.3-45.335.459-29.955.312-60.812,2.094-90.209-4.787-1.749-.409-3.155,2.232-1.315,3.048Z" transform="translate(-3479.535 -1560.961)" fill="#2e2e2d"/></g><g transform="translate(246.677 116.061)"><path d="M3206.417,1610.623c.405-7.408-6.487-12.894-13.634-12.794-8.825.123-15.538,7.24-19,14.721-3.123,6.752-8.367,19.181-2.482,25.892,5.34,6.09,15.193,3.481,21.151-.093,4.262-2.557.523-8.438-3.807-6.392-3.8,1.8-11.359,5.348-12.283-1.737-.516-3.958,2.464-11.01,3.979-14.525,1.813-4.205,4.511-8.26,8.762-10.34a9.723,9.723,0,0,1,13.645,5.75,1.882,1.882,0,0,0,3.667-.481Z" transform="translate(-3168.638 -1597.827)" fill="#2e2e2d"/></g><g transform="translate(40.125 186.946)"><path d="M1945.415,2218.121c-24.08-3.666-48.479-1.847-72.734-2.1-24.909-.256-51.058-2.2-75.092-9.017-25.63-7.27-46.14-23.642-66.907-39.607-22.055-16.955-43.769-34.491-66.4-50.673-3.461-2.475-8.059,3.189-4.694,6,22.614,18.909,46.411,36.492,69.669,54.6,19.593,15.253,39.16,30.2,63.257,37.514,49.7,15.084,101.437,7.391,152.284,7.462,2.345,0,3.129-3.8.615-4.186Z" transform="translate(-1658.416 -2116.116)" fill="#2e2e2d"/></g><g transform="translate(0.545 323.497)"><path d="M1392.272,3148.876c-4.41-11.642-10.51-23.98-18.522-33.56-1.7-2.028-5.458.159-4.6,2.636,4,11.573,11.369,23.082,18.92,32.667,1.39,1.764,5.2.887,4.2-1.744Z" transform="translate(-1369.023 -3114.518)" fill="#2e2e2d"/></g><g transform="translate(416.066 312.004)"><path d="M4427.554,3043.451c-2.656-2.22-5.31-4.44-8.006-6.612-2.55-2.054-4.958-4.6-7.912-6.035-2.854-1.388-6.1,2.145-3.593,4.595,2.364,2.313,5.552,3.74,8.365,5.455,2.979,1.816,5.99,3.577,9,5.339,1.646.963,3.717-1.429,2.145-2.742Z" transform="translate(-4407.146 -3030.49)" fill="#2e2e2d"/></g><g transform="translate(8.995 185.007)"><path d="M1744.887,2225.57c-29.247-4.1-57.6-7.023-87.23-6-25.671.888-53.1,7.946-77.319-3.211-18.1-8.336-35.963-18.947-50.981-32.091-14.829-12.978-30.133-25.806-48.125-34.189a178.242,178.242,0,0,0-33.6-11.3c-4.25-1.026-9.387-1.715-8.86-7.638.285-3.2,3.528-7.254,5.511-9.667,4.961-6.036,11.45-9.905,18.657-12.682,4.177-1.609,2.74-7.856-1.8-6.721a44.528,44.528,0,0,0-26.931,20.341c-4.992,8.429-5.437,18.384,5.059,22.283,11.9,4.42,24.451,6.1,36.179,11.359a143.69,143.69,0,0,1,28.557,17.386c9.363,7.19,17.793,15.517,27.146,22.693A238.421,238.421,0,0,0,1559,2214.2c8.8,4.98,17.927,9.864,27.53,13.128,13.779,4.684,28.375,2.883,42.56,1.658,18.942-1.636,37.962-2.288,56.972-2.2,19.355.087,39.127-.144,58.409,1.6,1.606.145,2.058-2.575.413-2.806Z" transform="translate(-1430.801 -2101.936)" fill="#2e2e2d"/></g><g transform="translate(8.867 303.672)"><path d="M1429.932,2989.634a88.825,88.825,0,0,0,10.953,26.549c1.492,2.429,4.89,1.188,5.17-1.386,1.029-9.455,1.917-18.922,2.818-28.391l-6.11-.006a105.064,105.064,0,0,0,6.812,31.217c1.044,2.685,5.479,3.333,6.232-.021l7.7-34.292-5.992.813a52.077,52.077,0,0,1,8.89,23.284c.407,3.372,5.631,4.758,6.507.841,2.042-9.134,4.069-18.27,6.158-27.393l-6.19.84a62.462,62.462,0,0,1,6.2,23.7c.256,4.1,5.556,4.564,6.983.9,3.476-8.919,6.828-17.888,10.231-26.835l-6.964.024q2.246,11.591,4.493,23.182c.73,3.766,5.92,3,7.009-.024a209.274,209.274,0,0,1,12.342-27.77l-6.7-.824a107.031,107.031,0,0,1,1.83,26.516c-.25,4.732,6.935,4.553,7.376.008a39.789,39.789,0,0,1,9.8-22.7l-6.219-1.58q3.461,13.524,6.923,27.047c.741,2.9,5.509,3.816,6.85.842l9.779-21.686-6.892-.848q2.416,11.66,4.845,23.317c.729,3.5,6.658,3.584,7.287-.024a40.533,40.533,0,0,1,7.783-18.013l-6.909-.849,7.719,21.424c1.219,3.385,6.185,3.663,7.287-.024a44.307,44.307,0,0,1,10.968-18.7l-5.92-.69a95.677,95.677,0,0,1,8.191,22.891,3.765,3.765,0,0,0,6.254,1.588,34.835,34.835,0,0,0,9.057-22.431l-6.922,1.855q4.521,10.118,9.013,20.249c1.114,2.506,5.272,2.215,6.425-.062l9.672-19.1-5.867.807c5.495,4.464,8.757,9.964,9.389,17.1a3.777,3.777,0,0,0,7.372.953l6.733-16.872-7.28.024,4.3,16.479c.831,3.187,5.294,3.566,6.93.852q5.039-8.362,10.07-16.728l-6.558.063a59.435,59.435,0,0,1,6.73,18.118c.647,3.219,5.4,3.522,6.908.849l10.6-18.8-6.87-.844a29.039,29.039,0,0,0,11.54,19.194c1.8,1.354,4.62,1.5,5.863-.807l7.9-14.652-6.424.063q4.4,7.129,8.785,14.263c1.307,2.134,5.273,2.558,6.411-.062l6.33-14.566-6.465.063a47.259,47.259,0,0,0,10.417,13.982c1.874,1.748,5.792,1.175,6.3-1.688a35.063,35.063,0,0,1,6.934-16.024l-5.991-.7a59.809,59.809,0,0,1,8.923,16.226,3.917,3.917,0,0,0,6.458,1.64,37.892,37.892,0,0,0,11.067-17.087l-7.54.025a27.346,27.346,0,0,0,9.146,16.708,4.037,4.037,0,0,0,6.147-.846l9.1-13.481-6.757.065a40.761,40.761,0,0,0,10.94,14.733,4.009,4.009,0,0,0,6.13-.843l6.618-12.017-7.136-.877a27.657,27.657,0,0,0,8.192,15.5c1.615,1.6,3.888,1.207,5.521-.062a26.485,26.485,0,0,0,8.108-10.174l-7.232-.889,5.256,14.618c.944,2.625,4.6,4.134,6.716,1.705q4.494-5.159,8.954-10.346l-6.323-.737,10.156,13.918a4.1,4.1,0,0,0,6.262.73l11.746-10.115-6.608-1.678c2.545,14.888,24.313,12.257,22.85-2.841l-7.653,1a36.012,36.012,0,0,0,10.218,14.251,4.065,4.065,0,0,0,5.474-.062,30.174,30.174,0,0,0,10.168-15.576l-7.077.961,8.813,14.04c1.7,2.711,6.236,2.277,7.077-.961l4.949-19.051-7.472.026a65.682,65.682,0,0,0,8.684,17.818,4.007,4.007,0,0,0,5.29,1.318c7.385-3.579,9.008-11.23,9.068-18.8.059-7.5-3.426-21.374,4.394-26.007l-5.29-1.317a44.406,44.406,0,0,1,1.468,33.441c-1.2,3.548,2.977,5.673,5.8,4.331a22.353,22.353,0,0,0,10.132-30.392c-2.2-4.4-8.828-.53-6.742,3.9,3.557,7.556-.061,16.275-7.357,19.83l5.8,4.33a52.919,52.919,0,0,0-2.391-39.319c-.861-1.882-3.673-2.276-5.29-1.317-7.176,4.252-8.65,11.9-8.651,19.7,0,7.372,3.437,21.106-4.812,25.1l5.29,1.317a58.429,58.429,0,0,1-7.9-15.947c-1.109-3.5-6.492-3.745-7.471.025l-4.949,19.052,7.077-.961-8.813-14.04a3.957,3.957,0,0,0-7.077.961,23.4,23.4,0,0,1-8.185,12.234l5.474-.062a27.689,27.689,0,0,1-8.17-10.847c-1.471-3.564-8.088-3.7-7.653,1q1.31,6.762-7.432.8c-.53-3.185-4.615-3.379-6.608-1.678l-11.8,10.067,6.262.73-10.088-13.958c-1.4-1.935-4.514-2.821-6.323-.737q-4.485,5.167-8.94,10.36l6.716,1.705-5.373-14.587c-1.042-2.828-5.7-4.231-7.232-.889a22,22,0,0,1-6.807,8.659l5.521-.063a20.672,20.672,0,0,1-6.174-12.054c-.568-3.357-5.631-3.6-7.136-.877l-6.626,12.012,6.13-.843a36.084,36.084,0,0,1-9.7-13.183c-1.266-2.87-5.327-2.05-6.757.065l-9.107,13.476,6.147-.846a21.175,21.175,0,0,1-7.129-13.251c-.637-4.022-6.487-3.267-7.54.026a30.359,30.359,0,0,1-9,13.781l6.458,1.639a67.006,67.006,0,0,0-9.789-18.043c-1.849-2.414-4.753-2.291-6.587.063a40.958,40.958,0,0,0-8.219,18.571l6.3-1.689a41.879,41.879,0,0,1-9.281-12.446c-1.583-3.187-5.729-1.652-6.839.929l-6.273,14.588,6.782-.921q-4.4-7.124-8.772-14.27a3.787,3.787,0,0,0-6.424.063l-7.931,14.636,5.862-.807a23.123,23.123,0,0,1-9.561-15.912c-.515-3.276-5.411-3.418-6.87-.844l-10.641,18.777,6.908.85a66.282,66.282,0,0,0-7.464-19.962,3.868,3.868,0,0,0-6.558.063q-5.04,8.361-10.056,16.735l6.929.852-4.324-16.472c-1.011-3.85-6.01-3.174-7.28.025l-6.7,16.88,7.372.952c-.814-9.016-4.53-16.607-11.614-22.342-1.721-1.394-4.715-1.479-5.867.808l-9.64,19.12,6.425-.062q-4.518-10.118-9.025-20.242c-1.55-3.49-6.782-1.423-6.922,1.855a26.908,26.908,0,0,1-6.916,17.326l6.254,1.588a103.638,103.638,0,0,0-8.9-24.727c-1.094-2.155-4.342-2.307-5.921-.69a52.132,52.132,0,0,0-12.916,21.941l7.287-.025-7.719-21.424c-1.161-3.223-4.957-3.455-6.909-.85a45.13,45.13,0,0,0-8.538,19.761l7.287-.025q-2.427-11.656-4.863-23.312c-.628-3-5.586-3.758-6.892-.847l-9.738,21.708,6.85.842-6.975-27.033c-.667-2.583-4.388-3.686-6.22-1.579a47.9,47.9,0,0,0-11.924,27.781l7.376.008a114.84,114.84,0,0,0-2.123-28.421c-.611-3.072-5.291-3.477-6.7-.824a221.974,221.974,0,0,0-13.017,29.48l7.009-.024-4.538-23.17c-.74-3.778-5.844-2.939-6.964.024-3.385,8.951-6.822,17.883-10.134,26.86l6.983.9a71.662,71.662,0,0,0-7.456-27.1c-1.259-2.523-5.6-1.878-6.19.84-1.971,9.151-4,18.288-6.021,27.429l6.506.84a58.758,58.758,0,0,0-9.846-26.573c-1.461-2.141-5.356-2.057-5.992.813q-3.8,17.158-7.6,34.317l6.232-.021a102.657,102.657,0,0,1-6.948-29.537,3.06,3.06,0,0,0-6.11-.006c-.789,9.461-1.59,18.919-2.251,28.391l5.17-1.385A90.754,90.754,0,0,1,1434,2988.544a2.109,2.109,0,0,0-4.068,1.09Z" transform="translate(-1429.869 -2969.568)" fill="#ffb900"/></g><g transform="translate(20.201 296.657)"><path d="M1515.441,2981.555c35.362-23.866,79.078-18.42,118.762-11.455,20.4,3.581,40.874,7.413,61.632,8.044,21.326.648,42.81-1.68,64.087-2.884,21.175-1.2,42.562-2.345,63.719-.313,20.158,1.936,39.912,6.576,59.878,9.784,27.833,4.472,75.209,11.514,91.985-19.164,6.912-12.64,2.531-27.639-8.615-36.082-12.4-9.393-29.787-11.611-44.9-11.152-3.566.108-3.482,4.913-.073,5.334,13.562,1.675,29.188,4.115,40.093,13.052,12.628,10.35,8.2,26.483-4.463,34.387-14.448,9.019-32.231,8.613-48.6,7.385-19.225-1.442-38.07-5.61-57.025-8.915-37.32-6.506-74.011-4.769-111.634-2.435-19.606,1.216-39.172,2.8-58.8,1.079-20.9-1.832-41.53-6.021-62.328-8.692-35.981-4.622-75.87-3.626-105.867,19.329-1.586,1.214.5,3.8,2.135,2.7Z" transform="translate(-1512.74 -2918.276)" fill="#2e2e2d"/></g><g transform="translate(0 299.433)"><path d="M1367.539,2967.331c28.141-12.635,56.771-21.288,87.937-20.943,32.623.361,61.856,13.6,93.556,18.977,32.273,5.477,64.515-1.295,96.885-1.375,29.18-.072,57.355,7.924,85.9,12.9,27.607,4.818,61.176,8.454,85.6-8.509,3.836-2.665.564-7.906-3.592-6.031-13.119,5.922-26.1,9.731-40.59,10.129-14.409.4-28.749-1.633-42.886-4.226-27.973-5.13-55.687-12.567-84.318-12.531-33.56.042-66.964,7.354-100.328.586-29.87-6.059-57.938-17.412-88.828-17.73-31.349-.323-65.149,7.6-91.034,25.894a1.662,1.662,0,0,0,1.7,2.854Z" transform="translate(-1365.036 -2938.573)" fill="#2e2e2d"/></g></g></g></g></g></svg>