<?xml version="1.0" encoding="UTF-8"?><svg id="a" xmlns="http://www.w3.org/2000/svg" viewBox="0 0 4138.96 3804.56"><path d="M173.98,2616.5c-32.25-85.12-76.84-175.34-135.43-245.38-12.4-14.83-39.9,1.16-33.65,19.28,29.22,84.62,83.13,168.76,138.34,238.85,10.16,12.9,38.03,6.49,30.74-12.75h0Z" style="fill:#1a172a; stroke-width:0px;"/><path d="M2450.14,2045.46c-45.81,117.91-68.4,246.57-75.06,372.64-6.37,120.55-6.67,265.35,36.15,379.91,12.3,32.91,69.85,31.72,67.36-8.84-3.58-58.33-18.19-115.81-23.84-174.1-6.01-62.01-9.99-124.2-9.68-186.52.63-126.64,17.91-249.5,39.71-373.99,3.99-22.79-26.44-30.22-34.65-9.09h0Z" style="fill:#1a172a; stroke-width:0px;"/><path d="M3078.2,2865.96c35.17-132.56,36.06-277.04,29.96-413.18-6.25-139.54-23.09-280.95-59.27-416.05-25.78,10.69-51.55,21.38-77.33,32.07,11.46,15.35,23.51,30.1,35.65,44.92,21.23,25.92,71.94-2.24,59.4-34.02-7.05-17.88-14.16-35.61-22.01-53.15-19.69-43.96-87.23-11.6-77.33,32.07,30.4,134.08,58.6,267.53,71.72,404.62,12.75,133.21,7.54,266.49,15.89,399.73.8,12.83,19.79,16.31,23.32,3.01h0Z" style="fill:#1a172a; stroke-width:0px;"/><path d="M2451.1,2161.28c63.01-29.02,125-60.11,187.73-89.71-8.97-11.32-17.93-22.65-26.89-33.97-72.61,91.78-136.74,190.1-196.94,290.38-15.03,25.04,18.41,45.46,38.38,28.58,79.7-67.39,159.41-134.78,238.85-202.47-12.99-9.67-25.98-19.34-38.97-29.01-85.29,120.76-168.44,242.43-221.33,381.41-9.35,24.58,24.32,36.63,40.4,22.67,157.51-136.77,314.82-273.78,472.21-410.69-10.74-10.4-21.47-20.79-32.21-31.19-158.3,179.09-318.38,363.64-391.09,595.93-8.22,26.26,26.86,34.57,40.84,16.48,136.73-176.89,289.63-340.01,456.66-488.58-10.53-10.2-21.06-20.39-31.59-30.59-145.12,162.62-290.07,326.3-388.64,522.52-12.46,24.81,17.93,47.61,38.49,28.66,125.34-115.49,249.98-231.73,374.75-347.83-11.18-10.82-22.35-21.64-33.53-32.47-90.73,102.12-166.73,214.81-226.26,337.81-10.74,22.2,10.79,39.52,31.67,30.78,105.93-44.34,193.05-117.26,257.15-212.36-14.04-1.73-28.08-3.45-42.12-5.18,11.2,58.45-54.57,104.38-52.3,165.38,1.32,35.53,18.95,64.98,54.97,72.44,27.37,5.67,40.03-35.42,11.97-41.97-57-13.32,4.73-100.17,16.27-123.2,14.31-28.54,19.57-53.27,13.61-84.59-3.97-20.86-32.1-20-42.12-5.18-59.92,88.65-142.13,154.45-240.71,195.57,10.56,10.26,21.12,20.52,31.67,30.78,57.98-119.4,130.96-229.06,219.71-327.83,20.44-22.75-11.29-52.93-33.53-32.47-125.44,115.42-251.01,230.7-375.88,346.74,12.83,9.55,25.66,19.1,38.49,28.66,95.67-192.45,236.52-355.64,377.91-515.68,19.11-21.64-10.36-49.51-31.59-30.59-169.77,151.33-324.42,317.73-463.67,497.51,13.61,5.49,27.23,10.99,40.84,16.48,70.48-224.38,226.43-403.65,380.21-576.04,19.7-22.09-10.36-50.02-32.21-31.19-158.08,136.24-316.24,272.39-474.2,408.76,13.47,7.56,26.93,15.11,40.4,22.67,51.7-134.7,134.54-252.72,217.58-369.59,17.39-24.47-19.3-45.69-38.97-29.01-79.62,67.46-158.96,135.22-238.32,202.99,12.79,9.53,25.59,19.05,38.38,28.58,58.83-99.1,123.84-193.55,189.68-288.04,13.22-18.97-12.45-39.83-30.37-29.52-59.88,34.47-120.56,67.46-180.12,102.49-16.6,9.77-2.02,32.4,14.71,24.69h0Z" style="fill:#f49539; stroke-width:0px;"/><path d="M2230.05,609.45c-35.16,67.97-62.99,137.85-85.4,211.05-5.75,18.8,17.69,37.32,34.46,25.75,67.77-46.78,126.33-102.99,177.44-167.51-13.95-7.83-27.89-15.65-41.84-23.48-25.28,68.55-41.41,138.22-50,210.7-2.73,23.08,29.15,31.26,43.38,17.42,64.09-62.32,115.9-133.06,155.54-213.22-15.96-4.16-31.92-8.31-47.88-12.47,6.9,69.72-14.09,133.38-37.7,198-7.38,20.19,20.18,41.13,37.69,28.16,76.03-56.31,140.8-122.06,195.61-199.19-15.7-6.34-31.4-12.67-47.1-19.01-17.12,61.42-28.48,123.4-34.76,186.83-2.26,22.79,29.7,32.75,44.09,17.7,57.06-59.65,108.38-123.61,154.4-192.12-15.79-1.94-31.58-3.88-47.37-5.82,18.36,53.91,21.08,103.66,7.15,159.01-6.28,24.94,25.04,42.48,43.27,24.28,53.35-53.23,104.53-108.33,153.69-165.45-14.77-5.93-29.54-11.86-44.31-17.79-3.16,53.6-6.32,107.21-9.48,160.81-1.07,18.11,17.21,27.31,32.57,24.57,100.72-17.97,106.76-140.24,186.78-184.91-12.76-9.53-25.51-19.06-38.27-28.6-11.21,50.13-22.48,100.24-33.76,150.35-5.37,23.86,26.29,45.86,44.13,24.76,53.22-62.94,106.44-125.89,159.66-188.83-15.37-6.17-30.74-12.34-46.1-18.51-.04,62.74-3.56,125.07-10.6,187.42-3.18,28.2,38.55,34.89,51.15,13.32,41.14-70.42,82.22-140.87,123.19-211.38-16.95-2.08-33.89-4.17-50.84-6.25,14.44,58.69,8.99,112.99-14.54,168.41-13.05,30.75,34.36,43.77,50.71,20.47,21.8-31.06,43.59-62.12,65.39-93.18-16.9-6.82-33.81-13.64-50.71-20.47-10.81,52.38-11.38,102.75-1.91,155.34,6.2,34.45,59.92,19.92,53.74-14.4-7.81-43.36-7.22-83.82,1.67-126.9,6.48-31.41-32.92-45.82-50.71-20.47-21.8,31.06-43.59,62.12-65.39,93.18,16.9,6.82,33.81,13.64,50.71,20.47,27.15-63.96,31.35-129.51,14.78-196.84-5.74-23.31-39.2-26.28-50.84-6.25-40.97,70.51-81.83,141.09-122.64,211.69,17.05,4.44,34.1,8.88,51.15,13.32,6.74-62.37,9.97-124.7,9.71-187.42-.09-21.91-30.69-36.91-46.1-18.51-52.95,63.21-105.9,126.42-158.84,189.63,14.71,8.25,29.42,16.51,44.13,24.76,11.04-50.17,22.09-100.34,33.2-150.5,4.89-22.11-18.13-39.9-38.27-28.6-35.46,19.9-58.4,50.36-79.79,84.24-24.35,38.56-44.47,86.74-93.94,95.58,10.86,8.19,21.72,16.38,32.57,24.57,3.14-53.6,6.28-107.21,9.42-160.81,1.28-21.82-29.96-34.48-44.31-17.79-49.14,57.14-100.3,112.26-153.62,165.51,14.42,8.09,28.85,16.19,43.27,24.28,15.84-63.02,14.02-123.93-6.99-185.52-7.33-21.5-34.86-24.47-47.37-5.82-43.6,64.96-92.2,125.28-146.25,181.83,14.7,5.9,29.39,11.8,44.09,17.7,5.83-59.13,16.85-116.65,32.77-173.85,8.22-29.55-31.16-41.46-47.1-19.01-49.38,69.55-108.34,130.05-176.89,180.86,12.56,9.39,25.13,18.77,37.69,28.16,25.18-69,46.91-136.71,39.53-210.96-2.27-22.84-35.61-37.32-47.88-12.47-37.68,76.29-86.29,143.78-147.11,203.33,14.46,5.81,28.92,11.61,43.38,17.42,7.84-68.18,23.92-133.7,47.42-198.09,8.34-22.84-26.73-42.67-41.84-23.48-49.66,63.12-106.74,117.17-170.45,165.9,13.1,7.35,26.2,14.7,39.29,22.05,17.32-72.25,39.5-143.1,65.27-212.77,5.42-14.66-18.21-23.68-25.2-10.17h0Z" style="fill:#f49539; stroke-width:0px;"/><path d="M3240.76,2191.59c-23.64,17.27-40.29,41.5-47.17,70.2-3.71,15.47-4.33,32.09-4.93,47.9-.4,10.64,4.77,46.96-4.26,54.14,6.91-2.83,13.82-5.66,20.73-8.49-2.26.14-4.52.27-6.77.41,6.58,2.64,13.15,5.28,19.73,7.92-18.76-14.2-27.64-67.53-34.76-88.48-9.68-28.5-18.3-57.34-27.19-86.09-4.71-15.23-23.94-24.8-38.33-15.19-21.44,14.31-32.78,34.65-23.68,60.06,8.68,24.22,43.18,19.91,45.37-5.95,1.49-3.4,2.98-6.79,4.47-10.19-12.78-5.06-25.55-10.13-38.33-15.19,16.34,48.29,32.03,96.69,46.74,145.5,8.4,27.86,19.34,73.91,59.66,62.59,74.93-21.02,1.61-148.14,50.03-192.22,14.56-13.26-5.17-38.71-21.31-26.92h0Z" style="fill:#4abaeb; stroke-width:0px;"/><path d="M2394.58,2135.1c-29.01,25.22-58.26,50.07-87.74,74.73,11.6,2.95,23.2,5.89,34.8,8.84-11.52-28.61-23.1-57.18-35.13-85.58-7.92-18.7-39.7-8.72-38.74,10.38,1.28,25.53-5.57,49.38-20.24,70.31,12.06,1.48,24.12,2.96,36.18,4.45-6.07-42.55-27.81-73.45-63.64-96.58-9.89-6.38-23.27-1.28-29.22,7.83-15.14,23.2-30.3,46.38-45.51,69.54,11.9-1.64,23.8-3.27,35.71-4.91-22.56-23.26-45.43-46.14-68.44-68.94-10.52-10.43-29.89-7.94-37.18,5.11-11.02,19.72-22.07,39.43-32.95,59.23l40.89-.4c-17.76-34.99-42.13-59.52-76.75-77.95-8.58-4.57-20.63-3.59-27.52,3.78-19.32,20.67-32.05,41.71-41.85,68.28,12.25-3.28,24.5-6.57,36.76-9.85-25.14-21.19-50.12-42.55-74.97-64.07-8.54-7.4-22.34-8.46-30.61.35-21.34,22.75-42.68,45.5-64.02,68.25,11.49,1.34,22.98,2.68,34.47,4.02-25.12-54.04-99.81-43.21-120.98,7.13,13.63-1.85,27.26-3.7,40.89-5.55-13.26-20.33-26.52-40.66-39.78-61-9.61-14.74-29.63-13.63-39.23.38-24.09,35.18-48.14,70.38-72,105.71,14.01,1.72,28.02,3.44,42.02,5.17-14.06-48.89-44.1-84.73-91.08-104.78-11.5-4.91-23.86-2.83-31.02,8.31-16.77,26.13-24.46,49.7-28.41,80.3,12.45-5.1,24.9-10.19,37.34-15.29-26.52-25.05-52.67-50.46-78.83-75.88-12.6-12.24-30.3-4.6-36.33,9.73-13.46,32.03-26.92,64.05-40.38,96.08,13.48-1.83,26.95-3.66,40.43-5.49-26.39-51.26-60.51-94.71-104.01-132.52-9.83-8.54-29.34-9-35.62,4.9-14.36,31.77-28.78,63.51-43.36,95.18,14.52,3.78,29.04,7.56,43.56,11.34-1.14-74.38-29.16-138.52-84.56-188.54-16.51-14.9-39.88-3.32-42.27,17.31-4.81,41.59-15.13,80.33-30.41,119.25,15.86-.05,31.73-.11,47.59-.16-18.14-73.65-55.46-136.42-112.38-186.71-13.8-12.19-37.18-7.41-42.36,11.35-13.8,49.96-27.61,99.91-41.41,149.87,16.62-.06,33.24-.11,49.86-.17-12.28-93.11-58.07-174.75-131.28-233.55-15.93-12.79-46.71-5.93-45.43,18.6,1.8,34.42,3.59,68.84,5.39,103.26,17.34-2.28,34.68-4.55,52.03-6.83-26.75-70.39-58.95-137.7-97.62-202.35-9.61-16.07-36.06-16.92-45.13.44-28.66,54.84-41.04,111.15-35.47,172.99,2.92,32.41,53.08,33.34,52.19.05-3.09-115.31-53.36-220.89-142.81-294.16-18.92-15.5-50.82-1.22-44,25.2,10.06,38.94,20.11,77.88,30.17,116.82,8.46,32.74,56.22,18.53,50.95-13.65-15.33-93.66-64.67-175.12-140.57-232.13-13.66-10.26-39.09-9.33-43.11,11.55-11.22,58.2-14.47,115.32-8.93,174.39,16.62-2.18,33.24-4.36,49.87-6.54-27.92-111.22-79.14-211.01-151.85-299.56-14.23-17.33-43.77-2.28-43.92,17.99-.52,69.84-.93,139.67-1.66,209.51,17.04-2.24,34.08-4.47,51.12-6.71-18.87-94.2-51.9-182.56-99.25-266.1-9.06-15.98-38.07-17.9-46.2.45-31.7,71.51-45.82,144.2-40.16,222.38,2.43,33.52,52.37,34.03,53.46.05,2.48-77.57-29.03-147.23-90.21-195.25-18.24-14.32-43.29-4.91-45.64,18.69-6.09,60.98-12.11,121.97-18.17,182.95-3.33,33.59,49.77,32.99,53.11.05,6.18-60.98,12.38-121.96,18.51-182.95-15.21,6.23-30.43,12.46-45.64,18.69,50.63,39.73,76.63,93.5,74.58,157.76,17.82.02,35.64.04,53.46.05-4.95-68.34,5-133.76,32.83-196.55-15.4.15-30.8.3-46.2.45,45.1,79.56,76.61,163.33,95.25,252.79,5.94,28.51,51.04,21.57,51.12-6.71.2-69.84.72-139.67,1.13-209.51-14.64,5.99-29.28,11.99-43.92,17.98,67.16,81.53,113.26,174.37,139.21,276.68,6.72,26.49,52.51,21.85,49.87-6.54-5.1-54.86-2.85-107.21,7.93-161.41-14.37,3.85-28.74,7.7-43.11,11.55,69.38,52.78,111.95,123.56,126.14,209.64,16.98-4.55,33.97-9.1,50.95-13.65-10.1-38.93-20.2-77.85-30.3-116.78-14.67,8.4-29.33,16.8-44,25.2,79.09,64.64,124.94,154.94,127.8,257.32,17.4.02,34.79.03,52.19.05-4.84-53.05,3.33-100.26,28.35-147.76-15.04.15-30.09.29-45.13.44,36.11,60.79,66.73,123.7,91.66,189.91,9.59,25.47,53.57,24.51,52.03-6.83-1.69-34.42-3.38-68.84-5.07-103.26-15.14,6.2-30.29,12.4-45.43,18.6,66.69,53.89,107.04,124.8,118.96,209.68,3.65,26.04,43.8,22.28,49.86-.17,13.5-50.04,27-100.07,40.49-150.11-14.12,3.78-28.24,7.57-42.36,11.35,51.02,44.43,84.45,98.14,100.57,163.99,6.21,25.39,39.43,20.52,47.59-.16,16.9-42.85,27.09-85.99,32.44-131.66-14.09,5.77-28.18,11.54-42.27,17.31,45.49,41.2,70.55,92.17,72.82,153.82.78,21.08,33.79,33.79,43.56,11.34,13.93-32.01,28-63.95,42.15-95.86-11.87,1.63-23.75,3.27-35.62,4.9,40.95,35.1,72.8,75.08,97.84,122.9,9.61,18.35,33.94,10.26,40.43-5.49,13.23-32.09,26.45-64.17,39.68-96.26-12.11,3.24-24.22,6.49-36.33,9.73,26.34,25.23,52.68,50.45,78.66,76.05,10.46,10.3,34.05,6.69,36.53-9.79,3.64-24.18,10.96-43.59,24.61-63.89-10.34,2.77-20.68,5.54-31.02,8.31,36.54,15.94,58.78,40.05,69.56,78.11,5.62,19.86,31.28,20.94,42.02,5.17,23.99-35.23,47.78-70.59,71.54-105.97-13.08.13-26.15.25-39.23.38,13.45,20.22,26.9,40.44,40.36,60.66,11.23,16.88,33.78,11.79,40.89-5.55,13.53-16.37,26.85-15.19,39.96,3.54,5.93,12.55,25.7,13.49,34.47,4.02,21.2-22.88,42.41-45.76,63.61-68.64-10.2.12-20.4.23-30.61.35,24.97,21.37,49.79,42.88,74.46,64.58,12.99,11.42,30.73,5.5,36.76-9.85,6.24-18.91,16.76-35.01,31.57-48.32-9.17,1.26-18.35,2.52-27.52,3.78,27.53,15.44,45,34.66,58.74,63.01,7.78,16.04,32.83,13.91,40.89-.39,11.09-19.68,22.01-39.46,32.97-59.21-12.39,1.7-24.78,3.41-37.18,5.11,23.09,22.74,46.24,45.35,69.77,67.63,10.59,10.03,28.16,7.52,35.71-4.91,14.34-23.65,28.72-47.27,43.13-70.87-9.74,2.61-19.48,5.22-29.22,7.83,27.91,16.84,41.47,38.79,46.98,70.48,3.21,18.48,27.4,16.48,36.18,4.45,20.58-28.22,28.56-54.52,27.66-89.41-13.62,1.79-27.24,3.57-40.86,5.36,10.67,26.99,21.81,53.78,32.97,80.57,5.37,12.89,23.66,22.12,34.8,8.84,24.63-29.37,49.46-58.51,74.65-87.4,9.8-11.24-5.24-25.39-16.29-15.78h0Z" style="fill:#4abaeb; stroke-width:0px;"/><path d="M65.3,2367.05c16.28,69.5,42.74,133.3,80.08,194.11,10.91,17.76,35.75,8.69,37.8-10.13,7.52-69.13,14.02-138.35,20.61-207.58-14.89-.01-29.78-.03-44.67-.04,5.36,78.73,21.17,154.58,49.8,228.24,7.63,19.63,40.06,24.37,45.56-.16,18.76-83.58,37.53-167.15,56.29-250.73-14.6,1.98-29.21,3.97-43.81,5.95,35.09,51.74,57.48,108.03,65,170.24,2.98,24.65,41.17,34.79,47.57,6.15,14.93-66.78,29.75-133.58,45.02-200.28-15.09,2.05-30.17,4.1-45.26,6.15,26.71,55.3,41.52,112.03,45.34,173.31,1.87,29.97,40.62,33.37,51.06,6.6,25.42-65.21,49.92-130.79,74.8-196.21-16.97.06-33.95.12-50.92.17,10.95,56.5,21.9,113,32.85,169.49,5.34,27.53,43.28,21.95,51.24-.17,25.18-69.98,55.22-137.44,90.24-203.04-16.33-2.01-32.66-4.02-49-6.02,12.67,64.36,16.83,128.45,13.38,193.87-1.82,34.6,50.71,33.29,53.94.05,6.08-62.59,30.32-118.69,71.64-166-15.16-3.85-30.32-7.7-45.48-11.55,16.87,65.92,33.75,131.84,50.62,197.75,5.42,21.18,40.28,27.9,50.08,6.16,23.83-52.85,47.66-105.71,71.5-158.56-16.8-2.06-33.6-4.13-50.39-6.19,11.77,56.84,23.59,113.66,35.42,170.48,5.33,25.61,48.68,26.21,53.28-.18,8.66-49.68,26.66-91.34,56.9-131.7-16.84-2.07-33.68-4.14-50.52-6.21,18.81,52.22,37.63,104.43,56.44,156.65,8.92,24.75,45.22,26.78,53.28-.18,15.78-52.8,41.78-97.17,80.19-136.69-14.43-1.68-28.86-3.37-43.29-5.05,27.35,53.6,46.79,108.71,59.89,167.37,4.34,19.44,32.53,26.62,45.73,11.61,41.75-47.48,63.66-100.71,66.22-164-16.87,4.52-33.74,9.04-50.61,13.56,22.04,49.32,43.96,98.69,65.9,148.05,8.14,18.32,38.55,16.19,46.98-.45,23.57-46.56,47.15-93.11,70.72-139.67-14.3,1.97-28.6,3.93-42.9,5.9,40.18,32.64,64.03,72.85,68.65,125.05,2.78,31.37,42.51,35.53,53.9,6.96,16.41-41.12,32.82-82.24,49.23-123.36-17.74.06-35.49.12-53.23.18,10.47,40.16,20.94,80.33,31.41,120.49,6.07,23.3,38.71,26.08,50.67,6.23,24.56-40.76,49.14-81.5,73.63-122.3-15.98.15-31.97.31-47.95.46,24.05,42.27,39.65,84.92,49.21,132.47,4.73,23.54,39.48,25.75,50.51,6.21,25.85-45.81,51.69-91.63,77.54-137.44-16.74-2.06-33.49-4.12-50.23-6.17,9.18,57.67,37.68,105.26,84.37,140.34,13.19,9.91,33.78,10.94,42.86-5.9,19.26-35.71,38.53-71.42,57.79-107.13-15.66.15-31.31.3-46.97.45,21.43,34.75,42.9,69.47,64.23,104.28,9.56,15.6,38.55,18.7,46.88-.45,15.43-35.5,30.85-71,46.28-106.5-15.76.15-31.51.3-47.27.46,19.32,39.3,44.18,72.39,76.17,102.23,13.7,12.78,42.35,8.59,46.08-12.35,7.76-43.53,23.11-82.02,50.7-117.16-14.6-1.7-29.2-3.41-43.81-5.11,27.99,36.84,49.53,74.96,65.24,118.64,7.35,20.43,30.82,26.6,47.22,11.99,38.88-34.64,64.83-75.52,80.92-124.93-18.38.06-36.75.13-55.13.19,7.48,48.88,30.09,89.27,66.87,122.16,14.17,12.67,34.53,9.25,44.95-6.18,22.17-32.86,44.35-65.71,66.52-98.57-16.47.16-32.93.32-49.4.48,18.84,42.63,44.78,77.27,79.99,107.72,13.29,11.5,35.65,10.49,44.82-6.17,16.13-29.29,32.26-58.57,48.39-87.86-17.39-2.14-34.78-4.28-52.17-6.41,7.64,44.96,27.69,81.39,59.89,113.33,11.81,11.71,28.43,8.82,40.37-.46,26.62-20.67,45.03-43.86,59.28-74.39-17.63-2.17-35.25-4.33-52.88-6.5,12.81,35.63,25.62,71.25,38.43,106.88,6.9,19.19,33.63,30.23,49.1,12.47,21.9-25.15,43.72-50.36,65.47-75.64-15.41-1.8-30.82-3.59-46.23-5.39,24.75,33.92,49.5,67.84,74.26,101.76,11.51,15.78,30.82,18.23,45.78,5.34,28.63-24.65,57.26-49.31,85.89-73.96-16.11-4.09-32.21-8.18-48.32-12.27,18.61,108.85,177.77,89.62,167.07-20.77-18.65,2.45-37.3,4.9-55.95,7.34,17.29,41.36,40.3,75.22,74.71,104.2,12.49,10.52,27.56,9.69,40.02-.45,37.14-30.24,61.17-67.95,74.35-113.88-17.25,2.34-34.5,4.68-51.75,7.03,21.48,34.22,42.96,68.43,64.44,102.65,12.44,19.82,45.6,16.65,51.75-7.03,12.06-46.43,24.12-92.86,36.19-139.3l-54.63.19c14.9,46.97,35.4,89.7,63.5,130.28,9.16,13.22,24.28,16.61,38.68,9.63,53.99-26.17,65.86-82.11,66.3-137.47.43-54.84-25.05-156.27,32.13-190.15-12.89-3.21-25.78-6.42-38.68-9.63,36.04,78.83,38.48,162.79,10.73,244.51-8.81,25.94,21.77,41.48,42.37,31.66,84.05-40.04,115.03-140.24,74.08-222.22-16.06-32.16-64.55-3.88-49.29,28.53,26,55.25-.45,118.99-53.79,144.99,14.12,10.55,28.25,21.11,42.37,31.66,31.84-96.63,24.67-195.28-17.48-287.49-6.29-13.76-26.85-16.64-38.68-9.63-52.47,31.09-63.25,86.99-63.25,144.07,0,53.9,25.13,154.32-35.18,183.55,12.89,3.21,25.78,6.42,38.68,9.63-25.38-36.65-44.19-73.9-57.73-116.6-8.11-25.56-47.47-27.38-54.63.19-12.06,46.43-24.12,92.86-36.19,139.3,17.25-2.34,34.5-4.68,51.75-7.03-21.48-34.22-42.96-68.43-64.44-102.65-12.69-20.21-45.06-16.27-51.75,7.03-10.67,37.2-29.89,65.06-59.84,89.45,13.34-.15,26.68-.3,40.02-.45-26.47-22.29-46.46-47.14-59.73-79.31-10.75-26.06-59.13-27.07-55.95,7.34,6.39,32.96-11.73,34.92-54.34,5.87-3.87-23.28-33.74-24.71-48.32-12.27-28.75,24.54-57.5,49.07-86.25,73.61,15.26,1.78,30.52,3.56,45.78,5.34-24.59-34.02-49.17-68.03-73.76-102.05-10.22-14.14-33.01-20.63-46.23-5.39-21.86,25.19-43.65,50.43-65.36,75.75,16.37,4.16,32.74,8.31,49.1,12.47-13.09-35.55-26.19-71.1-39.28-106.65-7.62-20.67-41.7-30.94-52.88-6.5-12.16,26.58-27.04,45.38-49.77,63.31,13.46-.15,26.91-.3,40.37-.46-25.91-25.31-39.2-53.05-45.14-88.13-4.15-24.55-41.17-26.36-52.17-6.41-16.15,29.28-32.3,58.55-48.45,87.83,14.94-2.06,29.88-4.11,44.82-6.17-31.66-27.42-54.01-58.11-70.9-96.39-9.26-20.98-38.95-14.99-49.4.48-22.2,32.84-44.39,65.69-66.59,98.53,14.98-2.06,29.96-4.12,44.95-6.18-29.96-26.82-45.85-57.22-52.12-96.89-4.66-29.41-47.42-23.89-55.13.19-12.94,40.45-34.25,72.39-65.78,100.76,15.74,4,31.48,7.99,47.22,11.99-17.52-47.92-40.51-91.37-71.57-131.93-13.52-17.65-34.75-16.75-48.16.47-31.64,40.63-51.26,85.09-60.09,135.78,15.36-4.12,30.72-8.23,46.08-12.35-28.76-26.62-50.45-55.92-67.86-91-11.57-23.31-41.89-12.08-50,6.79-15.29,35.55-30.58,71.11-45.87,106.66,16.53-2.24,33.06-4.49,49.59-6.73-21.46-34.73-42.78-69.55-64.14-104.34-10.27-16.73-37.22-17.54-46.97.45-19.33,35.67-38.66,71.34-57.99,107.01,14.29-1.97,28.58-3.93,42.86-5.9-40.36-30.45-62.06-66.39-69.91-116.34-3.76-23.95-39.56-25-50.23-6.17l-77.8,137.29c16.84,2.07,33.67,4.14,50.51,6.21-10.34-51.96-28.51-99.92-54.58-145.95-10.33-18.24-37.59-16.72-47.95.46-24.57,40.75-49.04,81.56-73.53,122.36,16.89,2.08,33.78,4.15,50.67,6.23-10.54-40.14-21.08-80.29-31.62-120.43-7.39-28.15-43.94-23.21-53.23.18-16.34,41.14-32.67,82.28-49.01,123.42,17.97,2.32,35.94,4.64,53.91,6.96-5.95-65.92-33.12-121.42-84.92-163.36-12.58-10.19-34.47-10.81-42.9,5.9-23.5,46.6-46.99,93.2-70.49,139.8,15.66-.15,31.32-.3,46.98-.45-22.02-49.32-44.06-98.64-65.99-148-11.33-25.52-49.59-10.41-50.61,13.56-2.08,48.55-18.23,90.07-50.57,126.68,15.24,3.87,30.49,7.74,45.73,11.61-14-63.37-35.74-122.96-65.08-180.79-8-15.76-31.75-16.87-43.29-5.05-44.93,46.01-76.02,98.8-94.44,160.42,17.76-.06,35.52-.12,53.28-.18-18.81-52.22-37.63-104.43-56.44-156.65-8.49-23.56-36.25-25.26-50.52-6.21-32.68,43.61-53.07,90.84-62.43,144.48,17.76-.06,35.52-.12,53.28-.18-11.83-56.82-23.67-113.64-35.55-170.45-4.59-21.94-40.84-27.48-50.39-6.19-23.73,52.91-47.47,105.82-71.2,158.72,16.69,2.05,33.39,4.1,50.08,6.16-17-65.88-34-131.77-51-197.65-4.87-18.89-32.08-26.95-45.48-11.55-51.24,58.91-79.79,125.4-87.18,203.13,17.98.02,35.96.04,53.94.05,3.56-70.18-1.83-138.93-15.52-207.8-4.47-22.47-38.69-25.42-49-6.02-37,69.61-68.62,141.32-95.17,215.55,17.08-.06,34.16-.12,51.24-.17-11.06-56.47-22.12-112.94-33.18-169.41-5.41-27.62-42.73-21.49-50.92.17-24.75,65.44-49.88,130.75-74.09,196.39,17.02,2.2,34.04,4.4,51.06,6.6-5.29-70.22-23.06-135.13-54.52-198.16-9.21-18.45-40.98-13.74-45.26,6.15-14.41,66.91-29.27,133.71-44.02,200.54,15.86,2.05,31.72,4.1,47.57,6.15-8.79-71.12-31.52-134.97-71.99-194.3-10.68-15.65-39.16-15.04-43.81,5.95-18.53,83.64-37.07,167.27-55.6,250.91,15.19-.05,30.38-.1,45.56-.16-27.37-70.01-44.81-140.89-50.8-215.96-2.25-28.24-42.33-28.2-44.67-.04-5.77,69.18-11.63,138.33-16.46,207.58,12.6-3.38,25.2-6.75,37.8-10.13-37.77-56.47-66.06-116.6-85.41-181.78-5.52-18.6-34.17-10.93-29.74,7.97h0Z" style="fill:#4abaeb; stroke-width:0px;"/><path d="M1624.18,3491.91c-33.86,12.57-70.01,28.19-86.28,58.24-23.27,42.98,7.1,97.35,52.08,121.75,44.99,24.4,410.21,128.04,462.42,129.65,643.71,19.84,980.75-61.88,1618.56-144.16,39.3-5.07,80.54-11.3,111.58-34.02,351.78-257.63-791.81-350.07-929.06-341.5-401.52,25.09-856.66,71.66-1229.31,210.04Z" style="fill:#f2f6fb; stroke-width:0px;"/><path d="M2815.68,3443.28c-137.87-27.02-280.79-32.1-420.52-14.96-54,6.62-117.31,24.29-132.3,72.42-12.03,38.63,15.92,80.24,53.77,100.35,37.85,20.11,83.16,23.62,126.82,25.9,185.03,9.67,370.92,5.46,555.22-12.55,49.58-4.85,106.87-15.5,129.2-56.47,29.5-54.11-26.95-117.04-88.29-139.08-91.6-32.92-202.62-14.35-275.72,46.12" style="fill:#dce3ea; stroke-width:0px;"/><path d="M2362.24,2256.67c-213.84-29.95-421.16-51.35-637.79-43.86-187.7,6.49-388.23,58.1-565.32-23.48-132.32-60.95-262.94-138.54-372.75-234.64-108.42-94.89-220.32-188.68-351.87-249.98-78.59-36.62-161.51-62.29-245.65-82.61-31.08-7.51-68.64-12.54-64.78-55.85,2.08-23.41,25.79-53.04,40.3-70.69,36.27-44.13,83.72-72.42,136.41-92.72,30.54-11.77,20.04-57.44-13.17-49.14-81.55,20.39-154.09,76.43-196.91,148.73-36.5,61.63-39.75,134.41,36.99,162.92,86.99,32.32,178.78,44.57,264.53,83.05,74.71,33.53,143.93,77.31,208.8,127.12,68.46,52.57,130.09,113.45,198.48,165.92,64.17,49.24,133.29,92.26,203.63,132.06,64.35,36.41,131.07,72.12,201.29,95.99,100.75,34.25,207.47,21.08,311.18,12.12,138.5-11.97,277.56-16.72,416.56-16.1,141.51.63,286.08-1.05,427.06,11.68,11.74,1.06,15.05-18.83,3.02-20.51h0Z" style="fill:#3c3c3b; stroke-width:0px;"/><path d="M167.45,2631.71c258.55-174.5,578.18-134.68,868.34-83.75,149.16,26.18,298.85,54.2,450.63,58.82,155.93,4.74,313.01-12.28,468.58-21.09,154.82-8.76,311.19-17.14,465.89-2.29,147.39,14.15,291.82,48.08,437.81,71.54,203.5,32.7,549.9,84.19,672.56-140.12,50.54-92.42,18.51-202.08-62.99-263.82-90.66-68.68-217.79-84.89-328.27-81.54-26.07.79-25.46,35.92-.53,39,99.16,12.25,213.41,30.09,293.14,95.43,92.33,75.68,59.95,193.63-32.63,251.43-105.64,65.94-235.66,62.98-355.31,54-140.56-10.55-278.35-41.02-416.94-65.18-272.87-47.57-541.14-34.87-816.22-17.8-143.35,8.89-286.41,20.46-429.89,7.89-152.82-13.39-303.65-44.02-455.72-63.55-263.08-33.79-554.73-26.52-774.06,141.32-11.6,8.88,3.66,27.79,15.61,19.72h0Z" style="fill:#3c3c3b; stroke-width:0px;"/><path d="M2490.54,2785.68c84.93-24.5,171.27-35.31,259.61-29.77,43.27,2.71,86.34,10.28,128.3,21.23,42.15,11,81.32,32,123.57,41.28,31.23,6.86,64.84-34.8,35.01-58.95-72.15-58.42-186.08-74.19-276.56-74.58-98.76-.43-195.59,25-281.51,73.35-15.04,8.46-5.11,32.26,11.59,27.44h0Z" style="fill:#1a172a; stroke-width:0px;"/><path d="M2937.86,11.05c-118.77-19.26-238.96-13.43-355.19,18.21-93.73,25.52-196.04,64.9-260.32,141.24-102.17,121.33-142.62,302.33-184.23,451.36-21.17,75.81-40.11,152.51-65.16,227.18-30.63,91.3-66.92,179.91-91.76,273.21-48.58,182.48-74.04,386.9,2.3,565.55,84.1,196.83,284.07,309.73,481.55,367.07,191.6,55.63,406.02,59.46,592.21-17.91,210.58-87.5,345.79-290.28,422.47-498.25,40.42-109.61,60.35-227.98,54.15-344.82-5.33-100.53-35.99-192.97-56.37-290.47-34.24-163.8-39.52-361.87-137.43-504.07-52.11-75.68-137.2-99.03-225.09-110.67-129.1-17.08-260.9,6.77-372.48,74.73-39.1,23.82-4.8,78.47,35.19,59.08,96.18-46.63,201.92-70.23,308.91-59.9,77,7.44,155.41,23.42,196.76,93.49,69.73,118.17,80.97,272.25,104.15,404.79,12.39,70.83,33.18,138.67,48,208.84,22.15,104.86,23.18,214.77.99,319.73-23.12,109.37-68.77,210.83-124.92,307.02-53.7,91.97-116.28,175.89-207.97,232.76-155.99,96.75-353.13,109.94-529.97,75.82-187.09-36.11-397.12-124.87-497.34-296.32-177.19-303.12,18.84-657.44,103.45-955.96,45.36-160.05,79.91-332.13,157.69-480.45,104.19-198.66,394.34-233.21,595.06-224.96,20.66.85,26.81-32.84,5.34-36.32h0Z" style="fill:#1a172a; stroke-width:0px;"/><path d="M2571.21,302.18c205.72-143.25,451.1-178.11,694.38-136.78,50.54,8.59,74.64-66.89,22.16-77.66-260.4-53.45-518.01,45.52-727.74,195.64-11.58,8.29-.6,27.03,11.2,18.81h0Z" style="fill:#1a172a; stroke-width:0px;"/><path d="M2940.39,1034.2c-9.48,46.13-12.42,93.85-17.02,140.66-4.45,45.27,73.13,46.1,72.33.07-.78-44.59.18-89.94-5.24-134.26-3.15-25.73-43.83-36.83-50.07-6.47h0Z" style="fill:#1a172a; stroke-width:0px;"/><path d="M3221.47,1015.44c-29.85,7.81-28.87,48.45-29.32,73.45-.66,37.07.52,81.76,21.99,113.28,10.5,15.42,39.94,15.42,44.08-5.99,7.82-40.47-3.3-85.53-6.63-126.38-1.18-14.53-3.76-61.27-30.12-54.37h0Z" style="fill:#1a172a; stroke-width:0px;"/><path d="M2442.46,954.99c-98.27,45.32-128.2,177.52-102.69,274.24,32.89,124.69,141.54,220.94,250.15,281.87,228.21,128.01,560.52,115.86,729.95-105.67,20.65-27-21.57-49.57-43.32-32.25-86.23,68.68-172.63,125.34-282.84,146.65-113.69,21.98-232.57,1.48-336.39-48.24-179.56-86-379.32-307.93-195.24-491.8,13.77-13.75-3.77-32.1-19.62-24.79h0Z" style="fill:#1a172a; stroke-width:0px;"/><path d="M2470.67,2039.22c-145.6-23.62-300.31-13.39-442.35-55.09-117.21-34.41-217.32-115.42-288.54-213.21-160.36-220.17-185.92-514.07-96.19-767.21,7.05-19.9-11.82-45.65-33.44-43.38-79.59,8.36-144.29-42.45-161.8-119.38-2.86,10.33-5.71,20.67-8.57,31,27.44-23.24,57.42-33.61,91.8-41.56,27.19-6.29,21.36-46.42-5.86-47.03-45.68-1.03-87.47,13.98-125.62,38.47-13.39,8.59-17.34,21.14-15.32,36.16,14.33,106.59,119.33,181.76,224.43,171.3-11.15-14.46-22.3-28.92-33.44-43.38-97.69,270.76-65.34,593.08,108.7,826.69,75.19,100.93,174.28,183.14,293.91,225.16,149.57,52.53,332.02,43.03,487.7,32.72,16.86-1.12,24-28.13,4.6-31.27h0Z" style="fill:#1a172a; stroke-width:0px;"/><path d="M3045.31,1997.47c139.11,85.81,331.78,51.89,468.96-18.54,162.96-83.67,278.68-236.71,354.2-400.15,38.45-83.22,68.3-169.64,93.66-257.66,28.74-99.73,56.12-191.15,121.25-273.88,39.65-50.36,82.52-120.33,33.92-179.84-34.73-42.51-103.14-56.05-133.5-2.9-15.07,26.38,20.31,51.59,41.68,31.03,11.15-10.73,29.94,3.33,35.99,14.51,10.88,20.13-2.94,42.23-12.94,58.85-15.99,26.58-39.24,48.65-57.45,73.77-40.27,55.56-64.9,120.9-85.03,186.02-42.58,137.68-79.79,273.94-151.51,400.34-69.87,123.14-164.72,231.32-291.7,297.25-57.89,30.06-121.17,50.87-185.83,59.8-76.95,10.63-144.01-1.75-218.55-19.04-18.4-4.27-29.75,20.2-13.13,30.44h0Z" style="fill:#1a172a; stroke-width:0px;"/><path d="M2342.62,1108.7c-98.89,175.1-199.29,476.74-40.63,648.56,159.84,173.09,430.41,76.63,566.61-73.22,25.01-27.52-12.51-61.01-40-38.73-73.79,59.83-152.06,118.53-248.1,135.23-92.86,16.14-198.74-13.33-253.02-94.39-51.06-76.25-49.58-176.86-38.95-264.44,12.6-103.78,38.57-206.61,75.47-304.39,4.74-12.55-15.11-19.72-21.37-8.62h0Z" style="fill:#1a172a; stroke-width:0px;"/><path d="M2812.56,2763.89c92.74,191.75,217.92,369.71,341.58,542.55,39.92,55.8,84.7,148.39,167.78,113.09,67.29-28.59,133.46-103.12,159.1-170.33,11.23-29.44-31.59-49.52-51.33-28.8-23.08,24.21-42.13,51.76-65.52,75.78-10.66,10.94-21.77,21.49-33.55,31.24-29.54,24.47-50.89,18.96-75.27-5.72-53.05-53.7-93.48-129.9-136.97-191.6-90.57-128.49-177.52-260.64-274.96-384.04-13.62-17.25-40.96-3.06-30.85,17.85h0Z" style="fill:#1a172a; stroke-width:0px;"/><path d="M2563.42,2730.69c-36.8,97.28-49.91,204.8-74.74,305.61-14.32,58.15-47.33,74.28-104.63,60.74-44.66-10.55-87.22-35.64-125.68-59.98-44.28-28.04-80.2-62.24-118.26-97.62-22.11-20.56-44.32-35.96-75.42-26.89-70.62,20.6-118.19,122.9-138.29,186.37-9.72,30.69,38.45,50.22,52.63,21.24,20.1-41.09,48.81-99.8,86.56-127.28,14.47-10.54,9.36-12.95,26.07-5.48,9.13,4.08,19.63,19.94,27.09,26.94,18.59,17.44,38.29,33.61,58.67,48.91,65.69,49.33,148.52,99.95,233.02,103.87,73.85,3.43,122.26-36.8,137.15-107.75,21.85-104.07,47.01-217.8,50.12-324.23.6-20.7-27.78-21.64-34.29-4.43h0Z" style="fill:#1a172a; stroke-width:0px;"/><path d="M2191.4,602c156.41,99.09,370.36,83.83,547.57,83.74,197.73-.1,418.12-1.52,605.9-70.88,34.48-12.74,21.78-59.74-14.4-53.76-99.87,16.5-197.76,37.54-298.91,46.12-93.47,7.93-187.46,10.36-281.23,11.39-182.32,2-373.41,19.4-547.82-42.35-15.62-5.53-24.34,17.35-11.1,25.74h0Z" style="fill:#1a172a; stroke-width:0px;"/><path d="M2120.83,834.32c205.03,90.97,427.48,82.06,647.05,80.44,117.56-.87,235.25-1.39,352.73-5.86,111.62-4.25,243.06-1.61,348.95-40.46,28.26-10.37,27.45-55.56-6.82-54.76-56.69,1.32-113.22,14.75-169.75,20.05-57.03,5.35-114.24,8.3-171.49,9.96-110.45,3.2-220.99,2.21-331.47,3.36-219.02,2.28-444.63,15.31-659.57-35-12.78-2.99-23.07,16.32-9.61,22.28h0Z" style="fill:#1a172a; stroke-width:0px;"/><path d="M2079.83,942.14c2.96-54.16-47.43-94.27-99.68-93.54-64.52.9-113.61,52.93-138.9,107.63-22.83,49.36-61.17,140.24-18.15,189.31,39.04,44.53,111.08,25.45,154.65-.68,31.16-18.69,3.83-61.69-27.84-46.74-27.81,13.14-83.06,39.1-89.81-12.7-3.77-28.94,18.01-80.51,29.09-106.2,13.26-30.75,32.98-60.4,64.06-75.6,40.68-19.9,85.04.51,99.77,42.04,5,14.09,25.96,11.97,26.81-3.52h0Z" style="fill:#1a172a; stroke-width:0px;"/><path d="M2391.81,2112.7c-176.06-26.81-354.46-13.51-531.8-15.33-182.12-1.87-373.32-16.09-549.04-65.93-187.4-53.15-337.35-172.86-489.2-289.59-161.26-123.97-320.02-252.19-485.49-370.51-25.3-18.09-58.92,23.32-34.32,43.89,165.34,138.25,339.34,266.82,509.4,399.21,143.25,111.53,286.32,220.81,462.51,274.29,363.4,110.29,741.66,54.04,1113.44,54.56,17.14.02,22.88-27.8,4.5-30.6h0Z" style="fill:#1a172a; stroke-width:0px;"/><path d="M3191.32,2376.01c-19.42-16.23-38.83-32.47-58.54-48.34-18.64-15.02-36.25-33.62-57.85-44.13-20.87-10.15-44.58,15.68-26.27,33.6,17.28,16.91,40.6,27.34,61.17,39.88,21.78,13.28,43.8,26.15,65.81,39.04,12.03,7.04,27.17-10.45,15.68-20.05h0Z" style="fill:#1a172a; stroke-width:0px;"/><path d="M18.29,2399.6c205.75-92.38,415.09-155.65,642.96-153.12,238.52,2.64,452.27,99.41,684.04,138.75,235.97,40.05,471.71-9.47,708.39-10.06,213.35-.53,419.36,57.94,628.05,94.35,201.85,35.22,447.29,61.81,625.88-62.22,28.05-19.48,4.12-57.81-26.26-44.09-95.92,43.3-190.86,71.15-296.78,74.06-105.35,2.89-210.2-11.94-313.56-30.89-204.52-37.51-407.16-91.89-616.5-91.62-245.38.31-489.62,53.77-733.56,4.28-218.4-44.3-423.62-127.31-649.47-129.64-229.21-2.36-476.34,55.58-665.6,189.33-13.18,9.32-2,27.35,12.43,20.87h0Z" style="fill:#1a172a; stroke-width:0px;"/></svg>