<svg xmlns="http://www.w3.org/2000/svg" width="82.979" height="75.477" viewBox="0 0 82.979 75.477"><g transform="translate(-1746.541 -6588.683)"><path d="M6811.848,649.156a38.255,38.255,0,0,1,10.829-11.921l-1.966-1.469a88.132,88.132,0,0,1-5.017,11.76,1.374,1.374,0,0,0,2.395,1.343A46.756,46.756,0,0,1,6828,637.438l-2.323-1.3a45.712,45.712,0,0,1-3.075,9.023,1.373,1.373,0,0,0,.361,1.775,1.427,1.427,0,0,0,1.852-.128q10.534-11.582,20.969-23.254l-2.112-1.572c-5.229,8.715-10.682,17.3-15.99,25.966l-4.551,7.429,2.592,1.046c4.176-11.211,11.149-21.045,19.241-29.772,2.315-2.5,4.724-4.91,7.184-7.266l-2.114-1.574c-6.979,9.935-14.1,19.764-20.5,30.094-1.8,2.907-3.545,5.849-5.2,8.84a1.509,1.509,0,0,0,2.392,1.781,92.714,92.714,0,0,0,12.924-13.783l-2.664-1.075c-1.753,4.324-3.574,8.62-5.343,12.938-.57,1.392,1.488,2.29,2.411,1.353a31.893,31.893,0,0,0,7.108-10.81,1.293,1.293,0,0,0-.922-1.6,1.386,1.386,0,0,0-1.642.923,31.036,31.036,0,0,1-6.586,9.506l2.411,1.353c1.8-4.305,3.554-8.632,5.372-12.931.561-1.325-1.577-2.459-2.437-1.367a95.361,95.361,0,0,1-12.787,13.4l2.392,1.781a356.548,356.548,0,0,1,19.489-30.712c1.954-2.807,3.914-5.612,5.905-8.394.921-1.286-1.062-2.563-2.114-1.574-8.9,8.374-17.079,17.81-22.884,28.619a77.044,77.044,0,0,0-4.37,9.546c-.577,1.548,1.8,2.344,2.592,1.046q7.963-13,15.88-26.028c1.51-2.48,2.994-4.977,4.533-7.439a1.331,1.331,0,0,0-2.111-1.572q-10.576,11.541-21.06,23.166l2.212,1.647a50.139,50.139,0,0,0,3.322-9.685,1.389,1.389,0,0,0-2.323-1.3,48.417,48.417,0,0,0-10.341,11.992l2.395,1.343a90.826,90.826,0,0,0,5.208-12.425,1.334,1.334,0,0,0-1.966-1.47,36.183,36.183,0,0,0-11.239,13.2,1.007,1.007,0,0,0,1.756.985" transform="translate(-5063.433 6005.232)" fill="#ffb900"/><path d="M7213.786,302.3q5.489-9.377,11.114-18.665l-2.077-1.165c-2.948,6.07-5.812,12.194-8.657,18.314a1.417,1.417,0,0,0,2.471,1.386c6.878-10.666,13.167-21.729,18.945-33.027,1.632-3.192,3.177-6.419,4.709-9.659l-2.527-1.02c-2.279,8.655-6.222,16.7-10.478,24.537-1.227,2.258-2.481,4.5-3.736,6.743a1.4,1.4,0,0,0,2.448,1.374c4.124-6.687,8.593-13.115,13.358-19.361l-2.416-.975a67.7,67.7,0,0,1-3.629,11.577,1.315,1.315,0,0,0,.624,1.5,1.423,1.423,0,0,0,1.651-.227,105.659,105.659,0,0,0,7.506-7.871l-2.256-1.266c-.991,2.928-2.009,5.847-3.014,8.77a1.421,1.421,0,0,0,2.381,1.336c3.483-4.252,7.122-8.339,10.787-12.432l-2.29-1.285c-1.875,4.414-3.781,8.815-5.677,13.219a1.4,1.4,0,0,0,.846,1.692,1.525,1.525,0,0,0,1.839-.609c3.7-5.082,7.491-10.1,11.543-14.915l-2.241-1.668A136.911,136.911,0,0,0,7248.3,284.7a1.494,1.494,0,0,0,2.2,1.645,16.018,16.018,0,0,0,5.661-7.78,1.45,1.45,0,0,0-1.029-1.779,1.532,1.532,0,0,0-1.829,1.029,13.426,13.426,0,0,1-4.62,6.235l2.512,1.409a120.679,120.679,0,0,1,6.274-15.469,1.387,1.387,0,0,0-.366-1.8,1.438,1.438,0,0,0-1.875.13c-4.207,5-8.3,10.1-12.063,15.445l2.685,1.083c1.824-4.424,3.64-8.854,5.486-13.269a1.324,1.324,0,0,0-.628-1.513,1.423,1.423,0,0,0-1.662.228,144.42,144.42,0,0,0-10.863,12.357l2.381,1.336c.956-2.936,1.9-5.876,2.87-8.807a1.347,1.347,0,0,0-2.256-1.266c-2.389,2.734-4.909,5.336-7.522,7.855l2.275,1.277a71.583,71.583,0,0,0,3.553-11.6,1.312,1.312,0,0,0-.605-1.46,1.35,1.35,0,0,0-1.6.22,173.762,173.762,0,0,0-13.73,19.533l2.448,1.374c4.413-7.969,8.831-15.987,12.018-24.544.908-2.437,1.731-4.9,2.414-7.411.4-1.47-1.842-2.437-2.527-1.02-5.52,11.427-11.545,22.628-18.084,33.5-1.845,3.069-3.74,6.108-5.652,9.135l2.471,1.386c2.793-6.157,5.575-12.332,8.263-18.535a1.2,1.2,0,0,0-.431-1.606,1.238,1.238,0,0,0-1.646.441q-5.2,9.531-10.522,19a.852.852,0,0,0,1.485.833" transform="translate(-5430.215 6333.283)" fill="#ffb900"/><path d="M7376.923,241.9c-2.972,4.924-5.112,10.324-7.769,15.414l2.725.71a16.2,16.2,0,0,1,.128-5.448,16.839,16.839,0,0,1,2.046-5.055,1.4,1.4,0,0,0-.513-1.917,1.49,1.49,0,0,0-1.964.526A17.022,17.022,0,0,0,7369,258.4a1.445,1.445,0,0,0,1.4,1.053,1.547,1.547,0,0,0,1.428-1.063c2.15-5.3,4.874-10.413,6.691-15.849.32-.956-1.1-1.454-1.593-.643" transform="translate(-5573.003 6347.833)" fill="#ffb900"/><path d="M6884.874,250.769c-9.522,8.919-18.65,18.268-27.548,27.807q-3.741,4.011-7.422,8.077l1.774-.02c-3.548-3.244-8.635-2.147-12.413.086-3.729,2.2-8.092,6.347-7.678,11.081a6.4,6.4,0,0,0,3.988,5.657,1.3,1.3,0,0,0,1.435-.585,15.125,15.125,0,0,1,4.005-4.417,4.74,4.74,0,0,1,4.354-.524,2.672,2.672,0,0,1,1.388,3.41,6.052,6.052,0,0,1-3.122,3.485,1.274,1.274,0,0,0-.268,2c3.287,3.633,8.978,3.08,12.993,1.117,4.24-2.073,7.541-6.3,6.763-11.2a7.8,7.8,0,0,0-4.122-5.828q.127.975.256,1.951,12.6-12.933,25.87-25.2,3.746-3.471,7.54-6.889l-1.969-.23a12.867,12.867,0,0,0,14.307,4.082,11.151,11.151,0,0,0,6.033-4.989,12.8,12.8,0,0,0,1.524-7.592,12.042,12.042,0,0,0-3.925-7.887,1.294,1.294,0,0,0-1.5-.175c-2.174,1.291-3.783,3.218-5.591,4.942a8.074,8.074,0,0,1-5.459,2.655,3.1,3.1,0,0,1-3.139-3.347c.035-2.31,1.765-4.1,3.532-5.371.989-.713,2.265-1.277,2.705-2.5a3.293,3.293,0,0,0-1.086-3.377,11.179,11.179,0,0,0-6.219-2.693,12.958,12.958,0,0,0-12.012,4.747,13.175,13.175,0,0,0-1.02,14.164,1.225,1.225,0,0,0,2.118-1.226,10.819,10.819,0,0,1,.652-11.238,10.446,10.446,0,0,1,10.48-3.981,10.285,10.285,0,0,1,2.815.963c.6.315,1.9.944,1.982,1.729.038.345-.447.537-.689.693-.547.353-1.08.723-1.6,1.117a13.129,13.129,0,0,0-2.633,2.6,7.26,7.26,0,0,0-1.257,6.46,5.462,5.462,0,0,0,4.988,3.728,9.755,9.755,0,0,0,6.763-2.639c2.01-1.73,3.593-3.985,5.914-5.333l-1.5-.175a10.333,10.333,0,0,1,2.411,11.622,9.356,9.356,0,0,1-10.373,5.2,9.655,9.655,0,0,1-6.049-3.431,1.288,1.288,0,0,0-1.969-.23q-13.417,12.088-26.233,24.823-3.621,3.6-7.2,7.24a1.238,1.238,0,0,0,.256,1.951c3.125,1.522,3.659,5.68,2.048,8.493a11.574,11.574,0,0,1-9.269,5.359,6.551,6.551,0,0,1-5.293-1.918q-.134,1-.268,2c3.063-1.554,5.668-5.477,4.062-8.908-1.665-3.56-6.524-3.579-9.421-1.661a18.777,18.777,0,0,0-4.752,5.205l1.435-.585a3.9,3.9,0,0,1-2.134-3.259,6.844,6.844,0,0,1,1.731-4.887,15.475,15.475,0,0,1,9.225-5.771,5.726,5.726,0,0,1,4.821,1.245,1.288,1.288,0,0,0,1.774-.02q13.108-14.536,26.954-28.38,3.875-3.881,7.762-7.75c.986-.981-.525-2.4-1.519-1.471" transform="translate(-5083.118 6354.507)" fill="#2f2f31"/><path d="M7148.859,919.672a1.256,1.256,0,0,0,.034-2.512,1.256,1.256,0,0,0-.034,2.512" transform="translate(-5371.358 5731.679)" fill="#ffb900"/></g></svg>